<?xml version="1.0" encoding="utf-8"?>
<!-- Generator: Adobe Illustrator 21.1.0, SVG Export Plug-In . SVG Version: 6.00 Build 0)  -->
<svg version="1.1" xmlns="http://www.w3.org/2000/svg" xmlns:xlink="http://www.w3.org/1999/xlink" x="0px" y="0px" width="96px"
	 height="96px" viewBox="0 0 96 96" style="enable-background:new 0 0 96 96;" xml:space="preserve">
<symbol  id="Deleted_Symbol_6" viewBox="0 -32 32 32">
	<rect y="-10" width="32" height="2"/>
	<rect y="-26" width="32" height="2"/>
	<rect y="-18" width="32" height="2"/>
	<rect y="-32" style="fill:none;" width="32" height="32"/>
	<rect y="-32" style="fill:none;" width="32" height="32"/>
</symbol>
<symbol  id="New_Symbol_523" viewBox="-27 -6 54 12">
	<image style="overflow:visible;" width="54" height="12" xlink:href="D33608D4.png"  transform="matrix(1 0 0 -1 -27 6)">
	</image>
</symbol>
<symbol  id="Pencil-02" viewBox="0 -16 16 16">
	<polyline style="fill:none;stroke:#000000;stroke-miterlimit:10;" points="14.9,-4.1 4.7,-14.3 0.7,-15.3 1.7,-11.3 11.9,-1.1 	"/>
	<path style="fill:none;stroke:#000000;stroke-miterlimit:10;" d="M11.9-1.1c0.8,0.8,2.2,0.8,3,0c0.8-0.8,0.8-2.2,0-3"/>
	<path style="fill:none;stroke:#000000;stroke-miterlimit:10;" d="M4.5-14.5c0,1.7-1.3,3-3,3"/>
	<rect y="-16" style="fill:none;" width="16" height="16"/>
	<line style="fill:none;stroke:#000000;stroke-miterlimit:10;" x1="11" y1="-2" x2="14" y2="-5"/>
</symbol>
<symbol  id="Play-01" viewBox="0 -16 16 16">
	<g>
		<path d="M4-2.9L11.3-8L4-13.1V-2.9 M3-1v-14l10,7L3-1L3-1z"/>
	</g>
	<rect y="-16" style="fill:none;" width="16" height="16"/>
</symbol>
<symbol  id="Repairs_x5F_01" viewBox="6 -32 20 32">
	<g>
		<path style="fill:#FFFFFF;" d="M26-16h-4v8.6l2,2V0h-6v-5.4l2-2V-16h-4v-2h2v-11c0-1.7,1.3-3,3-3s3,1.3,3,3v11h2V-16z M20-2h2
			v-2.6l-1-1l-1,1V-2z M22-29c0-0.6-0.4-1-1-1s-1,0.4-1,1v11h2V-29z"/>
		<path style="fill:#FFFFFF;" d="M11,0C8.2,0,6-2.2,6-5c0-1.6,0.8-3,2-4v-20c0-1.7,1.3-3,3-3s3,1.3,3,3v20c1.2,0.9,2,2.4,2,4
			C16-2.2,13.8,0,11,0z M12.5-7.6L12-7.9V-29c0-0.6-0.4-1-1-1s-1,0.4-1,1v21.1L9.5-7.6C8.6-7,8-6.1,8-5c0,1.3,0.8,2.4,2,2.8V-5l1-1
			l1,1v2.8c1.2-0.4,2-1.5,2-2.8C14-6.1,13.4-7,12.5-7.6z"/>
	</g>
</symbol>
<symbol  id="Video_x5F_02" viewBox="0 -16 16 16">
	<rect x="0.5" y="-11.5" style="fill:none;stroke:#101010;stroke-miterlimit:10;" width="11" height="7"/>
	<rect y="-16" style="fill:none;" width="16" height="16"/>
	<polygon style="fill:none;stroke:#101010;stroke-miterlimit:10;" points="11.5,-9.3 15.5,-11.3 15.5,-4.8 11.5,-6.8 	"/>
</symbol>
<symbol  id="W10_x5F_CheckboxIndeterminate_x5F_16" viewBox="-4 -4 8 8">
	<rect x="-4" y="-4" width="8" height="8"/>
</symbol>
<symbol  id="W10_x5F_Checkbox_x5F_16" viewBox="-8 -8 16 16">
	<g>
		<path d="M7,7V-7H-7V7H7 M8,8H-8V-8H8V8L8,8z"/>
	</g>
</symbol>
<symbol  id="W10_x5F_Undo" viewBox="-5.9 -7.9 11.8 15.8">
	<path style="fill:none;stroke:#FFFFFF;stroke-miterlimit:10;" d="M-2.6-7.6L4-1c1.9,1.9,1.9,5,0,6.9L3.9,6C2,7.9-1.1,7.9-3,6
		l-2.5-2.5"/>
</symbol>
<symbol  id="gripper_x5F_16" viewBox="0 -16 16 16">
	<polygon style="fill:none;stroke:#231F20;stroke-miterlimit:10;" points="9.5,-15.5 15.5,-9.5 15.5,-15.5 	"/>
	<rect y="-16" style="fill:none;" width="16" height="16"/>
</symbol>
<symbol  id="smallbox_x5F_32" viewBox="0 -32 32 32">
	<rect x="8" y="-24" width="16" height="16"/>
	<rect y="-32" style="fill:none;" width="32" height="32"/>
</symbol>
<symbol  id="unlock" viewBox="0 -16 16 16">
	<rect x="2.5" y="-15.5" style="fill:none;stroke:#000000;stroke-miterlimit:10;" width="11" height="8"/>
	<rect y="-16" style="fill:none;" width="16" height="16"/>
	<path d="M8,0C5.7,0,4-1.7,4-4h1c0,1.7,1.3,3,3,3s3-1.3,3-3v-3H6v-1h6v4C12-1.7,10.3,0,8,0z"/>
</symbol>
<g id="Layer_1">
	
		<image style="overflow:visible;" width="642" height="358" xlink:href="D33608D5.png"  transform="matrix(2.5995 0 0 2.5995 1153.1318 -944.4774)">
	</image>
	<text transform="matrix(1 0 0 1 670.9998 -2495.1753)" style="fill:#1E1E1E; font-family:'SegoeUI'; font-size:12px;">dgallo@altair.com</text>
	
		<image style="overflow:visible;" width="160" height="173" xlink:href="D33608D4.jpg"  transform="matrix(1.925 0 0 1.925 -493.0002 -1927.1879)">
	</image>
	<rect x="-85.7" y="-1045.2" style="fill:#E1EBF5;" width="283.7" height="133"/>
	<rect x="14.8" y="-503.6" style="fill:#E1EBF5;" width="141.8" height="133"/>
	<rect x="14.8" y="-356.4" style="fill:#E1EBF5;" width="141.8" height="133"/>
	<rect x="442.8" y="-503.6" style="fill:#E1EBF5;" width="141.8" height="133"/>
	<rect x="442.8" y="-356.4" style="fill:#E1EBF5;" width="141.8" height="133"/>
	<rect x="463.3" y="-1038.2" style="fill:#272525;" width="283.7" height="126"/>
	<rect x="-85.7" y="-880.2" style="fill:#E1EBF5;" width="283.7" height="133"/>
	<rect x="463.3" y="-873.2" style="fill:#272525;" width="283.7" height="126"/>
	
		<image style="overflow:visible;" width="171" height="191" xlink:href="D33608DC.jpg"  transform="matrix(1 0 0 1 782.3007 -1013.0441)">
	</image>
	<circle style="fill:#FFFFFF;" cx="1017.6" cy="-896.9" r="47.7"/>
	
		<image style="overflow:visible;" width="423" height="670" xlink:href="D33608DF.jpg"  transform="matrix(1 0 0 1 438.5658 252.6134)">
	</image>
	<rect x="-23.7" y="346.8" style="fill:#E1EBF5;" width="350.4" height="119"/>
</g>
<g id="Get_Started">
	<rect x="-97" y="-2506.2" style="fill:#E1EBF5;" width="530" height="592"/>
	<g>
		<path style="fill:#2E5291;" d="M405-1992.4c0,22-18,40-40,40H-33c-22,0-40-18-40-40v-398c0-22,18-40,40-40h398c22,0,40,18,40,40
			V-1992.4z"/>
	</g>
	<g id="Wrench_tool_x28_s_x29_">
	</g>
	<g id="user2">
	</g>
	<g id="user2_1_">
	</g>
	<g id="user2_4_">
	</g>
	<g id="user2_3_">
	</g>
	<g id="user2_2_">
	</g>
	<g id="Internet_2">
	</g>
	<g id="Enterprise">
	</g>
	<g id="Tunnel__x28_stackable_x29_">
	</g>
	<g id="New_Symbol">
	</g>
	<g id="New_Symbol_1">
	</g>
	<g id="Files">
	</g>
	<g id="BlobBlock">
	</g>
	<g id="E_x5F_Enterprise">
	</g>
	<g id="E_x5F_AD_FS">
	</g>
	<g id="C_x5F_Azure_Active_Directory">
	</g>
	<g id="Layer_22">
	</g>
	
		<image style="overflow:visible;" width="211" height="211" xlink:href="D33608DD.jpg"  transform="matrix(1 0 0 1 -365.5002 -2420.1753)">
	</image>
	<g>
		<g>
			
				<image style="overflow:visible;opacity:0.75;" width="373" height="347" xlink:href="D33608DC.png"  transform="matrix(1 0 0 1 -18.5002 -2336.1753)">
			</image>
			<g>
				<g>
					<path style="fill:#FFFFFF;" d="M166-1997.7c-99.3,0-180-80.7-180-180c0-59.9,29.7-115.7,79.3-149.2c5-3.4,10.8-5.1,16.8-5.1
						c10,0,19.3,4.9,24.9,13.2c4.5,6.6,6.1,14.6,4.6,22.5c-1.5,7.9-6,14.7-12.7,19.2c-33.1,22.4-52.9,59.6-52.9,99.5
						c0,66.2,53.8,120,120,120s120-53.8,120-120c0-39.9-19.8-77.1-52.9-99.5c-6.6-4.5-11.1-11.3-12.7-19.2
						c-1.5-7.9,0.1-15.9,4.6-22.5c5.6-8.3,14.9-13.2,24.9-13.2c6,0,11.8,1.8,16.8,5.1c49.7,33.6,79.3,89.4,79.3,149.2
						C346-2078.5,265.3-1997.7,166-1997.7z"/>
					<path style="fill:#FFFFFF;" d="M166-2007.7c-93.7,0-170-76.3-170-170c0-56.6,28-109.2,74.9-140.9c9.2-6.2,21.6-3.8,27.8,5.4
						c6.2,9.2,3.8,21.6-5.4,27.8C57.5-2261.3,36-2221,36-2177.7c0,71.7,58.3,130,130,130s130-58.3,130-130
						c0-43.3-21.4-83.6-57.3-107.8c-9.2-6.2-11.6-18.6-5.4-27.8c6.2-9.2,18.6-11.6,27.8-5.4c46.9,31.7,74.9,84.4,74.9,141
						C336-2084,259.8-2007.7,166-2007.7z"/>
				</g>
				<g>
					<path style="fill:#FFFFFF;" d="M166-1997.7c-99.3,0-180-80.7-180-180c0-59.9,29.7-115.7,79.3-149.2c5-3.4,10.8-5.1,16.8-5.1
						c10,0,19.3,4.9,24.9,13.2c4.5,6.6,6.1,14.6,4.6,22.5c-1.5,7.9-6,14.7-12.7,19.2c-33.1,22.4-52.9,59.6-52.9,99.5
						c0,66.2,53.8,120,120,120s120-53.8,120-120c0-39.9-19.8-77.1-52.9-99.5c-6.6-4.5-11.1-11.3-12.7-19.2
						c-1.5-7.9,0.1-15.9,4.6-22.5c5.6-8.3,14.9-13.2,24.9-13.2c6,0,11.8,1.8,16.8,5.1c49.7,33.6,79.3,89.4,79.3,149.2
						C346-2078.5,265.3-1997.7,166-1997.7z"/>
					<path style="fill:#2E5291;" d="M166-2007.7c-93.7,0-170-76.3-170-170c0-56.6,28-109.2,74.9-140.9c9.2-6.2,21.6-3.8,27.8,5.4
						c6.2,9.2,3.8,21.6-5.4,27.8C57.5-2261.3,36-2221,36-2177.7c0,71.7,58.3,130,130,130s130-58.3,130-130
						c0-43.3-21.4-83.6-57.3-107.8c-9.2-6.2-11.6-18.6-5.4-27.8c6.2-9.2,18.6-11.6,27.8-5.4c46.9,31.7,74.9,84.4,74.9,141
						C336-2084,259.8-2007.7,166-2007.7z"/>
				</g>
			</g>
		</g>
		<g>
			<g>
				
					<image style="overflow:visible;opacity:0.75;" width="73" height="265" xlink:href="D33608D6.png"  transform="matrix(1 0 0 1 131.4998 -2389.1753)">
				</image>
				<g>
					<g>
						<path style="fill:#FFFFFF;" d="M166-2133c-16.5,0-30-13.5-30-30v-192c0-16.5,13.5-30,30-30s30,13.5,30,30v192
							C196-2146.4,182.6-2133,166-2133z"/>
						<path style="fill:#FFFFFF;" d="M166-2143c-11,0-20-9-20-20v-192c0-11,9-20,20-20s20,9,20,20v192
							C186-2151.9,177.1-2143,166-2143z"/>
					</g>
					<g>
						<path style="fill:#FFFFFF;" d="M166-2133c-16.5,0-30-13.5-30-30v-192c0-16.5,13.5-30,30-30s30,13.5,30,30v192
							C196-2146.4,182.6-2133,166-2133z"/>
						<path style="fill:#2E5291;" d="M166-2143c-11,0-20-9-20-20v-192c0-11,9-20,20-20s20,9,20,20v192
							C186-2151.9,177.1-2143,166-2143z"/>
					</g>
				</g>
			</g>
			<linearGradient id="SVGID_1_" gradientUnits="userSpaceOnUse" x1="166.0354" y1="-2142.9849" x2="166.0354" y2="-2182.9849">
				<stop  offset="0" style="stop-color:#BBDE73"/>
				<stop  offset="7.405663e-02" style="stop-color:#A1C578"/>
				<stop  offset="0.1955" style="stop-color:#7EA280"/>
				<stop  offset="0.3244" style="stop-color:#618586"/>
				<stop  offset="0.4608" style="stop-color:#4A6E8B"/>
				<stop  offset="0.6082" style="stop-color:#3A5E8E"/>
				<stop  offset="0.7745" style="stop-color:#315590"/>
				<stop  offset="1" style="stop-color:#2E5291"/>
			</linearGradient>
			<circle style="fill:url(#SVGID_1_);" cx="166" cy="-2163" r="20"/>
		</g>
	</g>
	<text transform="matrix(1 0 0 1 50.9998 -2464.1753)" style="fill:#1E1E1E; font-family:'SegoeUI'; font-size:48px;">Get Started</text>
	<rect x="-94.7" y="-1856.2" style="fill:#E1EBF5;" width="530" height="592"/>
	<text transform="matrix(1 0 0 1 43.8319 -1814.1754)" style="fill:#1E1E1E; font-family:'SegoeUI'; font-size:48px;">What&apos;s New</text>
	<rect x="516.8" y="-1856.2" style="fill:#E1EBF5;" width="530" height="592"/>
	<text transform="matrix(1 0 0 1 662.9998 -1814.1754)" style="fill:#1E1E1E; font-family:'SegoeUI'; font-size:48px;">Tutorials</text>
	<g>
		
			<line style="fill:none;stroke:#D83B01;stroke-width:40;stroke-miterlimit:10;" x1="-733.7" y1="-1518.2" x2="-733.7" y2="-1278.2"/>
		
			<line style="fill:none;stroke:#D83B01;stroke-width:40;stroke-miterlimit:10;" x1="-613.7" y1="-1398.2" x2="-853.7" y2="-1398.2"/>
	</g>
	<polygon style="fill:#BBDE73;" points="-723,-1646 -710.1,-1629.8 -689.3,-1629.8 -694,-1609.5 -681,-1593.3 -699.7,-1584.3 
		-704.3,-1564.1 -723,-1573.1 -741.7,-1564.1 -746.3,-1584.3 -765,-1593.3 -752.1,-1609.5 -756.7,-1629.8 -736,-1629.8 	"/>
	<g>
		<g>
			<path style="fill:#2E5291;" d="M409.3-1342.4c0,22-18,40-40,40h-398c-22,0-40-18-40-40v-398c0-22,18-40,40-40h398
				c22,0,40,18,40,40V-1342.4z"/>
		</g>
		<g>
			
				<image style="overflow:visible;opacity:0.75;" width="313" height="312" xlink:href="D33608D7.png"  transform="matrix(1 0 0 1 15.4998 -1693.1754)">
			</image>
			<g>
				<path style="fill:#FFFFFF;" d="M170.3-1389.2c-16.5,0-30-13.5-30-30v-90h-90c-16.5,0-30-13.5-30-30s13.5-30,30-30h90v-90
					c0-16.5,13.5-30,30-30s30,13.5,30,30v90h90c16.5,0,30,13.5,30,30s-13.5,30-30,30h-90v90C200.3-1402.6,186.8-1389.2,170.3-1389.2
					z"/>
			</g>
		</g>
		<path style="fill:#2E5291;" d="M290.3-1559.2h-100v-100c0-11-9-20-20-20s-20,9-20,20v100h-100c-11,0-20,9-20,20s9,20,20,20h100
			v100c0,11,9,20,20,20s20-9,20-20v-100h100c11,0,20-9,20-20S301.3-1559.2,290.3-1559.2z"/>
		<g>
			
				<image style="overflow:visible;opacity:0.75;" width="395" height="395" xlink:href="86CF46F3.png"  transform="matrix(1 0 0 1 -24.5002 -1735.1754)">
			</image>
			<g>
				<path style="fill:#FFFFFF;" d="M362.5-1539.2c0,105.3-85.7,191-191,191s-191-85.7-191-191s85.7-191,191-191
					c32.5,0,63,8.1,89.8,22.5h17.9L297-1730l17.8,22.3h28.5l-6.3,27.8l17.8,22.3l-25.7,12.4l-6.3,27.8L297-1630l-25.7,12.4
					l-6.3-27.8l-25.7-12.4l17.8-22.3l-4.8-21.2c-24.3-12.2-51.8-19.1-80.8-19.1c-99.8,0-181,81.2-181,181s81.2,181,181,181
					s181-81.2,181-181c0-34.3-9.6-66.5-26.3-93.9l2.8-12.3l0.9-0.4C350.5-1615.4,362.5-1578.7,362.5-1539.2z"/>
			</g>
		</g>
		<radialGradient id="SVGID_2_" cx="296.9998" cy="-1673.0264" r="41.4768" gradientUnits="userSpaceOnUse">
			<stop  offset="0" style="stop-color:#BBDE73"/>
			<stop  offset="3.057313e-02" style="stop-color:#A9CC77"/>
			<stop  offset="9.760284e-02" style="stop-color:#88AC7E"/>
			<stop  offset="0.1726" style="stop-color:#6C9084"/>
			<stop  offset="0.2563" style="stop-color:#557989"/>
			<stop  offset="0.3525" style="stop-color:#44678C"/>
			<stop  offset="0.4686" style="stop-color:#375B8F"/>
			<stop  offset="0.6255" style="stop-color:#305491"/>
			<stop  offset="1" style="stop-color:#2E5291"/>
		</radialGradient>
		<polygon style="fill:url(#SVGID_2_);" points="297,-1714 309.9,-1697.8 330.7,-1697.8 326.1,-1677.5 339,-1661.3 320.3,-1652.3 
			315.7,-1632.1 297,-1641.1 278.3,-1632.1 273.7,-1652.3 255,-1661.3 267.9,-1677.5 263.3,-1697.8 284.1,-1697.8 		"/>
	</g>
	<g>
		<path style="fill:#2E5291;" d="M87.3-937.1c0,2.9-2.4,5.4-5.4,5.4H28.7c-2.9,0-5.4-2.4-5.4-5.4v-53.3c0-2.9,2.4-5.4,5.4-5.4h53.3
			c2.9,0,5.4,2.4,5.4,5.4V-937.1z"/>
	</g>
	<g>
		
			<image style="overflow:visible;opacity:0.75;" width="44" height="44" xlink:href="86CF46F1.png"  transform="matrix(1 0 0 1 33.6964 -984.9788)">
		</image>
		<g>
			<path style="fill:#FFFFFF;" d="M55.3-943.4c-2.2,0-4-1.8-4-4v-12.1H39.2c-2.2,0-4-1.8-4-4c0-2.2,1.8-4,4-4h12.1v-12.1
				c0-2.2,1.8-4,4-4c2.2,0,4,1.8,4,4v12.1h12.1c2.2,0,4,1.8,4,4c0,2.2-1.8,4-4,4H59.3v12.1C59.3-945.2,57.5-943.4,55.3-943.4z"/>
		</g>
	</g>
	<path style="fill:#2E5291;" d="M71.4-966.2H58v-13.4c0-1.5-1.2-2.7-2.7-2.7c-1.5,0-2.7,1.2-2.7,2.7v13.4H39.2
		c-1.5,0-2.7,1.2-2.7,2.7s1.2,2.7,2.7,2.7h13.4v13.4c0,1.5,1.2,2.7,2.7,2.7c1.5,0,2.7-1.2,2.7-2.7v-13.4h13.4c1.5,0,2.7-1.2,2.7-2.7
		S72.8-966.2,71.4-966.2z"/>
	<g>
		
			<image style="overflow:visible;opacity:0.75;" width="54" height="54" xlink:href="86CF46F7.png"  transform="matrix(1 0 0 1 28.6964 -989.9788)">
		</image>
		<g>
			<path style="fill:#FFFFFF;" d="M81-963.5c0,14.1-11.5,25.6-25.6,25.6s-25.6-11.5-25.6-25.6s11.5-25.6,25.6-25.6
				c4.3,0,8.4,1.1,12,3h2.4l2.4-3l2.4,3h3.8l-0.8,3.7l2.4,3l-3.4,1.7l-0.8,3.7l-3.4-1.7l-3.4,1.7l-0.8-3.7l-3.4-1.7l2.4-3l-0.6-2.8
				c-3.3-1.6-6.9-2.6-10.8-2.6c-13.4,0-24.2,10.9-24.2,24.2s10.9,24.2,24.2,24.2s24.2-10.9,24.2-24.2c0-4.6-1.3-8.9-3.5-12.6
				l0.4-1.6l0.1-0.1C79.4-973.7,81-968.8,81-963.5z"/>
		</g>
	</g>
	<radialGradient id="SVGID_3_" cx="72.2645" cy="-981.4075" r="5.5534" gradientUnits="userSpaceOnUse">
		<stop  offset="0" style="stop-color:#BBDE73"/>
		<stop  offset="3.057313e-02" style="stop-color:#A9CC77"/>
		<stop  offset="9.760284e-02" style="stop-color:#88AC7E"/>
		<stop  offset="0.1726" style="stop-color:#6C9084"/>
		<stop  offset="0.2563" style="stop-color:#557989"/>
		<stop  offset="0.3525" style="stop-color:#44678C"/>
		<stop  offset="0.4686" style="stop-color:#375B8F"/>
		<stop  offset="0.6255" style="stop-color:#305491"/>
		<stop  offset="1" style="stop-color:#2E5291"/>
	</radialGradient>
	<polygon style="fill:url(#SVGID_3_);" points="72.3,-986.9 74,-984.7 76.8,-984.7 76.2,-982 77.9,-979.8 75.4,-978.6 74.8,-975.9 
		72.3,-977.1 69.8,-975.9 69.1,-978.6 66.6,-979.8 68.4,-982 67.8,-984.7 70.5,-984.7 	"/>
	<g>
		<g>
			<path style="fill:#2E5291;" d="M1020.8-1343c0,22-18,40-40,40h-398c-22,0-40-18-40-40v-398c0-22,18-40,40-40h398
				c22,0,40,18,40,40V-1343z"/>
		</g>
		<g>
			<g>
				
					<image style="overflow:visible;opacity:0.75;" width="139" height="188" xlink:href="86CF46F2.png"  transform="matrix(1 0 0 1 645.4998 -1634.1754)">
				</image>
				<g>
					<path style="fill:#FFFFFF;" d="M775.8-1463.6c-41.8-31.4-83.6,31.4-125.4,0c0-52.3,0-104.5,0-156.8
						c41.8,31.4,83.6-31.4,125.4,0C775.8-1568.2,775.8-1515.9,775.8-1463.6z"/>
				</g>
			</g>
			<g>
				
					<image style="overflow:visible;opacity:0.75;" width="138" height="188" xlink:href="86CF46ED.png"  transform="matrix(1 0 0 1 783.4998 -1634.1754)">
				</image>
				<g>
					<path style="fill:#FFFFFF;" d="M913.2-1463.6c-41.8,31.4-83.6-31.4-125.4,0c0-52.3,0-104.5,0-156.8
						c41.8-31.4,83.6,31.4,125.4,0C913.2-1568.2,913.2-1515.9,913.2-1463.6z"/>
				</g>
			</g>
		</g>
		<g>
			
				<image style="overflow:visible;opacity:0.75;" width="394" height="394" xlink:href="86CF46EE.png"  transform="matrix(1 0 0 1 586.4998 -1737.1754)">
			</image>
			<g>
				<path style="fill:#FFFFFF;" d="M781.8-1351.5c-105,0-190.5-85.5-190.5-190.5s85.5-190.5,190.5-190.5s190.5,85.5,190.5,190.5
					S886.8-1351.5,781.8-1351.5z M781.8-1722.5c-99.5,0-180.5,81-180.5,180.5s81,180.5,180.5,180.5s180.5-81,180.5-180.5
					S881.3-1722.5,781.8-1722.5z"/>
			</g>
		</g>
	</g>
	<g>
		<g>
			<path style="fill:#2E5291;" d="M172.8-937.1c0,2.9-2.4,5.4-5.4,5.4h-53.3c-2.9,0-5.4-2.4-5.4-5.4v-53.3c0-2.9,2.4-5.4,5.4-5.4
				h53.3c2.9,0,5.4,2.4,5.4,5.4V-937.1z"/>
		</g>
		<g>
			<g>
				
					<image style="overflow:visible;opacity:0.75;" width="20" height="27" xlink:href="86CF46EF.png"  transform="matrix(1 0 0 1 121.6964 -976.9788)">
				</image>
				<g>
					<path style="fill:#FFFFFF;" d="M140-953.3c-5.6-4.2-11.2,4.2-16.8,0c0-7,0-14,0-21c5.6,4.2,11.2-4.2,16.8,0
						C140-967.3,140-960.3,140-953.3z"/>
				</g>
			</g>
			<g>
				
					<image style="overflow:visible;opacity:0.75;" width="20" height="27" xlink:href="86CF4711.png"  transform="matrix(1 0 0 1 140.6964 -976.9788)">
				</image>
				<g>
					<path style="fill:#FFFFFF;" d="M158.4-953.3c-5.6,4.2-11.2-4.2-16.8,0c0-7,0-14,0-21c5.6-4.2,11.2,4.2,16.8,0
						C158.4-967.3,158.4-960.3,158.4-953.3z"/>
				</g>
			</g>
		</g>
		<g>
			
				<image style="overflow:visible;opacity:0.75;" width="54" height="54" xlink:href="86CF4713.png"  transform="matrix(1 0 0 1 114.6964 -989.9788)">
			</image>
			<g>
				<path style="fill:#FFFFFF;" d="M140.8-938.3c-14.1,0-25.5-11.4-25.5-25.5s11.4-25.5,25.5-25.5s25.5,11.4,25.5,25.5
					S154.8-938.3,140.8-938.3z M140.8-987.9c-13.3,0-24.2,10.8-24.2,24.2c0,13.3,10.8,24.2,24.2,24.2s24.2-10.8,24.2-24.2
					C164.9-977.1,154.1-987.9,140.8-987.9z"/>
			</g>
		</g>
	</g>
	<g>
		<g>
			<path style="fill:#2E5291;" d="M1-937.1c0,2.9-2.4,5.4-5.4,5.4h-53.3c-2.9,0-5.4-2.4-5.4-5.4v-53.3c0-2.9,2.4-5.4,5.4-5.4h53.3
				c2.9,0,5.4,2.4,5.4,5.4V-937.1z"/>
		</g>
		<g>
			<g>
				
					<image style="overflow:visible;opacity:0.75;" width="51" height="48" xlink:href="86CF4716.png"  transform="matrix(1 0 0 1 -56.3036 -983.9788)">
				</image>
				<g>
					<g>
						<path style="fill:#FFFFFF;" d="M-31-937.9c-13.3,0-24.1-10.8-24.1-24.1c0-8,4-15.5,10.6-20c0.7-0.5,1.4-0.7,2.2-0.7
							c1.3,0,2.6,0.7,3.3,1.8c0.6,0.9,0.8,2,0.6,3c-0.2,1.1-0.8,2-1.7,2.6c-4.4,3-7.1,8-7.1,13.3c0,8.9,7.2,16.1,16.1,16.1
							s16.1-7.2,16.1-16.1c0-5.3-2.6-10.3-7.1-13.3c-0.9-0.6-1.5-1.5-1.7-2.6c-0.2-1.1,0-2.1,0.6-3c0.7-1.1,2-1.8,3.3-1.8
							c0.8,0,1.6,0.2,2.2,0.7c6.7,4.5,10.6,12,10.6,20C-6.9-948.7-17.7-937.9-31-937.9z"/>
						<path style="fill:#FFFFFF;" d="M-31-939.2c-12.6,0-22.8-10.2-22.8-22.8c0-7.6,3.8-14.6,10-18.9c1.2-0.8,2.9-0.5,3.7,0.7
							c0.8,1.2,0.5,2.9-0.7,3.7c-4.8,3.2-7.7,8.6-7.7,14.4c0,9.6,7.8,17.4,17.4,17.4s17.4-7.8,17.4-17.4c0-5.8-2.9-11.2-7.7-14.4
							c-1.2-0.8-1.5-2.5-0.7-3.7c0.8-1.2,2.5-1.5,3.7-0.7c6.3,4.2,10,11.3,10,18.9C-8.2-949.4-18.4-939.2-31-939.2z"/>
					</g>
					<g>
						<path style="fill:#FFFFFF;" d="M-31-937.9c-13.3,0-24.1-10.8-24.1-24.1c0-8,4-15.5,10.6-20c0.7-0.5,1.4-0.7,2.2-0.7
							c1.3,0,2.6,0.7,3.3,1.8c0.6,0.9,0.8,2,0.6,3c-0.2,1.1-0.8,2-1.7,2.6c-4.4,3-7.1,8-7.1,13.3c0,8.9,7.2,16.1,16.1,16.1
							s16.1-7.2,16.1-16.1c0-5.3-2.6-10.3-7.1-13.3c-0.9-0.6-1.5-1.5-1.7-2.6c-0.2-1.1,0-2.1,0.6-3c0.7-1.1,2-1.8,3.3-1.8
							c0.8,0,1.6,0.2,2.2,0.7c6.7,4.5,10.6,12,10.6,20C-6.9-948.7-17.7-937.9-31-937.9z"/>
						<path style="fill:#2E5291;" d="M-31-939.2c-12.6,0-22.8-10.2-22.8-22.8c0-7.6,3.8-14.6,10-18.9c1.2-0.8,2.9-0.5,3.7,0.7
							c0.8,1.2,0.5,2.9-0.7,3.7c-4.8,3.2-7.7,8.6-7.7,14.4c0,9.6,7.8,17.4,17.4,17.4s17.4-7.8,17.4-17.4c0-5.8-2.9-11.2-7.7-14.4
							c-1.2-0.8-1.5-2.5-0.7-3.7c0.8-1.2,2.5-1.5,3.7-0.7c6.3,4.2,10,11.3,10,18.9C-8.2-949.4-18.4-939.2-31-939.2z"/>
					</g>
				</g>
			</g>
			<g>
				<g>
					
						<image style="overflow:visible;opacity:0.75;" width="11" height="37" xlink:href="86CF470A.png"  transform="matrix(1 0 0 1 -36.3036 -990.9788)">
					</image>
					<g>
						<g>
							<path style="fill:#FFFFFF;" d="M-31-956c-2.2,0-4-1.8-4-4v-25.7c0-2.2,1.8-4,4-4s4,1.8,4,4v25.7C-26.9-957.8-28.7-956-31-956
								z"/>
							<path style="fill:#FFFFFF;" d="M-31-957.3c-1.5,0-2.7-1.2-2.7-2.7v-25.7c0-1.5,1.2-2.7,2.7-2.7c1.5,0,2.7,1.2,2.7,2.7v25.7
								C-28.3-958.5-29.5-957.3-31-957.3z"/>
						</g>
						<g>
							<path style="fill:#FFFFFF;" d="M-31-956c-2.2,0-4-1.8-4-4v-25.7c0-2.2,1.8-4,4-4s4,1.8,4,4v25.7C-26.9-957.8-28.7-956-31-956
								z"/>
							<path style="fill:#2E5291;" d="M-31-957.3c-1.5,0-2.7-1.2-2.7-2.7v-25.7c0-1.5,1.2-2.7,2.7-2.7c1.5,0,2.7,1.2,2.7,2.7v25.7
								C-28.3-958.5-29.5-957.3-31-957.3z"/>
						</g>
					</g>
				</g>
				<linearGradient id="SVGID_4_" gradientUnits="userSpaceOnUse" x1="-30.9646" y1="-957.3016" x2="-30.9646" y2="-962.6572">
					<stop  offset="0" style="stop-color:#BBDE73"/>
					<stop  offset="7.405663e-02" style="stop-color:#A1C578"/>
					<stop  offset="0.1955" style="stop-color:#7EA280"/>
					<stop  offset="0.3244" style="stop-color:#618586"/>
					<stop  offset="0.4608" style="stop-color:#4A6E8B"/>
					<stop  offset="0.6082" style="stop-color:#3A5E8E"/>
					<stop  offset="0.7745" style="stop-color:#315590"/>
					<stop  offset="1" style="stop-color:#2E5291"/>
				</linearGradient>
				<circle style="fill:url(#SVGID_4_);" cx="-31" cy="-960" r="2.7"/>
			</g>
		</g>
	</g>
	<text transform="matrix(1 0 0 1 -60.9944 -1009.1754)" style="fill:#1E1E1E; font-family:'SegoeUI'; font-size:12px;">Get Started</text>
	<text transform="matrix(1 0 0 1 -83.5048 -723.1754)" style="fill:#1E1E1E; font-family:'SegoeUI'; font-size:12px;">Design Specs: </text>
	<text transform="matrix(1 0 0 1 -71.5048 -704.1754)"><tspan x="0" y="0" style="fill:#1E1E1E; font-family:'SegoeUI'; font-size:12px;">●   Dark blue is Altair corp color</tspan><tspan x="0" y="13.2" style="fill:#1E1E1E; font-family:'SegoeUI'; font-size:12px;">●   Symbol designed in current &apos;flat&apos; look/style</tspan><tspan x="0" y="26.4" style="fill:#1E1E1E; font-family:'SegoeUI'; font-size:12px;">●   Translates well positive/negative</tspan><tspan x="0" y="39.6" style="fill:#1E1E1E; font-family:'SegoeUI'; font-size:12px;">●   2 main colors: blue/white</tspan><tspan x="0" y="52.8" style="fill:#1E1E1E; font-family:'SegoeUI'; font-size:12px;">●   Accent colors may be used for action. Ex: Green = Go, Yellow =caution, etc</tspan><tspan x="0" y="66" style="fill:#1E1E1E; font-family:'SegoeUI'; font-size:12px;">●   All vector based, however some details will reduce as size reduces</tspan><tspan x="0" y="79.2" style="fill:#1E1E1E; font-family:'SegoeUI'; font-size:12px;">●   Star and green dot will be the same in final, only shown as possible examples </tspan><tspan x="0" y="92.4" style="fill:#1E1E1E; font-family:'SegoeUI'; font-size:12px;">      (I&apos;m leaning towards the green dot)</tspan></text>
	<text transform="matrix(1 0 0 1 23.3826 -1009.1754)" style="fill:#1E1E1E; font-family:'SegoeUI'; font-size:12px;">What&apos;s New</text>
	<text transform="matrix(1 0 0 1 116.321 -1009.1754)" style="fill:#1E1E1E; font-family:'SegoeUI'; font-size:12px;">Tutorials</text>
	<g>
		<g>
			<path style="fill:#2E5291;" d="M406.7-950.9c-6.8-5.1-13.7,5.1-20.5,0c0-8.6,0-17.1,0-25.7c6.8,5.1,13.7-5.1,20.5,0
				C406.7-968.1,406.7-959.5,406.7-950.9z"/>
		</g>
		<g>
			<path style="fill:#2E5291;" d="M429.1-950.9c-6.8,5.1-13.7-5.1-20.5,0c0-8.6,0-17.1,0-25.7c6.8-5.1,13.7,5.1,20.5,0
				C429.1-968.1,429.1-959.5,429.1-950.9z"/>
		</g>
	</g>
	<g>
		<path style="fill:#FFFFFF;" d="M236.9-931.8c-16.4,0-29.7-13.3-29.7-29.7c0-9.9,4.9-19.1,13.1-24.7c0.8-0.6,1.8-0.9,2.8-0.9
			c1.7,0,3.2,0.8,4.1,2.2c0.7,1.1,1,2.4,0.8,3.7c-0.3,1.3-1,2.4-2.1,3.2c-5.5,3.7-8.7,9.8-8.7,16.4c0,10.9,8.9,19.8,19.8,19.8
			s19.8-8.9,19.8-19.8c0-6.6-3.3-12.7-8.7-16.4c-1.1-0.7-1.8-1.9-2.1-3.2c-0.3-1.3,0-2.6,0.8-3.7c0.9-1.4,2.5-2.2,4.1-2.2
			c1,0,1.9,0.3,2.8,0.9c8.2,5.5,13.1,14.8,13.1,24.7C266.7-945.1,253.3-931.8,236.9-931.8z"/>
		<path style="fill:#FFFFFF;" d="M236.9-954.1c-2.7,0-5-2.2-5-5v-31.7c0-2.7,2.2-5,5-5c2.7,0,5,2.2,5,5v31.7
			C241.9-956.4,239.7-954.1,236.9-954.1z"/>
		<g>
			<path style="fill:#2E5291;" d="M236.9-933.4c-15.5,0-28.1-12.6-28.1-28.1c0-9.3,4.6-18.1,12.4-23.3c1.5-1,3.6-0.6,4.6,0.9
				c1,1.5,0.6,3.6-0.9,4.6c-5.9,4-9.5,10.7-9.5,17.8c0,11.8,9.6,21.5,21.5,21.5c11.8,0,21.5-9.6,21.5-21.5c0-7.1-3.5-13.8-9.5-17.8
				c-1.5-1-1.9-3.1-0.9-4.6c1-1.5,3.1-1.9,4.6-0.9c7.8,5.2,12.4,13.9,12.4,23.3C265-946,252.4-933.4,236.9-933.4z"/>
			<path style="fill:#2E5291;" d="M236.9-955.8c-1.8,0-3.3-1.5-3.3-3.3v-31.7c0-1.8,1.5-3.3,3.3-3.3c1.8,0,3.3,1.5,3.3,3.3v31.7
				C240.2-957.3,238.7-955.8,236.9-955.8z"/>
		</g>
		<circle style="fill:#BBDE73;" cx="236.9" cy="-959.1" r="3"/>
	</g>
	<text transform="matrix(1 0 0 1 206.9221 -1009.1754)" style="fill:#1E1E1E; font-family:'SegoeUI'; font-size:12px;">Get Started</text>
	<text transform="matrix(1 0 0 1 291.2813 -1009.1754)" style="fill:#1E1E1E; font-family:'SegoeUI'; font-size:12px;">What&apos;s New</text>
	<text transform="matrix(1 0 0 1 384.9514 -1009.1754)" style="fill:#1E1E1E; font-family:'SegoeUI'; font-size:12px;">Tutorials</text>
	<circle style="fill:none;stroke:#2E5291;stroke-width:4;stroke-miterlimit:10;" cx="407.6" cy="-963.8" r="32"/>
	<path style="fill:#2E5291;" d="M323.2-943.4c-2.2,0-4-1.8-4-4v-12.1h-12.1c-2.2,0-4-1.8-4-4c0-2.2,1.8-4,4-4h12.1v-12.1
		c0-2.2,1.8-4,4-4c2.2,0,4,1.8,4,4v12.1h12.1c2.2,0,4,1.8,4,4c0,2.2-1.8,4-4,4h-12.1v12.1C327.2-945.2,325.4-943.4,323.2-943.4z"/>
	<path style="fill:#2E5291;" d="M339.5-966.2h-13.4v-13.4c0-1.5-1.2-2.7-2.7-2.7c-1.5,0-2.7,1.2-2.7,2.7v13.4h-13.4
		c-1.5,0-2.7,1.2-2.7,2.7s1.2,2.7,2.7,2.7h13.4v13.4c0,1.5,1.2,2.7,2.7,2.7c1.5,0,2.7-1.2,2.7-2.7v-13.4h13.4c1.5,0,2.7-1.2,2.7-2.7
		S341-966.2,339.5-966.2z"/>
	<circle style="fill:none;stroke:#2E5291;stroke-width:4;stroke-miterlimit:10;" cx="323.4" cy="-963.8" r="32"/>
	<path style="fill:#FFFFFF;" d="M345.8-975.9c-6,0-10.8-4.8-10.8-10.8s4.8-10.8,10.8-10.8s10.8,4.8,10.8,10.8
		S351.7-975.9,345.8-975.9z"/>
	<circle style="fill:#BBDE73;" cx="345.8" cy="-986.7" r="5.8"/>
	<g>
		<g>
			<path style="fill:#2E5291;" d="M666.1-632.9c-6.8-5.1-13.7,5.1-20.5,0c0-8.6,0-17.1,0-25.7c6.8,5.1,13.7-5.1,20.5,0
				C666.1-650,666.1-641.5,666.1-632.9z"/>
		</g>
		<g>
			<path style="fill:#2E5291;" d="M688.6-632.9c-6.8,5.1-13.7-5.1-20.5,0c0-8.6,0-17.1,0-25.7c6.8-5.1,13.7,5.1,20.5,0
				C688.6-650,688.6-641.5,688.6-632.9z"/>
		</g>
	</g>
	<g>
		<path style="fill:#FFFFFF;" d="M496.4-613.8c-16.4,0-29.7-13.3-29.7-29.7c0-9.9,4.9-19.1,13.1-24.7c0.8-0.6,1.8-0.9,2.8-0.9
			c1.7,0,3.2,0.8,4.1,2.2c0.7,1.1,1,2.4,0.8,3.7c-0.3,1.3-1,2.4-2.1,3.2c-5.5,3.7-8.7,9.8-8.7,16.4c0,10.9,8.9,19.8,19.8,19.8
			c10.9,0,19.8-8.9,19.8-19.8c0-6.6-3.3-12.7-8.7-16.4c-1.1-0.7-1.8-1.9-2.1-3.2c-0.3-1.3,0-2.6,0.8-3.7c0.9-1.4,2.5-2.2,4.1-2.2
			c1,0,1.9,0.3,2.8,0.9c8.2,5.5,13.1,14.8,13.1,24.7C526.1-627.1,512.8-613.8,496.4-613.8z"/>
		<path style="fill:#FFFFFF;" d="M496.4-636.1c-2.7,0-5-2.2-5-5v-31.7c0-2.7,2.2-5,5-5s5,2.2,5,5v31.7
			C501.3-638.3,499.1-636.1,496.4-636.1z"/>
		<g>
			<path style="fill:#2E5291;" d="M496.4-615.4c-15.5,0-28.1-12.6-28.1-28.1c0-9.3,4.6-18.1,12.4-23.3c1.5-1,3.6-0.6,4.6,0.9
				c1,1.5,0.6,3.6-0.9,4.6c-5.9,4-9.5,10.7-9.5,17.8c0,11.8,9.6,21.5,21.5,21.5c11.8,0,21.5-9.6,21.5-21.5c0-7.1-3.5-13.8-9.5-17.8
				c-1.5-1-1.9-3.1-0.9-4.6c1-1.5,3.1-1.9,4.6-0.9c7.8,5.2,12.4,13.9,12.4,23.3C524.5-628,511.9-615.4,496.4-615.4z"/>
			<path style="fill:#2E5291;" d="M496.4-637.8c-1.8,0-3.3-1.5-3.3-3.3v-31.7c0-1.8,1.5-3.3,3.3-3.3s3.3,1.5,3.3,3.3v31.7
				C499.7-639.2,498.2-637.8,496.4-637.8z"/>
		</g>
		<circle style="fill:#BBDE73;" cx="496.4" cy="-641.1" r="3"/>
	</g>
	<text transform="matrix(1 0 0 1 466.3698 -691.1556)" style="fill:#1E1E1E; font-family:'SegoeUI'; font-size:12px;">Get Started</text>
	<text transform="matrix(1 0 0 1 550.729 -691.1556)" style="fill:#1E1E1E; font-family:'SegoeUI'; font-size:12px;">What&apos;s New</text>
	<text transform="matrix(1 0 0 1 -93.1709 -535.0684)" style="fill:#1E1E1E; font-family:'SegoeUI-Bold'; font-size:14px;">What&apos;s New  96 x 96</text>
	<text transform="matrix(1 0 0 1 438.5658 -535.0684)" style="fill:#1E1E1E; font-family:'SegoeUI-Bold'; font-size:14px;">Get Started  96 x 96</text>
	<text transform="matrix(1 0 0 1 644.399 -691.1556)" style="fill:#1E1E1E; font-family:'SegoeUI'; font-size:12px;">Tutorials</text>
	<circle style="fill:none;stroke:#2E5291;stroke-width:4;stroke-miterlimit:10;" cx="667.1" cy="-645.8" r="32"/>
	<path style="fill:#2E5291;" d="M579.8-627.7c-2.2,0-4-1.8-4-4v-12.1h-12.1c-2.2,0-4-1.8-4-4s1.8-4,4-4h12.1v-12.1c0-2.2,1.8-4,4-4
		c2.2,0,4,1.8,4,4v12.1h12.1c2.2,0,4,1.8,4,4s-1.8,4-4,4h-12.1v12.1C583.8-629.5,582-627.7,579.8-627.7z"/>
	<path style="fill:#2E5291;" d="M596.1-650.5h-13.4v-13.4c0-1.5-1.2-2.7-2.7-2.7s-2.7,1.2-2.7,2.7v13.4H564c-1.5,0-2.7,1.2-2.7,2.7
		s1.2,2.7,2.7,2.7h13.4v13.4c0,1.5,1.2,2.7,2.7,2.7s2.7-1.2,2.7-2.7v-13.4h13.4c1.5,0,2.7-1.2,2.7-2.7S597.6-650.5,596.1-650.5z"/>
	<circle style="fill:none;stroke:#2E5291;stroke-width:4;stroke-miterlimit:10;" cx="580" cy="-648.1" r="32"/>
	<g>
		<path style="fill:#2E5291;" d="M213.6-493c21.5,0,39,17.5,39,39s-17.5,39-39,39s-39-17.5-39-39S192.1-493,213.6-493 M213.6-498
			c-24.3,0-44,19.7-44,44s19.7,44,44,44s44-19.7,44-44S237.9-498,213.6-498L213.6-498z"/>
	</g>
	<path style="fill:#FFFFFF;" d="M514.6-382.1c-25.9,0-47-21.1-47-47c0-17.4,9.6-33.4,25-41.5c1.2-0.6,2.4-0.9,3.7-0.9
		c3,0,5.7,1.6,7.1,4.3c2.1,3.9,0.6,8.8-3.3,10.8c-10.2,5.4-16.5,15.9-16.5,27.4c0,17.1,13.9,31,31,31s31-13.9,31-31
		c0-11.5-6.3-22-16.5-27.4c-3.9-2.1-5.4-6.9-3.3-10.8c1.4-2.6,4.1-4.3,7.1-4.3c1.3,0,2.6,0.3,3.7,0.9c15.4,8.2,25,24.1,25,41.6
		C561.6-403.2,540.5-382.1,514.6-382.1z"/>
	<path style="fill:#2E5291;" d="M514.6-386.1c-23.7,0-43-19.3-43-43c0-16,8.8-30.5,22.9-38c2-1,4.4-0.3,5.4,1.7c1,2,0.3,4.4-1.7,5.4
		c-11.5,6.1-18.6,18-18.6,30.9c0,19.3,15.7,35,35,35s35-15.7,35-35c0-13-7.1-24.9-18.7-31c-2-1-2.7-3.5-1.7-5.4c1-2,3.5-2.7,5.4-1.7
		c14.1,7.5,22.9,22.1,22.9,38C557.6-405.4,538.3-386.1,514.6-386.1z"/>
	<path style="fill:#BBDE73;" d="M213.6-292.6c-26.5,0-48-21.5-48-48s21.5-48,48-48s48,21.5,48,48S240-292.6,213.6-292.6z
		 M213.6-375.6c-19.3,0-35,15.7-35,35s15.7,35,35,35s35-15.7,35-35S232.9-375.6,213.6-375.6z"/>
	<path style="fill:#2E5291;" d="M213.6-379.6c21.5,0,39,17.5,39,39s-17.5,39-39,39s-39-17.5-39-39S192.1-379.6,213.6-379.6
		 M213.6-384.6c-24.3,0-44,19.7-44,44s19.7,44,44,44s44-19.7,44-44S237.9-384.6,213.6-384.6L213.6-384.6z"/>
	<path style="fill:#FFFFFF;" d="M602.4-660.2c-6,0-10.8-4.8-10.8-10.8s4.8-10.8,10.8-10.8s10.8,4.8,10.8,10.8
		S608.3-660.2,602.4-660.2z"/>
	<circle style="fill:#BBDE73;" cx="602.4" cy="-671" r="5.8"/>
	<g>
		<g>
			<path style="fill:#FFFFFF;" d="M689.9-950.9c-6.8-5.1-13.7,5.1-20.5,0c0-8.6,0-17.1,0-25.7c6.8,5.1,13.7-5.1,20.5,0
				C689.9-968.1,689.9-959.5,689.9-950.9z"/>
		</g>
		<g>
			<path style="fill:#FFFFFF;" d="M712.3-950.9c-6.8,5.1-13.7-5.1-20.5,0c0-8.6,0-17.1,0-25.7c6.8-5.1,13.7,5.1,20.5,0
				C712.3-968.1,712.3-959.5,712.3-950.9z"/>
		</g>
	</g>
	<g>
		<path style="fill:#272525;" d="M520.1-931.8c-16.4,0-29.7-13.3-29.7-29.7c0-9.9,4.9-19.1,13.1-24.7c0.8-0.6,1.8-0.9,2.8-0.9
			c1.7,0,3.2,0.8,4.1,2.2c0.7,1.1,1,2.4,0.8,3.7c-0.3,1.3-1,2.4-2.1,3.2c-5.5,3.7-8.7,9.8-8.7,16.4c0,10.9,8.9,19.8,19.8,19.8
			c10.9,0,19.8-8.9,19.8-19.8c0-6.6-3.3-12.7-8.7-16.4c-1.1-0.7-1.8-1.9-2.1-3.2c-0.3-1.3,0-2.6,0.8-3.7c0.9-1.4,2.5-2.2,4.1-2.2
			c1,0,1.9,0.3,2.8,0.9c8.2,5.5,13.1,14.8,13.1,24.7C549.9-945.1,536.5-931.8,520.1-931.8z"/>
		<path style="fill:#272525;" d="M520.1-954.1c-2.7,0-5-2.2-5-5v-31.7c0-2.7,2.2-5,5-5c2.7,0,5,2.2,5,5v31.7
			C525.1-956.4,522.8-954.1,520.1-954.1z"/>
		<g>
			<path style="fill:#FFFFFF;" d="M520.1-933.4c-15.5,0-28.1-12.6-28.1-28.1c0-9.3,4.6-18.1,12.4-23.3c1.5-1,3.6-0.6,4.6,0.9
				c1,1.5,0.6,3.6-0.9,4.6c-5.9,4-9.5,10.7-9.5,17.8c0,11.8,9.6,21.5,21.5,21.5c11.8,0,21.5-9.6,21.5-21.5c0-7.1-3.5-13.8-9.5-17.8
				c-1.5-1-1.9-3.1-0.9-4.6c1-1.5,3.1-1.9,4.6-0.9c7.8,5.2,12.4,13.9,12.4,23.3C548.2-946,535.6-933.4,520.1-933.4z"/>
			<path style="fill:#FFFFFF;" d="M520.1-955.8c-1.8,0-3.3-1.5-3.3-3.3v-31.7c0-1.8,1.5-3.3,3.3-3.3c1.8,0,3.3,1.5,3.3,3.3v31.7
				C523.4-957.3,521.9-955.8,520.1-955.8z"/>
		</g>
		<circle style="fill:#BBDE73;" cx="520.1" cy="-959.1" r="3.5"/>
	</g>
	<g>
		<path style="fill:#272525;" d="M520.1-764.6c-16.4,0-29.7-13.3-29.7-29.7c0-9.9,4.9-19.1,13.1-24.7c0.8-0.6,1.8-0.9,2.8-0.9
			c1.7,0,3.2,0.8,4.1,2.2c0.7,1.1,1,2.4,0.8,3.7c-0.3,1.3-1,2.4-2.1,3.2c-5.5,3.7-8.7,9.8-8.7,16.4c0,10.9,8.9,19.8,19.8,19.8
			c10.9,0,19.8-8.9,19.8-19.8c0-6.6-3.3-12.7-8.7-16.4c-1.1-0.7-1.8-1.9-2.1-3.2c-0.3-1.3,0-2.6,0.8-3.7c0.9-1.4,2.5-2.2,4.1-2.2
			c1,0,1.9,0.3,2.8,0.9c8.2,5.5,13.1,14.8,13.1,24.7C549.9-778,536.5-764.6,520.1-764.6z"/>
		<path style="fill:#272525;" d="M520.1-787c-2.7,0-5-2.2-5-5v-31.7c0-2.7,2.2-5,5-5c2.7,0,5,2.2,5,5v31.7
			C525.1-789.2,522.8-787,520.1-787z"/>
		<g>
			<path style="fill:#FFFFFF;" d="M520.1-766.3c-15.5,0-28.1-12.6-28.1-28.1c0-9.3,4.6-18.1,12.4-23.3c1.5-1,3.6-0.6,4.6,0.9
				c1,1.5,0.6,3.6-0.9,4.6c-5.9,4-9.5,10.7-9.5,17.8c0,11.8,9.6,21.5,21.5,21.5c11.8,0,21.5-9.6,21.5-21.5c0-7.1-3.5-13.8-9.5-17.8
				c-1.5-1-1.9-3.1-0.9-4.6c1-1.5,3.1-1.9,4.6-0.9c7.8,5.2,12.4,13.9,12.4,23.3C548.2-778.9,535.6-766.3,520.1-766.3z"/>
			<path style="fill:#FFFFFF;" d="M520.1-788.7c-1.8,0-3.3-1.5-3.3-3.3v-31.7c0-1.8,1.5-3.3,3.3-3.3c1.8,0,3.3,1.5,3.3,3.3v31.7
				C523.4-790.1,521.9-788.7,520.1-788.7z"/>
		</g>
		<circle style="fill:#BBDE73;" cx="520.1" cy="-792" r="3.5"/>
	</g>
	<text transform="matrix(1 0 0 1 490.1208 -1009.1754)" style="fill:#FFFFFF; font-family:'SegoeUI'; font-size:12px;">Get Started</text>
	<text transform="matrix(1 0 0 1 574.48 -1009.1754)" style="fill:#FFFFFF; font-family:'SegoeUI'; font-size:12px;">What&apos;s New</text>
	<text transform="matrix(1 0 0 1 668.1501 -1009.1754)" style="fill:#FFFFFF; font-family:'SegoeUI'; font-size:12px;">Tutorials</text>
	<circle style="fill:none;stroke:#FFFFFF;stroke-width:4;stroke-miterlimit:10;" cx="690.8" cy="-963.8" r="32"/>
	<path style="fill:#FFFFFF;" d="M606.4-943.4c-2.2,0-4-1.8-4-4v-12.1h-12.1c-2.2,0-4-1.8-4-4c0-2.2,1.8-4,4-4h12.1v-12.1
		c0-2.2,1.8-4,4-4c2.2,0,4,1.8,4,4v12.1h12.1c2.2,0,4,1.8,4,4c0,2.2-1.8,4-4,4h-12.1v12.1C610.4-945.2,608.6-943.4,606.4-943.4z"/>
	<path style="fill:#FFFFFF;" d="M622.7-966.2h-13.4v-13.4c0-1.5-1.2-2.7-2.7-2.7s-2.7,1.2-2.7,2.7v13.4h-13.4
		c-1.5,0-2.7,1.2-2.7,2.7s1.2,2.7,2.7,2.7H604v13.4c0,1.5,1.2,2.7,2.7,2.7s2.7-1.2,2.7-2.7v-13.4h13.4c1.5,0,2.7-1.2,2.7-2.7
		S624.2-966.2,622.7-966.2z"/>
	<circle style="fill:none;stroke:#FFFFFF;stroke-width:4;stroke-miterlimit:10;" cx="606.6" cy="-963.8" r="32"/>
	<path style="fill:#FFFFFF;" d="M629-977.7c-5,0-9-4-9-9c0-5,4-9,9-9c5,0,9,4,9,9C638-981.8,633.9-977.7,629-977.7z"/>
	<circle style="fill:#BBDE73;" cx="629" cy="-986.7" r="5.8"/>
	<g>
		<path style="fill:#2E5291;" d="M87.2-771.8c0,2.9-2.4,5.4-5.4,5.4H28.5c-2.9,0-5.4-2.4-5.4-5.4v-53.3c0-2.9,2.4-5.4,5.4-5.4h53.3
			c2.9,0,5.4,2.4,5.4,5.4V-771.8z"/>
	</g>
	<g>
		<path style="fill:none;stroke:#2E5291;stroke-width:4;stroke-miterlimit:10;" d="M355.5-771.5c0,2.9-2.4,5.4-5.4,5.4h-53.3
			c-2.9,0-5.4-2.4-5.4-5.4v-53.3c0-2.9,2.4-5.4,5.4-5.4h53.3c2.9,0,5.4,2.4,5.4,5.4V-771.5z"/>
	</g>
	<g>
		<path style="fill:none;stroke:#FFFFFF;stroke-width:2;stroke-miterlimit:10;" d="M82.2-776c0,2.5-2,4.5-4.5,4.5h-45
			c-2.5,0-4.5-2-4.5-4.5v-45c0-2.5,2-4.5,4.5-4.5h45c2.5,0,4.5,2,4.5,4.5V-776z"/>
	</g>
	<g>
		<path style="fill:none;stroke:#FFFFFF;stroke-width:2;stroke-miterlimit:10;" d="M167.4-776c0,2.5-2,4.5-4.5,4.5h-45
			c-2.5,0-4.5-2-4.5-4.5v-45c0-2.5,2-4.5,4.5-4.5h45c2.5,0,4.5,2,4.5,4.5V-776z"/>
	</g>
	<g>
		<path style="fill:none;stroke:#2E5291;stroke-width:4;stroke-miterlimit:10;" d="M438.6-771.5c0,2.9-2.4,5.4-5.4,5.4h-53.3
			c-2.9,0-5.4-2.4-5.4-5.4v-53.3c0-2.9,2.4-5.4,5.4-5.4h53.3c2.9,0,5.4,2.4,5.4,5.4V-771.5z"/>
	</g>
	<g>
		
			<image style="overflow:visible;opacity:0.75;" width="44" height="44" xlink:href="86CF4709.png"  transform="matrix(1 0 0 1 33.6964 -819.9788)">
		</image>
		<g>
			<path style="fill:#FFFFFF;" d="M55.2-778.4c-2.2,0-4-1.8-4-4v-12.1H39.1c-2.2,0-4-1.8-4-4c0-2.2,1.8-4,4-4h12.1v-12.1
				c0-2.2,1.8-4,4-4c2.2,0,4,1.8,4,4v12.1h12.1c2.2,0,4,1.8,4,4c0,2.2-1.8,4-4,4H59.2v12.1C59.2-780.2,57.4-778.4,55.2-778.4z"/>
		</g>
	</g>
	<path style="fill:#2E5291;" d="M71.2-801.2H57.8v-13.4c0-1.5-1.2-2.7-2.7-2.7c-1.5,0-2.7,1.2-2.7,2.7v13.4H39.1
		c-1.5,0-2.7,1.2-2.7,2.7s1.2,2.7,2.7,2.7h13.4v13.4c0,1.5,1.2,2.7,2.7,2.7c1.5,0,2.7-1.2,2.7-2.7v-13.4h13.4c1.5,0,2.7-1.2,2.7-2.7
		S72.7-801.2,71.2-801.2z"/>
	<g>
		<g>
			
				<image style="overflow:visible;opacity:0.75;" width="18" height="18" xlink:href="86CF4736.png"  transform="matrix(1 0 0 1 69.1959 -829.7384)">
			</image>
			<g>
				<path style="fill:#FFFFFF;" d="M81.7-816.2l0.4-1.6l0.1-0.1 M73-826.2h2.4l2.4-3l2.4,3H84l-0.8,3.7l2.4,3l-3.4,1.7l-0.8,3.7
					l-3.4-1.7l-3.4,1.7l-0.8-3.7l-3.4-1.7l2.4-3l-0.6-2.8"/>
			</g>
		</g>
		<radialGradient id="SVGID_5_" cx="77.764" cy="-821.6615" r="5.5534" gradientUnits="userSpaceOnUse">
			<stop  offset="0" style="stop-color:#BBDE73"/>
			<stop  offset="3.057313e-02" style="stop-color:#A9CC77"/>
			<stop  offset="9.760284e-02" style="stop-color:#88AC7E"/>
			<stop  offset="0.1726" style="stop-color:#6C9084"/>
			<stop  offset="0.2563" style="stop-color:#557989"/>
			<stop  offset="0.3525" style="stop-color:#44678C"/>
			<stop  offset="0.4686" style="stop-color:#375B8F"/>
			<stop  offset="0.6255" style="stop-color:#305491"/>
			<stop  offset="1" style="stop-color:#2E5291"/>
		</radialGradient>
		<polygon style="fill:url(#SVGID_5_);" points="77.8,-827.1 79.5,-825 82.3,-825 81.7,-822.3 83.4,-820.1 80.9,-818.9 80.3,-816.2 
			77.8,-817.4 75.3,-816.2 74.6,-818.9 72.1,-820.1 73.9,-822.3 73.3,-825 76,-825 		"/>
	</g>
	<g>
		<path style="fill:#2E5291;" d="M172.4-772.1c0,2.9-2.4,5.4-5.4,5.4h-53.3c-2.9,0-5.4-2.4-5.4-5.4v-53.3c0-2.9,2.4-5.4,5.4-5.4H167
			c2.9,0,5.4,2.4,5.4,5.4V-772.1z"/>
	</g>
	<g>
		<g>
			
				<image style="overflow:visible;opacity:0.75;" width="20" height="27" xlink:href="86CF4739.png"  transform="matrix(1 0 0 1 121.6964 -811.9788)">
			</image>
			<g>
				<path style="fill:#FFFFFF;" d="M139.6-788.3c-5.6-4.2-11.2,4.2-16.8,0c0-7,0-14,0-21c5.6,4.2,11.2-4.2,16.8,0
					C139.6-802.3,139.6-795.3,139.6-788.3z"/>
			</g>
		</g>
		<g>
			
				<image style="overflow:visible;opacity:0.75;" width="20" height="27" xlink:href="86CF473A.png"  transform="matrix(1 0 0 1 139.6964 -811.9788)">
			</image>
			<g>
				<path style="fill:#FFFFFF;" d="M158-788.3c-5.6,4.2-11.2-4.2-16.8,0c0-7,0-14,0-21c5.6-4.2,11.2,4.2,16.8,0
					C158-802.3,158-795.3,158-788.3z"/>
			</g>
		</g>
	</g>
	<g>
		<g>
			<path style="fill:#2E5291;" d="M1-772.1c0,2.9-2.4,5.4-5.4,5.4h-53.3c-2.9,0-5.4-2.4-5.4-5.4v-53.3c0-2.9,2.4-5.4,5.4-5.4h53.3
				c2.9,0,5.4,2.4,5.4,5.4V-772.1z"/>
		</g>
		<g>
			<g>
				
					<image style="overflow:visible;opacity:0.75;" width="51" height="48" xlink:href="86CF4738.png"  transform="matrix(1 0 0 1 -56.3036 -818.9788)">
				</image>
				<g>
					<g>
						<path style="fill:#FFFFFF;" d="M-31-772.9c-13.3,0-24.1-10.8-24.1-24.1c0-8,4-15.5,10.6-20c0.7-0.5,1.4-0.7,2.2-0.7
							c1.3,0,2.6,0.7,3.3,1.8c0.6,0.9,0.8,2,0.6,3c-0.2,1.1-0.8,2-1.7,2.6c-4.4,3-7.1,8-7.1,13.3c0,8.9,7.2,16.1,16.1,16.1
							s16.1-7.2,16.1-16.1c0-5.3-2.6-10.3-7.1-13.3c-0.9-0.6-1.5-1.5-1.7-2.6c-0.2-1.1,0-2.1,0.6-3c0.7-1.1,2-1.8,3.3-1.8
							c0.8,0,1.6,0.2,2.2,0.7c6.7,4.5,10.6,12,10.6,20C-6.9-783.7-17.7-772.9-31-772.9z"/>
						<path style="fill:#FFFFFF;" d="M-31-774.2c-12.6,0-22.8-10.2-22.8-22.8c0-7.6,3.8-14.6,10-18.9c1.2-0.8,2.9-0.5,3.7,0.7
							c0.8,1.2,0.5,2.9-0.7,3.7c-4.8,3.2-7.7,8.6-7.7,14.4c0,9.6,7.8,17.4,17.4,17.4s17.4-7.8,17.4-17.4c0-5.8-2.9-11.2-7.7-14.4
							c-1.2-0.8-1.5-2.5-0.7-3.7c0.8-1.2,2.5-1.5,3.7-0.7c6.3,4.2,10,11.3,10,18.9C-8.2-784.4-18.4-774.2-31-774.2z"/>
					</g>
					<g>
						<path style="fill:#FFFFFF;" d="M-31-772.9c-13.3,0-24.1-10.8-24.1-24.1c0-8,4-15.5,10.6-20c0.7-0.5,1.4-0.7,2.2-0.7
							c1.3,0,2.6,0.7,3.3,1.8c0.6,0.9,0.8,2,0.6,3c-0.2,1.1-0.8,2-1.7,2.6c-4.4,3-7.1,8-7.1,13.3c0,8.9,7.2,16.1,16.1,16.1
							s16.1-7.2,16.1-16.1c0-5.3-2.6-10.3-7.1-13.3c-0.9-0.6-1.5-1.5-1.7-2.6c-0.2-1.1,0-2.1,0.6-3c0.7-1.1,2-1.8,3.3-1.8
							c0.8,0,1.6,0.2,2.2,0.7c6.7,4.5,10.6,12,10.6,20C-6.9-783.7-17.7-772.9-31-772.9z"/>
						<path style="fill:#2E5291;" d="M-31-774.2c-12.6,0-22.8-10.2-22.8-22.8c0-7.6,3.8-14.6,10-18.9c1.2-0.8,2.9-0.5,3.7,0.7
							c0.8,1.2,0.5,2.9-0.7,3.7c-4.8,3.2-7.7,8.6-7.7,14.4c0,9.6,7.8,17.4,17.4,17.4s17.4-7.8,17.4-17.4c0-5.8-2.9-11.2-7.7-14.4
							c-1.2-0.8-1.5-2.5-0.7-3.7c0.8-1.2,2.5-1.5,3.7-0.7c6.3,4.2,10,11.3,10,18.9C-8.2-784.4-18.4-774.2-31-774.2z"/>
					</g>
				</g>
			</g>
			<g>
				<g>
					
						<image style="overflow:visible;opacity:0.75;" width="11" height="37" xlink:href="86CF473E.png"  transform="matrix(1 0 0 1 -36.3036 -825.9788)">
					</image>
					<g>
						<g>
							<path style="fill:#FFFFFF;" d="M-31-791c-2.2,0-4-1.8-4-4v-25.7c0-2.2,1.8-4,4-4s4,1.8,4,4v25.7C-26.9-792.8-28.7-791-31-791
								z"/>
							<path style="fill:#FFFFFF;" d="M-31-792.3c-1.5,0-2.7-1.2-2.7-2.7v-25.7c0-1.5,1.2-2.7,2.7-2.7c1.5,0,2.7,1.2,2.7,2.7v25.7
								C-28.3-793.5-29.5-792.3-31-792.3z"/>
						</g>
						<g>
							<path style="fill:#FFFFFF;" d="M-31-791c-2.2,0-4-1.8-4-4v-25.7c0-2.2,1.8-4,4-4s4,1.8,4,4v25.7C-26.9-792.8-28.7-791-31-791
								z"/>
							<path style="fill:#2E5291;" d="M-31-792.3c-1.5,0-2.7-1.2-2.7-2.7v-25.7c0-1.5,1.2-2.7,2.7-2.7c1.5,0,2.7,1.2,2.7,2.7v25.7
								C-28.3-793.5-29.5-792.3-31-792.3z"/>
						</g>
					</g>
				</g>
				<linearGradient id="SVGID_6_" gradientUnits="userSpaceOnUse" x1="-30.9646" y1="-792.3016" x2="-30.9646" y2="-797.6572">
					<stop  offset="0" style="stop-color:#BBDE73"/>
					<stop  offset="7.405663e-02" style="stop-color:#A1C578"/>
					<stop  offset="0.1955" style="stop-color:#7EA280"/>
					<stop  offset="0.3244" style="stop-color:#618586"/>
					<stop  offset="0.4608" style="stop-color:#4A6E8B"/>
					<stop  offset="0.6082" style="stop-color:#3A5E8E"/>
					<stop  offset="0.7745" style="stop-color:#315590"/>
					<stop  offset="1" style="stop-color:#2E5291"/>
				</linearGradient>
				<circle style="fill:url(#SVGID_6_);" cx="-31" cy="-795" r="2.7"/>
			</g>
		</g>
	</g>
	<text transform="matrix(1 0 0 1 -60.9944 -844.1754)" style="fill:#1E1E1E; font-family:'SegoeUI'; font-size:12px;">Get Started</text>
	<text transform="matrix(1 0 0 1 23.3826 -844.1754)" style="fill:#1E1E1E; font-family:'SegoeUI'; font-size:12px;">What&apos;s New</text>
	<text transform="matrix(1 0 0 1 117.705 -844.1754)" style="fill:#1E1E1E; font-family:'SegoeUI'; font-size:12px;">Tutorials</text>
	<g>
		<g>
			<path style="fill:#2E5291;" d="M406.7-785.9c-6.8-5.1-13.7,5.1-20.5,0c0-8.6,0-17.1,0-25.7c6.8,5.1,13.7-5.1,20.5,0
				C406.7-803.1,406.7-794.5,406.7-785.9z"/>
		</g>
		<g>
			<path style="fill:#2E5291;" d="M429.1-785.9c-6.8,5.1-13.7-5.1-20.5,0c0-8.6,0-17.1,0-25.7c6.8-5.1,13.7,5.1,20.5,0
				C429.1-803.1,429.1-794.5,429.1-785.9z"/>
		</g>
	</g>
	<g>
		<path style="fill:#FFFFFF;" d="M236.9-766.8c-16.4,0-29.7-13.3-29.7-29.7c0-9.9,4.9-19.1,13.1-24.7c0.8-0.6,1.8-0.9,2.8-0.9
			c1.7,0,3.2,0.8,4.1,2.2c0.7,1.1,1,2.4,0.8,3.7c-0.3,1.3-1,2.4-2.1,3.2c-5.5,3.7-8.7,9.8-8.7,16.4c0,10.9,8.9,19.8,19.8,19.8
			s19.8-8.9,19.8-19.8c0-6.6-3.3-12.7-8.7-16.4c-1.1-0.7-1.8-1.9-2.1-3.2c-0.3-1.3,0-2.6,0.8-3.7c0.9-1.4,2.5-2.2,4.1-2.2
			c1,0,1.9,0.3,2.8,0.9c8.2,5.5,13.1,14.8,13.1,24.7C266.7-780.1,253.3-766.8,236.9-766.8z"/>
		<path style="fill:#FFFFFF;" d="M236.9-789.1c-2.7,0-5-2.2-5-5v-31.7c0-2.7,2.2-5,5-5c2.7,0,5,2.2,5,5v31.7
			C241.9-791.4,239.7-789.1,236.9-789.1z"/>
		<g>
			<path style="fill:#2E5291;" d="M236.9-768.4c-15.5,0-28.1-12.6-28.1-28.1c0-9.3,4.6-18.1,12.4-23.3c1.5-1,3.6-0.6,4.6,0.9
				c1,1.5,0.6,3.6-0.9,4.6c-5.9,4-9.5,10.7-9.5,17.8c0,11.8,9.6,21.5,21.5,21.5c11.8,0,21.5-9.6,21.5-21.5c0-7.1-3.5-13.8-9.5-17.8
				c-1.5-1-1.9-3.1-0.9-4.6c1-1.5,3.1-1.9,4.6-0.9c7.8,5.2,12.4,13.9,12.4,23.3C265-781,252.4-768.4,236.9-768.4z"/>
			<path style="fill:#2E5291;" d="M236.9-790.8c-1.8,0-3.3-1.5-3.3-3.3v-31.7c0-1.8,1.5-3.3,3.3-3.3c1.8,0,3.3,1.5,3.3,3.3v31.7
				C240.2-792.3,238.7-790.8,236.9-790.8z"/>
		</g>
		<circle style="fill:#BBDE73;" cx="236.9" cy="-794.1" r="3"/>
	</g>
	<text transform="matrix(1 0 0 1 206.9221 -844.1754)" style="fill:#1E1E1E; font-family:'SegoeUI'; font-size:12px;">Get Started</text>
	<text transform="matrix(1 0 0 1 291.2813 -844.1754)" style="fill:#1E1E1E; font-family:'SegoeUI'; font-size:12px;">What&apos;s New</text>
	<text transform="matrix(1 0 0 1 384.9514 -844.1754)" style="fill:#1E1E1E; font-family:'SegoeUI'; font-size:12px;">Tutorials</text>
	<path style="fill:#2E5291;" d="M323.2-778.4c-2.2,0-4-1.8-4-4v-12.1h-12.1c-2.2,0-4-1.8-4-4c0-2.2,1.8-4,4-4h12.1v-12.1
		c0-2.2,1.8-4,4-4c2.2,0,4,1.8,4,4v12.1h12.1c2.2,0,4,1.8,4,4c0,2.2-1.8,4-4,4h-12.1v12.1C327.2-780.2,325.4-778.4,323.2-778.4z"/>
	<path style="fill:#2E5291;" d="M339.5-801.2h-13.4v-13.4c0-1.5-1.2-2.7-2.7-2.7c-1.5,0-2.7,1.2-2.7,2.7v13.4h-13.4
		c-1.5,0-2.7,1.2-2.7,2.7s1.2,2.7,2.7,2.7h13.4v13.4c0,1.5,1.2,2.7,2.7,2.7c1.5,0,2.7-1.2,2.7-2.7v-13.4h13.4c1.5,0,2.7-1.2,2.7-2.7
		S341-801.2,339.5-801.2z"/>
	<path style="fill:#FFFFFF;" d="M347.8-811.9c-6,0-10.8-4.8-10.8-10.8s4.8-10.8,10.8-10.8s10.8,4.8,10.8,10.8
		S353.7-811.9,347.8-811.9z"/>
	<circle style="fill:#BBDE73;" cx="347.8" cy="-822.7" r="5.8"/>
	<g>
		<path style="fill:none;stroke:#FFFFFF;stroke-width:4;stroke-miterlimit:10;" d="M639.5-771.5c0,2.9-2.4,5.4-5.4,5.4h-53.3
			c-2.9,0-5.4-2.4-5.4-5.4v-53.3c0-2.9,2.4-5.4,5.4-5.4h53.3c2.9,0,5.4,2.4,5.4,5.4V-771.5z"/>
	</g>
	<g>
		<path style="fill:none;stroke:#FFFFFF;stroke-width:4;stroke-miterlimit:10;" d="M722.6-771.5c0,2.9-2.4,5.4-5.4,5.4h-53.3
			c-2.9,0-5.4-2.4-5.4-5.4v-53.3c0-2.9,2.4-5.4,5.4-5.4h53.3c2.9,0,5.4,2.4,5.4,5.4V-771.5z"/>
	</g>
	<path style="fill:#FFFFFF;" d="M632.8-813.7c-5,0-9-4-9-9c0-5,4-9,9-9s9,4,9,9C641.8-817.8,637.7-813.7,632.8-813.7z"/>
	<circle style="fill:#BBDE73;" cx="632.8" cy="-822.7" r="5.8"/>
	<g>
		<g>
			<path style="fill:#FFFFFF;" d="M689.9-785.9c-6.8-5.1-13.7,5.1-20.5,0c0-8.6,0-17.1,0-25.7c6.8,5.1,13.7-5.1,20.5,0
				C689.9-803.1,689.9-794.5,689.9-785.9z"/>
		</g>
		<g>
			<path style="fill:#FFFFFF;" d="M712.3-785.9c-6.8,5.1-13.7-5.1-20.5,0c0-8.6,0-17.1,0-25.7c6.8-5.1,13.7,5.1,20.5,0
				C712.3-803.1,712.3-794.5,712.3-785.9z"/>
		</g>
	</g>
	<text transform="matrix(1 0 0 1 490.1208 -844.1754)" style="fill:#FFFFFF; font-family:'SegoeUI'; font-size:12px;">Get Started</text>
	<text transform="matrix(1 0 0 1 574.48 -844.1754)" style="fill:#FFFFFF; font-family:'SegoeUI'; font-size:12px;">What&apos;s New</text>
	<text transform="matrix(1 0 0 1 668.1501 -844.1754)" style="fill:#FFFFFF; font-family:'SegoeUI'; font-size:12px;">Tutorials</text>
	<path style="fill:#FFFFFF;" d="M606.4-778.4c-2.2,0-4-1.8-4-4v-12.1h-12.1c-2.2,0-4-1.8-4-4c0-2.2,1.8-4,4-4h12.1v-12.1
		c0-2.2,1.8-4,4-4c2.2,0,4,1.8,4,4v12.1h12.1c2.2,0,4,1.8,4,4c0,2.2-1.8,4-4,4h-12.1v12.1C610.4-780.2,608.6-778.4,606.4-778.4z"/>
	<path style="fill:#FFFFFF;" d="M622.7-801.2h-13.4v-13.4c0-1.5-1.2-2.7-2.7-2.7s-2.7,1.2-2.7,2.7v13.4h-13.4
		c-1.5,0-2.7,1.2-2.7,2.7s1.2,2.7,2.7,2.7H604v13.4c0,1.5,1.2,2.7,2.7,2.7s2.7-1.2,2.7-2.7v-13.4h13.4c1.5,0,2.7-1.2,2.7-2.7
		S624.2-801.2,622.7-801.2z"/>
	<text transform="matrix(1 0 0 1 -84.0002 -1051.1754)" style="fill:#1E1E1E; font-family:'SegoeUI-Bold'; font-size:12px;">Circle</text>
	<text transform="matrix(1 0 0 1 -84.0002 -1076.1754)" style="fill:#1E1E1E; font-family:'SegoeUI-Bold'; font-size:12px;">64 x 64</text>
	<text transform="matrix(1 0 0 1 -84.0002 -888.1754)" style="fill:#1E1E1E; font-family:'SegoeUI-Bold'; font-size:12px;">Square</text>
	<text transform="matrix(1 0 0 1 -28.0002 -1076.1754)" style="fill:#1E1E1E; font-family:'SegoeUI-Italic'; font-size:12px;">For review purposes only. Design is not finalized</text>
	<g>
		<path style="fill:none;stroke:#FFFFFF;stroke-width:2;stroke-miterlimit:10;" d="M167.4-776c0,2.5-2,4.5-4.5,4.5h-45
			c-2.5,0-4.5-2-4.5-4.5v-45c0-2.5,2-4.5,4.5-4.5h45c2.5,0,4.5,2,4.5,4.5V-776z"/>
	</g>
	<text transform="matrix(1 0 0 1 -93.1708 -469.4714)"><tspan x="0" y="0" style="fill:#1E1E1E; font-family:'SegoeUI'; font-size:12px;">96 x 96</tspan><tspan x="0" y="13.2" style="fill:#1E1E1E; font-family:'SegoeUI'; font-size:12px;">Doc UI size</tspan></text>
	<text transform="matrix(1 0 0 1 -93.1708 -426.4714)"><tspan x="0" y="0" style="fill:#1E1E1E; font-family:'SegoeUI'; font-size:12px;">Outside stroke:</tspan><tspan x="0" y="13.2" style="fill:#1E1E1E; font-family:'SegoeUI'; font-size:12px;">5 px (inside)</tspan></text>
	<text transform="matrix(1 0 0 1 177.0188 -460.138)"><tspan x="0" y="0" style="fill:#1E1E1E; font-family:'SegoeUI'; font-size:11px;">Outside stroke:</tspan><tspan x="7.3" y="13.2" style="fill:#1E1E1E; font-family:'SegoeUI'; font-size:11px;">5 px (inside)</tspan><tspan x="19.1" y="26.4" style="fill:#1E1E1E; font-family:'SegoeUI'; font-size:11px;">88 x 88</tspan></text>
	<text transform="matrix(1 0 0 1 280.096 -453.9682)" style="fill:#1E1E1E; font-family:'SegoeUI'; font-size:11px;">Detail: 14px</text>
	<text transform="matrix(1 0 0 1 -93.1708 -381.4713)"><tspan x="0" y="0" style="fill:#1E1E1E; font-family:'SegoeUI'; font-size:12px;">Offset stroke:</tspan><tspan x="0" y="13.2" style="fill:#1E1E1E; font-family:'SegoeUI'; font-size:12px;">2 px</tspan></text>
	<text transform="matrix(1 0 0 1 178.3223 -349.2315)"><tspan x="0" y="0" style="fill:#1E1E1E; font-family:'SegoeUI'; font-size:12px;">Offset stroke:</tspan><tspan x="24.1" y="13.2" style="fill:#1E1E1E; font-family:'SegoeUI'; font-size:12px;">4 px</tspan><tspan x="17.9" y="26.4" style="fill:#1E1E1E; font-family:'SegoeUI'; font-size:12px;">96 x96</tspan></text>
	<text transform="matrix(1 0 0 1 -93.1708 -333.4713)"><tspan x="0" y="0" style="fill:#1E1E1E; font-family:'SegoeUI'; font-size:12px;">Inside shape</tspan><tspan x="0" y="13.2" style="fill:#1E1E1E; font-family:'SegoeUI'; font-size:12px;">stroke:</tspan><tspan x="0" y="26.4" style="fill:#1E1E1E; font-family:'SegoeUI'; font-size:12px;">10 px</tspan></text>
	<circle style="fill:#BBDE73;" cx="308.5" cy="-477.6" r="7"/>
	<path style="fill:#2E5291;" d="M308.5-409.1c-6.1,0-11-4.9-11-11s4.9-11,11-11s11,4.9,11,11S314.6-409.1,308.5-409.1z"/>
	<circle style="fill:#BBDE73;" cx="308.5" cy="-420.1" r="7"/>
	<g>
		<g>
			<path style="fill:#FFFFFF;" d="M86.8-382.5c-26.5,0-48-21.5-48-48s21.5-48,48-48s48,21.5,48,48S113.3-382.5,86.8-382.5z
				 M86.8-465.5c-19.3,0-35,15.7-35,35s15.7,35,35,35s35-15.7,35-35S106.1-465.5,86.8-465.5z"/>
			<path style="fill:#2E5291;" d="M86.8-469.5c21.5,0,39,17.5,39,39s-17.5,39-39,39s-39-17.5-39-39S65.3-469.5,86.8-469.5
				 M86.8-474.5c-24.3,0-44,19.7-44,44s19.7,44,44,44s44-19.7,44-44S111.1-474.5,86.8-474.5L86.8-474.5z"/>
		</g>
		<g>
			<path style="fill:#FFFFFF;" d="M116.6-448.8c-6.1,0-11-4.9-11-11s4.9-11,11-11s11,4.9,11,11S122.7-448.8,116.6-448.8z"/>
			<circle style="fill:#BBDE73;" cx="116.6" cy="-459.8" r="7"/>
		</g>
	</g>
	<g>
		<g>
			<path style="fill:#2E5291;" d="M840.4-412.3c-2.2,0-4.2-0.7-6-2.1c-0.4-0.3-0.6-0.7-0.6-1.2V-446c0-0.6,0.3-1.1,0.8-1.3
				c0.2-0.1,0.4-0.2,0.7-0.2c0.3,0,0.6,0.1,0.9,0.3c1.3,1,2.7,1.5,4.2,1.5c2.1,0,4.2-0.8,6.5-1.7c2.4-0.9,4.9-1.9,7.6-1.9
				c2.2,0,4.2,0.7,6,2.1c0.4,0.3,0.6,0.7,0.6,1.2v30.4c0,0.6-0.3,1.1-0.8,1.3c-0.2,0.1-0.4,0.2-0.7,0.2c-0.3,0-0.6-0.1-0.9-0.3
				c-1.3-1-2.7-1.5-4.2-1.5c-2.1,0-4.2,0.8-6.5,1.7C845.5-413.2,843-412.3,840.4-412.3L840.4-412.3z"/>
			<path style="fill:#FFFFFF;" d="M854.5-447.7c1.7,0,3.4,0.5,5.1,1.8c0,10.1,0,20.3,0,30.4c-1.7-1.3-3.4-1.8-5.1-1.8
				c-4.7,0-9.4,3.5-14.1,3.5c-1.7,0-3.4-0.5-5.1-1.8c0-10.1,0-20.3,0-30.4c1.7,1.3,3.4,1.8,5.1,1.8
				C845.1-444.2,849.8-447.7,854.5-447.7 M854.5-450.7C854.5-450.7,854.5-450.7,854.5-450.7c-2.9,0-5.5,1-8.1,1.9
				c-2.1,0.8-4.2,1.6-6,1.6c-1.2,0-2.3-0.4-3.3-1.2c-0.5-0.4-1.2-0.6-1.8-0.6c-0.5,0-0.9,0.1-1.3,0.3c-1,0.5-1.7,1.5-1.7,2.7v30.4
				c0,0.9,0.4,1.8,1.2,2.4c2.1,1.6,4.4,2.4,6.9,2.4c2.9,0,5.5-1,8.1-1.9c2.1-0.8,4.2-1.6,6-1.6c1.2,0,2.3,0.4,3.3,1.2
				c0.5,0.4,1.2,0.6,1.8,0.6c0.5,0,0.9-0.1,1.3-0.3c1-0.5,1.7-1.5,1.7-2.7V-446c0-0.9-0.4-1.8-1.2-2.4
				C859.3-449.9,857-450.7,854.5-450.7L854.5-450.7z"/>
		</g>
		<g>
			<path style="fill:#2E5291;" d="M882.1-412.3c-2.6,0-5.1-0.9-7.6-1.9c-2.3-0.9-4.4-1.7-6.5-1.7c-1.6,0-2.9,0.5-4.2,1.5
				c-0.3,0.2-0.6,0.3-0.9,0.3c-0.2,0-0.5-0.1-0.7-0.2c-0.5-0.3-0.8-0.8-0.8-1.3V-446c0-0.5,0.2-0.9,0.6-1.2c1.8-1.4,3.8-2.1,6-2.1
				c2.6,0,5.1,0.9,7.6,1.9c2.3,0.9,4.4,1.7,6.5,1.7c1.6,0,2.9-0.5,4.2-1.5c0.3-0.2,0.6-0.3,0.9-0.3c0.2,0,0.5,0.1,0.7,0.2
				c0.5,0.3,0.8,0.8,0.8,1.3v30.4c0,0.5-0.2,0.9-0.6,1.2C886.3-413,884.3-412.3,882.1-412.3z"/>
			<path style="fill:#FFFFFF;" d="M868.1-447.7c4.7,0,9.4,3.5,14.1,3.5c1.7,0,3.4-0.5,5.1-1.8c0,10.1,0,20.3,0,30.4
				c-1.7,1.3-3.4,1.8-5.1,1.8c-4.7,0-9.4-3.5-14.1-3.5c-1.7,0-3.4,0.5-5.1,1.8c0-10.1,0-20.3,0-30.4
				C864.6-447.3,866.4-447.7,868.1-447.7 M868.1-450.7c-2.5,0-4.9,0.8-6.9,2.4c-0.8,0.6-1.2,1.5-1.2,2.4v30.4c0,1.1,0.6,2.2,1.7,2.7
				c0.4,0.2,0.9,0.3,1.3,0.3c0.6,0,1.3-0.2,1.8-0.6c1.1-0.8,2.1-1.2,3.3-1.2c1.8,0,3.8,0.8,6,1.6c2.6,1,5.2,1.9,8.1,1.9
				c2.5,0,4.9-0.8,6.9-2.4c0.8-0.6,1.2-1.5,1.2-2.4V-446c0-1.1-0.6-2.2-1.7-2.7c-0.4-0.2-0.9-0.3-1.3-0.3c-0.6,0-1.3,0.2-1.8,0.6
				c-1.1,0.8-2.1,1.2-3.3,1.2c-1.8,0-3.8-0.8-6-1.6C873.6-449.7,871-450.7,868.1-450.7L868.1-450.7z"/>
		</g>
		<g>
			<path style="fill:#FFFFFF;" d="M861.3-382.8c-26.5,0-48-21.5-48-48s21.5-48,48-48s48,21.5,48,48S887.7-382.8,861.3-382.8z
				 M861.3-465.8c-19.3,0-35,15.7-35,35s15.7,35,35,35s35-15.7,35-35S880.6-465.8,861.3-465.8z"/>
			<path style="fill:#2E5291;" d="M861.3-469.8c21.5,0,39,17.5,39,39s-17.5,39-39,39s-39-17.5-39-39S839.8-469.8,861.3-469.8
				 M861.3-474.8c-24.3,0-44,19.7-44,44s19.7,44,44,44s44-19.7,44-44S885.6-474.8,861.3-474.8L861.3-474.8z"/>
		</g>
	</g>
	<g>
		<path style="fill:#2E5291;" d="M292-105.1c-2.2,0-4.2-0.7-6-2.1c-0.4-0.3-0.6-0.7-0.6-1.2v-30.4c0-0.6,0.3-1.1,0.8-1.3
			c0.2-0.1,0.4-0.2,0.7-0.2c0.3,0,0.6,0.1,0.9,0.3c1.3,1,2.7,1.5,4.2,1.5c2.1,0,4.2-0.8,6.5-1.7c2.4-0.9,4.9-1.9,7.6-1.9
			c2.2,0,4.2,0.7,6,2.1c0.4,0.3,0.6,0.7,0.6,1.2v30.4c0,0.6-0.3,1.1-0.8,1.3c-0.2,0.1-0.4,0.2-0.7,0.2c-0.3,0-0.6-0.1-0.9-0.3
			c-1.3-1-2.7-1.5-4.2-1.5c-2.1,0-4.2,0.8-6.5,1.7C297.1-106,294.6-105.1,292-105.1L292-105.1z"/>
		<path style="fill:#FFFFFF;" d="M306.1-140.5c1.7,0,3.4,0.5,5.1,1.8c0,10.1,0,20.3,0,30.4c-1.7-1.3-3.4-1.8-5.1-1.8
			c-4.7,0-9.4,3.5-14.1,3.5c-1.7,0-3.4-0.5-5.1-1.8c0-10.1,0-20.3,0-30.4c1.7,1.3,3.4,1.8,5.1,1.8
			C296.7-137,301.4-140.5,306.1-140.5 M306.1-143.5L306.1-143.5c-2.9,0-5.5,1-8.1,1.9c-2.1,0.8-4.2,1.6-6,1.6
			c-1.2,0-2.3-0.4-3.3-1.2c-0.5-0.4-1.2-0.6-1.8-0.6c-0.5,0-0.9,0.1-1.3,0.3c-1,0.5-1.7,1.5-1.7,2.7v30.4c0,0.9,0.4,1.8,1.2,2.4
			c2.1,1.6,4.4,2.4,6.9,2.4c2.9,0,5.5-1,8.1-1.9c2.1-0.8,4.2-1.6,6-1.6c1.2,0,2.3,0.4,3.3,1.2c0.5,0.4,1.2,0.6,1.8,0.6
			c0.5,0,0.9-0.1,1.3-0.3c1-0.5,1.7-1.5,1.7-2.7v-30.4c0-0.9-0.4-1.8-1.2-2.4C310.9-142.7,308.6-143.5,306.1-143.5L306.1-143.5z"/>
	</g>
	<g>
		<path style="fill:#2E5291;" d="M333.7-105.1c-2.6,0-5.1-0.9-7.6-1.9c-2.3-0.9-4.4-1.7-6.5-1.7c-1.6,0-2.9,0.5-4.2,1.5
			c-0.3,0.2-0.6,0.3-0.9,0.3c-0.2,0-0.5-0.1-0.7-0.2c-0.5-0.3-0.8-0.8-0.8-1.3v-30.4c0-0.5,0.2-0.9,0.6-1.2c1.8-1.4,3.8-2.1,6-2.1
			c2.6,0,5.1,0.9,7.6,1.9c2.3,0.9,4.4,1.7,6.5,1.7c1.6,0,2.9-0.5,4.2-1.5c0.3-0.2,0.6-0.3,0.9-0.3c0.2,0,0.5,0.1,0.7,0.2
			c0.5,0.3,0.8,0.8,0.8,1.3v30.4c0,0.5-0.2,0.9-0.6,1.2C337.9-105.8,335.9-105.1,333.7-105.1z"/>
		<path style="fill:#FFFFFF;" d="M319.7-140.5c4.7,0,9.4,3.5,14.1,3.5c1.7,0,3.4-0.5,5.1-1.8c0,10.1,0,20.3,0,30.4
			c-1.7,1.3-3.4,1.8-5.1,1.8c-4.7,0-9.4-3.5-14.1-3.5c-1.7,0-3.4,0.5-5.1,1.8c0-10.1,0-20.3,0-30.4
			C316.2-140.1,317.9-140.5,319.7-140.5 M319.7-143.5c-2.5,0-4.9,0.8-6.9,2.4c-0.8,0.6-1.2,1.5-1.2,2.4v30.4c0,1.1,0.6,2.2,1.7,2.7
			c0.4,0.2,0.9,0.3,1.3,0.3c0.6,0,1.3-0.2,1.8-0.6c1.1-0.8,2.1-1.2,3.3-1.2c1.8,0,3.8,0.8,6,1.6c2.6,1,5.2,1.9,8.1,1.9
			c2.5,0,4.9-0.8,6.9-2.4c0.8-0.6,1.2-1.5,1.2-2.4v-30.4c0-1.1-0.6-2.2-1.7-2.7c-0.4-0.2-0.9-0.3-1.3-0.3c-0.6,0-1.3,0.2-1.8,0.6
			c-1.1,0.8-2.1,1.2-3.3,1.2c-1.8,0-3.8-0.8-6-1.6C325.2-142.5,322.5-143.5,319.7-143.5L319.7-143.5z"/>
	</g>
	<g>
		<path style="fill:#FFFFFF;" d="M312.9-75.6c-26.5,0-48-21.5-48-48s21.5-48,48-48s48,21.5,48,48S339.3-75.6,312.9-75.6z
			 M312.9-158.6c-19.3,0-35,15.7-35,35s15.7,35,35,35s35-15.7,35-35S332.2-158.6,312.9-158.6z"/>
		<path style="fill:#2E5291;" d="M312.9-162.6c21.5,0,39,17.5,39,39s-17.5,39-39,39s-39-17.5-39-39S291.3-162.6,312.9-162.6
			 M312.9-167.6c-24.3,0-44,19.7-44,44s19.7,44,44,44s44-19.7,44-44S337.2-167.6,312.9-167.6L312.9-167.6z"/>
	</g>
	<text transform="matrix(1 0 0 1 279.2369 -393.4712)"><tspan x="0" y="0" style="fill:#1E1E1E; font-family:'SegoeUI'; font-size:11px;">Detail offset</tspan><tspan x="19.1" y="13.2" style="fill:#1E1E1E; font-family:'SegoeUI'; font-size:11px;">4 px</tspan></text>
	<text transform="matrix(1 0 0 1 279.2369 -203.6839)"><tspan x="0" y="0" style="fill:#1E1E1E; font-family:'SegoeUI'; font-size:11px;">Detail offset</tspan><tspan x="19.1" y="13.2" style="fill:#1E1E1E; font-family:'SegoeUI'; font-size:11px;">4 px</tspan></text>
	<text transform="matrix(1 0 0 1 279.5592 -296.6098)"><tspan x="0" y="0" style="fill:#1E1E1E; font-family:'SegoeUI'; font-size:11px;">10 pt stroke</tspan><tspan x="-1.3" y="13.2" style="fill:#1E1E1E; font-family:'SegoeUI'; font-size:11px;">45 px length</tspan></text>
	<path style="fill:#FFFFFF;" d="M86.3-399.1c-5,0-9-4-9-9v-13.5H63.8c-5,0-9-4-9-9s4-9,9-9h13.5v-13.5c0-5,4-9,9-9s9,4,9,9v13.5
		h13.5c5,0,9,4,9,9s-4,9-9,9H95.3v13.5C95.3-403.2,91.3-399.1,86.3-399.1z"/>
	<path style="fill:#2E5291;" d="M108.8-435.6H91.3v-17.5c0-2.8-2.2-5-5-5s-5,2.2-5,5v17.5H63.8c-2.8,0-5,2.2-5,5s2.2,5,5,5h17.5
		v17.5c0,2.8,2.2,5,5,5s5-2.2,5-5v-17.5h17.5c2.8,0,5-2.2,5-5S111.6-435.6,108.8-435.6z"/>
	<g>
		
			<line style="fill:none;stroke:#2E5291;stroke-width:10;stroke-linecap:round;stroke-linejoin:round;stroke-miterlimit:10;" x1="309.7" y1="-360.5" x2="309.7" y2="-315.5"/>
		
			<line style="fill:none;stroke:#2E5291;stroke-width:10;stroke-linecap:round;stroke-linejoin:round;stroke-miterlimit:10;" x1="332.2" y1="-338" x2="287.2" y2="-338"/>
	</g>
	<path style="fill:#FFFFFF;" d="M514.6-422.7c-4.4,0-8-3.6-8-8v-44c0-4.4,3.6-8,8-8s8,3.6,8,8v44C522.6-426.3,519-422.7,514.6-422.7
		z"/>
	<path style="fill:#2E5291;" d="M514.6-426.7c-2.2,0-4-1.8-4-4v-44c0-2.2,1.8-4,4-4s4,1.8,4,4v44
		C518.6-428.5,516.8-426.7,514.6-426.7z"/>
	<circle style="fill:none;stroke:#2E5291;stroke-width:8;stroke-miterlimit:10;" cx="654.7" cy="-430.2" r="39"/>
	
		<line style="fill:none;stroke:#2E5291;stroke-width:8;stroke-linecap:round;stroke-linejoin:round;stroke-miterlimit:10;" x1="654.7" y1="-479.7" x2="654.7" y2="-436.1"/>
	<path style="fill:#FFFFFF;" d="M309.7-217.9c-5,0-9-4-9-9v-13.5h-13.5c-5,0-9-4-9-9s4-9,9-9h13.5v-13.5c0-5,4-9,9-9s9,4,9,9v13.5
		h13.5c5,0,9,4,9,9s-4,9-9,9h-13.5v13.5C318.7-221.9,314.6-217.9,309.7-217.9z"/>
	<path style="fill:#2E5291;" d="M332.2-254.4h-17.5v-17.5c0-2.8-2.2-5-5-5s-5,2.2-5,5v17.5h-17.5c-2.8,0-5,2.2-5,5s2.2,5,5,5h17.5
		v17.5c0,2.8,2.2,5,5,5s5-2.2,5-5v-17.5h17.5c2.8,0,5-2.2,5-5S334.9-254.4,332.2-254.4z"/>
	<text transform="matrix(1 0 0 1 37.8945 -485.9658)" style="fill:#1E1E1E; font-family:'SegoeUI'; font-size:11px;">Editable</text>
	<g>
		<path style="fill:#FFFFFF;" d="M127.6-306.3c-1.4,4.5-5.5,7.7-10.5,7.8c3.3,5.3,5.2,11.6,5.2,18.3c0,19.3-15.7,35-35,35
			s-35-15.7-35-35s15.7-35,35-35c6.9,0,13.4,2,18.8,5.5c0.1-4.9,3.4-9,7.9-10.3c-7.6-5.1-16.8-8.2-26.7-8.2c-26.5,0-48,21.5-48,48
			s21.5,48,48,48s48-21.5,48-48C135.3-289.9,132.5-298.8,127.6-306.3z"/>
		<path style="fill:none;" d="M87.3-328.3c-26.5,0-48,21.5-48,48s21.5,48,48,48s48-21.5,48-48S113.8-328.3,87.3-328.3z M87.3-315.3
			c19.3,0,35,15.7,35,35s-15.7,35-35,35s-35-15.7-35-35S68-315.3,87.3-315.3z"/>
		<g>
			<path style="fill:#FFFFFF;" d="M117.1-298.5c-6.1,0-11-4.9-11-11s4.9-11,11-11s11,4.9,11,11S123.2-298.5,117.1-298.5z"/>
			<circle style="fill:#BBDE73;" cx="117.1" cy="-309.5" r="7"/>
		</g>
		<path style="fill:#FFFFFF;" d="M117.1-320.5c-6.1,0-11,4.9-11,11s4.9,11,11,11s11-4.9,11-11S123.2-320.5,117.1-320.5z
			 M117.1-302.5c-3.9,0-7-3.1-7-7c0-3.9,3.1-7,7-7s7,3.1,7,7C124.1-305.7,121-302.5,117.1-302.5z"/>
		<path style="fill:#2E5291;" d="M125.4-302.3c-1.1,1.3-2.5,2.3-4.1,2.9c3.2,5.7,5,12.2,5,19.1c0,21.5-17.5,39-39,39s-39-17.5-39-39
			s17.5-39,39-39c7.2,0,13.9,2,19.7,5.4c0.7-1.6,1.7-3,3-4c-6.6-4-14.4-6.3-22.7-6.3c-24.3,0-44,19.7-44,44s19.7,44,44,44
			s44-19.7,44-44C131.3-288.3,129.2-295.8,125.4-302.3z"/>
		<path style="fill:none;" d="M117.1-320.5c-6.1,0-11,4.9-11,11s4.9,11,11,11s11-4.9,11-11S123.2-320.5,117.1-320.5z"/>
		<path style="fill:#FFFFFF;" d="M86.8-248.9c-5,0-9-4-9-9v-13.5H64.3c-5,0-9-4-9-9s4-9,9-9h13.5v-13.5c0-5,4-9,9-9s9,4,9,9v13.5
			h13.5c5,0,9,4,9,9s-4,9-9,9H95.8v13.5C95.8-253,91.8-248.9,86.8-248.9z"/>
		<path style="fill:#2E5291;" d="M109.3-285.4H91.8v-17.5c0-2.8-2.2-5-5-5s-5,2.2-5,5v17.5H64.3c-2.8,0-5,2.2-5,5s2.2,5,5,5h17.5
			v17.5c0,2.8,2.2,5,5,5s5-2.2,5-5v-17.5h17.5c2.8,0,5-2.2,5-5S112.1-285.4,109.3-285.4z"/>
	</g>
	<g>
		<path style="fill:#FFFFFF;" d="M88.3-149.3c-1.4,4.5-5.5,7.7-10.5,7.8c3.3,5.3,5.2,11.6,5.2,18.3c0,19.3-15.7,35-35,35
			s-35-15.7-35-35s15.7-35,35-35c6.9,0,13.4,2,18.8,5.5c0.1-4.9,3.4-9,7.9-10.3c-7.6-5.1-16.8-8.2-26.7-8.2c-26.5,0-48,21.5-48,48
			s21.5,48,48,48s48-21.5,48-48C96-132.8,93.2-141.8,88.3-149.3z"/>
		<path style="fill:none;" d="M48-171.2c-26.5,0-48,21.5-48,48s21.5,48,48,48s48-21.5,48-48S74.5-171.2,48-171.2z M48-158.2
			c19.3,0,35,15.7,35,35s-15.7,35-35,35s-35-15.7-35-35S28.7-158.2,48-158.2z"/>
		<g>
			<path style="fill:#FFFFFF;" d="M77.8-141.5c-6.1,0-11-4.9-11-11s4.9-11,11-11s11,4.9,11,11S83.8-141.5,77.8-141.5z"/>
			<circle style="fill:#BBDE73;" cx="77.5" cy="-152.4" r="7"/>
		</g>
		<path style="fill:#FFFFFF;" d="M77.8-163.5c-6.1,0-11,4.9-11,11s4.9,11,11,11s11-4.9,11-11S83.8-163.5,77.8-163.5z M77.8-145.5
			c-3.9,0-7-3.1-7-7c0-3.9,3.1-7,7-7s7,3.1,7,7C84.8-148.7,81.6-145.5,77.8-145.5z"/>
		<path style="fill:#2E5291;" d="M86.1-145.3c-1.1,1.3-2.5,2.3-4.1,2.9c3.2,5.7,5,12.2,5,19.1c0,21.5-17.5,39-39,39s-39-17.5-39-39
			s17.5-39,39-39c7.2,0,13.9,2,19.7,5.4c0.7-1.6,1.7-3,3-4c-6.6-4-14.4-6.3-22.7-6.3c-24.3,0-44,19.7-44,44s19.7,44,44,44
			s44-19.7,44-44C92-131.3,89.8-138.8,86.1-145.3z"/>
		<path style="fill:none;" d="M77.8-163.5c-6.1,0-11,4.9-11,11s4.9,11,11,11s11-4.9,11-11S83.8-163.5,77.8-163.5z"/>
		<path style="fill:#FFFFFF;" d="M38.5-101.2l0-13.2H25.3c-4.5,0-8.5-3.2-9.2-7.6c-0.8-5.6,3.5-10.4,8.9-10.4h13.5l0-13.2
			c0-4.5,3.2-8.5,7.6-9.2c5.6-0.8,10.4,3.5,10.4,8.9v13.5h13.2c4.5,0,8.5,3.2,9.2,7.6c0.8,5.6-3.5,10.4-8.9,10.4H56.5v13.5
			c0,5.4-4.8,9.7-10.4,8.9C41.7-92.7,38.5-96.7,38.5-101.2z"/>
		<path style="fill:#2E5291;" d="M69.8-128.4H52.5l0-17.3c0-2.4-1.6-4.6-4-5.1c-3.2-0.6-6,1.8-6,4.9v17.5H25.2c-2.4,0-4.6,1.6-5.1,4
			c-0.6,3.2,1.8,6,4.9,6h17.5l0,17.3c0,2.4,1.6,4.6,4,5.1c3.2,0.6,6-1.8,6-4.9v-17.5H70c3.1,0,5.5-2.8,4.9-6
			C74.4-126.8,72.2-128.4,69.8-128.4z"/>
	</g>
	<rect x="1502" y="-488.2" style="fill:#E1EBF5;" width="138" height="125.9"/>
	<g>
		<g>
			<path style="fill:#FFFFFF;" d="M1575.9-382.3c-26.5,0-48-21.5-48-48s21.5-48,48-48s48,21.5,48,48S1602.3-382.3,1575.9-382.3z
				 M1575.9-465.3c-19.3,0-35,15.7-35,35s15.7,35,35,35s35-15.7,35-35S1595.2-465.3,1575.9-465.3z"/>
			<path style="fill:#2E5291;" d="M1575.9-469.3c21.5,0,39,17.5,39,39s-17.5,39-39,39s-39-17.5-39-39S1554.4-469.3,1575.9-469.3
				 M1575.9-474.3c-24.3,0-44,19.7-44,44s19.7,44,44,44s44-19.7,44-44S1600.2-474.3,1575.9-474.3L1575.9-474.3z"/>
		</g>
		<g>
			<path style="fill:#FFFFFF;" d="M1605.7-448.5c-6.1,0-11-4.9-11-11s4.9-11,11-11s11,4.9,11,11S1611.7-448.5,1605.7-448.5z"/>
			<circle style="fill:#BBDE73;" cx="1605.7" cy="-459.5" r="7"/>
		</g>
		<g>
			<path style="fill:#FFFFFF;" d="M1605.7-448.5c-6.1,0-11-4.9-11-11s4.9-11,11-11s11,4.9,11,11S1611.7-448.5,1605.7-448.5z"/>
			<circle style="fill:#BBDE73;" cx="1605.7" cy="-459.5" r="7"/>
		</g>
		<g>
			<path style="fill:#FFFFFF;" d="M1605.7-448.5c-6.1,0-11-4.9-11-11s4.9-11,11-11s11,4.9,11,11S1611.7-448.5,1605.7-448.5z"/>
			<circle style="fill:#BBDE73;" cx="1605.7" cy="-459.5" r="7"/>
		</g>
		<g>
			<path style="fill:#FFFFFF;" d="M1605.7-448.5c-6.1,0-11-4.9-11-11s4.9-11,11-11s11,4.9,11,11S1611.7-448.5,1605.7-448.5z"/>
			<circle style="fill:#BBDE73;" cx="1605.7" cy="-459.5" r="7"/>
		</g>
		<path style="fill:#FFFFFF;" d="M1575.4-398.9c-5,0-9-4-9-9v-13.5h-13.5c-5,0-9-4-9-9s4-9,9-9h13.5v-13.5c0-5,4-9,9-9s9,4,9,9v13.5
			h13.5c5,0,9,4,9,9s-4,9-9,9h-13.5v13.5C1584.4-403,1580.3-398.9,1575.4-398.9z"/>
		<path style="fill:#2E5291;" d="M1597.9-435.4h-17.5v-17.5c0-2.8-2.2-5-5-5s-5,2.2-5,5v17.5h-17.5c-2.8,0-5,2.2-5,5s2.2,5,5,5h17.5
			v17.5c0,2.8,2.2,5,5,5s5-2.2,5-5v-17.5h17.5c2.8,0,5-2.2,5-5S1600.6-435.4,1597.9-435.4z"/>
	</g>
	<text transform="matrix(1 0 0 1 37.3281 -338.6956)" style="fill:#1E1E1E; font-family:'SegoeUI'; font-size:11px;">Finished</text>
	<text transform="matrix(1 0 0 1 465.8945 -485.9658)" style="fill:#1E1E1E; font-family:'SegoeUI'; font-size:11px;">Editable</text>
	<text transform="matrix(1 0 0 1 637.3348 -420.3864)"><tspan x="0" y="0" style="fill:#1E1E1E; font-family:'SegoeUI'; font-size:11px;">78 x 78</tspan><tspan x="-7.8" y="13.2" style="fill:#1E1E1E; font-family:'SegoeUI'; font-size:11px;">8px stroke</tspan></text>
	<text transform="matrix(1 0 0 1 465.3281 -338.6956)" style="fill:#1E1E1E; font-family:'SegoeUI'; font-size:11px;">Finished</text>
	<circle style="fill:#BBDE73;" cx="514.6" cy="-430.7" r="4"/>
	<path style="fill:#FFFFFF;" d="M514.6-235.7c-24.7,0-44.8-20.1-44.8-44.8c0-16.6,9.1-31.8,23.9-39.6c1.1-0.6,2.3-0.9,3.6-0.9
		c2.8,0,5.4,1.6,6.7,4.1c2,3.7,0.6,8.3-3.2,10.3c-9.7,5.1-15.7,15.2-15.7,26.2c0,16.3,13.3,29.6,29.6,29.6
		c16.3,0,29.6-13.3,29.6-29.6c0-11-6-21-15.8-26.2c-3.7-2-5.1-6.6-3.2-10.3c1.3-2.5,3.9-4.1,6.7-4.1c1.2,0,2.5,0.3,3.6,0.9
		c14.7,7.8,23.9,23,23.9,39.7C559.5-255.8,539.3-235.7,514.6-235.7z"/>
	<path style="fill:#2E5291;" d="M514.6-239.5c-22.6,0-41-18.4-41-41c0-15.2,8.4-29.1,21.8-36.3c1.9-1,4.2-0.3,5.2,1.6
		c1,1.9,0.3,4.2-1.6,5.2c-11,5.8-17.8,17.1-17.8,29.5c0,18.4,15,33.4,33.4,33.4c18.4,0,33.4-15,33.4-33.4c0-12.4-6.8-23.7-17.8-29.5
		c-1.9-1-2.6-3.3-1.6-5.2c1-1.9,3.3-2.6,5.2-1.6c13.5,7.1,21.9,21,21.9,36.3C555.6-257.9,537.2-239.5,514.6-239.5z"/>
	<path style="fill:#FFFFFF;" d="M514.6-274.5c-4.2,0-7.6-3.4-7.6-7.6v-42c0-4.2,3.4-7.6,7.6-7.6s7.6,3.4,7.6,7.6v42
		C522.2-277.9,518.8-274.5,514.6-274.5z"/>
	<path style="fill:#2E5291;" d="M514.6-278.3c-2.1,0-3.8-1.7-3.8-3.8v-42c0-2.1,1.7-3.8,3.8-3.8s3.8,1.7,3.8,3.8v42
		C518.4-280,516.7-278.3,514.6-278.3z"/>
	<circle style="fill:#BBDE73;" cx="514.6" cy="-282.1" r="3.8"/>
	<path style="fill:#FFFFFF;" d="M186.6-75.2c-24.7,0-44.8-20.1-44.8-44.8c0-16.6,9.1-31.8,23.9-39.6c1.1-0.6,2.3-0.9,3.6-0.9
		c2.8,0,5.4,1.6,6.7,4.1c2,3.7,0.6,8.3-3.2,10.3c-9.7,5.1-15.7,15.2-15.7,26.2c0,16.3,13.3,29.6,29.6,29.6s29.6-13.3,29.6-29.6
		c0-11-6-21-15.8-26.2c-3.7-2-5.1-6.6-3.2-10.3c1.3-2.5,3.9-4.1,6.7-4.1c1.2,0,2.5,0.3,3.6,0.9c14.7,7.8,23.9,23,23.9,39.7
		C231.4-95.4,211.3-75.2,186.6-75.2z"/>
	<path style="fill:#2E5291;" d="M186.6-79.1c-22.6,0-41-18.4-41-41c0-15.2,8.4-29.1,21.8-36.3c1.9-1,4.2-0.3,5.2,1.6
		c1,1.9,0.3,4.2-1.6,5.2c-11,5.8-17.8,17.1-17.8,29.5c0,18.4,15,33.4,33.4,33.4s33.4-15,33.4-33.4c0-12.4-6.8-23.7-17.8-29.5
		c-1.9-1-2.6-3.3-1.6-5.2c1-1.9,3.3-2.6,5.2-1.6c13.5,7.1,21.9,21,21.9,36.3C227.6-97.5,209.2-79.1,186.6-79.1z"/>
	<path style="fill:#FFFFFF;" d="M186.6-114c-4.2,0-7.6-3.4-7.6-7.6v-42c0-4.2,3.4-7.6,7.6-7.6s7.6,3.4,7.6,7.6v42
		C194.2-117.4,190.8-114,186.6-114z"/>
	<path style="fill:#2E5291;" d="M186.6-117.8c-2.1,0-3.8-1.7-3.8-3.8v-42c0-2.1,1.7-3.8,3.8-3.8s3.8,1.7,3.8,3.8v42
		C190.4-119.5,188.7-117.8,186.6-117.8z"/>
	<circle style="fill:#BBDE73;" cx="186.6" cy="-121.6" r="3.8"/>
	<g>
		<g>
			<path style="fill:#404040;" d="M293.7,66.2c-2.2,0-4.2-0.7-6-2.1l-0.6-0.5V29.5l2.4,1.8c1.3,1,2.7,1.5,4.2,1.5
				c2.1,0,4.2-0.8,6.5-1.7c2.4-0.9,4.9-1.9,7.6-1.9c2.2,0,4.2,0.7,6,2.1l0.6,0.5v34.2l-2.4-1.8c-1.3-1-2.7-1.5-4.2-1.5
				c-2.1,0-4.2,0.8-6.5,1.7C298.8,65.2,296.3,66.2,293.7,66.2C293.7,66.2,293.7,66.2,293.7,66.2z"/>
		</g>
		<g>
			<path style="fill:#FFFFFF;" d="M307.7,30.7c1.7,0,3.4,0.5,5.1,1.8c0,10.1,0,20.3,0,30.4c-1.7-1.3-3.4-1.8-5.1-1.8
				c-4.7,0-9.4,3.5-14.1,3.5c-1.7,0-3.4-0.5-5.1-1.8c0-10.1,0-20.3,0-30.4c1.7,1.3,3.4,1.8,5.1,1.8C298.3,34.2,303,30.7,307.7,30.7
				 M285.5,26.5v6v30.4v1.5l1.2,0.9c2.1,1.6,4.4,2.4,6.9,2.4c2.9,0,5.5-1,8.1-1.9c2.1-0.8,4.2-1.6,6-1.6c1.2,0,2.3,0.4,3.3,1.2
				l4.8,3.6v-6V32.5V31l-1.2-0.9c-2.1-1.6-4.4-2.4-6.9-2.4h0c-2.9,0-5.5,1-8.1,1.9c-2.1,0.8-4.2,1.6-6,1.6c-1.2,0-2.3-0.4-3.3-1.2
				L285.5,26.5L285.5,26.5z"/>
		</g>
	</g>
	<g>
		<g>
			<path style="fill:#404040;" d="M335.4,66.2c-2.6,0-5.1-0.9-7.6-1.9c-2.3-0.9-4.4-1.7-6.5-1.7c-1.6,0-2.9,0.5-4.2,1.5l-2.4,1.8
				V31.7l0.6-0.5c1.8-1.4,3.8-2.1,6-2.1c2.6,0,5.1,0.9,7.6,1.9c2.3,0.9,4.4,1.7,6.5,1.7c1.6,0,2.9-0.5,4.2-1.5l2.4-1.8v34.2
				l-0.6,0.5C339.6,65.5,337.6,66.2,335.4,66.2z"/>
		</g>
		<g>
			<path style="fill:#FFFFFF;" d="M321.3,30.7c4.7,0,9.4,3.5,14.1,3.5c1.7,0,3.4-0.5,5.1-1.8c0,10.1,0,20.3,0,30.4
				c-1.7,1.3-3.4,1.8-5.1,1.8c-4.7,0-9.4-3.5-14.1-3.5c-1.7,0-3.4,0.5-5.1,1.8c0-10.1,0-20.3,0-30.4
				C317.9,31.2,319.6,30.7,321.3,30.7 M343.5,26.5l-4.8,3.6c-1.1,0.8-2.1,1.2-3.3,1.2c-1.8,0-3.8-0.8-6-1.6c-2.6-1-5.2-1.9-8.1-1.9
				c-2.5,0-4.9,0.8-6.9,2.4l-1.2,0.9v1.5v30.4v6l4.8-3.6c1.1-0.8,2.1-1.2,3.3-1.2c1.8,0,3.8,0.8,6,1.6c2.6,1,5.2,1.9,8.1,1.9
				c2.5,0,4.9-0.8,6.9-2.4l1.2-0.9v-1.5V32.5V26.5L343.5,26.5z"/>
		</g>
	</g>
	<g>
		<path style="fill:#FFFFFF;" d="M314.5,95.7c-26.5,0-48-21.5-48-48s21.5-48,48-48s48,21.5,48,48S341,95.7,314.5,95.7z M314.5,12.7
			c-19.3,0-35,15.7-35,35s15.7,35,35,35s35-15.7,35-35S333.8,12.7,314.5,12.7z"/>
		<path style="fill:#404040;" d="M314.5,8.7c21.5,0,39,17.5,39,39s-17.5,39-39,39s-39-17.5-39-39S293,8.7,314.5,8.7 M314.5,3.7
			c-24.3,0-44,19.7-44,44s19.7,44,44,44s44-19.7,44-44S338.8,3.7,314.5,3.7L314.5,3.7z"/>
	</g>
	<g>
		<g>
			<path style="fill:#404040;" d="M842.1-305.8c-2.2,0-4.2-0.7-6-2.1l-0.6-0.5v-34.2l2.4,1.8c1.3,1,2.7,1.5,4.2,1.5
				c2.1,0,4.2-0.8,6.5-1.7c2.4-0.9,4.9-1.9,7.6-1.9c2.2,0,4.2,0.7,6,2.1l0.6,0.5v34.2l-2.4-1.8c-1.3-1-2.7-1.5-4.2-1.5
				c-2.1,0-4.2,0.8-6.5,1.7C847.2-306.7,844.7-305.8,842.1-305.8C842.1-305.8,842.1-305.8,842.1-305.8z"/>
		</g>
		<g>
			<path style="fill:#FFFFFF;" d="M856.1-341.2c1.7,0,3.4,0.5,5.1,1.8c0,10.1,0,20.3,0,30.4c-1.7-1.3-3.4-1.8-5.1-1.8
				c-4.7,0-9.4,3.5-14.1,3.5c-1.7,0-3.4-0.5-5.1-1.8c0-10.1,0-20.3,0-30.4c1.7,1.3,3.4,1.8,5.1,1.8
				C846.8-337.7,851.4-341.2,856.1-341.2 M833.9-345.5v6v30.4v1.5l1.2,0.9c2.1,1.6,4.4,2.4,6.9,2.4c2.9,0,5.5-1,8.1-1.9
				c2.1-0.8,4.2-1.6,6-1.6c1.2,0,2.3,0.4,3.3,1.2l4.8,3.6v-6v-30.4v-1.5l-1.2-0.9c-2.1-1.6-4.4-2.4-6.9-2.4h0c-2.9,0-5.5,1-8.1,1.9
				c-2.1,0.8-4.2,1.6-6,1.6c-1.2,0-2.3-0.4-3.3-1.2L833.9-345.5L833.9-345.5z"/>
		</g>
	</g>
	<g>
		<g>
			<path style="fill:#404040;" d="M883.8-305.8c-2.6,0-5.1-0.9-7.6-1.9c-2.3-0.9-4.4-1.7-6.5-1.7c-1.6,0-2.9,0.5-4.2,1.5l-2.4,1.8
				v-34.2l0.6-0.5c1.8-1.4,3.8-2.1,6-2.1c2.6,0,5.1,0.9,7.6,1.9c2.3,0.9,4.4,1.7,6.5,1.7c1.6,0,2.9-0.5,4.2-1.5l2.4-1.8v34.2
				l-0.6,0.5C888-306.5,886-305.8,883.8-305.8z"/>
		</g>
		<g>
			<path style="fill:#FFFFFF;" d="M869.7-341.2c4.7,0,9.4,3.5,14.1,3.5c1.7,0,3.4-0.5,5.1-1.8c0,10.1,0,20.3,0,30.4
				c-1.7,1.3-3.4,1.8-5.1,1.8c-4.7,0-9.4-3.5-14.1-3.5c-1.7,0-3.4,0.5-5.1,1.8c0-10.1,0-20.3,0-30.4
				C866.3-340.8,868-341.2,869.7-341.2 M891.9-345.5l-4.8,3.6c-1.1,0.8-2.1,1.2-3.3,1.2c-1.8,0-3.8-0.8-6-1.6
				c-2.6-1-5.2-1.9-8.1-1.9c-2.5,0-4.9,0.8-6.9,2.4l-1.2,0.9v1.5v30.4v6l4.8-3.6c1.1-0.8,2.1-1.2,3.3-1.2c1.8,0,3.8,0.8,6,1.6
				c2.6,1,5.2,1.9,8.1,1.9c2.5,0,4.9-0.8,6.9-2.4l1.2-0.9v-1.5v-30.4V-345.5L891.9-345.5z"/>
		</g>
	</g>
	<g>
		<g>
			<path style="fill:#404040;" d="M951.8-435.5c-2.2,0-4.2-0.7-6-2.1l-0.6-0.5v-34.2l2.4,1.8c1.3,1,2.7,1.5,4.2,1.5
				c2.1,0,4.2-0.8,6.5-1.7c2.4-0.9,4.9-1.9,7.6-1.9c2.2,0,4.2,0.7,6,2.1l0.6,0.5v34.2l-2.4-1.8c-1.3-1-2.7-1.5-4.2-1.5
				c-2.1,0-4.2,0.8-6.5,1.7C956.9-436.4,954.4-435.5,951.8-435.5C951.8-435.5,951.8-435.5,951.8-435.5z"/>
		</g>
		<g>
			<path style="fill:#FFFFFF;" d="M965.8-470.9c1.7,0,3.4,0.5,5.1,1.8c0,10.1,0,20.3,0,30.4c-1.7-1.3-3.4-1.8-5.1-1.8
				c-4.7,0-9.4,3.5-14.1,3.5c-1.7,0-3.4-0.5-5.1-1.8c0-10.1,0-20.3,0-30.4c1.7,1.3,3.4,1.8,5.1,1.8
				C956.5-467.4,961.2-470.9,965.8-470.9 M943.7-475.2v6v30.4v1.5l1.2,0.9c2.1,1.6,4.4,2.4,6.9,2.4c2.9,0,5.5-1,8.1-1.9
				c2.1-0.8,4.2-1.6,6-1.6c1.2,0,2.3,0.4,3.3,1.2l4.8,3.6v-6v-30.4v-1.5l-1.2-0.9c-2.1-1.6-4.4-2.4-6.9-2.4h0c-2.9,0-5.5,1-8.1,1.9
				c-2.1,0.8-4.2,1.6-6,1.6c-1.2,0-2.3-0.4-3.3-1.2L943.7-475.2L943.7-475.2z"/>
		</g>
	</g>
	<g>
		<g>
			<path style="fill:#404040;" d="M993.5-435.5c-2.6,0-5.1-0.9-7.6-1.9c-2.3-0.9-4.4-1.7-6.5-1.7c-1.6,0-2.9,0.5-4.2,1.5l-2.4,1.8
				v-34.2l0.6-0.5c1.8-1.4,3.8-2.1,6-2.1c2.6,0,5.1,0.9,7.6,1.9c2.3,0.9,4.4,1.7,6.5,1.7c1.6,0,2.9-0.5,4.2-1.5l2.4-1.8v34.2
				l-0.6,0.5C997.7-436.2,995.7-435.5,993.5-435.5z"/>
		</g>
		<g>
			<path style="fill:#FFFFFF;" d="M979.5-470.9c4.7,0,9.4,3.5,14.1,3.5c1.7,0,3.4-0.5,5.1-1.8c0,10.1,0,20.3,0,30.4
				c-1.7,1.3-3.4,1.8-5.1,1.8c-4.7,0-9.4-3.5-14.1-3.5c-1.7,0-3.4,0.5-5.1,1.8c0-10.1,0-20.3,0-30.4
				C976-470.5,977.7-470.9,979.5-470.9 M1001.7-475.2l-4.8,3.6c-1.1,0.8-2.1,1.2-3.3,1.2c-1.8,0-3.8-0.8-6-1.6
				c-2.6-1-5.2-1.9-8.1-1.9c-2.5,0-4.9,0.8-6.9,2.4l-1.2,0.9v1.5v30.4v6l4.8-3.6c1.1-0.8,2.1-1.2,3.3-1.2c1.8,0,3.8,0.8,6,1.6
				c2.6,1,5.2,1.9,8.1,1.9c2.5,0,4.9-0.8,6.9-2.4l1.2-0.9v-1.5v-30.4V-475.2L1001.7-475.2z"/>
		</g>
	</g>
	<g>
		<path style="fill:#FFFFFF;" d="M862.9-276.3c-26.5,0-48-21.5-48-48s21.5-48,48-48s48,21.5,48,48S889.4-276.3,862.9-276.3z
			 M862.9-359.3c-19.3,0-35,15.7-35,35s15.7,35,35,35s35-15.7,35-35S882.2-359.3,862.9-359.3z"/>
		<path style="fill:#404040;" d="M862.9-363.3c21.5,0,39,17.5,39,39s-17.5,39-39,39s-39-17.5-39-39S841.4-363.3,862.9-363.3
			 M862.9-368.3c-24.3,0-44,19.7-44,44s19.7,44,44,44s44-19.7,44-44S887.2-368.3,862.9-368.3L862.9-368.3z"/>
	</g>
	<g>
		<path style="fill:#FFFFFF;" d="M88.3,22c-1.4,4.5-5.5,7.7-10.5,7.8C81.1,35,83,41.3,83,48c0,19.3-15.7,35-35,35S13,67.3,13,48
			s15.7-35,35-35c6.9,0,13.4,2,18.8,5.5c0.1-4.9,3.4-9,7.9-10.3C67.1,3,57.9,0,48,0C21.5,0,0,21.5,0,48s21.5,48,48,48s48-21.5,48-48
			C96,38.4,93.2,29.5,88.3,22z"/>
		<path style="fill:none;" d="M48,0C21.5,0,0,21.5,0,48s21.5,48,48,48s48-21.5,48-48S74.5,0,48,0z M48,13c19.3,0,35,15.7,35,35
			S67.3,83,48,83S13,67.3,13,48S28.7,13,48,13z"/>
		<g>
			<path style="fill:#FFFFFF;" d="M77.8,29.7c-6.1,0-11-4.9-11-11s4.9-11,11-11s11,4.9,11,11S83.8,29.7,77.8,29.7z"/>
			<circle style="fill:#AFB7B9;" cx="77.5" cy="18.8" r="7"/>
		</g>
		<path style="fill:#FFFFFF;" d="M77.8,7.7c-6.1,0-11,4.9-11,11s4.9,11,11,11s11-4.9,11-11S83.8,7.7,77.8,7.7z M77.8,25.7
			c-3.9,0-7-3.1-7-7c0-3.9,3.1-7,7-7s7,3.1,7,7C84.8,22.6,81.6,25.7,77.8,25.7z"/>
		<path style="fill:#404040;" d="M86.1,25.9c-1.1,1.3-2.5,2.3-4.1,2.9c3.2,5.7,5,12.2,5,19.1c0,21.5-17.5,39-39,39S9,69.5,9,48
			S26.5,9,48,9c7.2,0,13.9,2,19.7,5.4c0.7-1.6,1.7-3,3-4C64.1,6.3,56.3,4,48,4C23.7,4,4,23.7,4,48s19.7,44,44,44s44-19.7,44-44
			C92,40,89.8,32.4,86.1,25.9z"/>
		<path style="fill:none;" d="M77.8,7.7c-6.1,0-11,4.9-11,11s4.9,11,11,11s11-4.9,11-11S83.8,7.7,77.8,7.7z"/>
		<path style="fill:#FFFFFF;" d="M38.5,70l0-13.2l-13.2,0c-4.5,0-8.5-3.2-9.2-7.6c-0.8-5.6,3.5-10.4,8.9-10.4h13.5l0-13.2
			c0-4.5,3.2-8.5,7.6-9.2c5.6-0.8,10.4,3.5,10.4,8.9v13.5l13.2,0c4.5,0,8.5,3.2,9.2,7.6c0.8,5.6-3.5,10.4-8.9,10.4H56.5v13.5
			c0,5.4-4.8,9.7-10.4,8.9C41.7,78.6,38.5,74.5,38.5,70z"/>
		<path style="fill:#404040;" d="M69.8,42.8l-17.3,0l0-17.3c0-2.4-1.6-4.6-4-5.1c-3.2-0.6-6,1.8-6,4.9v17.5l-17.3,0
			c-2.4,0-4.6,1.6-5.1,4c-0.6,3.2,1.8,6,4.9,6h17.5l0,17.3c0,2.4,1.6,4.6,4,5.1c3.2,0.6,6-1.8,6-4.9V52.8H70c3.1,0,5.5-2.8,4.9-6
			C74.4,44.4,72.2,42.8,69.8,42.8z"/>
	</g>
	<path style="fill:#FFFFFF;" d="M190.4,95.4c-24.7,0-44.8-20.1-44.8-44.8c0-16.6,9.1-31.8,23.9-39.6c1.1-0.6,2.3-0.9,3.6-0.9
		c2.8,0,5.4,1.6,6.7,4.1c2,3.7,0.6,8.3-3.2,10.3c-9.7,5.1-15.7,15.2-15.7,26.2c0,16.3,13.3,29.6,29.6,29.6S220,66.9,220,50.6
		c0-11-6-21-15.8-26.2c-3.7-2-5.1-6.6-3.2-10.3c1.3-2.5,3.9-4.1,6.7-4.1c1.2,0,2.5,0.3,3.6,0.9c14.7,7.8,23.9,23,23.9,39.7
		C235.2,75.3,215.1,95.4,190.4,95.4z"/>
	<path style="fill:#404040;" d="M190.4,91.6c-22.6,0-41-18.4-41-41c0-15.2,8.4-29.1,21.8-36.3c1.9-1,4.2-0.3,5.2,1.6
		c1,1.9,0.3,4.2-1.6,5.2c-11,5.8-17.8,17.1-17.8,29.5C157,69,172,84,190.4,84s33.4-15,33.4-33.4c0-12.4-6.8-23.7-17.8-29.5
		c-1.9-1-2.6-3.3-1.6-5.2c1-1.9,3.3-2.6,5.2-1.6c13.5,7.1,21.9,21,21.9,36.3C231.4,73.2,213,91.6,190.4,91.6z"/>
	<path style="fill:#FFFFFF;" d="M190.4,56.7c-4.2,0-7.6-3.4-7.6-7.6v-42c0-4.2,3.4-7.6,7.6-7.6s7.6,3.4,7.6,7.6v42
		C198,53.2,194.6,56.7,190.4,56.7z"/>
	<path style="fill:#404040;" d="M190.4,52.9c-2.1,0-3.8-1.7-3.8-3.8v-42c0-2.1,1.7-3.8,3.8-3.8s3.8,1.7,3.8,3.8v42
		C194.2,51.1,192.5,52.9,190.4,52.9z"/>
	<circle style="fill:#AFB7B9;" cx="190.4" cy="49" r="3.8"/>
	<g>
		<g>
			<path style="fill:#404040;" d="M234.1,424.6c-2.1,0-4-0.6-5.7-2l-0.4-0.3v-32.9l1.6,1.2c1.4,1,2.9,1.6,4.5,1.6
				c2.2,0,4.4-0.8,6.7-1.7c2.4-0.9,4.9-1.8,7.4-1.8c2.1,0,4,0.6,5.7,2l0.4,0.3v32.9l-1.6-1.2c-1.4-1-2.9-1.6-4.5-1.6
				c-2.2,0-4.4,0.8-6.7,1.7C239.1,423.7,236.6,424.6,234.1,424.6C234.1,424.6,234.1,424.6,234.1,424.6z"/>
		</g>
		<g>
			<path style="fill:#FFFFFF;" d="M248.2,389.7c1.7,0,3.4,0.5,5.1,1.8c0,10.1,0,20.3,0,30.4c-1.7-1.3-3.4-1.8-5.1-1.8
				c-4.7,0-9.4,3.5-14.1,3.5c-1.7,0-3.4-0.5-5.1-1.8c0-10.1,0-20.3,0-30.4c1.7,1.3,3.4,1.8,5.1,1.8
				C238.8,393.2,243.5,389.7,248.2,389.7 M227,387.5v4v30.4v1l0.8,0.6c1.9,1.5,4,2.2,6.3,2.2c2.7,0,5.3-1,7.7-1.9
				c2.2-0.8,4.3-1.6,6.3-1.6c1.5,0,2.7,0.4,3.9,1.4l3.2,2.4v-4v-30.4v-1l-0.8-0.6c-1.9-1.5-4-2.2-6.3-2.2h0c-2.7,0-5.3,1-7.7,1.9
				c-2.2,0.8-4.3,1.6-6.3,1.6c-1.5,0-2.7-0.4-3.9-1.4L227,387.5L227,387.5z"/>
		</g>
	</g>
	<g>
		<g>
			<path style="fill:#404040;" d="M275.8,424.6c-2.5,0-5-0.9-7.4-1.8c-2.3-0.9-4.5-1.7-6.7-1.7c-1.7,0-3.1,0.5-4.5,1.6l-1.6,1.2V391
				l0.4-0.3c1.8-1.3,3.6-2,5.7-2c2.5,0,5,0.9,7.4,1.8c2.3,0.9,4.5,1.7,6.7,1.7c1.7,0,3.1-0.5,4.5-1.6l1.6-1.2v32.9l-0.4,0.3
				C279.8,424,277.9,424.6,275.8,424.6z"/>
		</g>
		<g>
			<path style="fill:#FFFFFF;" d="M261.8,389.7c4.7,0,9.4,3.5,14.1,3.5c1.7,0,3.4-0.5,5.1-1.8c0,10.1,0,20.3,0,30.4
				c-1.7,1.3-3.4,1.8-5.1,1.8c-4.7,0-9.4-3.5-14.1-3.5c-1.7,0-3.4,0.5-5.1,1.8c0-10.1,0-20.3,0-30.4
				C258.3,390.2,260,389.7,261.8,389.7 M283,387.5l-3.2,2.4c-1.2,0.9-2.5,1.4-3.9,1.4c-2,0-4.1-0.8-6.3-1.6c-2.5-0.9-5-1.9-7.7-1.9
				c-2.3,0-4.4,0.7-6.3,2.2l-0.8,0.6v1v30.4v4l3.2-2.4c1.2-0.9,2.5-1.4,3.9-1.4c2,0,4.1,0.8,6.3,1.6c2.5,0.9,5,1.9,7.7,1.9
				c2.3,0,4.4-0.7,6.3-2.2l0.8-0.6v-1v-30.4V387.5L283,387.5z"/>
		</g>
	</g>
	<g>
		<path style="fill:#FFFFFF;" d="M255,454.7c-26.5,0-48-21.5-48-48s21.5-48,48-48s48,21.5,48,48S281.4,454.7,255,454.7z M255,371.7
			c-19.3,0-35,15.7-35,35s15.7,35,35,35s35-15.7,35-35S274.3,371.7,255,371.7z"/>
		<path style="fill:#404040;" d="M255,367.7c21.5,0,39,17.5,39,39s-17.5,39-39,39s-39-17.5-39-39S233.5,367.7,255,367.7 M255,362.7
			c-24.3,0-44,19.7-44,44s19.7,44,44,44s44-19.7,44-44S279.3,362.7,255,362.7L255,362.7z"/>
	</g>
	<g>
		<path style="fill:#FFFFFF;" d="M88.3,380.9c-1.4,4.5-5.5,7.7-10.5,7.8C81.1,394,83,400.3,83,407c0,19.3-15.7,35-35,35
			s-35-15.7-35-35s15.7-35,35-35c6.9,0,13.4,2,18.8,5.5c0.1-4.9,3.4-9,7.9-10.3C67.1,362,57.9,359,48,359c-26.5,0-48,21.5-48,48
			s21.5,48,48,48s48-21.5,48-48C96,397.4,93.2,388.4,88.3,380.9z"/>
		<path style="fill:none;" d="M48,359c-26.5,0-48,21.5-48,48s21.5,48,48,48s48-21.5,48-48S74.5,359,48,359z M48,372
			c19.3,0,35,15.7,35,35s-15.7,35-35,35s-35-15.7-35-35S28.7,372,48,372z"/>
		<g>
			<path style="fill:#FFFFFF;" d="M77.8,388.7c-6.1,0-11-4.9-11-11s4.9-11,11-11s11,4.9,11,11S83.8,388.7,77.8,388.7z"/>
			<circle style="fill:#AFB7B9;" cx="77.5" cy="377.8" r="7"/>
		</g>
		<path style="fill:#FFFFFF;" d="M77.8,366.7c-6.1,0-11,4.9-11,11s4.9,11,11,11s11-4.9,11-11S83.8,366.7,77.8,366.7z M77.8,384.7
			c-3.9,0-7-3.1-7-7c0-3.9,3.1-7,7-7s7,3.1,7,7C84.8,381.6,81.6,384.7,77.8,384.7z"/>
		<path style="fill:#404040;" d="M86.1,384.9c-1.1,1.3-2.5,2.3-4.1,2.9c3.2,5.7,5,12.2,5,19.1c0,21.5-17.5,39-39,39S9,428.5,9,407
			s17.5-39,39-39c7.2,0,13.9,2,19.7,5.4c0.7-1.6,1.7-3,3-4c-6.6-4-14.4-6.3-22.7-6.3c-24.3,0-44,19.7-44,44s19.7,44,44,44
			s44-19.7,44-44C92,398.9,89.8,391.4,86.1,384.9z"/>
		<path style="fill:none;" d="M77.8,366.7c-6.1,0-11,4.9-11,11s4.9,11,11,11s11-4.9,11-11S83.8,366.7,77.8,366.7z"/>
		<path style="fill:#FFFFFF;" d="M38.5,429l0-13.2H25.3c-4.5,0-8.5-3.2-9.2-7.6c-0.8-5.6,3.5-10.4,8.9-10.4h13.5l0-13.2
			c0-4.5,3.2-8.5,7.6-9.2c5.6-0.8,10.4,3.5,10.4,8.9v13.5h13.2c4.5,0,8.5,3.2,9.2,7.6c0.8,5.6-3.5,10.4-8.9,10.4H56.5v13.5
			c0,5.4-4.8,9.7-10.4,8.9C41.7,437.6,38.5,433.5,38.5,429z"/>
		<path style="fill:#404040;" d="M69.8,401.8H52.5l0-17.3c0-2.4-1.6-4.6-4-5.1c-3.2-0.6-6,1.8-6,4.9v17.5H25.2c-2.4,0-4.6,1.6-5.1,4
			c-0.6,3.2,1.8,6,4.9,6h17.5l0,17.3c0,2.4,1.6,4.6,4,5.1c3.2,0.6,6-1.8,6-4.9v-17.5H70c3.1,0,5.5-2.8,4.9-6
			C74.4,403.4,72.2,401.8,69.8,401.8z"/>
	</g>
	<path style="fill:#FFFFFF;" d="M155.6,455c-24.7,0-44.8-20.1-44.8-44.8c0-16.6,9.1-31.8,23.9-39.6c1.1-0.6,2.3-0.9,3.6-0.9
		c2.8,0,5.4,1.6,6.7,4.1c2,3.7,0.6,8.3-3.2,10.3c-9.7,5.1-15.7,15.2-15.7,26.2c0,16.3,13.3,29.6,29.6,29.6s29.6-13.3,29.6-29.6
		c0-11-6-21-15.8-26.2c-3.7-2-5.1-6.6-3.2-10.3c1.3-2.5,3.9-4.1,6.7-4.1c1.2,0,2.5,0.3,3.6,0.9c14.7,7.8,23.9,23,23.9,39.7
		C200.4,434.9,180.3,455,155.6,455z"/>
	<path style="fill:#404040;" d="M155.6,451.2c-22.6,0-41-18.4-41-41c0-15.2,8.4-29.1,21.8-36.3c1.9-1,4.2-0.3,5.2,1.6
		c1,1.9,0.3,4.2-1.6,5.2c-11,5.8-17.8,17.1-17.8,29.5c0,18.4,15,33.4,33.4,33.4s33.4-15,33.4-33.4c0-12.4-6.8-23.7-17.8-29.5
		c-1.9-1-2.6-3.3-1.6-5.2c1-1.9,3.3-2.6,5.2-1.6c13.5,7.1,21.9,21,21.9,36.3C196.6,432.8,178.2,451.2,155.6,451.2z"/>
	<path style="fill:#FFFFFF;" d="M155.6,416.2c-4.2,0-7.6-3.4-7.6-7.6v-42c0-4.2,3.4-7.6,7.6-7.6s7.6,3.4,7.6,7.6v42
		C163.2,412.8,159.8,416.2,155.6,416.2z"/>
	<path style="fill:#404040;" d="M155.6,412.4c-2.1,0-3.8-1.7-3.8-3.8v-42c0-2.1,1.7-3.8,3.8-3.8s3.8,1.7,3.8,3.8v42
		C159.4,410.7,157.7,412.4,155.6,412.4z"/>
	<circle style="fill:#AFB7B9;" cx="155.6" cy="408.6" r="3.8"/>
	<text transform="matrix(1 0 0 1 785.4938 -535.0684)" style="fill:#1E1E1E; font-family:'SegoeUI-Bold'; font-size:14px;">Tutorials</text>
	<text transform="matrix(1 0 0 1 812.8225 -485.9658)" style="fill:#1E1E1E; font-family:'SegoeUI'; font-size:11px;">Editable</text>
	<text transform="matrix(1 0 0 1 947.4789 -425.1938)" style="fill:#1E1E1E; font-family:'SegoeUI'; font-size:11px;">3px stroke</text>
	<rect x="1888.6" y="-489.3" style="fill:#E1EBF5;" width="188.9" height="130.6"/>
	<rect x="2283.6" y="-489.3" style="fill:#E1EBF5;" width="188.9" height="130.6"/>
	<g>
		<path style="fill:#FFFFFF;" d="M1977.1-379.9c-25.9,0-47-21.1-47-47c0-17.4,9.6-33.4,25-41.5c1.2-0.6,2.4-0.9,3.7-0.9
			c3,0,5.7,1.6,7.1,4.3c2.1,3.9,0.6,8.8-3.3,10.8c-10.2,5.4-16.5,15.9-16.5,27.4c0,17.1,13.9,31,31,31s31-13.9,31-31
			c0-11.5-6.3-22-16.5-27.4c-3.9-2.1-5.4-6.9-3.3-10.8c1.4-2.6,4.1-4.3,7.1-4.3c1.3,0,2.6,0.3,3.7,0.9c15.4,8.2,25,24.1,25,41.6
			C2024.1-401,2003-379.9,1977.1-379.9z"/>
		<path style="fill:#2E5291;" d="M1977.1-383.9c-23.7,0-43-19.3-43-43c0-16,8.8-30.5,22.9-38c2-1,4.4-0.3,5.4,1.7
			c1,2,0.3,4.4-1.7,5.4c-11.5,6.1-18.6,18-18.6,30.9c0,19.3,15.7,35,35,35s35-15.7,35-35c0-13-7.1-24.9-18.7-31
			c-2-1-2.7-3.5-1.7-5.4c1-2,3.5-2.7,5.4-1.7c14.1,7.5,22.9,22.1,22.9,38C2020.1-403.2,2000.8-383.9,1977.1-383.9z"/>
		<path style="fill:#FFFFFF;" d="M1977.1-420.6c-4.4,0-8-3.6-8-8v-44c0-4.4,3.6-8,8-8s8,3.6,8,8v44
			C1985.1-424.2,1981.5-420.6,1977.1-420.6z"/>
		<path style="fill:#2E5291;" d="M1977.1-424.6c-2.2,0-4-1.8-4-4v-44c0-2.2,1.8-4,4-4s4,1.8,4,4v44
			C1981.1-426.4,1979.3-424.6,1977.1-424.6z"/>
		<circle style="fill:#BBDE73;" cx="1977.1" cy="-428.6" r="4"/>
	</g>
	<g>
		<g>
			<path style="fill:#2E5291;" d="M2365.4-411.8c-2.2,0-4.2-0.7-6-2.1c-0.4-0.3-0.6-0.7-0.6-1.2v-30.4c0-0.6,0.3-1.1,0.8-1.3
				c0.2-0.1,0.4-0.2,0.7-0.2c0.3,0,0.6,0.1,0.9,0.3c1.3,1,2.7,1.5,4.2,1.5c2.1,0,4.2-0.8,6.5-1.7c2.4-0.9,4.9-1.9,7.6-1.9
				c2.2,0,4.2,0.7,6,2.1c0.4,0.3,0.6,0.7,0.6,1.2v30.4c0,0.6-0.3,1.1-0.8,1.3c-0.2,0.1-0.4,0.2-0.7,0.2c-0.3,0-0.6-0.1-0.9-0.3
				c-1.3-1-2.7-1.5-4.2-1.5c-2.1,0-4.2,0.8-6.5,1.7C2370.5-412.7,2368-411.8,2365.4-411.8L2365.4-411.8z"/>
			<path style="fill:#FFFFFF;" d="M2379.5-447.2c1.7,0,3.4,0.5,5.1,1.8c0,10.1,0,20.3,0,30.4c-1.7-1.3-3.4-1.8-5.1-1.8
				c-4.7,0-9.4,3.5-14.1,3.5c-1.7,0-3.4-0.5-5.1-1.8c0-10.1,0-20.3,0-30.4c1.7,1.3,3.4,1.8,5.1,1.8
				C2370.1-443.7,2374.8-447.2,2379.5-447.2 M2379.5-450.2L2379.5-450.2c-2.9,0-5.5,1-8.1,1.9c-2.1,0.8-4.2,1.6-6,1.6
				c-1.2,0-2.3-0.4-3.3-1.2c-0.5-0.4-1.2-0.6-1.8-0.6c-0.5,0-0.9,0.1-1.3,0.3c-1,0.5-1.7,1.5-1.7,2.7v30.4c0,0.9,0.4,1.8,1.2,2.4
				c2.1,1.6,4.4,2.4,6.9,2.4c2.9,0,5.5-1,8.1-1.9c2.1-0.8,4.2-1.6,6-1.6c1.2,0,2.3,0.4,3.3,1.2c0.5,0.4,1.2,0.6,1.8,0.6
				c0.5,0,0.9-0.1,1.3-0.3c1-0.5,1.7-1.5,1.7-2.7v-30.4c0-0.9-0.4-1.8-1.2-2.4C2384.3-449.4,2382-450.2,2379.5-450.2L2379.5-450.2z"
				/>
		</g>
		<g>
			<path style="fill:#2E5291;" d="M2407.1-411.8c-2.6,0-5.1-0.9-7.6-1.9c-2.3-0.9-4.4-1.7-6.5-1.7c-1.6,0-2.9,0.5-4.2,1.5
				c-0.3,0.2-0.6,0.3-0.9,0.3c-0.2,0-0.5-0.1-0.7-0.2c-0.5-0.3-0.8-0.8-0.8-1.3v-30.4c0-0.5,0.2-0.9,0.6-1.2c1.8-1.4,3.8-2.1,6-2.1
				c2.6,0,5.1,0.9,7.6,1.9c2.3,0.9,4.4,1.7,6.5,1.7c1.6,0,2.9-0.5,4.2-1.5c0.3-0.2,0.6-0.3,0.9-0.3c0.2,0,0.5,0.1,0.7,0.2
				c0.5,0.3,0.8,0.8,0.8,1.3v30.4c0,0.5-0.2,0.9-0.6,1.2C2411.3-412.5,2409.3-411.8,2407.1-411.8z"/>
			<path style="fill:#FFFFFF;" d="M2393.1-447.2c4.7,0,9.4,3.5,14.1,3.5c1.7,0,3.4-0.5,5.1-1.8c0,10.1,0,20.3,0,30.4
				c-1.7,1.3-3.4,1.8-5.1,1.8c-4.7,0-9.4-3.5-14.1-3.5c-1.7,0-3.4,0.5-5.1,1.8c0-10.1,0-20.3,0-30.4
				C2389.6-446.8,2391.4-447.2,2393.1-447.2 M2393.1-450.2c-2.5,0-4.9,0.8-6.9,2.4c-0.8,0.6-1.2,1.5-1.2,2.4v30.4
				c0,1.1,0.6,2.2,1.7,2.7c0.4,0.2,0.9,0.3,1.3,0.3c0.6,0,1.3-0.2,1.8-0.6c1.1-0.8,2.1-1.2,3.3-1.2c1.8,0,3.8,0.8,6,1.6
				c2.6,1,5.2,1.9,8.1,1.9c2.5,0,4.9-0.8,6.9-2.4c0.8-0.6,1.2-1.5,1.2-2.4v-30.4c0-1.1-0.6-2.2-1.7-2.7c-0.4-0.2-0.9-0.3-1.3-0.3
				c-0.6,0-1.3,0.2-1.8,0.6c-1.1,0.8-2.1,1.2-3.3,1.2c-1.8,0-3.8-0.8-6-1.6C2398.6-449.2,2396-450.2,2393.1-450.2L2393.1-450.2z"/>
		</g>
		<g>
			<path style="fill:#FFFFFF;" d="M2386.3-382.3c-26.5,0-48-21.5-48-48s21.5-48,48-48s48,21.5,48,48S2412.7-382.3,2386.3-382.3z
				 M2386.3-465.3c-19.3,0-35,15.7-35,35s15.7,35,35,35s35-15.7,35-35S2405.6-465.3,2386.3-465.3z"/>
			<path style="fill:#2E5291;" d="M2386.3-469.3c21.5,0,39,17.5,39,39s-17.5,39-39,39s-39-17.5-39-39S2364.8-469.3,2386.3-469.3
				 M2386.3-474.3c-24.3,0-44,19.7-44,44s19.7,44,44,44s44-19.7,44-44S2410.6-474.3,2386.3-474.3L2386.3-474.3z"/>
		</g>
	</g>
	<text transform="matrix(1 0 0 1 -2.441406e-04 -10.1754)" style="fill:#FFFFFF; font-family:'SegoeUI-Bold'; font-size:14px;">What&apos;s New</text>
	<text transform="matrix(1 0 0 1 134.9278 -11.3104)" style="fill:#FFFFFF; font-family:'SegoeUI-Bold'; font-size:14px;">Getting Started</text>
	<text transform="matrix(1 0 0 1 266.5102 -11.3104)" style="fill:#FFFFFF; font-family:'SegoeUI-Bold'; font-size:14px;">Tutorials</text>
</g>
<g id="arrows">
</g>
<g id="Text">
	<g id="Windows_Server_New">
	</g>
</g>
<g id="writer_source">
</g>
</svg>
