<?xml version="1.0" encoding="utf-8"?>
<!-- Generator: Adobe Illustrator 21.1.0, SVG Export Plug-In . SVG Version: 6.00 Build 0)  -->
<svg version="1.1" xmlns="http://www.w3.org/2000/svg" xmlns:xlink="http://www.w3.org/1999/xlink" x="0px" y="0px" width="96px"
	 height="96px" viewBox="0 0 96 96" style="enable-background:new 0 0 96 96;" xml:space="preserve">
<symbol  id="Deleted_Symbol_6" viewBox="0 -32 32 32">
	<rect y="-10" width="32" height="2"/>
	<rect y="-26" width="32" height="2"/>
	<rect y="-18" width="32" height="2"/>
	<rect y="-32" style="fill:none;" width="32" height="32"/>
	<rect y="-32" style="fill:none;" width="32" height="32"/>
</symbol>
<symbol  id="New_Symbol_523" viewBox="-27 -6 54 12">
	<image style="overflow:visible;" width="54" height="12" xlink:href="A52EB95C.png"  transform="matrix(1 0 0 -1 -27 6)">
	</image>
</symbol>
<symbol  id="Pencil-02" viewBox="0 -16 16 16">
	<polyline style="fill:none;stroke:#000000;stroke-miterlimit:10;" points="14.9,-4.1 4.7,-14.3 0.7,-15.3 1.7,-11.3 11.9,-1.1 	"/>
	<path style="fill:none;stroke:#000000;stroke-miterlimit:10;" d="M11.9-1.1c0.8,0.8,2.2,0.8,3,0c0.8-0.8,0.8-2.2,0-3"/>
	<path style="fill:none;stroke:#000000;stroke-miterlimit:10;" d="M4.5-14.5c0,1.7-1.3,3-3,3"/>
	<rect y="-16" style="fill:none;" width="16" height="16"/>
	<line style="fill:none;stroke:#000000;stroke-miterlimit:10;" x1="11" y1="-2" x2="14" y2="-5"/>
</symbol>
<symbol  id="Play-01" viewBox="0 -16 16 16">
	<g>
		<path d="M4-2.9L11.3-8L4-13.1V-2.9 M3-1v-14l10,7L3-1L3-1z"/>
	</g>
	<rect y="-16" style="fill:none;" width="16" height="16"/>
</symbol>
<symbol  id="Repairs_x5F_01" viewBox="6 -32 20 32">
	<g>
		<path style="fill:#FFFFFF;" d="M26-16h-4v8.6l2,2V0h-6v-5.4l2-2V-16h-4v-2h2v-11c0-1.7,1.3-3,3-3s3,1.3,3,3v11h2V-16z M20-2h2
			v-2.6l-1-1l-1,1V-2z M22-29c0-0.6-0.4-1-1-1s-1,0.4-1,1v11h2V-29z"/>
		<path style="fill:#FFFFFF;" d="M11,0C8.2,0,6-2.2,6-5c0-1.6,0.8-3,2-4v-20c0-1.7,1.3-3,3-3s3,1.3,3,3v20c1.2,0.9,2,2.4,2,4
			C16-2.2,13.8,0,11,0z M12.5-7.6L12-7.9V-29c0-0.6-0.4-1-1-1s-1,0.4-1,1v21.1L9.5-7.6C8.6-7,8-6.1,8-5c0,1.3,0.8,2.4,2,2.8V-5l1-1
			l1,1v2.8c1.2-0.4,2-1.5,2-2.8C14-6.1,13.4-7,12.5-7.6z"/>
	</g>
</symbol>
<symbol  id="Video_x5F_02" viewBox="0 -16 16 16">
	<rect x="0.5" y="-11.5" style="fill:none;stroke:#101010;stroke-miterlimit:10;" width="11" height="7"/>
	<rect y="-16" style="fill:none;" width="16" height="16"/>
	<polygon style="fill:none;stroke:#101010;stroke-miterlimit:10;" points="11.5,-9.3 15.5,-11.3 15.5,-4.8 11.5,-6.8 	"/>
</symbol>
<symbol  id="W10_x5F_CheckboxIndeterminate_x5F_16" viewBox="-4 -4 8 8">
	<rect x="-4" y="-4" width="8" height="8"/>
</symbol>
<symbol  id="W10_x5F_Checkbox_x5F_16" viewBox="-8 -8 16 16">
	<g>
		<path d="M7,7V-7H-7V7H7 M8,8H-8V-8H8V8L8,8z"/>
	</g>
</symbol>
<symbol  id="W10_x5F_Undo" viewBox="-5.9 -7.9 11.8 15.8">
	<path style="fill:none;stroke:#FFFFFF;stroke-miterlimit:10;" d="M-2.6-7.6L4-1c1.9,1.9,1.9,5,0,6.9L3.9,6C2,7.9-1.1,7.9-3,6
		l-2.5-2.5"/>
</symbol>
<symbol  id="gripper_x5F_16" viewBox="0 -16 16 16">
	<polygon style="fill:none;stroke:#231F20;stroke-miterlimit:10;" points="9.5,-15.5 15.5,-9.5 15.5,-15.5 	"/>
	<rect y="-16" style="fill:none;" width="16" height="16"/>
</symbol>
<symbol  id="smallbox_x5F_32" viewBox="0 -32 32 32">
	<rect x="8" y="-24" width="16" height="16"/>
	<rect y="-32" style="fill:none;" width="32" height="32"/>
</symbol>
<symbol  id="unlock" viewBox="0 -16 16 16">
	<rect x="2.5" y="-15.5" style="fill:none;stroke:#000000;stroke-miterlimit:10;" width="11" height="8"/>
	<rect y="-16" style="fill:none;" width="16" height="16"/>
	<path d="M8,0C5.7,0,4-1.7,4-4h1c0,1.7,1.3,3,3,3s3-1.3,3-3v-3H6v-1h6v4C12-1.7,10.3,0,8,0z"/>
</symbol>
<g id="Layer_1">
	
		<image style="overflow:visible;" width="642" height="358" xlink:href="A52EB95D.png"  transform="matrix(2.5995 0 0 2.5995 886.6215 -944.1609)">
	</image>
	<text transform="matrix(1 0 0 1 404.4894 -2494.8589)" style="fill:#1E1E1E; font-family:'SegoeUI'; font-size:12px;">dgallo@altair.com</text>
	
		<image style="overflow:visible;" width="160" height="173" xlink:href="A52EB95C.jpg"  transform="matrix(1.925 0 0 1.925 -759.5106 -1926.8713)">
	</image>
	<rect x="-352.2" y="-1044.9" style="fill:#E1EBF5;" width="283.7" height="133"/>
	<rect x="-251.7" y="-503.3" style="fill:#E1EBF5;" width="141.8" height="133"/>
	<rect x="-251.7" y="-356.1" style="fill:#E1EBF5;" width="141.8" height="133"/>
	<rect x="176.3" y="-503.3" style="fill:#E1EBF5;" width="141.8" height="133"/>
	<rect x="176.3" y="-356.1" style="fill:#E1EBF5;" width="141.8" height="133"/>
	<rect x="196.8" y="-1037.9" style="fill:#272525;" width="283.7" height="126"/>
	<rect x="-352.2" y="-879.9" style="fill:#E1EBF5;" width="283.7" height="133"/>
	<rect x="196.8" y="-872.9" style="fill:#272525;" width="283.7" height="126"/>
	
		<image style="overflow:visible;" width="171" height="191" xlink:href="A52EB964.jpg"  transform="matrix(1 0 0 1 515.7903 -1012.7276)">
	</image>
	<circle style="fill:#FFFFFF;" cx="751.1" cy="-896.6" r="47.7"/>
	
		<image style="overflow:visible;" width="423" height="670" xlink:href="A52EB967.jpg"  transform="matrix(1 0 0 1 172.0554 252.9299)">
	</image>
	<rect x="-290.2" y="347.1" style="fill:#E1EBF5;" width="350.4" height="119"/>
</g>
<g id="Get_Started">
	<rect x="-363.5" y="-2505.9" style="fill:#E1EBF5;" width="530" height="592"/>
	<g>
		<path style="fill:#2E5291;" d="M138.5-1992c0,22-18,40-40,40h-398c-22,0-40-18-40-40v-398c0-22,18-40,40-40h398c22,0,40,18,40,40
			V-1992z"/>
	</g>
	<g id="Wrench_tool_x28_s_x29_">
	</g>
	<g id="user2">
	</g>
	<g id="user2_1_">
	</g>
	<g id="user2_4_">
	</g>
	<g id="user2_3_">
	</g>
	<g id="user2_2_">
	</g>
	<g id="Internet_2">
	</g>
	<g id="Enterprise">
	</g>
	<g id="Tunnel__x28_stackable_x29_">
	</g>
	<g id="New_Symbol">
	</g>
	<g id="New_Symbol_1">
	</g>
	<g id="Files">
	</g>
	<g id="BlobBlock">
	</g>
	<g id="E_x5F_Enterprise">
	</g>
	<g id="E_x5F_AD_FS">
	</g>
	<g id="C_x5F_Azure_Active_Directory">
	</g>
	<g id="Layer_22">
	</g>
	
		<image style="overflow:visible;" width="211" height="211" xlink:href="A52EB965.jpg"  transform="matrix(1 0 0 1 -632.0106 -2419.8589)">
	</image>
	<g>
		<g>
			
				<image style="overflow:visible;opacity:0.75;" width="373" height="347" xlink:href="A52EB964.png"  transform="matrix(1 0 0 1 -285.0106 -2335.8589)">
			</image>
			<g>
				<g>
					<path style="fill:#FFFFFF;" d="M-100.5-1997.4c-99.3,0-180-80.7-180-180c0-59.9,29.7-115.7,79.3-149.2c5-3.4,10.8-5.1,16.8-5.1
						c10,0,19.3,4.9,24.9,13.2c4.5,6.6,6.1,14.6,4.6,22.5c-1.5,7.9-6,14.7-12.7,19.2c-33.1,22.4-52.9,59.6-52.9,99.5
						c0,66.2,53.8,120,120,120s120-53.8,120-120c0-39.9-19.8-77.1-52.9-99.5c-6.6-4.5-11.1-11.3-12.7-19.2
						c-1.5-7.9,0.1-15.9,4.6-22.5c5.6-8.3,14.9-13.2,24.9-13.2c6,0,11.8,1.8,16.8,5.1c49.7,33.6,79.3,89.4,79.3,149.2
						C79.5-2078.2-1.2-1997.4-100.5-1997.4z"/>
					<path style="fill:#FFFFFF;" d="M-100.5-2007.4c-93.7,0-170-76.3-170-170c0-56.6,28-109.2,74.9-140.9c9.2-6.2,21.6-3.8,27.8,5.4
						c6.2,9.2,3.8,21.6-5.4,27.8c-35.9,24.3-57.3,64.6-57.3,107.8c0,71.7,58.3,130,130,130s130-58.3,130-130
						c0-43.3-21.4-83.6-57.3-107.8c-9.2-6.2-11.6-18.6-5.4-27.8c6.2-9.2,18.6-11.6,27.8-5.4c46.9,31.7,74.9,84.4,74.9,141
						C69.5-2083.7-6.7-2007.4-100.5-2007.4z"/>
				</g>
				<g>
					<path style="fill:#FFFFFF;" d="M-100.5-1997.4c-99.3,0-180-80.7-180-180c0-59.9,29.7-115.7,79.3-149.2c5-3.4,10.8-5.1,16.8-5.1
						c10,0,19.3,4.9,24.9,13.2c4.5,6.6,6.1,14.6,4.6,22.5c-1.5,7.9-6,14.7-12.7,19.2c-33.1,22.4-52.9,59.6-52.9,99.5
						c0,66.2,53.8,120,120,120s120-53.8,120-120c0-39.9-19.8-77.1-52.9-99.5c-6.6-4.5-11.1-11.3-12.7-19.2
						c-1.5-7.9,0.1-15.9,4.6-22.5c5.6-8.3,14.9-13.2,24.9-13.2c6,0,11.8,1.8,16.8,5.1c49.7,33.6,79.3,89.4,79.3,149.2
						C79.5-2078.2-1.2-1997.4-100.5-1997.4z"/>
					<path style="fill:#2E5291;" d="M-100.5-2007.4c-93.7,0-170-76.3-170-170c0-56.6,28-109.2,74.9-140.9c9.2-6.2,21.6-3.8,27.8,5.4
						c6.2,9.2,3.8,21.6-5.4,27.8c-35.9,24.3-57.3,64.6-57.3,107.8c0,71.7,58.3,130,130,130s130-58.3,130-130
						c0-43.3-21.4-83.6-57.3-107.8c-9.2-6.2-11.6-18.6-5.4-27.8c6.2-9.2,18.6-11.6,27.8-5.4c46.9,31.7,74.9,84.4,74.9,141
						C69.5-2083.7-6.7-2007.4-100.5-2007.4z"/>
				</g>
			</g>
		</g>
		<g>
			<g>
				
					<image style="overflow:visible;opacity:0.75;" width="73" height="265" xlink:href="A52EB96C.png"  transform="matrix(1 0 0 1 -135.0106 -2388.8589)">
				</image>
				<g>
					<g>
						<path style="fill:#FFFFFF;" d="M-100.5-2132.7c-16.5,0-30-13.5-30-30v-192c0-16.5,13.5-30,30-30s30,13.5,30,30v192
							C-70.5-2146.1-83.9-2132.7-100.5-2132.7z"/>
						<path style="fill:#FFFFFF;" d="M-100.5-2142.7c-11,0-20-9-20-20v-192c0-11,9-20,20-20s20,9,20,20v192
							C-80.5-2151.6-89.4-2142.7-100.5-2142.7z"/>
					</g>
					<g>
						<path style="fill:#FFFFFF;" d="M-100.5-2132.7c-16.5,0-30-13.5-30-30v-192c0-16.5,13.5-30,30-30s30,13.5,30,30v192
							C-70.5-2146.1-83.9-2132.7-100.5-2132.7z"/>
						<path style="fill:#2E5291;" d="M-100.5-2142.7c-11,0-20-9-20-20v-192c0-11,9-20,20-20s20,9,20,20v192
							C-80.5-2151.6-89.4-2142.7-100.5-2142.7z"/>
					</g>
				</g>
			</g>
			<linearGradient id="SVGID_1_" gradientUnits="userSpaceOnUse" x1="-100.4749" y1="-2142.6685" x2="-100.4749" y2="-2182.6685">
				<stop  offset="0" style="stop-color:#BBDE73"/>
				<stop  offset="7.405663e-02" style="stop-color:#A1C578"/>
				<stop  offset="0.1955" style="stop-color:#7EA280"/>
				<stop  offset="0.3244" style="stop-color:#618586"/>
				<stop  offset="0.4608" style="stop-color:#4A6E8B"/>
				<stop  offset="0.6082" style="stop-color:#3A5E8E"/>
				<stop  offset="0.7745" style="stop-color:#315590"/>
				<stop  offset="1" style="stop-color:#2E5291"/>
			</linearGradient>
			<circle style="fill:url(#SVGID_1_);" cx="-100.5" cy="-2162.7" r="20"/>
		</g>
	</g>
	<text transform="matrix(1 0 0 1 -215.5106 -2463.8589)" style="fill:#1E1E1E; font-family:'SegoeUI'; font-size:48px;">Get Started</text>
	<rect x="-361.2" y="-1855.9" style="fill:#E1EBF5;" width="530" height="592"/>
	<text transform="matrix(1 0 0 1 -222.6785 -1813.8589)" style="fill:#1E1E1E; font-family:'SegoeUI'; font-size:48px;">What&apos;s New</text>
	<rect x="250.3" y="-1855.9" style="fill:#E1EBF5;" width="530" height="592"/>
	<text transform="matrix(1 0 0 1 396.4894 -1813.8589)" style="fill:#1E1E1E; font-family:'SegoeUI'; font-size:48px;">Tutorials</text>
	<g>
		
			<line style="fill:none;stroke:#D83B01;stroke-width:40;stroke-miterlimit:10;" x1="-1000.3" y1="-1517.8" x2="-1000.3" y2="-1277.8"/>
		
			<line style="fill:none;stroke:#D83B01;stroke-width:40;stroke-miterlimit:10;" x1="-880.3" y1="-1397.8" x2="-1120.3" y2="-1397.8"/>
	</g>
	<polygon style="fill:#BBDE73;" points="-989.5,-1645.7 -976.6,-1629.4 -955.9,-1629.4 -960.5,-1609.2 -947.5,-1593 -966.2,-1584 
		-970.8,-1563.8 -989.5,-1572.8 -1008.2,-1563.8 -1012.8,-1584 -1031.5,-1593 -1018.6,-1609.2 -1023.2,-1629.4 -1002.5,-1629.4 	"/>
	<g>
		<g>
			<path style="fill:#2E5291;" d="M142.8-1342c0,22-18,40-40,40h-398c-22,0-40-18-40-40v-398c0-22,18-40,40-40h398c22,0,40,18,40,40
				V-1342z"/>
		</g>
		<g>
			
				<image style="overflow:visible;opacity:0.75;" width="313" height="312" xlink:href="A52EB96F.png"  transform="matrix(1 0 0 1 -251.0106 -1692.8589)">
			</image>
			<g>
				<path style="fill:#FFFFFF;" d="M-96.2-1388.9c-16.5,0-30-13.5-30-30v-90h-90c-16.5,0-30-13.5-30-30s13.5-30,30-30h90v-90
					c0-16.5,13.5-30,30-30s30,13.5,30,30v90h90c16.5,0,30,13.5,30,30s-13.5,30-30,30h-90v90C-66.2-1402.3-79.7-1388.9-96.2-1388.9z"
					/>
			</g>
		</g>
		<path style="fill:#2E5291;" d="M23.8-1558.9h-100v-100c0-11-9-20-20-20s-20,9-20,20v100h-100c-11,0-20,9-20,20s9,20,20,20h100v100
			c0,11,9,20,20,20s20-9,20-20v-100h100c11,0,20-9,20-20S34.8-1558.9,23.8-1558.9z"/>
		<g>
			
				<image style="overflow:visible;opacity:0.75;" width="395" height="395" xlink:href="DFC0CAAB.png"  transform="matrix(1 0 0 1 -291.0106 -1734.8589)">
			</image>
			<g>
				<path style="fill:#FFFFFF;" d="M96-1538.9c0,105.3-85.7,191-191,191s-191-85.7-191-191s85.7-191,191-191
					c32.5,0,63,8.1,89.8,22.5h17.9l17.8-22.3l17.8,22.3h28.5l-6.3,27.8l17.8,22.3l-25.7,12.4l-6.3,27.8l-25.7-12.4l-25.7,12.4
					l-6.3-27.8l-25.7-12.4l17.8-22.3l-4.8-21.2c-24.3-12.2-51.8-19.1-80.8-19.1c-99.8,0-181,81.2-181,181s81.2,181,181,181
					s181-81.2,181-181c0-34.3-9.6-66.5-26.3-93.9l2.8-12.3l0.9-0.4C84-1615,96-1578.4,96-1538.9z"/>
			</g>
		</g>
		<radialGradient id="SVGID_2_" cx="30.4894" cy="-1672.7098" r="41.4768" gradientUnits="userSpaceOnUse">
			<stop  offset="0" style="stop-color:#BBDE73"/>
			<stop  offset="3.057313e-02" style="stop-color:#A9CC77"/>
			<stop  offset="9.760284e-02" style="stop-color:#88AC7E"/>
			<stop  offset="0.1726" style="stop-color:#6C9084"/>
			<stop  offset="0.2563" style="stop-color:#557989"/>
			<stop  offset="0.3525" style="stop-color:#44678C"/>
			<stop  offset="0.4686" style="stop-color:#375B8F"/>
			<stop  offset="0.6255" style="stop-color:#305491"/>
			<stop  offset="1" style="stop-color:#2E5291"/>
		</radialGradient>
		<polygon style="fill:url(#SVGID_2_);" points="30.5,-1713.7 43.4,-1697.4 64.2,-1697.4 59.6,-1677.2 72.5,-1661 53.8,-1652 
			49.2,-1631.8 30.5,-1640.8 11.8,-1631.8 7.2,-1652 -11.5,-1661 1.4,-1677.2 -3.2,-1697.4 17.6,-1697.4 		"/>
	</g>
	<g>
		<path style="fill:#2E5291;" d="M-179.2-936.8c0,2.9-2.4,5.4-5.4,5.4h-53.3c-2.9,0-5.4-2.4-5.4-5.4v-53.3c0-2.9,2.4-5.4,5.4-5.4
			h53.3c2.9,0,5.4,2.4,5.4,5.4V-936.8z"/>
	</g>
	<g>
		
			<image style="overflow:visible;opacity:0.75;" width="44" height="44" xlink:href="DFC0CAA9.png"  transform="matrix(1 0 0 1 -232.8139 -984.6622)">
		</image>
		<g>
			<path style="fill:#FFFFFF;" d="M-211.2-943.1c-2.2,0-4-1.8-4-4v-12.1h-12.1c-2.2,0-4-1.8-4-4s1.8-4,4-4h12.1v-12.1
				c0-2.2,1.8-4,4-4s4,1.8,4,4v12.1h12.1c2.2,0,4,1.8,4,4s-1.8,4-4,4h-12.1v12.1C-207.2-944.9-209-943.1-211.2-943.1z"/>
		</g>
	</g>
	<path style="fill:#2E5291;" d="M-195.1-965.8h-13.4v-13.4c0-1.5-1.2-2.7-2.7-2.7c-1.5,0-2.7,1.2-2.7,2.7v13.4h-13.4
		c-1.5,0-2.7,1.2-2.7,2.7s1.2,2.7,2.7,2.7h13.4v13.4c0,1.5,1.2,2.7,2.7,2.7c1.5,0,2.7-1.2,2.7-2.7v-13.4h13.4c1.5,0,2.7-1.2,2.7-2.7
		S-193.7-965.8-195.1-965.8z"/>
	<g>
		
			<image style="overflow:visible;opacity:0.75;" width="54" height="54" xlink:href="DFC0CAAF.png"  transform="matrix(1 0 0 1 -237.8139 -989.6622)">
		</image>
		<g>
			<path style="fill:#FFFFFF;" d="M-185.5-963.2c0,14.1-11.5,25.6-25.6,25.6s-25.6-11.5-25.6-25.6s11.5-25.6,25.6-25.6
				c4.3,0,8.4,1.1,12,3h2.4l2.4-3l2.4,3h3.8l-0.8,3.7l2.4,3l-3.4,1.7l-0.8,3.7l-3.4-1.7l-3.4,1.7l-0.8-3.7l-3.4-1.7l2.4-3l-0.6-2.8
				c-3.3-1.6-6.9-2.6-10.8-2.6c-13.4,0-24.2,10.9-24.2,24.2s10.9,24.2,24.2,24.2s24.2-10.9,24.2-24.2c0-4.6-1.3-8.9-3.5-12.6
				l0.4-1.6l0.1-0.1C-187.1-973.4-185.5-968.5-185.5-963.2z"/>
		</g>
	</g>
	<radialGradient id="SVGID_3_" cx="-194.2458" cy="-981.091" r="5.5534" gradientUnits="userSpaceOnUse">
		<stop  offset="0" style="stop-color:#BBDE73"/>
		<stop  offset="3.057313e-02" style="stop-color:#A9CC77"/>
		<stop  offset="9.760284e-02" style="stop-color:#88AC7E"/>
		<stop  offset="0.1726" style="stop-color:#6C9084"/>
		<stop  offset="0.2563" style="stop-color:#557989"/>
		<stop  offset="0.3525" style="stop-color:#44678C"/>
		<stop  offset="0.4686" style="stop-color:#375B8F"/>
		<stop  offset="0.6255" style="stop-color:#305491"/>
		<stop  offset="1" style="stop-color:#2E5291"/>
	</radialGradient>
	<polygon style="fill:url(#SVGID_3_);" points="-194.2,-986.6 -192.5,-984.4 -189.7,-984.4 -190.4,-981.7 -188.6,-979.5 
		-191.1,-978.3 -191.7,-975.6 -194.2,-976.8 -196.7,-975.6 -197.4,-978.3 -199.9,-979.5 -198.1,-981.7 -198.8,-984.4 -196,-984.4 	
		"/>
	<g>
		<g>
			<path style="fill:#2E5291;" d="M754.3-1342.7c0,22-18,40-40,40h-398c-22,0-40-18-40-40v-398c0-22,18-40,40-40h398
				c22,0,40,18,40,40V-1342.7z"/>
		</g>
		<g>
			<g>
				
					<image style="overflow:visible;opacity:0.75;" width="139" height="188" xlink:href="DFC0CAAA.png"  transform="matrix(1 0 0 1 378.9894 -1633.8589)">
				</image>
				<g>
					<path style="fill:#FFFFFF;" d="M509.3-1463.3c-41.8-31.4-83.6,31.4-125.4,0c0-52.3,0-104.5,0-156.8
						c41.8,31.4,83.6-31.4,125.4,0C509.3-1567.8,509.3-1515.6,509.3-1463.3z"/>
				</g>
			</g>
			<g>
				
					<image style="overflow:visible;opacity:0.75;" width="138" height="188" xlink:href="DFC0CAB5.png"  transform="matrix(1 0 0 1 516.9894 -1633.8589)">
				</image>
				<g>
					<path style="fill:#FFFFFF;" d="M646.7-1463.3c-41.8,31.4-83.6-31.4-125.4,0c0-52.3,0-104.5,0-156.8
						c41.8-31.4,83.6,31.4,125.4,0C646.7-1567.8,646.7-1515.6,646.7-1463.3z"/>
				</g>
			</g>
		</g>
		<g>
			
				<image style="overflow:visible;opacity:0.75;" width="394" height="394" xlink:href="DFC0CAB6.png"  transform="matrix(1 0 0 1 319.9894 -1736.8589)">
			</image>
			<g>
				<path style="fill:#FFFFFF;" d="M515.3-1351.2c-105,0-190.5-85.5-190.5-190.5s85.5-190.5,190.5-190.5s190.5,85.5,190.5,190.5
					S620.3-1351.2,515.3-1351.2z M515.3-1722.2c-99.5,0-180.5,81-180.5,180.5s81,180.5,180.5,180.5s180.5-81,180.5-180.5
					S614.8-1722.2,515.3-1722.2z"/>
			</g>
		</g>
	</g>
	<g>
		<g>
			<path style="fill:#2E5291;" d="M-93.7-936.8c0,2.9-2.4,5.4-5.4,5.4h-53.3c-2.9,0-5.4-2.4-5.4-5.4v-53.3c0-2.9,2.4-5.4,5.4-5.4
				h53.3c2.9,0,5.4,2.4,5.4,5.4V-936.8z"/>
		</g>
		<g>
			<g>
				
					<image style="overflow:visible;opacity:0.75;" width="20" height="27" xlink:href="DFC0CAB7.png"  transform="matrix(1 0 0 1 -144.8139 -976.6622)">
				</image>
				<g>
					<path style="fill:#FFFFFF;" d="M-126.5-953c-5.6-4.2-11.2,4.2-16.8,0c0-7,0-14,0-21c5.6,4.2,11.2-4.2,16.8,0
						C-126.5-967-126.5-960-126.5-953z"/>
				</g>
			</g>
			<g>
				
					<image style="overflow:visible;opacity:0.75;" width="20" height="27" xlink:href="DFC0CAB9.png"  transform="matrix(1 0 0 1 -125.8139 -976.6622)">
				</image>
				<g>
					<path style="fill:#FFFFFF;" d="M-108.1-953c-5.6,4.2-11.2-4.2-16.8,0c0-7,0-14,0-21c5.6-4.2,11.2,4.2,16.8,0
						C-108.1-967-108.1-960-108.1-953z"/>
				</g>
			</g>
		</g>
		<g>
			
				<image style="overflow:visible;opacity:0.75;" width="54" height="54" xlink:href="DFC0CABB.png"  transform="matrix(1 0 0 1 -151.8139 -989.6622)">
			</image>
			<g>
				<path style="fill:#FFFFFF;" d="M-125.7-938c-14.1,0-25.5-11.4-25.5-25.5s11.4-25.5,25.5-25.5s25.5,11.4,25.5,25.5
					S-111.7-938-125.7-938z M-125.7-987.6c-13.3,0-24.2,10.8-24.2,24.2s10.8,24.2,24.2,24.2s24.2-10.8,24.2-24.2
					S-112.4-987.6-125.7-987.6z"/>
			</g>
		</g>
	</g>
	<g>
		<g>
			<path style="fill:#2E5291;" d="M-265.5-936.8c0,2.9-2.4,5.4-5.4,5.4h-53.3c-2.9,0-5.4-2.4-5.4-5.4v-53.3c0-2.9,2.4-5.4,5.4-5.4
				h53.3c2.9,0,5.4,2.4,5.4,5.4V-936.8z"/>
		</g>
		<g>
			<g>
				
					<image style="overflow:visible;opacity:0.75;" width="51" height="48" xlink:href="DFC0CABE.png"  transform="matrix(1 0 0 1 -322.8139 -983.6622)">
				</image>
				<g>
					<g>
						<path style="fill:#FFFFFF;" d="M-297.5-937.5c-13.3,0-24.1-10.8-24.1-24.1c0-8,4-15.5,10.6-20c0.7-0.5,1.4-0.7,2.2-0.7
							c1.3,0,2.6,0.7,3.3,1.8c0.6,0.9,0.8,2,0.6,3c-0.2,1.1-0.8,2-1.7,2.6c-4.4,3-7.1,8-7.1,13.3c0,8.9,7.2,16.1,16.1,16.1
							c8.9,0,16.1-7.2,16.1-16.1c0-5.3-2.6-10.3-7.1-13.3c-0.9-0.6-1.5-1.5-1.7-2.6c-0.2-1.1,0-2.1,0.6-3c0.7-1.1,2-1.8,3.3-1.8
							c0.8,0,1.6,0.2,2.2,0.7c6.7,4.5,10.6,12,10.6,20C-273.4-948.4-284.2-937.5-297.5-937.5z"/>
						<path style="fill:#FFFFFF;" d="M-297.5-938.9c-12.6,0-22.8-10.2-22.8-22.8c0-7.6,3.8-14.6,10-18.9c1.2-0.8,2.9-0.5,3.7,0.7
							c0.8,1.2,0.5,2.9-0.7,3.7c-4.8,3.2-7.7,8.6-7.7,14.4c0,9.6,7.8,17.4,17.4,17.4c9.6,0,17.4-7.8,17.4-17.4
							c0-5.8-2.9-11.2-7.7-14.4c-1.2-0.8-1.5-2.5-0.7-3.7c0.8-1.2,2.5-1.5,3.7-0.7c6.3,4.2,10,11.3,10,18.9
							C-274.7-949.1-284.9-938.9-297.5-938.9z"/>
					</g>
					<g>
						<path style="fill:#FFFFFF;" d="M-297.5-937.5c-13.3,0-24.1-10.8-24.1-24.1c0-8,4-15.5,10.6-20c0.7-0.5,1.4-0.7,2.2-0.7
							c1.3,0,2.6,0.7,3.3,1.8c0.6,0.9,0.8,2,0.6,3c-0.2,1.1-0.8,2-1.7,2.6c-4.4,3-7.1,8-7.1,13.3c0,8.9,7.2,16.1,16.1,16.1
							c8.9,0,16.1-7.2,16.1-16.1c0-5.3-2.6-10.3-7.1-13.3c-0.9-0.6-1.5-1.5-1.7-2.6c-0.2-1.1,0-2.1,0.6-3c0.7-1.1,2-1.8,3.3-1.8
							c0.8,0,1.6,0.2,2.2,0.7c6.7,4.5,10.6,12,10.6,20C-273.4-948.4-284.2-937.5-297.5-937.5z"/>
						<path style="fill:#2E5291;" d="M-297.5-938.9c-12.6,0-22.8-10.2-22.8-22.8c0-7.6,3.8-14.6,10-18.9c1.2-0.8,2.9-0.5,3.7,0.7
							c0.8,1.2,0.5,2.9-0.7,3.7c-4.8,3.2-7.7,8.6-7.7,14.4c0,9.6,7.8,17.4,17.4,17.4c9.6,0,17.4-7.8,17.4-17.4
							c0-5.8-2.9-11.2-7.7-14.4c-1.2-0.8-1.5-2.5-0.7-3.7c0.8-1.2,2.5-1.5,3.7-0.7c6.3,4.2,10,11.3,10,18.9
							C-274.7-949.1-284.9-938.9-297.5-938.9z"/>
					</g>
				</g>
			</g>
			<g>
				<g>
					
						<image style="overflow:visible;opacity:0.75;" width="11" height="37" xlink:href="DFC0CAD2.png"  transform="matrix(1 0 0 1 -302.8139 -990.6622)">
					</image>
					<g>
						<g>
							<path style="fill:#FFFFFF;" d="M-297.5-955.6c-2.2,0-4-1.8-4-4v-25.7c0-2.2,1.8-4,4-4c2.2,0,4,1.8,4,4v25.7
								C-293.5-957.4-295.3-955.6-297.5-955.6z"/>
							<path style="fill:#FFFFFF;" d="M-297.5-957c-1.5,0-2.7-1.2-2.7-2.7v-25.7c0-1.5,1.2-2.7,2.7-2.7c1.5,0,2.7,1.2,2.7,2.7v25.7
								C-294.8-958.2-296-957-297.5-957z"/>
						</g>
						<g>
							<path style="fill:#FFFFFF;" d="M-297.5-955.6c-2.2,0-4-1.8-4-4v-25.7c0-2.2,1.8-4,4-4c2.2,0,4,1.8,4,4v25.7
								C-293.5-957.4-295.3-955.6-297.5-955.6z"/>
							<path style="fill:#2E5291;" d="M-297.5-957c-1.5,0-2.7-1.2-2.7-2.7v-25.7c0-1.5,1.2-2.7,2.7-2.7c1.5,0,2.7,1.2,2.7,2.7v25.7
								C-294.8-958.2-296-957-297.5-957z"/>
						</g>
					</g>
				</g>
				<linearGradient id="SVGID_4_" gradientUnits="userSpaceOnUse" x1="-297.4749" y1="-956.985" x2="-297.4749" y2="-962.3407">
					<stop  offset="0" style="stop-color:#BBDE73"/>
					<stop  offset="7.405663e-02" style="stop-color:#A1C578"/>
					<stop  offset="0.1955" style="stop-color:#7EA280"/>
					<stop  offset="0.3244" style="stop-color:#618586"/>
					<stop  offset="0.4608" style="stop-color:#4A6E8B"/>
					<stop  offset="0.6082" style="stop-color:#3A5E8E"/>
					<stop  offset="0.7745" style="stop-color:#315590"/>
					<stop  offset="1" style="stop-color:#2E5291"/>
				</linearGradient>
				<circle style="fill:url(#SVGID_4_);" cx="-297.5" cy="-959.7" r="2.7"/>
			</g>
		</g>
	</g>
	<text transform="matrix(1 0 0 1 -327.5047 -1008.8589)" style="fill:#1E1E1E; font-family:'SegoeUI'; font-size:12px;">Get Started</text>
	<text transform="matrix(1 0 0 1 -350.0152 -722.8589)" style="fill:#1E1E1E; font-family:'SegoeUI'; font-size:12px;">Design Specs: </text>
	<text transform="matrix(1 0 0 1 -338.0152 -703.8589)"><tspan x="0" y="0" style="fill:#1E1E1E; font-family:'SegoeUI'; font-size:12px;">●   Dark blue is Altair corp color</tspan><tspan x="0" y="13.2" style="fill:#1E1E1E; font-family:'SegoeUI'; font-size:12px;">●   Symbol designed in current &apos;flat&apos; look/style</tspan><tspan x="0" y="26.4" style="fill:#1E1E1E; font-family:'SegoeUI'; font-size:12px;">●   Translates well positive/negative</tspan><tspan x="0" y="39.6" style="fill:#1E1E1E; font-family:'SegoeUI'; font-size:12px;">●   2 main colors: blue/white</tspan><tspan x="0" y="52.8" style="fill:#1E1E1E; font-family:'SegoeUI'; font-size:12px;">●   Accent colors may be used for action. Ex: Green = Go, Yellow =caution, etc</tspan><tspan x="0" y="66" style="fill:#1E1E1E; font-family:'SegoeUI'; font-size:12px;">●   All vector based, however some details will reduce as size reduces</tspan><tspan x="0" y="79.2" style="fill:#1E1E1E; font-family:'SegoeUI'; font-size:12px;">●   Star and green dot will be the same in final, only shown as possible examples </tspan><tspan x="0" y="92.4" style="fill:#1E1E1E; font-family:'SegoeUI'; font-size:12px;">      (I&apos;m leaning towards the green dot)</tspan></text>
	<text transform="matrix(1 0 0 1 -243.1278 -1008.8589)" style="fill:#1E1E1E; font-family:'SegoeUI'; font-size:12px;">What&apos;s New</text>
	<text transform="matrix(1 0 0 1 -150.1893 -1008.8589)" style="fill:#1E1E1E; font-family:'SegoeUI'; font-size:12px;">Tutorials</text>
	<g>
		<g>
			<path style="fill:#2E5291;" d="M140.1-950.6c-6.8-5.1-13.7,5.1-20.5,0c0-8.6,0-17.1,0-25.7c6.8,5.1,13.7-5.1,20.5,0
				C140.1-967.7,140.1-959.2,140.1-950.6z"/>
		</g>
		<g>
			<path style="fill:#2E5291;" d="M162.6-950.6c-6.8,5.1-13.7-5.1-20.5,0c0-8.6,0-17.1,0-25.7c6.8-5.1,13.7,5.1,20.5,0
				C162.6-967.7,162.6-959.2,162.6-950.6z"/>
		</g>
	</g>
	<g>
		<path style="fill:#FFFFFF;" d="M-29.6-931.5c-16.4,0-29.7-13.3-29.7-29.7c0-9.9,4.9-19.1,13.1-24.7c0.8-0.6,1.8-0.9,2.8-0.9
			c1.7,0,3.2,0.8,4.1,2.2c0.7,1.1,1,2.4,0.8,3.7c-0.3,1.3-1,2.4-2.1,3.2c-5.5,3.7-8.7,9.8-8.7,16.4c0,10.9,8.9,19.8,19.8,19.8
			s19.8-8.9,19.8-19.8c0-6.6-3.3-12.7-8.7-16.4c-1.1-0.7-1.8-1.9-2.1-3.2c-0.3-1.3,0-2.6,0.8-3.7c0.9-1.4,2.5-2.2,4.1-2.2
			c1,0,1.9,0.3,2.8,0.9c8.2,5.5,13.1,14.8,13.1,24.7C0.2-944.8-13.2-931.5-29.6-931.5z"/>
		<path style="fill:#FFFFFF;" d="M-29.6-953.8c-2.7,0-5-2.2-5-5v-31.7c0-2.7,2.2-5,5-5s5,2.2,5,5v31.7
			C-24.6-956-26.9-953.8-29.6-953.8z"/>
		<g>
			<path style="fill:#2E5291;" d="M-29.6-933.1c-15.5,0-28.1-12.6-28.1-28.1c0-9.3,4.6-18.1,12.4-23.3c1.5-1,3.6-0.6,4.6,0.9
				c1,1.5,0.6,3.6-0.9,4.6c-5.9,4-9.5,10.7-9.5,17.8c0,11.8,9.6,21.5,21.5,21.5s21.5-9.6,21.5-21.5c0-7.1-3.5-13.8-9.5-17.8
				c-1.5-1-1.9-3.1-0.9-4.6c1-1.5,3.1-1.9,4.6-0.9c7.8,5.2,12.4,13.9,12.4,23.3C-1.5-945.7-14.1-933.1-29.6-933.1z"/>
			<path style="fill:#2E5291;" d="M-29.6-955.5c-1.8,0-3.3-1.5-3.3-3.3v-31.7c0-1.8,1.5-3.3,3.3-3.3s3.3,1.5,3.3,3.3v31.7
				C-26.3-956.9-27.8-955.5-29.6-955.5z"/>
		</g>
		<circle style="fill:#BBDE73;" cx="-29.6" cy="-958.8" r="3"/>
	</g>
	<text transform="matrix(1 0 0 1 -59.5882 -1008.8589)" style="fill:#1E1E1E; font-family:'SegoeUI'; font-size:12px;">Get Started</text>
	<text transform="matrix(1 0 0 1 24.771 -1008.8589)" style="fill:#1E1E1E; font-family:'SegoeUI'; font-size:12px;">What&apos;s New</text>
	<text transform="matrix(1 0 0 1 118.441 -1008.8589)" style="fill:#1E1E1E; font-family:'SegoeUI'; font-size:12px;">Tutorials</text>
	<circle style="fill:none;stroke:#2E5291;stroke-width:4;stroke-miterlimit:10;" cx="141.1" cy="-963.5" r="32"/>
	<path style="fill:#2E5291;" d="M56.7-943.1c-2.2,0-4-1.8-4-4v-12.1H40.6c-2.2,0-4-1.8-4-4s1.8-4,4-4h12.1v-12.1c0-2.2,1.8-4,4-4
		c2.2,0,4,1.8,4,4v12.1h12.1c2.2,0,4,1.8,4,4s-1.8,4-4,4H60.7v12.1C60.7-944.9,58.9-943.1,56.7-943.1z"/>
	<path style="fill:#2E5291;" d="M73-965.9H59.6v-13.4c0-1.5-1.2-2.7-2.7-2.7c-1.5,0-2.7,1.2-2.7,2.7v13.4H40.9
		c-1.5,0-2.7,1.2-2.7,2.7s1.2,2.7,2.7,2.7h13.4v13.4c0,1.5,1.2,2.7,2.7,2.7c1.5,0,2.7-1.2,2.7-2.7v-13.4H73c1.5,0,2.7-1.2,2.7-2.7
		S74.5-965.9,73-965.9z"/>
	<circle style="fill:none;stroke:#2E5291;stroke-width:4;stroke-miterlimit:10;" cx="56.9" cy="-963.5" r="32"/>
	<path style="fill:#FFFFFF;" d="M79.2-975.6c-6,0-10.8-4.8-10.8-10.8s4.8-10.8,10.8-10.8S90-992.4,90-986.4S85.2-975.6,79.2-975.6z"
		/>
	<circle style="fill:#BBDE73;" cx="79.2" cy="-986.4" r="5.8"/>
	<g>
		<g>
			<path style="fill:#2E5291;" d="M399.6-632.6c-6.8-5.1-13.7,5.1-20.5,0c0-8.6,0-17.1,0-25.7c6.8,5.1,13.7-5.1,20.5,0
				C399.6-649.7,399.6-641.2,399.6-632.6z"/>
		</g>
		<g>
			<path style="fill:#2E5291;" d="M422.1-632.6c-6.8,5.1-13.7-5.1-20.5,0c0-8.6,0-17.1,0-25.7c6.8-5.1,13.7,5.1,20.5,0
				C422.1-649.7,422.1-641.2,422.1-632.6z"/>
		</g>
	</g>
	<g>
		<path style="fill:#FFFFFF;" d="M229.9-613.4c-16.4,0-29.7-13.3-29.7-29.7c0-9.9,4.9-19.1,13.1-24.7c0.8-0.6,1.8-0.9,2.8-0.9
			c1.7,0,3.2,0.8,4.1,2.2c0.7,1.1,1,2.4,0.8,3.7c-0.3,1.3-1,2.4-2.1,3.2c-5.5,3.7-8.7,9.8-8.7,16.4c0,10.9,8.9,19.8,19.8,19.8
			s19.8-8.9,19.8-19.8c0-6.6-3.3-12.7-8.7-16.4c-1.1-0.7-1.8-1.9-2.1-3.2c-0.3-1.3,0-2.6,0.8-3.7c0.9-1.4,2.5-2.2,4.1-2.2
			c1,0,1.9,0.3,2.8,0.9c8.2,5.5,13.1,14.8,13.1,24.7C259.6-626.8,246.3-613.4,229.9-613.4z"/>
		<path style="fill:#FFFFFF;" d="M229.9-635.8c-2.7,0-5-2.2-5-5v-31.7c0-2.7,2.2-5,5-5c2.7,0,5,2.2,5,5v31.7
			C234.8-638,232.6-635.8,229.9-635.8z"/>
		<g>
			<path style="fill:#2E5291;" d="M229.9-615.1c-15.5,0-28.1-12.6-28.1-28.1c0-9.3,4.6-18.1,12.4-23.3c1.5-1,3.6-0.6,4.6,0.9
				c1,1.5,0.6,3.6-0.9,4.6c-5.9,4-9.5,10.7-9.5,17.8c0,11.8,9.6,21.5,21.5,21.5c11.8,0,21.5-9.6,21.5-21.5c0-7.1-3.5-13.8-9.5-17.8
				c-1.5-1-1.9-3.1-0.9-4.6c1-1.5,3.1-1.9,4.6-0.9c7.8,5.2,12.4,13.9,12.4,23.3C258-627.7,245.3-615.1,229.9-615.1z"/>
			<path style="fill:#2E5291;" d="M229.9-637.4c-1.8,0-3.3-1.5-3.3-3.3v-31.7c0-1.8,1.5-3.3,3.3-3.3c1.8,0,3.3,1.5,3.3,3.3v31.7
				C233.2-638.9,231.7-637.4,229.9-637.4z"/>
		</g>
		<circle style="fill:#BBDE73;" cx="229.9" cy="-640.8" r="3"/>
	</g>
	<text transform="matrix(1 0 0 1 199.8595 -690.8391)" style="fill:#1E1E1E; font-family:'SegoeUI'; font-size:12px;">Get Started</text>
	<text transform="matrix(1 0 0 1 284.2187 -690.8391)" style="fill:#1E1E1E; font-family:'SegoeUI'; font-size:12px;">What&apos;s New</text>
	<text transform="matrix(1 0 0 1 -359.6812 -534.7519)" style="fill:#1E1E1E; font-family:'SegoeUI-Bold'; font-size:14px;">What&apos;s New  96 x 96</text>
	<text transform="matrix(1 0 0 1 172.0554 -534.7519)" style="fill:#1E1E1E; font-family:'SegoeUI-Bold'; font-size:14px;">Get Started  96 x 96</text>
	<text transform="matrix(1 0 0 1 377.8887 -690.8391)" style="fill:#1E1E1E; font-family:'SegoeUI'; font-size:12px;">Tutorials</text>
	<circle style="fill:none;stroke:#2E5291;stroke-width:4;stroke-miterlimit:10;" cx="400.6" cy="-645.4" r="32"/>
	<path style="fill:#2E5291;" d="M313.3-627.4c-2.2,0-4-1.8-4-4v-12.1h-12.1c-2.2,0-4-1.8-4-4c0-2.2,1.8-4,4-4h12.1v-12.1
		c0-2.2,1.8-4,4-4c2.2,0,4,1.8,4,4v12.1h12.1c2.2,0,4,1.8,4,4c0,2.2-1.8,4-4,4h-12.1v12.1C317.3-629.2,315.5-627.4,313.3-627.4z"/>
	<path style="fill:#2E5291;" d="M329.6-650.2h-13.4v-13.4c0-1.5-1.2-2.7-2.7-2.7s-2.7,1.2-2.7,2.7v13.4h-13.4
		c-1.5,0-2.7,1.2-2.7,2.7s1.2,2.7,2.7,2.7h13.4v13.4c0,1.5,1.2,2.7,2.7,2.7s2.7-1.2,2.7-2.7v-13.4h13.4c1.5,0,2.7-1.2,2.7-2.7
		S331.1-650.2,329.6-650.2z"/>
	<circle style="fill:none;stroke:#2E5291;stroke-width:4;stroke-miterlimit:10;" cx="313.5" cy="-647.8" r="32"/>
	<g>
		<path style="fill:#2E5291;" d="M-52.9-492.7c21.5,0,39,17.5,39,39s-17.5,39-39,39s-39-17.5-39-39S-74.5-492.7-52.9-492.7
			 M-52.9-497.7c-24.3,0-44,19.7-44,44s19.7,44,44,44s44-19.7,44-44S-28.6-497.7-52.9-497.7L-52.9-497.7z"/>
	</g>
	<path style="fill:#FFFFFF;" d="M248.1-381.8c-25.9,0-47-21.1-47-47c0-17.4,9.6-33.4,25-41.5c1.2-0.6,2.4-0.9,3.7-0.9
		c3,0,5.7,1.6,7.1,4.3c2.1,3.9,0.6,8.8-3.3,10.8c-10.2,5.4-16.5,15.9-16.5,27.4c0,17.1,13.9,31,31,31s31-13.9,31-31
		c0-11.5-6.3-22-16.5-27.4c-3.9-2.1-5.4-6.9-3.3-10.8c1.4-2.6,4.1-4.3,7.1-4.3c1.3,0,2.6,0.3,3.7,0.9c15.4,8.2,25,24.1,25,41.6
		C295.1-402.9,274-381.8,248.1-381.8z"/>
	<path style="fill:#2E5291;" d="M248.1-385.8c-23.7,0-43-19.3-43-43c0-16,8.8-30.5,22.9-38c2-1,4.4-0.3,5.4,1.7c1,2,0.3,4.4-1.7,5.4
		c-11.5,6.1-18.6,18-18.6,30.9c0,19.3,15.7,35,35,35s35-15.7,35-35c0-13-7.1-24.9-18.7-31c-2-1-2.7-3.5-1.7-5.4c1-2,3.5-2.7,5.4-1.7
		c14.1,7.5,22.9,22.1,22.9,38C291.1-405.1,271.8-385.8,248.1-385.8z"/>
	<path style="fill:#BBDE73;" d="M-52.9-292.3c-26.5,0-48-21.5-48-48s21.5-48,48-48s48,21.5,48,48S-26.5-292.3-52.9-292.3z
		 M-52.9-375.3c-19.3,0-35,15.7-35,35s15.7,35,35,35s35-15.7,35-35S-33.6-375.3-52.9-375.3z"/>
	<path style="fill:#2E5291;" d="M-52.9-379.3c21.5,0,39,17.5,39,39s-17.5,39-39,39s-39-17.5-39-39S-74.5-379.3-52.9-379.3
		 M-52.9-384.3c-24.3,0-44,19.7-44,44s19.7,44,44,44s44-19.7,44-44S-28.6-384.3-52.9-384.3L-52.9-384.3z"/>
	<path style="fill:#FFFFFF;" d="M335.8-659.9c-6,0-10.8-4.8-10.8-10.8s4.8-10.8,10.8-10.8s10.8,4.8,10.8,10.8
		S341.8-659.9,335.8-659.9z"/>
	<circle style="fill:#BBDE73;" cx="335.8" cy="-670.7" r="5.8"/>
	<g>
		<g>
			<path style="fill:#FFFFFF;" d="M423.3-950.6c-6.8-5.1-13.7,5.1-20.5,0c0-8.6,0-17.1,0-25.7c6.8,5.1,13.7-5.1,20.5,0
				C423.3-967.7,423.3-959.2,423.3-950.6z"/>
		</g>
		<g>
			<path style="fill:#FFFFFF;" d="M445.8-950.6c-6.8,5.1-13.7-5.1-20.5,0c0-8.6,0-17.1,0-25.7c6.8-5.1,13.7,5.1,20.5,0
				C445.8-967.7,445.8-959.2,445.8-950.6z"/>
		</g>
	</g>
	<g>
		<path style="fill:#272525;" d="M253.6-931.5c-16.4,0-29.7-13.3-29.7-29.7c0-9.9,4.9-19.1,13.1-24.7c0.8-0.6,1.8-0.9,2.8-0.9
			c1.7,0,3.2,0.8,4.1,2.2c0.7,1.1,1,2.4,0.8,3.7c-0.3,1.3-1,2.4-2.1,3.2c-5.5,3.7-8.7,9.8-8.7,16.4c0,10.9,8.9,19.8,19.8,19.8
			c10.9,0,19.8-8.9,19.8-19.8c0-6.6-3.3-12.7-8.7-16.4c-1.1-0.7-1.8-1.9-2.1-3.2c-0.3-1.3,0-2.6,0.8-3.7c0.9-1.4,2.5-2.2,4.1-2.2
			c1,0,1.9,0.3,2.8,0.9c8.2,5.5,13.1,14.8,13.1,24.7C283.4-944.8,270-931.5,253.6-931.5z"/>
		<path style="fill:#272525;" d="M253.6-953.8c-2.7,0-5-2.2-5-5v-31.7c0-2.7,2.2-5,5-5s5,2.2,5,5v31.7
			C258.6-956,256.3-953.8,253.6-953.8z"/>
		<g>
			<path style="fill:#FFFFFF;" d="M253.6-933.1c-15.5,0-28.1-12.6-28.1-28.1c0-9.3,4.6-18.1,12.4-23.3c1.5-1,3.6-0.6,4.6,0.9
				c1,1.5,0.6,3.6-0.9,4.6c-5.9,4-9.5,10.7-9.5,17.8c0,11.8,9.6,21.5,21.5,21.5c11.8,0,21.5-9.6,21.5-21.5c0-7.1-3.5-13.8-9.5-17.8
				c-1.5-1-1.9-3.1-0.9-4.6c1-1.5,3.1-1.9,4.6-0.9c7.8,5.2,12.4,13.9,12.4,23.3C281.7-945.7,269.1-933.1,253.6-933.1z"/>
			<path style="fill:#FFFFFF;" d="M253.6-955.5c-1.8,0-3.3-1.5-3.3-3.3v-31.7c0-1.8,1.5-3.3,3.3-3.3s3.3,1.5,3.3,3.3v31.7
				C256.9-956.9,255.4-955.5,253.6-955.5z"/>
		</g>
		<circle style="fill:#BBDE73;" cx="253.6" cy="-958.8" r="3.5"/>
	</g>
	<g>
		<path style="fill:#272525;" d="M253.6-764.3c-16.4,0-29.7-13.3-29.7-29.7c0-9.9,4.9-19.1,13.1-24.7c0.8-0.6,1.8-0.9,2.8-0.9
			c1.7,0,3.2,0.8,4.1,2.2c0.7,1.1,1,2.4,0.8,3.7c-0.3,1.3-1,2.4-2.1,3.2c-5.5,3.7-8.7,9.8-8.7,16.4c0,10.9,8.9,19.8,19.8,19.8
			c10.9,0,19.8-8.9,19.8-19.8c0-6.6-3.3-12.7-8.7-16.4c-1.1-0.7-1.8-1.9-2.1-3.2c-0.3-1.3,0-2.6,0.8-3.7c0.9-1.4,2.5-2.2,4.1-2.2
			c1,0,1.9,0.3,2.8,0.9c8.2,5.5,13.1,14.8,13.1,24.7C283.4-777.7,270-764.3,253.6-764.3z"/>
		<path style="fill:#272525;" d="M253.6-786.7c-2.7,0-5-2.2-5-5v-31.7c0-2.7,2.2-5,5-5s5,2.2,5,5v31.7
			C258.6-788.9,256.3-786.7,253.6-786.7z"/>
		<g>
			<path style="fill:#FFFFFF;" d="M253.6-766c-15.5,0-28.1-12.6-28.1-28.1c0-9.3,4.6-18.1,12.4-23.3c1.5-1,3.6-0.6,4.6,0.9
				c1,1.5,0.6,3.6-0.9,4.6c-5.9,4-9.5,10.7-9.5,17.8c0,11.8,9.6,21.5,21.5,21.5c11.8,0,21.5-9.6,21.5-21.5c0-7.1-3.5-13.8-9.5-17.8
				c-1.5-1-1.9-3.1-0.9-4.6c1-1.5,3.1-1.9,4.6-0.9c7.8,5.2,12.4,13.9,12.4,23.3C281.7-778.6,269.1-766,253.6-766z"/>
			<path style="fill:#FFFFFF;" d="M253.6-788.3c-1.8,0-3.3-1.5-3.3-3.3v-31.7c0-1.8,1.5-3.3,3.3-3.3s3.3,1.5,3.3,3.3v31.7
				C256.9-789.8,255.4-788.3,253.6-788.3z"/>
		</g>
		<circle style="fill:#BBDE73;" cx="253.6" cy="-791.6" r="3.5"/>
	</g>
	<text transform="matrix(1 0 0 1 223.6105 -1008.8589)" style="fill:#FFFFFF; font-family:'SegoeUI'; font-size:12px;">Get Started</text>
	<text transform="matrix(1 0 0 1 307.9697 -1008.8589)" style="fill:#FFFFFF; font-family:'SegoeUI'; font-size:12px;">What&apos;s New</text>
	<text transform="matrix(1 0 0 1 401.6397 -1008.8589)" style="fill:#FFFFFF; font-family:'SegoeUI'; font-size:12px;">Tutorials</text>
	<circle style="fill:none;stroke:#FFFFFF;stroke-width:4;stroke-miterlimit:10;" cx="424.3" cy="-963.5" r="32"/>
	<path style="fill:#FFFFFF;" d="M339.9-943.1c-2.2,0-4-1.8-4-4v-12.1h-12.1c-2.2,0-4-1.8-4-4s1.8-4,4-4h12.1v-12.1c0-2.2,1.8-4,4-4
		c2.2,0,4,1.8,4,4v12.1H356c2.2,0,4,1.8,4,4s-1.8,4-4,4h-12.1v12.1C343.9-944.9,342.1-943.1,339.9-943.1z"/>
	<path style="fill:#FFFFFF;" d="M356.2-965.9h-13.4v-13.4c0-1.5-1.2-2.7-2.7-2.7c-1.5,0-2.7,1.2-2.7,2.7v13.4h-13.4
		c-1.5,0-2.7,1.2-2.7,2.7s1.2,2.7,2.7,2.7h13.4v13.4c0,1.5,1.2,2.7,2.7,2.7c1.5,0,2.7-1.2,2.7-2.7v-13.4h13.4c1.5,0,2.7-1.2,2.7-2.7
		S357.7-965.9,356.2-965.9z"/>
	<circle style="fill:none;stroke:#FFFFFF;stroke-width:4;stroke-miterlimit:10;" cx="340.1" cy="-963.5" r="32"/>
	<path style="fill:#FFFFFF;" d="M362.4-977.4c-5,0-9-4-9-9s4-9,9-9c5,0,9,4,9,9S367.4-977.4,362.4-977.4z"/>
	<circle style="fill:#BBDE73;" cx="362.4" cy="-986.4" r="5.8"/>
	<g>
		<path style="fill:#2E5291;" d="M-179.3-771.5c0,2.9-2.4,5.4-5.4,5.4H-238c-2.9,0-5.4-2.4-5.4-5.4v-53.3c0-2.9,2.4-5.4,5.4-5.4
			h53.3c2.9,0,5.4,2.4,5.4,5.4V-771.5z"/>
	</g>
	<g>
		<path style="fill:none;stroke:#2E5291;stroke-width:4;stroke-miterlimit:10;" d="M89-771.2c0,2.9-2.4,5.4-5.4,5.4H30.4
			c-2.9,0-5.4-2.4-5.4-5.4v-53.3c0-2.9,2.4-5.4,5.4-5.4h53.3c2.9,0,5.4,2.4,5.4,5.4V-771.2z"/>
	</g>
	<g>
		<path style="fill:none;stroke:#FFFFFF;stroke-width:2;stroke-miterlimit:10;" d="M-184.3-775.7c0,2.5-2,4.5-4.5,4.5h-45
			c-2.5,0-4.5-2-4.5-4.5v-45c0-2.5,2-4.5,4.5-4.5h45c2.5,0,4.5,2,4.5,4.5V-775.7z"/>
	</g>
	<g>
		<path style="fill:none;stroke:#FFFFFF;stroke-width:2;stroke-miterlimit:10;" d="M-99.1-775.7c0,2.5-2,4.5-4.5,4.5h-45
			c-2.5,0-4.5-2-4.5-4.5v-45c0-2.5,2-4.5,4.5-4.5h45c2.5,0,4.5,2,4.5,4.5V-775.7z"/>
	</g>
	<g>
		<path style="fill:none;stroke:#2E5291;stroke-width:4;stroke-miterlimit:10;" d="M172.1-771.2c0,2.9-2.4,5.4-5.4,5.4h-53.3
			c-2.9,0-5.4-2.4-5.4-5.4v-53.3c0-2.9,2.4-5.4,5.4-5.4h53.3c2.9,0,5.4,2.4,5.4,5.4V-771.2z"/>
	</g>
	<g>
		
			<image style="overflow:visible;opacity:0.75;" width="44" height="44" xlink:href="DFC0CAD1.png"  transform="matrix(1 0 0 1 -232.8139 -819.6622)">
		</image>
		<g>
			<path style="fill:#FFFFFF;" d="M-211.3-778.1c-2.2,0-4-1.8-4-4v-12.1h-12.1c-2.2,0-4-1.8-4-4s1.8-4,4-4h12.1v-12.1
				c0-2.2,1.8-4,4-4s4,1.8,4,4v12.1h12.1c2.2,0,4,1.8,4,4s-1.8,4-4,4h-12.1v12.1C-207.3-779.9-209.1-778.1-211.3-778.1z"/>
		</g>
	</g>
	<path style="fill:#2E5291;" d="M-195.3-800.8h-13.4v-13.4c0-1.5-1.2-2.7-2.7-2.7c-1.5,0-2.7,1.2-2.7,2.7v13.4h-13.4
		c-1.5,0-2.7,1.2-2.7,2.7s1.2,2.7,2.7,2.7h13.4v13.4c0,1.5,1.2,2.7,2.7,2.7c1.5,0,2.7-1.2,2.7-2.7v-13.4h13.4c1.5,0,2.7-1.2,2.7-2.7
		S-193.8-800.8-195.3-800.8z"/>
	<g>
		<g>
			
				<image style="overflow:visible;opacity:0.75;" width="18" height="18" xlink:href="DFC0CADE.png"  transform="matrix(1 0 0 1 -197.3144 -829.4219)">
			</image>
			<g>
				<path style="fill:#FFFFFF;" d="M-184.8-815.9l0.4-1.6l0.1-0.1 M-193.5-825.9h2.4l2.4-3l2.4,3h3.8l-0.8,3.7l2.4,3l-3.4,1.7
					l-0.8,3.7l-3.4-1.7l-3.4,1.7l-0.8-3.7l-3.4-1.7l2.4-3l-0.6-2.8"/>
			</g>
		</g>
		<radialGradient id="SVGID_5_" cx="-188.7463" cy="-821.345" r="5.5534" gradientUnits="userSpaceOnUse">
			<stop  offset="0" style="stop-color:#BBDE73"/>
			<stop  offset="3.057313e-02" style="stop-color:#A9CC77"/>
			<stop  offset="9.760284e-02" style="stop-color:#88AC7E"/>
			<stop  offset="0.1726" style="stop-color:#6C9084"/>
			<stop  offset="0.2563" style="stop-color:#557989"/>
			<stop  offset="0.3525" style="stop-color:#44678C"/>
			<stop  offset="0.4686" style="stop-color:#375B8F"/>
			<stop  offset="0.6255" style="stop-color:#305491"/>
			<stop  offset="1" style="stop-color:#2E5291"/>
		</radialGradient>
		<polygon style="fill:url(#SVGID_5_);" points="-188.7,-826.8 -187,-824.7 -184.2,-824.7 -184.9,-821.9 -183.1,-819.8 
			-185.6,-818.6 -186.2,-815.9 -188.7,-817.1 -191.2,-815.9 -191.9,-818.6 -194.4,-819.8 -192.6,-821.9 -193.3,-824.7 
			-190.5,-824.7 		"/>
	</g>
	<g>
		<path style="fill:#2E5291;" d="M-94.1-771.8c0,2.9-2.4,5.4-5.4,5.4h-53.3c-2.9,0-5.4-2.4-5.4-5.4v-53.3c0-2.9,2.4-5.4,5.4-5.4
			h53.3c2.9,0,5.4,2.4,5.4,5.4V-771.8z"/>
	</g>
	<g>
		<g>
			
				<image style="overflow:visible;opacity:0.75;" width="20" height="27" xlink:href="DFC0CAD0.png"  transform="matrix(1 0 0 1 -144.8139 -811.6622)">
			</image>
			<g>
				<path style="fill:#FFFFFF;" d="M-126.9-788c-5.6-4.2-11.2,4.2-16.8,0c0-7,0-14,0-21c5.6,4.2,11.2-4.2,16.8,0
					C-126.9-802-126.9-795-126.9-788z"/>
			</g>
		</g>
		<g>
			
				<image style="overflow:visible;opacity:0.75;" width="20" height="27" xlink:href="DFC0CAD3.png"  transform="matrix(1 0 0 1 -126.8139 -811.6622)">
			</image>
			<g>
				<path style="fill:#FFFFFF;" d="M-108.5-788c-5.6,4.2-11.2-4.2-16.8,0c0-7,0-14,0-21c5.6-4.2,11.2,4.2,16.8,0
					C-108.5-802-108.5-795-108.5-788z"/>
			</g>
		</g>
	</g>
	<g>
		<g>
			<path style="fill:#2E5291;" d="M-265.5-771.8c0,2.9-2.4,5.4-5.4,5.4h-53.3c-2.9,0-5.4-2.4-5.4-5.4v-53.3c0-2.9,2.4-5.4,5.4-5.4
				h53.3c2.9,0,5.4,2.4,5.4,5.4V-771.8z"/>
		</g>
		<g>
			<g>
				
					<image style="overflow:visible;opacity:0.75;" width="51" height="48" xlink:href="DFC0CAD7.png"  transform="matrix(1 0 0 1 -322.8139 -818.6622)">
				</image>
				<g>
					<g>
						<path style="fill:#FFFFFF;" d="M-297.5-772.5c-13.3,0-24.1-10.8-24.1-24.1c0-8,4-15.5,10.6-20c0.7-0.5,1.4-0.7,2.2-0.7
							c1.3,0,2.6,0.7,3.3,1.8c0.6,0.9,0.8,2,0.6,3c-0.2,1.1-0.8,2-1.7,2.6c-4.4,3-7.1,8-7.1,13.3c0,8.9,7.2,16.1,16.1,16.1
							c8.9,0,16.1-7.2,16.1-16.1c0-5.3-2.6-10.3-7.1-13.3c-0.9-0.6-1.5-1.5-1.7-2.6c-0.2-1.1,0-2.1,0.6-3c0.7-1.1,2-1.8,3.3-1.8
							c0.8,0,1.6,0.2,2.2,0.7c6.7,4.5,10.6,12,10.6,20C-273.4-783.4-284.2-772.5-297.5-772.5z"/>
						<path style="fill:#FFFFFF;" d="M-297.5-773.9c-12.6,0-22.8-10.2-22.8-22.8c0-7.6,3.8-14.6,10-18.9c1.2-0.8,2.9-0.5,3.7,0.7
							c0.8,1.2,0.5,2.9-0.7,3.7c-4.8,3.2-7.7,8.6-7.7,14.4c0,9.6,7.8,17.4,17.4,17.4c9.6,0,17.4-7.8,17.4-17.4
							c0-5.8-2.9-11.2-7.7-14.4c-1.2-0.8-1.5-2.5-0.7-3.7c0.8-1.2,2.5-1.5,3.7-0.7c6.3,4.2,10,11.3,10,18.9
							C-274.7-784.1-284.9-773.9-297.5-773.9z"/>
					</g>
					<g>
						<path style="fill:#FFFFFF;" d="M-297.5-772.5c-13.3,0-24.1-10.8-24.1-24.1c0-8,4-15.5,10.6-20c0.7-0.5,1.4-0.7,2.2-0.7
							c1.3,0,2.6,0.7,3.3,1.8c0.6,0.9,0.8,2,0.6,3c-0.2,1.1-0.8,2-1.7,2.6c-4.4,3-7.1,8-7.1,13.3c0,8.9,7.2,16.1,16.1,16.1
							c8.9,0,16.1-7.2,16.1-16.1c0-5.3-2.6-10.3-7.1-13.3c-0.9-0.6-1.5-1.5-1.7-2.6c-0.2-1.1,0-2.1,0.6-3c0.7-1.1,2-1.8,3.3-1.8
							c0.8,0,1.6,0.2,2.2,0.7c6.7,4.5,10.6,12,10.6,20C-273.4-783.4-284.2-772.5-297.5-772.5z"/>
						<path style="fill:#2E5291;" d="M-297.5-773.9c-12.6,0-22.8-10.2-22.8-22.8c0-7.6,3.8-14.6,10-18.9c1.2-0.8,2.9-0.5,3.7,0.7
							c0.8,1.2,0.5,2.9-0.7,3.7c-4.8,3.2-7.7,8.6-7.7,14.4c0,9.6,7.8,17.4,17.4,17.4c9.6,0,17.4-7.8,17.4-17.4
							c0-5.8-2.9-11.2-7.7-14.4c-1.2-0.8-1.5-2.5-0.7-3.7c0.8-1.2,2.5-1.5,3.7-0.7c6.3,4.2,10,11.3,10,18.9
							C-274.7-784.1-284.9-773.9-297.5-773.9z"/>
					</g>
				</g>
			</g>
			<g>
				<g>
					
						<image style="overflow:visible;opacity:0.75;" width="11" height="37" xlink:href="DFC0CAD6.png"  transform="matrix(1 0 0 1 -302.8139 -825.6622)">
					</image>
					<g>
						<g>
							<path style="fill:#FFFFFF;" d="M-297.5-790.6c-2.2,0-4-1.8-4-4v-25.7c0-2.2,1.8-4,4-4c2.2,0,4,1.8,4,4v25.7
								C-293.5-792.4-295.3-790.6-297.5-790.6z"/>
							<path style="fill:#FFFFFF;" d="M-297.5-792c-1.5,0-2.7-1.2-2.7-2.7v-25.7c0-1.5,1.2-2.7,2.7-2.7c1.5,0,2.7,1.2,2.7,2.7v25.7
								C-294.8-793.2-296-792-297.5-792z"/>
						</g>
						<g>
							<path style="fill:#FFFFFF;" d="M-297.5-790.6c-2.2,0-4-1.8-4-4v-25.7c0-2.2,1.8-4,4-4c2.2,0,4,1.8,4,4v25.7
								C-293.5-792.4-295.3-790.6-297.5-790.6z"/>
							<path style="fill:#2E5291;" d="M-297.5-792c-1.5,0-2.7-1.2-2.7-2.7v-25.7c0-1.5,1.2-2.7,2.7-2.7c1.5,0,2.7,1.2,2.7,2.7v25.7
								C-294.8-793.2-296-792-297.5-792z"/>
						</g>
					</g>
				</g>
				<linearGradient id="SVGID_6_" gradientUnits="userSpaceOnUse" x1="-297.4749" y1="-791.985" x2="-297.4749" y2="-797.3407">
					<stop  offset="0" style="stop-color:#BBDE73"/>
					<stop  offset="7.405663e-02" style="stop-color:#A1C578"/>
					<stop  offset="0.1955" style="stop-color:#7EA280"/>
					<stop  offset="0.3244" style="stop-color:#618586"/>
					<stop  offset="0.4608" style="stop-color:#4A6E8B"/>
					<stop  offset="0.6082" style="stop-color:#3A5E8E"/>
					<stop  offset="0.7745" style="stop-color:#315590"/>
					<stop  offset="1" style="stop-color:#2E5291"/>
				</linearGradient>
				<circle style="fill:url(#SVGID_6_);" cx="-297.5" cy="-794.7" r="2.7"/>
			</g>
		</g>
	</g>
	<text transform="matrix(1 0 0 1 -327.5047 -843.8589)" style="fill:#1E1E1E; font-family:'SegoeUI'; font-size:12px;">Get Started</text>
	<text transform="matrix(1 0 0 1 -243.1278 -843.8589)" style="fill:#1E1E1E; font-family:'SegoeUI'; font-size:12px;">What&apos;s New</text>
	<text transform="matrix(1 0 0 1 -148.8053 -843.8589)" style="fill:#1E1E1E; font-family:'SegoeUI'; font-size:12px;">Tutorials</text>
	<g>
		<g>
			<path style="fill:#2E5291;" d="M140.1-785.6c-6.8-5.1-13.7,5.1-20.5,0c0-8.6,0-17.1,0-25.7c6.8,5.1,13.7-5.1,20.5,0
				C140.1-802.7,140.1-794.2,140.1-785.6z"/>
		</g>
		<g>
			<path style="fill:#2E5291;" d="M162.6-785.6c-6.8,5.1-13.7-5.1-20.5,0c0-8.6,0-17.1,0-25.7c6.8-5.1,13.7,5.1,20.5,0
				C162.6-802.7,162.6-794.2,162.6-785.6z"/>
		</g>
	</g>
	<g>
		<path style="fill:#FFFFFF;" d="M-29.6-766.5c-16.4,0-29.7-13.3-29.7-29.7c0-9.9,4.9-19.1,13.1-24.7c0.8-0.6,1.8-0.9,2.8-0.9
			c1.7,0,3.2,0.8,4.1,2.2c0.7,1.1,1,2.4,0.8,3.7c-0.3,1.3-1,2.4-2.1,3.2c-5.5,3.7-8.7,9.8-8.7,16.4c0,10.9,8.9,19.8,19.8,19.8
			s19.8-8.9,19.8-19.8c0-6.6-3.3-12.7-8.7-16.4c-1.1-0.7-1.8-1.9-2.1-3.2c-0.3-1.3,0-2.6,0.8-3.7c0.9-1.4,2.5-2.2,4.1-2.2
			c1,0,1.9,0.3,2.8,0.9c8.2,5.5,13.1,14.8,13.1,24.7C0.2-779.8-13.2-766.5-29.6-766.5z"/>
		<path style="fill:#FFFFFF;" d="M-29.6-788.8c-2.7,0-5-2.2-5-5v-31.7c0-2.7,2.2-5,5-5s5,2.2,5,5v31.7
			C-24.6-791-26.9-788.8-29.6-788.8z"/>
		<g>
			<path style="fill:#2E5291;" d="M-29.6-768.1c-15.5,0-28.1-12.6-28.1-28.1c0-9.3,4.6-18.1,12.4-23.3c1.5-1,3.6-0.6,4.6,0.9
				c1,1.5,0.6,3.6-0.9,4.6c-5.9,4-9.5,10.7-9.5,17.8c0,11.8,9.6,21.5,21.5,21.5s21.5-9.6,21.5-21.5c0-7.1-3.5-13.8-9.5-17.8
				c-1.5-1-1.9-3.1-0.9-4.6c1-1.5,3.1-1.9,4.6-0.9c7.8,5.2,12.4,13.9,12.4,23.3C-1.5-780.7-14.1-768.1-29.6-768.1z"/>
			<path style="fill:#2E5291;" d="M-29.6-790.5c-1.8,0-3.3-1.5-3.3-3.3v-31.7c0-1.8,1.5-3.3,3.3-3.3s3.3,1.5,3.3,3.3v31.7
				C-26.3-791.9-27.8-790.5-29.6-790.5z"/>
		</g>
		<circle style="fill:#BBDE73;" cx="-29.6" cy="-793.8" r="3"/>
	</g>
	<text transform="matrix(1 0 0 1 -59.5882 -843.8589)" style="fill:#1E1E1E; font-family:'SegoeUI'; font-size:12px;">Get Started</text>
	<text transform="matrix(1 0 0 1 24.771 -843.8589)" style="fill:#1E1E1E; font-family:'SegoeUI'; font-size:12px;">What&apos;s New</text>
	<text transform="matrix(1 0 0 1 118.441 -843.8589)" style="fill:#1E1E1E; font-family:'SegoeUI'; font-size:12px;">Tutorials</text>
	<path style="fill:#2E5291;" d="M56.7-778.1c-2.2,0-4-1.8-4-4v-12.1H40.6c-2.2,0-4-1.8-4-4s1.8-4,4-4h12.1v-12.1c0-2.2,1.8-4,4-4
		c2.2,0,4,1.8,4,4v12.1h12.1c2.2,0,4,1.8,4,4s-1.8,4-4,4H60.7v12.1C60.7-779.9,58.9-778.1,56.7-778.1z"/>
	<path style="fill:#2E5291;" d="M73-800.9H59.6v-13.4c0-1.5-1.2-2.7-2.7-2.7c-1.5,0-2.7,1.2-2.7,2.7v13.4H40.9
		c-1.5,0-2.7,1.2-2.7,2.7s1.2,2.7,2.7,2.7h13.4v13.4c0,1.5,1.2,2.7,2.7,2.7c1.5,0,2.7-1.2,2.7-2.7v-13.4H73c1.5,0,2.7-1.2,2.7-2.7
		S74.5-800.9,73-800.9z"/>
	<path style="fill:#FFFFFF;" d="M81.2-811.6c-6,0-10.8-4.8-10.8-10.8s4.8-10.8,10.8-10.8S92-828.4,92-822.4S87.2-811.6,81.2-811.6z"
		/>
	<circle style="fill:#BBDE73;" cx="81.2" cy="-822.4" r="5.8"/>
	<g>
		<path style="fill:none;stroke:#FFFFFF;stroke-width:4;stroke-miterlimit:10;" d="M373-771.2c0,2.9-2.4,5.4-5.4,5.4h-53.3
			c-2.9,0-5.4-2.4-5.4-5.4v-53.3c0-2.9,2.4-5.4,5.4-5.4h53.3c2.9,0,5.4,2.4,5.4,5.4V-771.2z"/>
	</g>
	<g>
		<path style="fill:none;stroke:#FFFFFF;stroke-width:4;stroke-miterlimit:10;" d="M456.1-771.2c0,2.9-2.4,5.4-5.4,5.4h-53.3
			c-2.9,0-5.4-2.4-5.4-5.4v-53.3c0-2.9,2.4-5.4,5.4-5.4h53.3c2.9,0,5.4,2.4,5.4,5.4V-771.2z"/>
	</g>
	<path style="fill:#FFFFFF;" d="M366.2-813.4c-5,0-9-4-9-9s4-9,9-9s9,4,9,9S371.2-813.4,366.2-813.4z"/>
	<circle style="fill:#BBDE73;" cx="366.2" cy="-822.4" r="5.8"/>
	<g>
		<g>
			<path style="fill:#FFFFFF;" d="M423.3-785.6c-6.8-5.1-13.7,5.1-20.5,0c0-8.6,0-17.1,0-25.7c6.8,5.1,13.7-5.1,20.5,0
				C423.3-802.7,423.3-794.2,423.3-785.6z"/>
		</g>
		<g>
			<path style="fill:#FFFFFF;" d="M445.8-785.6c-6.8,5.1-13.7-5.1-20.5,0c0-8.6,0-17.1,0-25.7c6.8-5.1,13.7,5.1,20.5,0
				C445.8-802.7,445.8-794.2,445.8-785.6z"/>
		</g>
	</g>
	<text transform="matrix(1 0 0 1 223.6105 -843.8589)" style="fill:#FFFFFF; font-family:'SegoeUI'; font-size:12px;">Get Started</text>
	<text transform="matrix(1 0 0 1 307.9697 -843.8589)" style="fill:#FFFFFF; font-family:'SegoeUI'; font-size:12px;">What&apos;s New</text>
	<text transform="matrix(1 0 0 1 401.6397 -843.8589)" style="fill:#FFFFFF; font-family:'SegoeUI'; font-size:12px;">Tutorials</text>
	<path style="fill:#FFFFFF;" d="M339.9-778.1c-2.2,0-4-1.8-4-4v-12.1h-12.1c-2.2,0-4-1.8-4-4s1.8-4,4-4h12.1v-12.1c0-2.2,1.8-4,4-4
		c2.2,0,4,1.8,4,4v12.1H356c2.2,0,4,1.8,4,4s-1.8,4-4,4h-12.1v12.1C343.9-779.9,342.1-778.1,339.9-778.1z"/>
	<path style="fill:#FFFFFF;" d="M356.2-800.9h-13.4v-13.4c0-1.5-1.2-2.7-2.7-2.7c-1.5,0-2.7,1.2-2.7,2.7v13.4h-13.4
		c-1.5,0-2.7,1.2-2.7,2.7s1.2,2.7,2.7,2.7h13.4v13.4c0,1.5,1.2,2.7,2.7,2.7c1.5,0,2.7-1.2,2.7-2.7v-13.4h13.4c1.5,0,2.7-1.2,2.7-2.7
		S357.7-800.9,356.2-800.9z"/>
	<text transform="matrix(1 0 0 1 -350.5106 -1050.8589)" style="fill:#1E1E1E; font-family:'SegoeUI-Bold'; font-size:12px;">Circle</text>
	<text transform="matrix(1 0 0 1 -350.5106 -1075.8589)" style="fill:#1E1E1E; font-family:'SegoeUI-Bold'; font-size:12px;">64 x 64</text>
	<text transform="matrix(1 0 0 1 -350.5106 -887.8589)" style="fill:#1E1E1E; font-family:'SegoeUI-Bold'; font-size:12px;">Square</text>
	<text transform="matrix(1 0 0 1 -294.5106 -1075.8589)" style="fill:#1E1E1E; font-family:'SegoeUI-Italic'; font-size:12px;">For review purposes only. Design is not finalized</text>
	<g>
		<path style="fill:none;stroke:#FFFFFF;stroke-width:2;stroke-miterlimit:10;" d="M-99.1-775.7c0,2.5-2,4.5-4.5,4.5h-45
			c-2.5,0-4.5-2-4.5-4.5v-45c0-2.5,2-4.5,4.5-4.5h45c2.5,0,4.5,2,4.5,4.5V-775.7z"/>
	</g>
	<text transform="matrix(1 0 0 1 -359.6812 -469.1548)"><tspan x="0" y="0" style="fill:#1E1E1E; font-family:'SegoeUI'; font-size:12px;">96 x 96</tspan><tspan x="0" y="13.2" style="fill:#1E1E1E; font-family:'SegoeUI'; font-size:12px;">Doc UI size</tspan></text>
	<text transform="matrix(1 0 0 1 -359.6812 -426.1548)"><tspan x="0" y="0" style="fill:#1E1E1E; font-family:'SegoeUI'; font-size:12px;">Outside stroke:</tspan><tspan x="0" y="13.2" style="fill:#1E1E1E; font-family:'SegoeUI'; font-size:12px;">5 px (inside)</tspan></text>
	<text transform="matrix(1 0 0 1 -89.4916 -459.8215)"><tspan x="0" y="0" style="fill:#1E1E1E; font-family:'SegoeUI'; font-size:11px;">Outside stroke:</tspan><tspan x="7.3" y="13.2" style="fill:#1E1E1E; font-family:'SegoeUI'; font-size:11px;">5 px (inside)</tspan><tspan x="19.1" y="26.4" style="fill:#1E1E1E; font-family:'SegoeUI'; font-size:11px;">88 x 88</tspan></text>
	<text transform="matrix(1 0 0 1 13.5856 -453.6517)" style="fill:#1E1E1E; font-family:'SegoeUI'; font-size:11px;">Detail: 14px</text>
	<text transform="matrix(1 0 0 1 -359.6812 -381.1548)"><tspan x="0" y="0" style="fill:#1E1E1E; font-family:'SegoeUI'; font-size:12px;">Offset stroke:</tspan><tspan x="0" y="13.2" style="fill:#1E1E1E; font-family:'SegoeUI'; font-size:12px;">2 px</tspan></text>
	<text transform="matrix(1 0 0 1 -88.188 -348.915)"><tspan x="0" y="0" style="fill:#1E1E1E; font-family:'SegoeUI'; font-size:12px;">Offset stroke:</tspan><tspan x="24.1" y="13.2" style="fill:#1E1E1E; font-family:'SegoeUI'; font-size:12px;">4 px</tspan><tspan x="17.9" y="26.4" style="fill:#1E1E1E; font-family:'SegoeUI'; font-size:12px;">96 x96</tspan></text>
	<text transform="matrix(1 0 0 1 -359.6812 -333.1548)"><tspan x="0" y="0" style="fill:#1E1E1E; font-family:'SegoeUI'; font-size:12px;">Inside shape</tspan><tspan x="0" y="13.2" style="fill:#1E1E1E; font-family:'SegoeUI'; font-size:12px;">stroke:</tspan><tspan x="0" y="26.4" style="fill:#1E1E1E; font-family:'SegoeUI'; font-size:12px;">10 px</tspan></text>
	<circle style="fill:#BBDE73;" cx="42" cy="-477.3" r="7"/>
	<path style="fill:#2E5291;" d="M42-408.8c-6.1,0-11-4.9-11-11s4.9-11,11-11s11,4.9,11,11S48.1-408.8,42-408.8z"/>
	<circle style="fill:#BBDE73;" cx="42" cy="-419.8" r="7"/>
	<g>
		<g>
			<path style="fill:#FFFFFF;" d="M-179.7-382.2c-26.5,0-48-21.5-48-48s21.5-48,48-48s48,21.5,48,48S-153.2-382.2-179.7-382.2z
				 M-179.7-465.2c-19.3,0-35,15.7-35,35s15.7,35,35,35s35-15.7,35-35S-160.4-465.2-179.7-465.2z"/>
			<path style="fill:#2E5291;" d="M-179.7-469.2c21.5,0,39,17.5,39,39s-17.5,39-39,39s-39-17.5-39-39S-201.2-469.2-179.7-469.2
				 M-179.7-474.2c-24.3,0-44,19.7-44,44s19.7,44,44,44s44-19.7,44-44S-155.4-474.2-179.7-474.2L-179.7-474.2z"/>
		</g>
		<g>
			<path style="fill:#FFFFFF;" d="M-149.9-448.4c-6.1,0-11-4.9-11-11s4.9-11,11-11s11,4.9,11,11S-143.8-448.4-149.9-448.4z"/>
			<circle style="fill:#BBDE73;" cx="-149.9" cy="-459.4" r="7"/>
		</g>
	</g>
	<g>
		<g>
			<path style="fill:#2E5291;" d="M573.9-412c-2.2,0-4.2-0.7-6-2.1c-0.4-0.3-0.6-0.7-0.6-1.2v-30.4c0-0.6,0.3-1.1,0.8-1.3
				c0.2-0.1,0.4-0.2,0.7-0.2c0.3,0,0.6,0.1,0.9,0.3c1.3,1,2.7,1.5,4.2,1.5c2.1,0,4.2-0.8,6.5-1.7c2.4-0.9,4.9-1.9,7.6-1.9
				c2.2,0,4.2,0.7,6,2.1c0.4,0.3,0.6,0.7,0.6,1.2v30.4c0,0.6-0.3,1.1-0.8,1.3c-0.2,0.1-0.4,0.2-0.7,0.2c-0.3,0-0.6-0.1-0.9-0.3
				c-1.3-1-2.7-1.5-4.2-1.5c-2.1,0-4.2,0.8-6.5,1.7C579-412.9,576.5-412,573.9-412L573.9-412z"/>
			<path style="fill:#FFFFFF;" d="M588-447.4c1.7,0,3.4,0.5,5.1,1.8c0,10.1,0,20.3,0,30.4c-1.7-1.3-3.4-1.8-5.1-1.8
				c-4.7,0-9.4,3.5-14.1,3.5c-1.7,0-3.4-0.5-5.1-1.8c0-10.1,0-20.3,0-30.4c1.7,1.3,3.4,1.8,5.1,1.8
				C578.6-443.9,583.3-447.4,588-447.4 M588-450.4C588-450.4,588-450.4,588-450.4c-2.9,0-5.5,1-8.1,1.9c-2.1,0.8-4.2,1.6-6,1.6
				c-1.2,0-2.3-0.4-3.3-1.2c-0.5-0.4-1.2-0.6-1.8-0.6c-0.5,0-0.9,0.1-1.3,0.3c-1,0.5-1.7,1.5-1.7,2.7v30.4c0,0.9,0.4,1.8,1.2,2.4
				c2.1,1.6,4.4,2.4,6.9,2.4c2.9,0,5.5-1,8.1-1.9c2.1-0.8,4.2-1.6,6-1.6c1.2,0,2.3,0.4,3.3,1.2c0.5,0.4,1.2,0.6,1.8,0.6
				c0.5,0,0.9-0.1,1.3-0.3c1-0.5,1.7-1.5,1.7-2.7v-30.4c0-0.9-0.4-1.8-1.2-2.4C592.8-449.6,590.5-450.4,588-450.4L588-450.4z"/>
		</g>
		<g>
			<path style="fill:#2E5291;" d="M615.6-412c-2.6,0-5.1-0.9-7.6-1.9c-2.3-0.9-4.4-1.7-6.5-1.7c-1.6,0-2.9,0.5-4.2,1.5
				c-0.3,0.2-0.6,0.3-0.9,0.3c-0.2,0-0.5-0.1-0.7-0.2c-0.5-0.3-0.8-0.8-0.8-1.3v-30.4c0-0.5,0.2-0.9,0.6-1.2c1.8-1.4,3.8-2.1,6-2.1
				c2.6,0,5.1,0.9,7.6,1.9c2.3,0.9,4.4,1.7,6.5,1.7c1.6,0,2.9-0.5,4.2-1.5c0.3-0.2,0.6-0.3,0.9-0.3c0.2,0,0.5,0.1,0.7,0.2
				c0.5,0.3,0.8,0.8,0.8,1.3v30.4c0,0.5-0.2,0.9-0.6,1.2C619.8-412.6,617.8-412,615.6-412z"/>
			<path style="fill:#FFFFFF;" d="M601.6-447.4c4.7,0,9.4,3.5,14.1,3.5c1.7,0,3.4-0.5,5.1-1.8c0,10.1,0,20.3,0,30.4
				c-1.7,1.3-3.4,1.8-5.1,1.8c-4.7,0-9.4-3.5-14.1-3.5c-1.7,0-3.4,0.5-5.1,1.8c0-10.1,0-20.3,0-30.4
				C598.1-446.9,599.8-447.4,601.6-447.4 M601.6-450.4c-2.5,0-4.9,0.8-6.9,2.4c-0.8,0.6-1.2,1.5-1.2,2.4v30.4c0,1.1,0.6,2.2,1.7,2.7
				c0.4,0.2,0.9,0.3,1.3,0.3c0.6,0,1.3-0.2,1.8-0.6c1.1-0.8,2.1-1.2,3.3-1.2c1.8,0,3.8,0.8,6,1.6c2.6,1,5.2,1.9,8.1,1.9
				c2.5,0,4.9-0.8,6.9-2.4c0.8-0.6,1.2-1.5,1.2-2.4v-30.4c0-1.1-0.6-2.2-1.7-2.7c-0.4-0.2-0.9-0.3-1.3-0.3c-0.6,0-1.3,0.2-1.8,0.6
				c-1.1,0.8-2.1,1.2-3.3,1.2c-1.8,0-3.8-0.8-6-1.6C607.1-449.4,604.4-450.4,601.6-450.4L601.6-450.4z"/>
		</g>
		<g>
			<path style="fill:#FFFFFF;" d="M594.8-382.4c-26.5,0-48-21.5-48-48s21.5-48,48-48s48,21.5,48,48S621.2-382.4,594.8-382.4z
				 M594.8-465.4c-19.3,0-35,15.7-35,35s15.7,35,35,35s35-15.7,35-35S614.1-465.4,594.8-465.4z"/>
			<path style="fill:#2E5291;" d="M594.8-469.4c21.5,0,39,17.5,39,39s-17.5,39-39,39s-39-17.5-39-39S573.3-469.4,594.8-469.4
				 M594.8-474.4c-24.3,0-44,19.7-44,44s19.7,44,44,44s44-19.7,44-44S619.1-474.4,594.8-474.4L594.8-474.4z"/>
		</g>
	</g>
	<g>
		<path style="fill:#2E5291;" d="M25.5-104.8c-2.2,0-4.2-0.7-6-2.1c-0.4-0.3-0.6-0.7-0.6-1.2v-30.4c0-0.6,0.3-1.1,0.8-1.3
			c0.2-0.1,0.4-0.2,0.7-0.2c0.3,0,0.6,0.1,0.9,0.3c1.3,1,2.7,1.5,4.2,1.5c2.1,0,4.2-0.8,6.5-1.7c2.4-0.9,4.9-1.9,7.6-1.9
			c2.2,0,4.2,0.7,6,2.1c0.4,0.3,0.6,0.7,0.6,1.2v30.4c0,0.6-0.3,1.1-0.8,1.3c-0.2,0.1-0.4,0.2-0.7,0.2c-0.3,0-0.6-0.1-0.9-0.3
			c-1.3-1-2.7-1.5-4.2-1.5c-2.1,0-4.2,0.8-6.5,1.7C30.6-105.7,28.1-104.8,25.5-104.8L25.5-104.8z"/>
		<path style="fill:#FFFFFF;" d="M39.5-140.2c1.7,0,3.4,0.5,5.1,1.8c0,10.1,0,20.3,0,30.4c-1.7-1.3-3.4-1.8-5.1-1.8
			c-4.7,0-9.4,3.5-14.1,3.5c-1.7,0-3.4-0.5-5.1-1.8c0-10.1,0-20.3,0-30.4c1.7,1.3,3.4,1.8,5.1,1.8C30.2-136.7,34.9-140.2,39.5-140.2
			 M39.5-143.2L39.5-143.2c-2.9,0-5.5,1-8.1,1.9c-2.1,0.8-4.2,1.6-6,1.6c-1.2,0-2.3-0.4-3.3-1.2c-0.5-0.4-1.2-0.6-1.8-0.6
			c-0.5,0-0.9,0.1-1.3,0.3c-1,0.5-1.7,1.5-1.7,2.7v30.4c0,0.9,0.4,1.8,1.2,2.4c2.1,1.6,4.4,2.4,6.9,2.4c2.9,0,5.5-1,8.1-1.9
			c2.1-0.8,4.2-1.6,6-1.6c1.2,0,2.3,0.4,3.3,1.2c0.5,0.4,1.2,0.6,1.8,0.6c0.5,0,0.9-0.1,1.3-0.3c1-0.5,1.7-1.5,1.7-2.7v-30.4
			c0-0.9-0.4-1.8-1.2-2.4C44.4-142.4,42.1-143.2,39.5-143.2L39.5-143.2z"/>
	</g>
	<g>
		<path style="fill:#2E5291;" d="M67.2-104.8c-2.6,0-5.1-0.9-7.6-1.9c-2.3-0.9-4.4-1.7-6.5-1.7c-1.6,0-2.9,0.5-4.2,1.5
			c-0.3,0.2-0.6,0.3-0.9,0.3c-0.2,0-0.5-0.1-0.7-0.2c-0.5-0.3-0.8-0.8-0.8-1.3v-30.4c0-0.5,0.2-0.9,0.6-1.2c1.8-1.4,3.8-2.1,6-2.1
			c2.6,0,5.1,0.9,7.6,1.9c2.3,0.9,4.4,1.7,6.5,1.7c1.6,0,2.9-0.5,4.2-1.5c0.3-0.2,0.6-0.3,0.9-0.3c0.2,0,0.5,0.1,0.7,0.2
			c0.5,0.3,0.8,0.8,0.8,1.3v30.4c0,0.5-0.2,0.9-0.6,1.2C71.4-105.5,69.4-104.8,67.2-104.8z"/>
		<path style="fill:#FFFFFF;" d="M53.1-140.2c4.7,0,9.4,3.5,14.1,3.5c1.7,0,3.4-0.5,5.1-1.8c0,10.1,0,20.3,0,30.4
			c-1.7,1.3-3.4,1.8-5.1,1.8c-4.7,0-9.4-3.5-14.1-3.5c-1.7,0-3.4,0.5-5.1,1.8c0-10.1,0-20.3,0-30.4
			C49.7-139.7,51.4-140.2,53.1-140.2 M53.1-143.2c-2.5,0-4.9,0.8-6.9,2.4c-0.8,0.6-1.2,1.5-1.2,2.4v30.4c0,1.1,0.6,2.2,1.7,2.7
			c0.4,0.2,0.9,0.3,1.3,0.3c0.6,0,1.3-0.2,1.8-0.6c1.1-0.8,2.1-1.2,3.3-1.2c1.8,0,3.8,0.8,6,1.6c2.6,1,5.2,1.9,8.1,1.9
			c2.5,0,4.9-0.8,6.9-2.4c0.8-0.6,1.2-1.5,1.2-2.4v-30.4c0-1.1-0.6-2.2-1.7-2.7c-0.4-0.2-0.9-0.3-1.3-0.3c-0.6,0-1.3,0.2-1.8,0.6
			c-1.1,0.8-2.1,1.2-3.3,1.2c-1.8,0-3.8-0.8-6-1.6C58.7-142.2,56-143.2,53.1-143.2L53.1-143.2z"/>
	</g>
	<g>
		<path style="fill:#FFFFFF;" d="M46.3-75.2c-26.5,0-48-21.5-48-48s21.5-48,48-48s48,21.5,48,48S72.8-75.2,46.3-75.2z M46.3-158.2
			c-19.3,0-35,15.7-35,35s15.7,35,35,35s35-15.7,35-35S65.6-158.2,46.3-158.2z"/>
		<path style="fill:#2E5291;" d="M46.3-162.2c21.5,0,39,17.5,39,39s-17.5,39-39,39s-39-17.5-39-39S24.8-162.2,46.3-162.2
			 M46.3-167.2c-24.3,0-44,19.7-44,44s19.7,44,44,44s44-19.7,44-44S70.6-167.2,46.3-167.2L46.3-167.2z"/>
	</g>
	<text transform="matrix(1 0 0 1 12.7266 -393.1546)"><tspan x="0" y="0" style="fill:#1E1E1E; font-family:'SegoeUI'; font-size:11px;">Detail offset</tspan><tspan x="19.1" y="13.2" style="fill:#1E1E1E; font-family:'SegoeUI'; font-size:11px;">4 px</tspan></text>
	<text transform="matrix(1 0 0 1 12.7266 -203.3673)"><tspan x="0" y="0" style="fill:#1E1E1E; font-family:'SegoeUI'; font-size:11px;">Detail offset</tspan><tspan x="19.1" y="13.2" style="fill:#1E1E1E; font-family:'SegoeUI'; font-size:11px;">4 px</tspan></text>
	<text transform="matrix(1 0 0 1 13.0489 -296.2933)"><tspan x="0" y="0" style="fill:#1E1E1E; font-family:'SegoeUI'; font-size:11px;">10 pt stroke</tspan><tspan x="-1.3" y="13.2" style="fill:#1E1E1E; font-family:'SegoeUI'; font-size:11px;">45 px length</tspan></text>
	<path style="fill:#FFFFFF;" d="M-180.2-398.8c-5,0-9-4-9-9v-13.5h-13.5c-5,0-9-4-9-9s4-9,9-9h13.5v-13.5c0-5,4-9,9-9s9,4,9,9v13.5
		h13.5c5,0,9,4,9,9s-4,9-9,9h-13.5v13.5C-171.2-402.9-175.2-398.8-180.2-398.8z"/>
	<path style="fill:#2E5291;" d="M-157.7-435.3h-17.5v-17.5c0-2.8-2.2-5-5-5s-5,2.2-5,5v17.5h-17.5c-2.8,0-5,2.2-5,5s2.2,5,5,5h17.5
		v17.5c0,2.8,2.2,5,5,5s5-2.2,5-5v-17.5h17.5c2.8,0,5-2.2,5-5S-154.9-435.3-157.7-435.3z"/>
	<g>
		
			<line style="fill:none;stroke:#2E5291;stroke-width:10;stroke-linecap:round;stroke-linejoin:round;stroke-miterlimit:10;" x1="43.2" y1="-360.2" x2="43.2" y2="-315.2"/>
		
			<line style="fill:none;stroke:#2E5291;stroke-width:10;stroke-linecap:round;stroke-linejoin:round;stroke-miterlimit:10;" x1="65.7" y1="-337.7" x2="20.7" y2="-337.7"/>
	</g>
	<path style="fill:#FFFFFF;" d="M248.1-422.4c-4.4,0-8-3.6-8-8v-44c0-4.4,3.6-8,8-8s8,3.6,8,8v44C256.1-426,252.5-422.4,248.1-422.4
		z"/>
	<path style="fill:#2E5291;" d="M248.1-426.4c-2.2,0-4-1.8-4-4v-44c0-2.2,1.8-4,4-4s4,1.8,4,4v44
		C252.1-428.2,250.3-426.4,248.1-426.4z"/>
	<circle style="fill:none;stroke:#2E5291;stroke-width:8;stroke-miterlimit:10;" cx="388.2" cy="-429.9" r="39"/>
	
		<line style="fill:none;stroke:#2E5291;stroke-width:8;stroke-linecap:round;stroke-linejoin:round;stroke-miterlimit:10;" x1="388.2" y1="-479.4" x2="388.2" y2="-435.7"/>
	<path style="fill:#FFFFFF;" d="M43.2-217.6c-5,0-9-4-9-9v-13.5H20.7c-5,0-9-4-9-9s4-9,9-9h13.5v-13.5c0-5,4-9,9-9s9,4,9,9v13.5
		h13.5c5,0,9,4,9,9s-4,9-9,9H52.2v13.5C52.2-221.6,48.1-217.6,43.2-217.6z"/>
	<path style="fill:#2E5291;" d="M65.7-254.1H48.2v-17.5c0-2.8-2.2-5-5-5s-5,2.2-5,5v17.5H20.7c-2.8,0-5,2.2-5,5s2.2,5,5,5h17.5v17.5
		c0,2.8,2.2,5,5,5s5-2.2,5-5v-17.5h17.5c2.8,0,5-2.2,5-5S68.4-254.1,65.7-254.1z"/>
	<text transform="matrix(1 0 0 1 -228.6158 -485.6493)" style="fill:#1E1E1E; font-family:'SegoeUI'; font-size:11px;">Editable</text>
	<g>
		<path style="fill:#FFFFFF;" d="M-138.9-306c-1.4,4.5-5.5,7.7-10.5,7.8c3.3,5.3,5.2,11.6,5.2,18.3c0,19.3-15.7,35-35,35
			s-35-15.7-35-35s15.7-35,35-35c6.9,0,13.4,2,18.8,5.5c0.1-4.9,3.4-9,7.9-10.3c-7.6-5.1-16.8-8.2-26.7-8.2c-26.5,0-48,21.5-48,48
			s21.5,48,48,48s48-21.5,48-48C-131.2-289.5-134-298.5-138.9-306z"/>
		<path style="fill:none;" d="M-179.2-327.9c-26.5,0-48,21.5-48,48s21.5,48,48,48s48-21.5,48-48S-152.7-327.9-179.2-327.9z
			 M-179.2-314.9c19.3,0,35,15.7,35,35s-15.7,35-35,35s-35-15.7-35-35S-198.5-314.9-179.2-314.9z"/>
		<g>
			<path style="fill:#FFFFFF;" d="M-149.4-298.2c-6.1,0-11-4.9-11-11s4.9-11,11-11s11,4.9,11,11S-143.3-298.2-149.4-298.2z"/>
			<circle style="fill:#BBDE73;" cx="-149.4" cy="-309.2" r="7"/>
		</g>
		<path style="fill:#FFFFFF;" d="M-149.4-320.2c-6.1,0-11,4.9-11,11s4.9,11,11,11s11-4.9,11-11S-143.3-320.2-149.4-320.2z
			 M-149.4-302.2c-3.9,0-7-3.1-7-7c0-3.9,3.1-7,7-7s7,3.1,7,7C-142.4-305.4-145.5-302.2-149.4-302.2z"/>
		<path style="fill:#2E5291;" d="M-141.1-302c-1.1,1.3-2.5,2.3-4.1,2.9c3.2,5.7,5,12.2,5,19.1c0,21.5-17.5,39-39,39s-39-17.5-39-39
			s17.5-39,39-39c7.2,0,13.9,2,19.7,5.4c0.7-1.6,1.7-3,3-4c-6.6-4-14.4-6.3-22.7-6.3c-24.3,0-44,19.7-44,44s19.7,44,44,44
			s44-19.7,44-44C-135.2-288-137.3-295.5-141.1-302z"/>
		<path style="fill:none;" d="M-149.4-320.2c-6.1,0-11,4.9-11,11s4.9,11,11,11s11-4.9,11-11S-143.3-320.2-149.4-320.2z"/>
		<path style="fill:#FFFFFF;" d="M-179.7-248.6c-5,0-9-4-9-9v-13.5h-13.5c-5,0-9-4-9-9s4-9,9-9h13.5v-13.5c0-5,4-9,9-9s9,4,9,9v13.5
			h13.5c5,0,9,4,9,9s-4,9-9,9h-13.5v13.5C-170.7-252.7-174.7-248.6-179.7-248.6z"/>
		<path style="fill:#2E5291;" d="M-157.2-285.1h-17.5v-17.5c0-2.8-2.2-5-5-5s-5,2.2-5,5v17.5h-17.5c-2.8,0-5,2.2-5,5s2.2,5,5,5h17.5
			v17.5c0,2.8,2.2,5,5,5s5-2.2,5-5v-17.5h17.5c2.8,0,5-2.2,5-5S-154.4-285.1-157.2-285.1z"/>
	</g>
	<g>
		<path style="fill:#FFFFFF;" d="M-178.2-149c-1.4,4.5-5.5,7.7-10.5,7.8c3.3,5.3,5.2,11.6,5.2,18.3c0,19.3-15.7,35-35,35
			s-35-15.7-35-35s15.7-35,35-35c6.9,0,13.4,2,18.8,5.5c0.1-4.9,3.4-9,7.9-10.3c-7.6-5.1-16.8-8.2-26.7-8.2c-26.5,0-48,21.5-48,48
			s21.5,48,48,48s48-21.5,48-48C-170.5-132.5-173.4-141.5-178.2-149z"/>
		<path style="fill:none;" d="M-218.5-170.9c-26.5,0-48,21.5-48,48s21.5,48,48,48s48-21.5,48-48S-192-170.9-218.5-170.9z
			 M-218.5-157.9c19.3,0,35,15.7,35,35s-15.7,35-35,35s-35-15.7-35-35S-237.8-157.9-218.5-157.9z"/>
		<g>
			<path style="fill:#FFFFFF;" d="M-188.7-141.2c-6.1,0-11-4.9-11-11s4.9-11,11-11s11,4.9,11,11S-182.7-141.2-188.7-141.2z"/>
			<circle style="fill:#BBDE73;" cx="-189" cy="-152.1" r="7"/>
		</g>
		<path style="fill:#FFFFFF;" d="M-188.7-163.2c-6.1,0-11,4.9-11,11s4.9,11,11,11s11-4.9,11-11S-182.7-163.2-188.7-163.2z
			 M-188.7-145.2c-3.9,0-7-3.1-7-7c0-3.9,3.1-7,7-7s7,3.1,7,7C-181.7-148.3-184.9-145.2-188.7-145.2z"/>
		<path style="fill:#2E5291;" d="M-180.4-145c-1.1,1.3-2.5,2.3-4.1,2.9c3.2,5.7,5,12.2,5,19.1c0,21.5-17.5,39-39,39s-39-17.5-39-39
			s17.5-39,39-39c7.2,0,13.9,2,19.7,5.4c0.7-1.6,1.7-3,3-4c-6.6-4-14.4-6.3-22.7-6.3c-24.3,0-44,19.7-44,44s19.7,44,44,44
			s44-19.7,44-44C-174.5-131-176.7-138.5-180.4-145z"/>
		<path style="fill:none;" d="M-188.7-163.2c-6.1,0-11,4.9-11,11s4.9,11,11,11s11-4.9,11-11S-182.7-163.2-188.7-163.2z"/>
		<path style="fill:#FFFFFF;" d="M-228-100.9v-13.2h-13.2c-4.5,0-8.5-3.2-9.2-7.6c-0.8-5.6,3.5-10.4,8.9-10.4h13.5v-13.2
			c0-4.5,3.2-8.5,7.6-9.2c5.6-0.8,10.4,3.5,10.4,8.9v13.5h13.2c4.5,0,8.5,3.2,9.2,7.6c0.8,5.6-3.5,10.4-8.9,10.4H-210v13.5
			c0,5.4-4.8,9.7-10.4,8.9C-224.8-92.4-228-96.4-228-100.9z"/>
		<path style="fill:#2E5291;" d="M-196.7-128.1H-214v-17.3c0-2.4-1.6-4.6-4-5.1c-3.2-0.6-6,1.8-6,4.9v17.5h-17.3
			c-2.4,0-4.6,1.6-5.1,4c-0.6,3.2,1.8,6,4.9,6h17.5v17.3c0,2.4,1.6,4.6,4,5.1c3.2,0.6,6-1.8,6-4.9v-17.5h17.5c3.1,0,5.5-2.8,4.9-6
			C-192.1-126.5-194.3-128.1-196.7-128.1z"/>
	</g>
	<rect x="1235.5" y="-487.8" style="fill:#E1EBF5;" width="138" height="125.9"/>
	<g>
		<g>
			<path style="fill:#FFFFFF;" d="M1309.4-381.9c-26.5,0-48-21.5-48-48s21.5-48,48-48s48,21.5,48,48S1335.8-381.9,1309.4-381.9z
				 M1309.4-464.9c-19.3,0-35,15.7-35,35s15.7,35,35,35s35-15.7,35-35S1328.7-464.9,1309.4-464.9z"/>
			<path style="fill:#2E5291;" d="M1309.4-468.9c21.5,0,39,17.5,39,39s-17.5,39-39,39s-39-17.5-39-39S1287.9-468.9,1309.4-468.9
				 M1309.4-473.9c-24.3,0-44,19.7-44,44s19.7,44,44,44s44-19.7,44-44S1333.7-473.9,1309.4-473.9L1309.4-473.9z"/>
		</g>
		<g>
			<path style="fill:#FFFFFF;" d="M1339.1-448.2c-6.1,0-11-4.9-11-11s4.9-11,11-11s11,4.9,11,11S1345.2-448.2,1339.1-448.2z"/>
			<circle style="fill:#BBDE73;" cx="1339.1" cy="-459.2" r="7"/>
		</g>
		<g>
			<path style="fill:#FFFFFF;" d="M1339.1-448.2c-6.1,0-11-4.9-11-11s4.9-11,11-11s11,4.9,11,11S1345.2-448.2,1339.1-448.2z"/>
			<circle style="fill:#BBDE73;" cx="1339.1" cy="-459.2" r="7"/>
		</g>
		<g>
			<path style="fill:#FFFFFF;" d="M1339.1-448.2c-6.1,0-11-4.9-11-11s4.9-11,11-11s11,4.9,11,11S1345.2-448.2,1339.1-448.2z"/>
			<circle style="fill:#BBDE73;" cx="1339.1" cy="-459.2" r="7"/>
		</g>
		<g>
			<path style="fill:#FFFFFF;" d="M1339.1-448.2c-6.1,0-11-4.9-11-11s4.9-11,11-11s11,4.9,11,11S1345.2-448.2,1339.1-448.2z"/>
			<circle style="fill:#BBDE73;" cx="1339.1" cy="-459.2" r="7"/>
		</g>
		<path style="fill:#FFFFFF;" d="M1308.9-398.6c-5,0-9-4-9-9v-13.5h-13.5c-5,0-9-4-9-9s4-9,9-9h13.5v-13.5c0-5,4-9,9-9s9,4,9,9v13.5
			h13.5c5,0,9,4,9,9s-4,9-9,9h-13.5v13.5C1317.9-402.7,1313.8-398.6,1308.9-398.6z"/>
		<path style="fill:#2E5291;" d="M1331.4-435.1h-17.5v-17.5c0-2.8-2.2-5-5-5s-5,2.2-5,5v17.5h-17.5c-2.8,0-5,2.2-5,5s2.2,5,5,5h17.5
			v17.5c0,2.8,2.2,5,5,5s5-2.2,5-5v-17.5h17.5c2.8,0,5-2.2,5-5S1334.1-435.1,1331.4-435.1z"/>
	</g>
	<text transform="matrix(1 0 0 1 -229.1822 -338.3791)" style="fill:#1E1E1E; font-family:'SegoeUI'; font-size:11px;">Finished</text>
	<text transform="matrix(1 0 0 1 199.3842 -485.6493)" style="fill:#1E1E1E; font-family:'SegoeUI'; font-size:11px;">Editable</text>
	<text transform="matrix(1 0 0 1 370.8244 -420.0699)"><tspan x="0" y="0" style="fill:#1E1E1E; font-family:'SegoeUI'; font-size:11px;">78 x 78</tspan><tspan x="-7.8" y="13.2" style="fill:#1E1E1E; font-family:'SegoeUI'; font-size:11px;">8px stroke</tspan></text>
	<text transform="matrix(1 0 0 1 198.8178 -338.3791)" style="fill:#1E1E1E; font-family:'SegoeUI'; font-size:11px;">Finished</text>
	<circle style="fill:#BBDE73;" cx="248.1" cy="-430.4" r="4"/>
	<path style="fill:#FFFFFF;" d="M248.1-235.4c-24.7,0-44.8-20.1-44.8-44.8c0-16.6,9.1-31.8,23.9-39.6c1.1-0.6,2.3-0.9,3.6-0.9
		c2.8,0,5.4,1.6,6.7,4.1c2,3.7,0.6,8.3-3.2,10.3c-9.7,5.1-15.7,15.2-15.7,26.2c0,16.3,13.3,29.6,29.6,29.6s29.6-13.3,29.6-29.6
		c0-11-6-21-15.8-26.2c-3.7-2-5.1-6.6-3.2-10.3c1.3-2.5,3.9-4.1,6.7-4.1c1.2,0,2.5,0.3,3.6,0.9c14.7,7.8,23.9,23,23.9,39.7
		C292.9-255.5,272.8-235.4,248.1-235.4z"/>
	<path style="fill:#2E5291;" d="M248.1-239.2c-22.6,0-41-18.4-41-41c0-15.2,8.4-29.1,21.8-36.3c1.9-1,4.2-0.3,5.2,1.6
		c1,1.9,0.3,4.2-1.6,5.2c-11,5.8-17.8,17.1-17.8,29.5c0,18.4,15,33.4,33.4,33.4s33.4-15,33.4-33.4c0-12.4-6.8-23.7-17.8-29.5
		c-1.9-1-2.6-3.3-1.6-5.2c1-1.9,3.3-2.6,5.2-1.6c13.5,7.1,21.9,21,21.9,36.3C289.1-257.6,270.7-239.2,248.1-239.2z"/>
	<path style="fill:#FFFFFF;" d="M248.1-274.1c-4.2,0-7.6-3.4-7.6-7.6v-42c0-4.2,3.4-7.6,7.6-7.6s7.6,3.4,7.6,7.6v42
		C255.7-277.6,252.3-274.1,248.1-274.1z"/>
	<path style="fill:#2E5291;" d="M248.1-278c-2.1,0-3.8-1.7-3.8-3.8v-42c0-2.1,1.7-3.8,3.8-3.8s3.8,1.7,3.8,3.8v42
		C251.9-279.7,250.2-278,248.1-278z"/>
	<circle style="fill:#BBDE73;" cx="248.1" cy="-281.8" r="3.8"/>
	<path style="fill:#FFFFFF;" d="M-79.9-74.9c-24.7,0-44.8-20.1-44.8-44.8c0-16.6,9.1-31.8,23.9-39.6c1.1-0.6,2.3-0.9,3.6-0.9
		c2.8,0,5.4,1.6,6.7,4.1c2,3.7,0.6,8.3-3.2,10.3c-9.7,5.1-15.7,15.2-15.7,26.2c0,16.3,13.3,29.6,29.6,29.6s29.6-13.3,29.6-29.6
		c0-11-6-21-15.8-26.2c-3.7-2-5.1-6.6-3.2-10.3c1.3-2.5,3.9-4.1,6.7-4.1c1.2,0,2.5,0.3,3.6,0.9c14.7,7.8,23.9,23,23.9,39.7
		C-35.1-95-55.2-74.9-79.9-74.9z"/>
	<path style="fill:#2E5291;" d="M-79.9-78.7c-22.6,0-41-18.4-41-41c0-15.2,8.4-29.1,21.8-36.3c1.9-1,4.2-0.3,5.2,1.6
		c1,1.9,0.3,4.2-1.6,5.2c-11,5.8-17.8,17.1-17.8,29.5c0,18.4,15,33.4,33.4,33.4s33.4-15,33.4-33.4c0-12.4-6.8-23.7-17.8-29.5
		c-1.9-1-2.6-3.3-1.6-5.2c1-1.9,3.3-2.6,5.2-1.6c13.5,7.1,21.9,21,21.9,36.3C-38.9-97.2-57.3-78.7-79.9-78.7z"/>
	<path style="fill:#FFFFFF;" d="M-79.9-113.7c-4.2,0-7.6-3.4-7.6-7.6v-42c0-4.2,3.4-7.6,7.6-7.6c4.2,0,7.6,3.4,7.6,7.6v42
		C-72.3-117.1-75.7-113.7-79.9-113.7z"/>
	<path style="fill:#2E5291;" d="M-79.9-117.5c-2.1,0-3.8-1.7-3.8-3.8v-42c0-2.1,1.7-3.8,3.8-3.8c2.1,0,3.8,1.7,3.8,3.8v42
		C-76.1-119.2-77.8-117.5-79.9-117.5z"/>
	<circle style="fill:#BBDE73;" cx="-79.9" cy="-121.3" r="3.8"/>
	<g>
		<g>
			<path style="fill:#404040;" d="M27.1,66.5c-2.2,0-4.2-0.7-6-2.1L20.5,64V29.8l2.4,1.8c1.3,1,2.7,1.5,4.2,1.5
				c2.1,0,4.2-0.8,6.5-1.7c2.4-0.9,4.9-1.9,7.6-1.9c2.2,0,4.2,0.7,6,2.1l0.6,0.5v34.2l-2.4-1.8c-1.3-1-2.7-1.5-4.2-1.5
				c-2.1,0-4.2,0.8-6.5,1.7C32.3,65.5,29.8,66.5,27.1,66.5C27.1,66.5,27.1,66.5,27.1,66.5z"/>
		</g>
		<g>
			<path style="fill:#FFFFFF;" d="M41.2,31c1.7,0,3.4,0.5,5.1,1.8c0,10.1,0,20.3,0,30.4c-1.7-1.3-3.4-1.8-5.1-1.8
				c-4.7,0-9.4,3.5-14.1,3.5c-1.7,0-3.4-0.5-5.1-1.8c0-10.1,0-20.3,0-30.4c1.7,1.3,3.4,1.8,5.1,1.8C31.8,34.5,36.5,31,41.2,31
				 M19,26.8v6v30.4v1.5l1.2,0.9c2.1,1.6,4.4,2.4,6.9,2.4c2.9,0,5.5-1,8.1-1.9c2.1-0.8,4.2-1.6,6-1.6c1.2,0,2.3,0.4,3.3,1.2l4.8,3.6
				v-6V32.8v-1.5l-1.2-0.9c-2.1-1.6-4.4-2.4-6.9-2.4h0c-2.9,0-5.5,1-8.1,1.9c-2.1,0.8-4.2,1.6-6,1.6c-1.2,0-2.3-0.4-3.3-1.2L19,26.8
				L19,26.8z"/>
		</g>
	</g>
	<g>
		<g>
			<path style="fill:#404040;" d="M68.9,66.5c-2.6,0-5.1-0.9-7.6-1.9C59,63.8,56.9,63,54.8,63c-1.6,0-2.9,0.5-4.2,1.5l-2.4,1.8V32
				l0.6-0.5c1.8-1.4,3.8-2.1,6-2.1c2.6,0,5.1,0.9,7.6,1.9c2.3,0.9,4.4,1.7,6.5,1.7c1.6,0,2.9-0.5,4.2-1.5l2.4-1.8V64l-0.6,0.5
				C73.1,65.8,71.1,66.5,68.9,66.5z"/>
		</g>
		<g>
			<path style="fill:#FFFFFF;" d="M54.8,31c4.7,0,9.4,3.5,14.1,3.5c1.7,0,3.4-0.5,5.1-1.8c0,10.1,0,20.3,0,30.4
				c-1.7,1.3-3.4,1.8-5.1,1.8c-4.7,0-9.4-3.5-14.1-3.5c-1.7,0-3.4,0.5-5.1,1.8c0-10.1,0-20.3,0-30.4C51.4,31.5,53.1,31,54.8,31
				 M77,26.8l-4.8,3.6c-1.1,0.8-2.1,1.2-3.3,1.2c-1.8,0-3.8-0.8-6-1.6c-2.6-1-5.2-1.9-8.1-1.9c-2.5,0-4.9,0.8-6.9,2.4l-1.2,0.9v1.5
				v30.4v6l4.8-3.6c1.1-0.8,2.1-1.2,3.3-1.2c1.8,0,3.8,0.8,6,1.6c2.6,1,5.2,1.9,8.1,1.9c2.5,0,4.9-0.8,6.9-2.4l1.2-0.9v-1.5V32.8
				V26.8L77,26.8z"/>
		</g>
	</g>
	<g>
		<path style="fill:#FFFFFF;" d="M48,96C21.5,96,0,74.5,0,48S21.5,0,48,0s48,21.5,48,48S74.5,96,48,96z M48,13
			c-19.3,0-35,15.7-35,35s15.7,35,35,35s35-15.7,35-35S67.3,13,48,13z"/>
		<path style="fill:#404040;" d="M48,9c21.5,0,39,17.5,39,39S69.5,87,48,87S9,69.5,9,48S26.5,9,48,9 M48,4C23.7,4,4,23.7,4,48
			s19.7,44,44,44s44-19.7,44-44S72.3,4,48,4L48,4z"/>
	</g>
	<g>
		<g>
			<path style="fill:#404040;" d="M575.6-305.5c-2.2,0-4.2-0.7-6-2.1l-0.6-0.5v-34.2l2.4,1.8c1.3,1,2.7,1.5,4.2,1.5
				c2.1,0,4.2-0.8,6.5-1.7c2.4-0.9,4.9-1.9,7.6-1.9c2.2,0,4.2,0.7,6,2.1l0.6,0.5v34.2l-2.4-1.8c-1.3-1-2.7-1.5-4.2-1.5
				c-2.1,0-4.2,0.8-6.5,1.7C580.7-306.4,578.2-305.5,575.6-305.5C575.6-305.5,575.6-305.5,575.6-305.5z"/>
		</g>
		<g>
			<path style="fill:#FFFFFF;" d="M589.6-340.9c1.7,0,3.4,0.5,5.1,1.8c0,10.1,0,20.3,0,30.4c-1.7-1.3-3.4-1.8-5.1-1.8
				c-4.7,0-9.4,3.5-14.1,3.5c-1.7,0-3.4-0.5-5.1-1.8c0-10.1,0-20.3,0-30.4c1.7,1.3,3.4,1.8,5.1,1.8
				C580.2-337.4,584.9-340.9,589.6-340.9 M567.4-345.2v6v30.4v1.5l1.2,0.9c2.1,1.6,4.4,2.4,6.9,2.4c2.9,0,5.5-1,8.1-1.9
				c2.1-0.8,4.2-1.6,6-1.6c1.2,0,2.3,0.4,3.3,1.2l4.8,3.6v-6v-30.4v-1.5l-1.2-0.9c-2.1-1.6-4.4-2.4-6.9-2.4h0c-2.9,0-5.5,1-8.1,1.9
				c-2.1,0.8-4.2,1.6-6,1.6c-1.2,0-2.3-0.4-3.3-1.2L567.4-345.2L567.4-345.2z"/>
		</g>
	</g>
	<g>
		<g>
			<path style="fill:#404040;" d="M617.3-305.5c-2.6,0-5.1-0.9-7.6-1.9c-2.3-0.9-4.4-1.7-6.5-1.7c-1.6,0-2.9,0.5-4.2,1.5l-2.4,1.8
				v-34.2l0.6-0.5c1.8-1.4,3.8-2.1,6-2.1c2.6,0,5.1,0.9,7.6,1.9c2.3,0.9,4.4,1.7,6.5,1.7c1.6,0,2.9-0.5,4.2-1.5l2.4-1.8v34.2
				l-0.6,0.5C621.5-306.1,619.5-305.5,617.3-305.5z"/>
		</g>
		<g>
			<path style="fill:#FFFFFF;" d="M603.2-340.9c4.7,0,9.4,3.5,14.1,3.5c1.7,0,3.4-0.5,5.1-1.8c0,10.1,0,20.3,0,30.4
				c-1.7,1.3-3.4,1.8-5.1,1.8c-4.7,0-9.4-3.5-14.1-3.5c-1.7,0-3.4,0.5-5.1,1.8c0-10.1,0-20.3,0-30.4
				C599.8-340.4,601.5-340.9,603.2-340.9 M625.4-345.2l-4.8,3.6c-1.1,0.8-2.1,1.2-3.3,1.2c-1.8,0-3.8-0.8-6-1.6
				c-2.6-1-5.2-1.9-8.1-1.9c-2.5,0-4.9,0.8-6.9,2.4l-1.2,0.9v1.5v30.4v6l4.8-3.6c1.1-0.8,2.1-1.2,3.3-1.2c1.8,0,3.8,0.8,6,1.6
				c2.6,1,5.2,1.9,8.1,1.9c2.5,0,4.9-0.8,6.9-2.4l1.2-0.9v-1.5v-30.4V-345.2L625.4-345.2z"/>
		</g>
	</g>
	<g>
		<g>
			<path style="fill:#404040;" d="M685.3-435.2c-2.2,0-4.2-0.7-6-2.1l-0.6-0.5v-34.2l2.4,1.8c1.3,1,2.7,1.5,4.2,1.5
				c2.1,0,4.2-0.8,6.5-1.7c2.4-0.9,4.9-1.9,7.6-1.9c2.2,0,4.2,0.7,6,2.1l0.6,0.5v34.2l-2.4-1.8c-1.3-1-2.7-1.5-4.2-1.5
				c-2.1,0-4.2,0.8-6.5,1.7C690.4-436.1,687.9-435.2,685.3-435.2C685.3-435.2,685.3-435.2,685.3-435.2z"/>
		</g>
		<g>
			<path style="fill:#FFFFFF;" d="M699.3-470.6c1.7,0,3.4,0.5,5.1,1.8c0,10.1,0,20.3,0,30.4c-1.7-1.3-3.4-1.8-5.1-1.8
				c-4.7,0-9.4,3.5-14.1,3.5c-1.7,0-3.4-0.5-5.1-1.8c0-10.1,0-20.3,0-30.4c1.7,1.3,3.4,1.8,5.1,1.8
				C690-467.1,694.7-470.6,699.3-470.6 M677.1-474.9v6v30.4v1.5l1.2,0.9c2.1,1.6,4.4,2.4,6.9,2.4c2.9,0,5.5-1,8.1-1.9
				c2.1-0.8,4.2-1.6,6-1.6c1.2,0,2.3,0.4,3.3,1.2l4.8,3.6v-6v-30.4v-1.5l-1.2-0.9c-2.1-1.6-4.4-2.4-6.9-2.4h0c-2.9,0-5.5,1-8.1,1.9
				c-2.1,0.8-4.2,1.6-6,1.6c-1.2,0-2.3-0.4-3.3-1.2L677.1-474.9L677.1-474.9z"/>
		</g>
	</g>
	<g>
		<g>
			<path style="fill:#404040;" d="M727-435.2c-2.6,0-5.1-0.9-7.6-1.9c-2.3-0.9-4.4-1.7-6.5-1.7c-1.6,0-2.9,0.5-4.2,1.5l-2.4,1.8
				v-34.2l0.6-0.5c1.8-1.4,3.8-2.1,6-2.1c2.6,0,5.1,0.9,7.6,1.9c2.3,0.9,4.4,1.7,6.5,1.7c1.6,0,2.9-0.5,4.2-1.5l2.4-1.8v34.2
				l-0.6,0.5C731.2-435.9,729.2-435.2,727-435.2z"/>
		</g>
		<g>
			<path style="fill:#FFFFFF;" d="M712.9-470.6c4.7,0,9.4,3.5,14.1,3.5c1.7,0,3.4-0.5,5.1-1.8c0,10.1,0,20.3,0,30.4
				c-1.7,1.3-3.4,1.8-5.1,1.8c-4.7,0-9.4-3.5-14.1-3.5c-1.7,0-3.4,0.5-5.1,1.8c0-10.1,0-20.3,0-30.4
				C709.5-470.2,711.2-470.6,712.9-470.6 M735.1-474.9l-4.8,3.6c-1.1,0.8-2.1,1.2-3.3,1.2c-1.8,0-3.8-0.8-6-1.6
				c-2.6-1-5.2-1.9-8.1-1.9c-2.5,0-4.9,0.8-6.9,2.4l-1.2,0.9v1.5v30.4v6l4.8-3.6c1.1-0.8,2.1-1.2,3.3-1.2c1.8,0,3.8,0.8,6,1.6
				c2.6,1,5.2,1.9,8.1,1.9c2.5,0,4.9-0.8,6.9-2.4l1.2-0.9v-1.5v-30.4V-474.9L735.1-474.9z"/>
		</g>
	</g>
	<g>
		<path style="fill:#FFFFFF;" d="M596.4-275.9c-26.5,0-48-21.5-48-48s21.5-48,48-48s48,21.5,48,48S622.9-275.9,596.4-275.9z
			 M596.4-358.9c-19.3,0-35,15.7-35,35s15.7,35,35,35s35-15.7,35-35S615.7-358.9,596.4-358.9z"/>
		<path style="fill:#404040;" d="M596.4-362.9c21.5,0,39,17.5,39,39s-17.5,39-39,39s-39-17.5-39-39S574.9-362.9,596.4-362.9
			 M596.4-367.9c-24.3,0-44,19.7-44,44s19.7,44,44,44s44-19.7,44-44S620.7-367.9,596.4-367.9L596.4-367.9z"/>
	</g>
	<g>
		<path style="fill:#FFFFFF;" d="M-178.2,22.3c-1.4,4.5-5.5,7.7-10.5,7.8c3.3,5.3,5.2,11.6,5.2,18.3c0,19.3-15.7,35-35,35
			s-35-15.7-35-35s15.7-35,35-35c6.9,0,13.4,2,18.8,5.5c0.1-4.9,3.4-9,7.9-10.3c-7.6-5.1-16.8-8.2-26.7-8.2c-26.5,0-48,21.5-48,48
			s21.5,48,48,48s48-21.5,48-48C-170.5,38.7-173.4,29.8-178.2,22.3z"/>
		<path style="fill:none;" d="M-218.5,0.3c-26.5,0-48,21.5-48,48s21.5,48,48,48s48-21.5,48-48S-192,0.3-218.5,0.3z M-218.5,13.3
			c19.3,0,35,15.7,35,35s-15.7,35-35,35s-35-15.7-35-35S-237.8,13.3-218.5,13.3z"/>
		<g>
			<path style="fill:#FFFFFF;" d="M-188.7,30c-6.1,0-11-4.9-11-11s4.9-11,11-11s11,4.9,11,11S-182.7,30-188.7,30z"/>
			<circle style="fill:#AFB7B9;" cx="-189" cy="19.1" r="7"/>
		</g>
		<path style="fill:#FFFFFF;" d="M-188.7,8c-6.1,0-11,4.9-11,11s4.9,11,11,11s11-4.9,11-11S-182.7,8-188.7,8z M-188.7,26
			c-3.9,0-7-3.1-7-7c0-3.9,3.1-7,7-7s7,3.1,7,7C-181.7,22.9-184.9,26-188.7,26z"/>
		<path style="fill:#404040;" d="M-180.4,26.3c-1.1,1.3-2.5,2.3-4.1,2.9c3.2,5.7,5,12.2,5,19.1c0,21.5-17.5,39-39,39s-39-17.5-39-39
			s17.5-39,39-39c7.2,0,13.9,2,19.7,5.4c0.7-1.6,1.7-3,3-4c-6.6-4-14.4-6.3-22.7-6.3c-24.3,0-44,19.7-44,44s19.7,44,44,44
			s44-19.7,44-44C-174.5,40.3-176.7,32.7-180.4,26.3z"/>
		<path style="fill:none;" d="M-188.7,8c-6.1,0-11,4.9-11,11s4.9,11,11,11s11-4.9,11-11S-182.7,8-188.7,8z"/>
		<path style="fill:#FFFFFF;" d="M-228,70.4V57.1l-13.2,0c-4.5,0-8.5-3.2-9.2-7.6c-0.8-5.6,3.5-10.4,8.9-10.4h13.5V25.9
			c0-4.5,3.2-8.5,7.6-9.2c5.6-0.8,10.4,3.5,10.4,8.9v13.5l13.2,0c4.5,0,8.5,3.2,9.2,7.6c0.8,5.6-3.5,10.4-8.9,10.4H-210v13.5
			c0,5.4-4.8,9.7-10.4,8.9C-224.8,78.9-228,74.9-228,70.4z"/>
		<path style="fill:#404040;" d="M-196.7,43.1l-17.3,0V25.8c0-2.4-1.6-4.6-4-5.1c-3.2-0.6-6,1.8-6,4.9v17.5l-17.3,0
			c-2.4,0-4.6,1.6-5.1,4c-0.6,3.2,1.8,6,4.9,6h17.5v17.3c0,2.4,1.6,4.6,4,5.1c3.2,0.6,6-1.8,6-4.9V53.1h17.5c3.1,0,5.5-2.8,4.9-6
			C-192.1,44.8-194.3,43.1-196.7,43.1z"/>
	</g>
	<path style="fill:#FFFFFF;" d="M-76.1,95.7c-24.7,0-44.8-20.1-44.8-44.8c0-16.6,9.1-31.8,23.9-39.6c1.1-0.6,2.3-0.9,3.6-0.9
		c2.8,0,5.4,1.6,6.7,4.1c2,3.7,0.6,8.3-3.2,10.3c-9.7,5.1-15.7,15.2-15.7,26.2c0,16.3,13.3,29.6,29.6,29.6s29.6-13.3,29.6-29.6
		c0-11-6-21-15.8-26.2c-3.7-2-5.1-6.6-3.2-10.3c1.3-2.5,3.9-4.1,6.7-4.1c1.2,0,2.5,0.3,3.6,0.9c14.7,7.8,23.9,23,23.9,39.7
		C-31.3,75.6-51.4,95.7-76.1,95.7z"/>
	<path style="fill:#404040;" d="M-76.1,91.9c-22.6,0-41-18.4-41-41c0-15.2,8.4-29.1,21.8-36.3c1.9-1,4.2-0.3,5.2,1.6
		c1,1.9,0.3,4.2-1.6,5.2c-11,5.8-17.8,17.1-17.8,29.5c0,18.4,15,33.4,33.4,33.4s33.4-15,33.4-33.4c0-12.4-6.8-23.7-17.8-29.5
		c-1.9-1-2.6-3.3-1.6-5.2c1-1.9,3.3-2.6,5.2-1.6c13.5,7.1,21.9,21,21.9,36.3C-35.1,73.5-53.5,91.9-76.1,91.9z"/>
	<path style="fill:#FFFFFF;" d="M-76.1,57c-4.2,0-7.6-3.4-7.6-7.6v-42c0-4.2,3.4-7.6,7.6-7.6s7.6,3.4,7.6,7.6v42
		C-68.5,53.6-71.9,57-76.1,57z"/>
	<path style="fill:#404040;" d="M-76.1,53.2c-2.1,0-3.8-1.7-3.8-3.8v-42c0-2.1,1.7-3.8,3.8-3.8s3.8,1.7,3.8,3.8v42
		C-72.3,51.5-74,53.2-76.1,53.2z"/>
	<circle style="fill:#AFB7B9;" cx="-76.1" cy="49.4" r="3.8"/>
	<g>
		<g>
			<path style="fill:#404040;" d="M-32.4,425c-2.1,0-4-0.6-5.7-2l-0.4-0.3v-32.9l1.6,1.2c1.4,1,2.9,1.6,4.5,1.6
				c2.2,0,4.4-0.8,6.7-1.7c2.4-0.9,4.9-1.8,7.4-1.8c2.1,0,4,0.6,5.7,2l0.4,0.3v32.9l-1.6-1.2c-1.4-1-2.9-1.6-4.5-1.6
				c-2.2,0-4.4,0.8-6.7,1.7C-27.4,424-29.9,425-32.4,425C-32.4,425-32.4,425-32.4,425z"/>
		</g>
		<g>
			<path style="fill:#FFFFFF;" d="M-18.4,390c1.7,0,3.4,0.5,5.1,1.8c0,10.1,0,20.3,0,30.4c-1.7-1.3-3.4-1.8-5.1-1.8
				c-4.7,0-9.4,3.5-14.1,3.5c-1.7,0-3.4-0.5-5.1-1.8c0-10.1,0-20.3,0-30.4c1.7,1.3,3.4,1.8,5.1,1.8C-27.7,393.5-23,390-18.4,390
				 M-39.6,387.8v4v30.4v1l0.8,0.6c1.9,1.5,4,2.2,6.3,2.2c2.7,0,5.3-1,7.7-1.9c2.2-0.8,4.3-1.6,6.3-1.6c1.5,0,2.7,0.4,3.9,1.4
				l3.2,2.4v-4v-30.4v-1l-0.8-0.6c-1.9-1.5-4-2.2-6.3-2.2h0c-2.7,0-5.3,1-7.7,1.9c-2.2,0.8-4.3,1.6-6.3,1.6c-1.5,0-2.7-0.4-3.9-1.4
				L-39.6,387.8L-39.6,387.8z"/>
		</g>
	</g>
	<g>
		<g>
			<path style="fill:#404040;" d="M9.3,425c-2.5,0-5-0.9-7.4-1.8c-2.3-0.9-4.5-1.7-6.7-1.7c-1.7,0-3.1,0.5-4.5,1.6l-1.6,1.2v-32.9
				l0.4-0.3c1.8-1.3,3.6-2,5.7-2c2.5,0,5,0.9,7.4,1.8c2.3,0.9,4.5,1.7,6.7,1.7c1.7,0,3.1-0.5,4.5-1.6l1.6-1.2v32.9L15,423
				C13.3,424.3,11.4,425,9.3,425z"/>
		</g>
		<g>
			<path style="fill:#FFFFFF;" d="M-4.8,390c4.7,0,9.4,3.5,14.1,3.5c1.7,0,3.4-0.5,5.1-1.8c0,10.1,0,20.3,0,30.4
				c-1.7,1.3-3.4,1.8-5.1,1.8c-4.7,0-9.4-3.5-14.1-3.5c-1.7,0-3.4,0.5-5.1,1.8c0-10.1,0-20.3,0-30.4C-8.2,390.5-6.5,390-4.8,390
				 M16.4,387.8l-3.2,2.4c-1.2,0.9-2.5,1.4-3.9,1.4c-2,0-4.1-0.8-6.3-1.6C0.5,389-2,388-4.8,388c-2.3,0-4.4,0.7-6.3,2.2l-0.8,0.6v1
				v30.4v4l3.2-2.4c1.2-0.9,2.5-1.4,3.9-1.4c2,0,4.1,0.8,6.3,1.6c2.5,0.9,5,1.9,7.7,1.9c2.3,0,4.4-0.7,6.3-2.2l0.8-0.6v-1v-30.4
				V387.8L16.4,387.8z"/>
		</g>
	</g>
	<g>
		<path style="fill:#FFFFFF;" d="M-11.6,455c-26.5,0-48-21.5-48-48s21.5-48,48-48s48,21.5,48,48S14.9,455-11.6,455z M-11.6,372
			c-19.3,0-35,15.7-35,35s15.7,35,35,35s35-15.7,35-35S7.7,372-11.6,372z"/>
		<path style="fill:#404040;" d="M-11.6,368c21.5,0,39,17.5,39,39s-17.5,39-39,39s-39-17.5-39-39S-33.1,368-11.6,368 M-11.6,363
			c-24.3,0-44,19.7-44,44s19.7,44,44,44s44-19.7,44-44S12.7,363-11.6,363L-11.6,363z"/>
	</g>
	<g>
		<path style="fill:#FFFFFF;" d="M-178.2,381.3c-1.4,4.5-5.5,7.7-10.5,7.8c3.3,5.3,5.2,11.6,5.2,18.3c0,19.3-15.7,35-35,35
			s-35-15.7-35-35s15.7-35,35-35c6.9,0,13.4,2,18.8,5.5c0.1-4.9,3.4-9,7.9-10.3c-7.6-5.1-16.8-8.2-26.7-8.2c-26.5,0-48,21.5-48,48
			s21.5,48,48,48s48-21.5,48-48C-170.5,397.7-173.4,388.8-178.2,381.3z"/>
		<path style="fill:none;" d="M-218.5,359.3c-26.5,0-48,21.5-48,48s21.5,48,48,48s48-21.5,48-48S-192,359.3-218.5,359.3z
			 M-218.5,372.3c19.3,0,35,15.7,35,35s-15.7,35-35,35s-35-15.7-35-35S-237.8,372.3-218.5,372.3z"/>
		<g>
			<path style="fill:#FFFFFF;" d="M-188.7,389c-6.1,0-11-4.9-11-11s4.9-11,11-11s11,4.9,11,11S-182.7,389-188.7,389z"/>
			<circle style="fill:#AFB7B9;" cx="-189" cy="378.1" r="7"/>
		</g>
		<path style="fill:#FFFFFF;" d="M-188.7,367c-6.1,0-11,4.9-11,11s4.9,11,11,11s11-4.9,11-11S-182.7,367-188.7,367z M-188.7,385
			c-3.9,0-7-3.1-7-7c0-3.9,3.1-7,7-7s7,3.1,7,7C-181.7,381.9-184.9,385-188.7,385z"/>
		<path style="fill:#404040;" d="M-180.4,385.2c-1.1,1.3-2.5,2.3-4.1,2.9c3.2,5.7,5,12.2,5,19.1c0,21.5-17.5,39-39,39
			s-39-17.5-39-39s17.5-39,39-39c7.2,0,13.9,2,19.7,5.4c0.7-1.6,1.7-3,3-4c-6.6-4-14.4-6.3-22.7-6.3c-24.3,0-44,19.7-44,44
			s19.7,44,44,44s44-19.7,44-44C-174.5,399.3-176.7,391.7-180.4,385.2z"/>
		<path style="fill:none;" d="M-188.7,367c-6.1,0-11,4.9-11,11s4.9,11,11,11s11-4.9,11-11S-182.7,367-188.7,367z"/>
		<path style="fill:#FFFFFF;" d="M-228,429.3v-13.2h-13.2c-4.5,0-8.5-3.2-9.2-7.6c-0.8-5.6,3.5-10.4,8.9-10.4h13.5v-13.2
			c0-4.5,3.2-8.5,7.6-9.2c5.6-0.8,10.4,3.5,10.4,8.9v13.5h13.2c4.5,0,8.5,3.2,9.2,7.6c0.8,5.6-3.5,10.4-8.9,10.4H-210v13.5
			c0,5.4-4.8,9.7-10.4,8.9C-224.8,437.9-228,433.8-228,429.3z"/>
		<path style="fill:#404040;" d="M-196.7,402.1H-214v-17.3c0-2.4-1.6-4.6-4-5.1c-3.2-0.6-6,1.8-6,4.9v17.5h-17.3
			c-2.4,0-4.6,1.6-5.1,4c-0.6,3.2,1.8,6,4.9,6h17.5v17.3c0,2.4,1.6,4.6,4,5.1c3.2,0.6,6-1.8,6-4.9v-17.5h17.5c3.1,0,5.5-2.8,4.9-6
			C-192.1,403.7-194.3,402.1-196.7,402.1z"/>
	</g>
	<path style="fill:#FFFFFF;" d="M-110.9,455.3c-24.7,0-44.8-20.1-44.8-44.8c0-16.6,9.1-31.8,23.9-39.6c1.1-0.6,2.3-0.9,3.6-0.9
		c2.8,0,5.4,1.6,6.7,4.1c2,3.7,0.6,8.3-3.2,10.3c-9.7,5.1-15.7,15.2-15.7,26.2c0,16.3,13.3,29.6,29.6,29.6s29.6-13.3,29.6-29.6
		c0-11-6-21-15.8-26.2c-3.7-2-5.1-6.6-3.2-10.3c1.3-2.5,3.9-4.1,6.7-4.1c1.2,0,2.5,0.3,3.6,0.9c14.7,7.8,23.9,23,23.9,39.7
		C-66.1,435.2-86.2,455.3-110.9,455.3z"/>
	<path style="fill:#404040;" d="M-110.9,451.5c-22.6,0-41-18.4-41-41c0-15.2,8.4-29.1,21.8-36.3c1.9-1,4.2-0.3,5.2,1.6
		c1,1.9,0.3,4.2-1.6,5.2c-11,5.8-17.8,17.1-17.8,29.5c0,18.4,15,33.4,33.4,33.4s33.4-15,33.4-33.4c0-12.4-6.8-23.7-17.8-29.5
		c-1.9-1-2.6-3.3-1.6-5.2c1-1.9,3.3-2.6,5.2-1.6c13.5,7.1,21.9,21,21.9,36.3C-69.9,433.1-88.3,451.5-110.9,451.5z"/>
	<path style="fill:#FFFFFF;" d="M-110.9,416.5c-4.2,0-7.6-3.4-7.6-7.6v-42c0-4.2,3.4-7.6,7.6-7.6c4.2,0,7.6,3.4,7.6,7.6v42
		C-103.3,413.1-106.7,416.5-110.9,416.5z"/>
	<path style="fill:#404040;" d="M-110.9,412.7c-2.1,0-3.8-1.7-3.8-3.8v-42c0-2.1,1.7-3.8,3.8-3.8c2.1,0,3.8,1.7,3.8,3.8v42
		C-107.1,411-108.8,412.7-110.9,412.7z"/>
	<circle style="fill:#AFB7B9;" cx="-110.9" cy="408.9" r="3.8"/>
	<text transform="matrix(1 0 0 1 518.9835 -534.7519)" style="fill:#1E1E1E; font-family:'SegoeUI-Bold'; font-size:14px;">Tutorials</text>
	<text transform="matrix(1 0 0 1 546.3122 -485.6493)" style="fill:#1E1E1E; font-family:'SegoeUI'; font-size:11px;">Editable</text>
	<text transform="matrix(1 0 0 1 680.9686 -424.8772)" style="fill:#1E1E1E; font-family:'SegoeUI'; font-size:11px;">3px stroke</text>
	<rect x="1622.1" y="-488.9" style="fill:#E1EBF5;" width="188.9" height="130.6"/>
	<rect x="2017.1" y="-488.9" style="fill:#E1EBF5;" width="188.9" height="130.6"/>
	<g>
		<path style="fill:#FFFFFF;" d="M1710.5-379.6c-25.9,0-47-21.1-47-47c0-17.4,9.6-33.4,25-41.5c1.2-0.6,2.4-0.9,3.7-0.9
			c3,0,5.7,1.6,7.1,4.3c2.1,3.9,0.6,8.8-3.3,10.8c-10.2,5.4-16.5,15.9-16.5,27.4c0,17.1,13.9,31,31,31s31-13.9,31-31
			c0-11.5-6.3-22-16.5-27.4c-3.9-2.1-5.4-6.9-3.3-10.8c1.4-2.6,4.1-4.3,7.1-4.3c1.3,0,2.6,0.3,3.7,0.9c15.4,8.2,25,24.1,25,41.6
			C1757.5-400.7,1736.5-379.6,1710.5-379.6z"/>
		<path style="fill:#2E5291;" d="M1710.5-383.6c-23.7,0-43-19.3-43-43c0-16,8.8-30.5,22.9-38c2-1,4.4-0.3,5.4,1.7
			c1,2,0.3,4.4-1.7,5.4c-11.5,6.1-18.6,18-18.6,30.9c0,19.3,15.7,35,35,35s35-15.7,35-35c0-13-7.1-24.9-18.7-31
			c-2-1-2.7-3.5-1.7-5.4c1-2,3.5-2.7,5.4-1.7c14.1,7.5,22.9,22.1,22.9,38C1753.5-402.9,1734.3-383.6,1710.5-383.6z"/>
		<path style="fill:#FFFFFF;" d="M1710.5-420.3c-4.4,0-8-3.6-8-8v-44c0-4.4,3.6-8,8-8s8,3.6,8,8v44
			C1718.5-423.8,1715-420.3,1710.5-420.3z"/>
		<path style="fill:#2E5291;" d="M1710.5-424.3c-2.2,0-4-1.8-4-4v-44c0-2.2,1.8-4,4-4s4,1.8,4,4v44
			C1714.5-426,1712.8-424.3,1710.5-424.3z"/>
		<circle style="fill:#BBDE73;" cx="1710.5" cy="-428.3" r="4"/>
	</g>
	<g>
		<g>
			<path style="fill:#2E5291;" d="M2098.9-411.5c-2.2,0-4.2-0.7-6-2.1c-0.4-0.3-0.6-0.7-0.6-1.2v-30.4c0-0.6,0.3-1.1,0.8-1.3
				c0.2-0.1,0.4-0.2,0.7-0.2c0.3,0,0.6,0.1,0.9,0.3c1.3,1,2.7,1.5,4.2,1.5c2.1,0,4.2-0.8,6.5-1.7c2.4-0.9,4.9-1.9,7.6-1.9
				c2.2,0,4.2,0.7,6,2.1c0.4,0.3,0.6,0.7,0.6,1.2v30.4c0,0.6-0.3,1.1-0.8,1.3c-0.2,0.1-0.4,0.2-0.7,0.2c-0.3,0-0.6-0.1-0.9-0.3
				c-1.3-1-2.7-1.5-4.2-1.5c-2.1,0-4.2,0.8-6.5,1.7C2104-412.4,2101.5-411.5,2098.9-411.5L2098.9-411.5z"/>
			<path style="fill:#FFFFFF;" d="M2113-446.9c1.7,0,3.4,0.5,5.1,1.8c0,10.1,0,20.3,0,30.4c-1.7-1.3-3.4-1.8-5.1-1.8
				c-4.7,0-9.4,3.5-14.1,3.5c-1.7,0-3.4-0.5-5.1-1.8c0-10.1,0-20.3,0-30.4c1.7,1.3,3.4,1.8,5.1,1.8
				C2103.6-443.4,2108.3-446.9,2113-446.9 M2113-449.9L2113-449.9c-2.9,0-5.5,1-8.1,1.9c-2.1,0.8-4.2,1.6-6,1.6
				c-1.2,0-2.3-0.4-3.3-1.2c-0.5-0.4-1.2-0.6-1.8-0.6c-0.5,0-0.9,0.1-1.3,0.3c-1,0.5-1.7,1.5-1.7,2.7v30.4c0,0.9,0.4,1.8,1.2,2.4
				c2.1,1.6,4.4,2.4,6.9,2.4c2.9,0,5.5-1,8.1-1.9c2.1-0.8,4.2-1.6,6-1.6c1.2,0,2.3,0.4,3.3,1.2c0.5,0.4,1.2,0.6,1.8,0.6
				c0.5,0,0.9-0.1,1.3-0.3c1-0.5,1.7-1.5,1.7-2.7v-30.4c0-0.9-0.4-1.8-1.2-2.4C2117.8-449.1,2115.5-449.9,2113-449.9L2113-449.9z"/>
		</g>
		<g>
			<path style="fill:#2E5291;" d="M2140.6-411.5c-2.6,0-5.1-0.9-7.6-1.9c-2.3-0.9-4.4-1.7-6.5-1.7c-1.6,0-2.9,0.5-4.2,1.5
				c-0.3,0.2-0.6,0.3-0.9,0.3c-0.2,0-0.5-0.1-0.7-0.2c-0.5-0.3-0.8-0.8-0.8-1.3v-30.4c0-0.5,0.2-0.9,0.6-1.2c1.8-1.4,3.8-2.1,6-2.1
				c2.6,0,5.1,0.9,7.6,1.9c2.3,0.9,4.4,1.7,6.5,1.7c1.6,0,2.9-0.5,4.2-1.5c0.3-0.2,0.6-0.3,0.9-0.3c0.2,0,0.5,0.1,0.7,0.2
				c0.5,0.3,0.8,0.8,0.8,1.3v30.4c0,0.5-0.2,0.9-0.6,1.2C2144.8-412.1,2142.8-411.5,2140.6-411.5z"/>
			<path style="fill:#FFFFFF;" d="M2126.6-446.9c4.7,0,9.4,3.5,14.1,3.5c1.7,0,3.4-0.5,5.1-1.8c0,10.1,0,20.3,0,30.4
				c-1.7,1.3-3.4,1.8-5.1,1.8c-4.7,0-9.4-3.5-14.1-3.5c-1.7,0-3.4,0.5-5.1,1.8c0-10.1,0-20.3,0-30.4
				C2123.1-446.4,2124.8-446.9,2126.6-446.9 M2126.6-449.9c-2.5,0-4.9,0.8-6.9,2.4c-0.8,0.6-1.2,1.5-1.2,2.4v30.4
				c0,1.1,0.6,2.2,1.7,2.7c0.4,0.2,0.9,0.3,1.3,0.3c0.6,0,1.3-0.2,1.8-0.6c1.1-0.8,2.1-1.2,3.3-1.2c1.8,0,3.8,0.8,6,1.6
				c2.6,1,5.2,1.9,8.1,1.9c2.5,0,4.9-0.8,6.9-2.4c0.8-0.6,1.2-1.5,1.2-2.4v-30.4c0-1.1-0.6-2.2-1.7-2.7c-0.4-0.2-0.9-0.3-1.3-0.3
				c-0.6,0-1.3,0.2-1.8,0.6c-1.1,0.8-2.1,1.2-3.3,1.2c-1.8,0-3.8-0.8-6-1.6C2132.1-448.9,2129.4-449.9,2126.6-449.9L2126.6-449.9z"
				/>
		</g>
		<g>
			<path style="fill:#FFFFFF;" d="M2119.8-381.9c-26.5,0-48-21.5-48-48s21.5-48,48-48s48,21.5,48,48S2146.2-381.9,2119.8-381.9z
				 M2119.8-464.9c-19.3,0-35,15.7-35,35s15.7,35,35,35s35-15.7,35-35S2139.1-464.9,2119.8-464.9z"/>
			<path style="fill:#2E5291;" d="M2119.8-468.9c21.5,0,39,17.5,39,39s-17.5,39-39,39s-39-17.5-39-39S2098.3-468.9,2119.8-468.9
				 M2119.8-473.9c-24.3,0-44,19.7-44,44s19.7,44,44,44s44-19.7,44-44S2144.1-473.9,2119.8-473.9L2119.8-473.9z"/>
		</g>
	</g>
	<text transform="matrix(1 0 0 1 -266.5106 -9.8589)" style="fill:#FFFFFF; font-family:'SegoeUI-Bold'; font-size:14px;">What&apos;s New</text>
	<text transform="matrix(1 0 0 1 -131.5825 -10.9939)" style="fill:#FFFFFF; font-family:'SegoeUI-Bold'; font-size:14px;">Getting Started</text>
	<text transform="matrix(1 0 0 1 -1.510567e-04 -10.9939)" style="fill:#FFFFFF; font-family:'SegoeUI-Bold'; font-size:14px;">Tutorials</text>
</g>
<g id="arrows">
</g>
<g id="Text">
	<g id="Windows_Server_New">
	</g>
</g>
<g id="writer_source">
</g>
</svg>
