<?xml version="1.0" encoding="utf-8"?>
<!-- Generator: Adobe Illustrator 21.1.0, SVG Export Plug-In . SVG Version: 6.00 Build 0)  -->
<svg version="1.1" xmlns="http://www.w3.org/2000/svg" xmlns:xlink="http://www.w3.org/1999/xlink" x="0px" y="0px" width="89.7px"
	 height="96px" viewBox="0 0 89.7 96" style="enable-background:new 0 0 89.7 96;" xml:space="preserve">
<symbol  id="Deleted_Symbol_6" viewBox="0 -32 32 32">
	<rect y="-10" width="32" height="2"/>
	<rect y="-26" width="32" height="2"/>
	<rect y="-18" width="32" height="2"/>
	<rect y="-32" style="fill:none;" width="32" height="32"/>
	<rect y="-32" style="fill:none;" width="32" height="32"/>
</symbol>
<symbol  id="New_Symbol_523" viewBox="-27 -6 54 12">
	<image style="overflow:visible;" width="54" height="12" xlink:href="31D33158.png"  transform="matrix(1 0 0 -1 -27 6)">
	</image>
</symbol>
<symbol  id="Pencil-02" viewBox="0 -16 16 16">
	<polyline style="fill:none;stroke:#000000;stroke-miterlimit:10;" points="14.9,-4.1 4.7,-14.3 0.7,-15.3 1.7,-11.3 11.9,-1.1 	"/>
	<path style="fill:none;stroke:#000000;stroke-miterlimit:10;" d="M11.9-1.1c0.8,0.8,2.2,0.8,3,0c0.8-0.8,0.8-2.2,0-3"/>
	<path style="fill:none;stroke:#000000;stroke-miterlimit:10;" d="M4.5-14.5c0,1.7-1.3,3-3,3"/>
	<rect y="-16" style="fill:none;" width="16" height="16"/>
	<line style="fill:none;stroke:#000000;stroke-miterlimit:10;" x1="11" y1="-2" x2="14" y2="-5"/>
</symbol>
<symbol  id="Play-01" viewBox="0 -16 16 16">
	<g>
		<path d="M4-2.9L11.3-8L4-13.1V-2.9 M3-1v-14l10,7L3-1L3-1z"/>
	</g>
	<rect y="-16" style="fill:none;" width="16" height="16"/>
</symbol>
<symbol  id="Repairs_x5F_01" viewBox="6 -32 20 32">
	<g>
		<path style="fill:#FFFFFF;" d="M26-16h-4v8.6l2,2V0h-6v-5.4l2-2V-16h-4v-2h2v-11c0-1.7,1.3-3,3-3s3,1.3,3,3v11h2V-16z M20-2h2
			v-2.6l-1-1l-1,1V-2z M22-29c0-0.6-0.4-1-1-1s-1,0.4-1,1v11h2V-29z"/>
		<path style="fill:#FFFFFF;" d="M11,0C8.2,0,6-2.2,6-5c0-1.6,0.8-3,2-4v-20c0-1.7,1.3-3,3-3s3,1.3,3,3v20c1.2,0.9,2,2.4,2,4
			C16-2.2,13.8,0,11,0z M12.5-7.6L12-7.9V-29c0-0.6-0.4-1-1-1s-1,0.4-1,1v21.1L9.5-7.6C8.6-7,8-6.1,8-5c0,1.3,0.8,2.4,2,2.8V-5l1-1
			l1,1v2.8c1.2-0.4,2-1.5,2-2.8C14-6.1,13.4-7,12.5-7.6z"/>
	</g>
</symbol>
<symbol  id="Video_x5F_02" viewBox="0 -16 16 16">
	<rect x="0.5" y="-11.5" style="fill:none;stroke:#101010;stroke-miterlimit:10;" width="11" height="7"/>
	<rect y="-16" style="fill:none;" width="16" height="16"/>
	<polygon style="fill:none;stroke:#101010;stroke-miterlimit:10;" points="11.5,-9.3 15.5,-11.3 15.5,-4.8 11.5,-6.8 	"/>
</symbol>
<symbol  id="W10_x5F_CheckboxIndeterminate_x5F_16" viewBox="-4 -4 8 8">
	<rect x="-4" y="-4" width="8" height="8"/>
</symbol>
<symbol  id="W10_x5F_Checkbox_x5F_16" viewBox="-8 -8 16 16">
	<g>
		<path d="M7,7V-7H-7V7H7 M8,8H-8V-8H8V8L8,8z"/>
	</g>
</symbol>
<symbol  id="W10_x5F_Undo" viewBox="-5.9 -7.9 11.8 15.8">
	<path style="fill:none;stroke:#FFFFFF;stroke-miterlimit:10;" d="M-2.6-7.6L4-1c1.9,1.9,1.9,5,0,6.9L3.9,6C2,7.9-1.1,7.9-3,6
		l-2.5-2.5"/>
</symbol>
<symbol  id="gripper_x5F_16" viewBox="0 -16 16 16">
	<polygon style="fill:none;stroke:#231F20;stroke-miterlimit:10;" points="9.5,-15.5 15.5,-9.5 15.5,-15.5 	"/>
	<rect y="-16" style="fill:none;" width="16" height="16"/>
</symbol>
<symbol  id="smallbox_x5F_32" viewBox="0 -32 32 32">
	<rect x="8" y="-24" width="16" height="16"/>
	<rect y="-32" style="fill:none;" width="32" height="32"/>
</symbol>
<symbol  id="unlock" viewBox="0 -16 16 16">
	<rect x="2.5" y="-15.5" style="fill:none;stroke:#000000;stroke-miterlimit:10;" width="11" height="8"/>
	<rect y="-16" style="fill:none;" width="16" height="16"/>
	<path d="M8,0C5.7,0,4-1.7,4-4h1c0,1.7,1.3,3,3,3s3-1.3,3-3v-3H6v-1h6v4C12-1.7,10.3,0,8,0z"/>
</symbol>
<g id="Layer_1">
	
		<image style="overflow:visible;" width="642" height="358" xlink:href="31D33159.png"  transform="matrix(2.5995 0 0 2.5995 1007.5753 -943.8983)">
	</image>
	<text transform="matrix(1 0 0 1 525.4432 -2494.5962)" style="fill:#1E1E1E; font-family:'SegoeUI'; font-size:12px;">dgallo@altair.com</text>
	
		<image style="overflow:visible;" width="160" height="173" xlink:href="31D33158.jpg"  transform="matrix(1.925 0 0 1.925 -638.5568 -1926.6088)">
	</image>
	<rect x="-231.3" y="-1044.6" style="fill:#E1EBF5;" width="283.7" height="133"/>
	<rect x="-130.8" y="-503.1" style="fill:#E1EBF5;" width="141.8" height="133"/>
	<rect x="-130.8" y="-355.8" style="fill:#E1EBF5;" width="141.8" height="133"/>
	<rect x="297.2" y="-503.1" style="fill:#E1EBF5;" width="141.8" height="133"/>
	<rect x="297.2" y="-355.8" style="fill:#E1EBF5;" width="141.8" height="133"/>
	<rect x="317.8" y="-1037.6" style="fill:#272525;" width="283.7" height="126"/>
	<rect x="-231.3" y="-879.6" style="fill:#E1EBF5;" width="283.7" height="133"/>
	<rect x="317.8" y="-872.6" style="fill:#272525;" width="283.7" height="126"/>
	
		<image style="overflow:visible;" width="171" height="191" xlink:href="31D33159.jpg"  transform="matrix(1 0 0 1 636.7441 -1012.465)">
	</image>
	<circle style="fill:#FFFFFF;" cx="872.1" cy="-896.4" r="47.7"/>
	
		<image style="overflow:visible;" width="423" height="670" xlink:href="31D3315B.jpg"  transform="matrix(1 0 0 1 293.0092 253.1924)">
	</image>
	<rect x="-169.3" y="347.4" style="fill:#E1EBF5;" width="350.4" height="119"/>
</g>
<g id="Get_Started">
	<rect x="-242.6" y="-2505.6" style="fill:#E1EBF5;" width="530" height="592"/>
	<g>
		<path style="fill:#2E5291;" d="M259.5-1991.8c0,22-18,40-40,40h-398c-22,0-40-18-40-40v-398c0-22,18-40,40-40h398
			c22,0,40,18,40,40V-1991.8z"/>
	</g>
	<g id="Wrench_tool_x28_s_x29_">
	</g>
	<g id="user2">
	</g>
	<g id="user2_1_">
	</g>
	<g id="user2_4_">
	</g>
	<g id="user2_3_">
	</g>
	<g id="user2_2_">
	</g>
	<g id="Internet_2">
	</g>
	<g id="Enterprise">
	</g>
	<g id="Tunnel__x28_stackable_x29_">
	</g>
	<g id="New_Symbol">
	</g>
	<g id="New_Symbol_1">
	</g>
	<g id="Files">
	</g>
	<g id="BlobBlock">
	</g>
	<g id="E_x5F_Enterprise">
	</g>
	<g id="E_x5F_AD_FS">
	</g>
	<g id="C_x5F_Azure_Active_Directory">
	</g>
	<g id="Layer_22">
	</g>
	
		<image style="overflow:visible;" width="211" height="211" xlink:href="31D33156.jpg"  transform="matrix(1 0 0 1 -511.0568 -2419.5962)">
	</image>
	<g>
		<g>
			
				<image style="overflow:visible;opacity:0.75;" width="373" height="347" xlink:href="31D33157.png"  transform="matrix(1 0 0 1 -164.0568 -2335.5962)">
			</image>
			<g>
				<g>
					<path style="fill:#FFFFFF;" d="M20.5-1997.2c-99.3,0-180-80.7-180-180c0-59.9,29.7-115.7,79.3-149.2c5-3.4,10.8-5.1,16.8-5.1
						c10,0,19.3,4.9,24.9,13.2c4.5,6.6,6.1,14.6,4.6,22.5c-1.5,7.9-6,14.7-12.7,19.2c-33.1,22.4-52.9,59.6-52.9,99.5
						c0,66.2,53.8,120,120,120s120-53.8,120-120c0-39.9-19.8-77.1-52.9-99.5c-6.6-4.5-11.1-11.3-12.7-19.2
						c-1.5-7.9,0.1-15.9,4.6-22.5c5.6-8.3,14.9-13.2,24.9-13.2c6,0,11.8,1.8,16.8,5.1c49.7,33.6,79.3,89.4,79.3,149.2
						C200.5-2077.9,119.7-1997.2,20.5-1997.2z"/>
					<path style="fill:#FFFFFF;" d="M20.5-2007.2c-93.7,0-170-76.3-170-170c0-56.6,28-109.2,74.9-140.9c9.2-6.2,21.6-3.8,27.8,5.4
						c6.2,9.2,3.8,21.6-5.4,27.8c-35.9,24.3-57.3,64.6-57.3,107.8c0,71.7,58.3,130,130,130s130-58.3,130-130
						c0-43.3-21.4-83.6-57.3-107.8c-9.2-6.2-11.6-18.6-5.4-27.8c6.2-9.2,18.6-11.6,27.8-5.4c46.9,31.7,74.9,84.4,74.9,141
						C190.5-2083.4,114.2-2007.2,20.5-2007.2z"/>
				</g>
				<g>
					<path style="fill:#FFFFFF;" d="M20.5-1997.2c-99.3,0-180-80.7-180-180c0-59.9,29.7-115.7,79.3-149.2c5-3.4,10.8-5.1,16.8-5.1
						c10,0,19.3,4.9,24.9,13.2c4.5,6.6,6.1,14.6,4.6,22.5c-1.5,7.9-6,14.7-12.7,19.2c-33.1,22.4-52.9,59.6-52.9,99.5
						c0,66.2,53.8,120,120,120s120-53.8,120-120c0-39.9-19.8-77.1-52.9-99.5c-6.6-4.5-11.1-11.3-12.7-19.2
						c-1.5-7.9,0.1-15.9,4.6-22.5c5.6-8.3,14.9-13.2,24.9-13.2c6,0,11.8,1.8,16.8,5.1c49.7,33.6,79.3,89.4,79.3,149.2
						C200.5-2077.9,119.7-1997.2,20.5-1997.2z"/>
					<path style="fill:#2E5291;" d="M20.5-2007.2c-93.7,0-170-76.3-170-170c0-56.6,28-109.2,74.9-140.9c9.2-6.2,21.6-3.8,27.8,5.4
						c6.2,9.2,3.8,21.6-5.4,27.8c-35.9,24.3-57.3,64.6-57.3,107.8c0,71.7,58.3,130,130,130s130-58.3,130-130
						c0-43.3-21.4-83.6-57.3-107.8c-9.2-6.2-11.6-18.6-5.4-27.8c6.2-9.2,18.6-11.6,27.8-5.4c46.9,31.7,74.9,84.4,74.9,141
						C190.5-2083.4,114.2-2007.2,20.5-2007.2z"/>
				</g>
			</g>
		</g>
		<g>
			<g>
				
					<image style="overflow:visible;opacity:0.75;" width="73" height="265" xlink:href="31D33168.png"  transform="matrix(1 0 0 1 -14.0568 -2388.5962)">
				</image>
				<g>
					<g>
						<path style="fill:#FFFFFF;" d="M20.5-2132.4c-16.5,0-30-13.5-30-30v-192c0-16.5,13.5-30,30-30s30,13.5,30,30v192
							C50.5-2145.9,37-2132.4,20.5-2132.4z"/>
						<path style="fill:#FFFFFF;" d="M20.5-2142.4c-11,0-20-9-20-20v-192c0-11,9-20,20-20s20,9,20,20v192
							C40.5-2151.4,31.5-2142.4,20.5-2142.4z"/>
					</g>
					<g>
						<path style="fill:#FFFFFF;" d="M20.5-2132.4c-16.5,0-30-13.5-30-30v-192c0-16.5,13.5-30,30-30s30,13.5,30,30v192
							C50.5-2145.9,37-2132.4,20.5-2132.4z"/>
						<path style="fill:#2E5291;" d="M20.5-2142.4c-11,0-20-9-20-20v-192c0-11,9-20,20-20s20,9,20,20v192
							C40.5-2151.4,31.5-2142.4,20.5-2142.4z"/>
					</g>
				</g>
			</g>
			<linearGradient id="SVGID_1_" gradientUnits="userSpaceOnUse" x1="20.4789" y1="-2142.4058" x2="20.4789" y2="-2182.4058">
				<stop  offset="0" style="stop-color:#BBDE73"/>
				<stop  offset="7.405663e-02" style="stop-color:#A1C578"/>
				<stop  offset="0.1955" style="stop-color:#7EA280"/>
				<stop  offset="0.3244" style="stop-color:#618586"/>
				<stop  offset="0.4608" style="stop-color:#4A6E8B"/>
				<stop  offset="0.6082" style="stop-color:#3A5E8E"/>
				<stop  offset="0.7745" style="stop-color:#315590"/>
				<stop  offset="1" style="stop-color:#2E5291"/>
			</linearGradient>
			<circle style="fill:url(#SVGID_1_);" cx="20.5" cy="-2162.4" r="20"/>
		</g>
	</g>
	<text transform="matrix(1 0 0 1 -94.5568 -2463.5962)" style="fill:#1E1E1E; font-family:'SegoeUI'; font-size:48px;">Get Started</text>
	<rect x="-240.3" y="-1855.6" style="fill:#E1EBF5;" width="530" height="592"/>
	<text transform="matrix(1 0 0 1 -101.7246 -1813.5963)" style="fill:#1E1E1E; font-family:'SegoeUI'; font-size:48px;">What&apos;s New</text>
	<rect x="371.2" y="-1855.6" style="fill:#E1EBF5;" width="530" height="592"/>
	<text transform="matrix(1 0 0 1 517.4432 -1813.5963)" style="fill:#1E1E1E; font-family:'SegoeUI'; font-size:48px;">Tutorials</text>
	<g>
		
			<line style="fill:none;stroke:#D83B01;stroke-width:40;stroke-miterlimit:10;" x1="-879.3" y1="-1517.6" x2="-879.3" y2="-1277.6"/>
		
			<line style="fill:none;stroke:#D83B01;stroke-width:40;stroke-miterlimit:10;" x1="-759.3" y1="-1397.6" x2="-999.3" y2="-1397.6"/>
	</g>
	<polygon style="fill:#BBDE73;" points="-868.6,-1645.4 -855.6,-1629.2 -834.9,-1629.2 -839.5,-1609 -826.6,-1592.7 -845.3,-1583.7 
		-849.9,-1563.5 -868.6,-1572.5 -887.3,-1563.5 -891.9,-1583.7 -910.6,-1592.7 -897.6,-1609 -902.3,-1629.2 -881.5,-1629.2 	"/>
	<g>
		<g>
			<path style="fill:#2E5291;" d="M263.7-1341.8c0,22-18,40-40,40h-398c-22,0-40-18-40-40v-398c0-22,18-40,40-40h398
				c22,0,40,18,40,40V-1341.8z"/>
		</g>
		<g>
			
				<image style="overflow:visible;opacity:0.75;" width="313" height="312" xlink:href="31D3316B.png"  transform="matrix(1 0 0 1 -130.0568 -1692.5963)">
			</image>
			<g>
				<path style="fill:#FFFFFF;" d="M24.7-1388.6c-16.5,0-30-13.5-30-30v-90h-90c-16.5,0-30-13.5-30-30s13.5-30,30-30h90v-90
					c0-16.5,13.5-30,30-30s30,13.5,30,30v90h90c16.5,0,30,13.5,30,30s-13.5,30-30,30h-90v90C54.7-1402.1,41.3-1388.6,24.7-1388.6z"
					/>
			</g>
		</g>
		<path style="fill:#2E5291;" d="M144.7-1558.6h-100v-100c0-11-9-20-20-20s-20,9-20,20v100h-100c-11,0-20,9-20,20s9,20,20,20h100
			v100c0,11,9,20,20,20s20-9,20-20v-100h100c11,0,20-9,20-20S155.8-1558.6,144.7-1558.6z"/>
		<g>
			
				<image style="overflow:visible;opacity:0.75;" width="395" height="395" xlink:href="33862207.png"  transform="matrix(1 0 0 1 -170.0568 -1734.5963)">
			</image>
			<g>
				<path style="fill:#FFFFFF;" d="M216.9-1538.7c0,105.3-85.7,191-191,191s-191-85.7-191-191s85.7-191,191-191
					c32.5,0,63,8.1,89.8,22.5h17.9l17.8-22.3l17.8,22.3h28.5l-6.3,27.8l17.8,22.3l-25.7,12.4l-6.3,27.8l-25.7-12.4l-25.7,12.4
					l-6.3-27.8l-25.7-12.4l17.8-22.3l-4.8-21.2c-24.3-12.2-51.8-19.1-80.8-19.1c-99.8,0-181,81.2-181,181s81.2,181,181,181
					s181-81.2,181-181c0-34.3-9.6-66.5-26.3-93.9l2.8-12.3l0.9-0.4C204.9-1614.8,216.9-1578.1,216.9-1538.7z"/>
			</g>
		</g>
		<radialGradient id="SVGID_2_" cx="151.4432" cy="-1672.4473" r="41.4768" gradientUnits="userSpaceOnUse">
			<stop  offset="0" style="stop-color:#BBDE73"/>
			<stop  offset="3.057313e-02" style="stop-color:#A9CC77"/>
			<stop  offset="9.760284e-02" style="stop-color:#88AC7E"/>
			<stop  offset="0.1726" style="stop-color:#6C9084"/>
			<stop  offset="0.2563" style="stop-color:#557989"/>
			<stop  offset="0.3525" style="stop-color:#44678C"/>
			<stop  offset="0.4686" style="stop-color:#375B8F"/>
			<stop  offset="0.6255" style="stop-color:#305491"/>
			<stop  offset="1" style="stop-color:#2E5291"/>
		</radialGradient>
		<polygon style="fill:url(#SVGID_2_);" points="151.4,-1713.4 164.4,-1697.2 185.1,-1697.2 180.5,-1676.9 193.4,-1660.7 
			174.8,-1651.7 170.1,-1631.5 151.4,-1640.5 132.8,-1631.5 128.1,-1651.7 109.4,-1660.7 122.4,-1676.9 117.8,-1697.2 
			138.5,-1697.2 		"/>
	</g>
	<g>
		<path style="fill:#2E5291;" d="M-58.3-936.6c0,2.9-2.4,5.4-5.4,5.4h-53.3c-2.9,0-5.4-2.4-5.4-5.4v-53.3c0-2.9,2.4-5.4,5.4-5.4
			h53.3c2.9,0,5.4,2.4,5.4,5.4V-936.6z"/>
	</g>
	<g>
		
			<image style="overflow:visible;opacity:0.75;" width="44" height="44" xlink:href="33862205.png"  transform="matrix(1 0 0 1 -111.8601 -984.3997)">
		</image>
		<g>
			<path style="fill:#FFFFFF;" d="M-90.3-942.8c-2.2,0-4-1.8-4-4v-12.1h-12.1c-2.2,0-4-1.8-4-4s1.8-4,4-4h12.1V-979c0-2.2,1.8-4,4-4
				s4,1.8,4,4v12.1h12.1c2.2,0,4,1.8,4,4s-1.8,4-4,4h-12.1v12.1C-86.2-944.6-88-942.8-90.3-942.8z"/>
		</g>
	</g>
	<path style="fill:#2E5291;" d="M-74.2-965.6h-13.4V-979c0-1.5-1.2-2.7-2.7-2.7s-2.7,1.2-2.7,2.7v13.4h-13.4c-1.5,0-2.7,1.2-2.7,2.7
		s1.2,2.7,2.7,2.7h13.4v13.4c0,1.5,1.2,2.7,2.7,2.7s2.7-1.2,2.7-2.7v-13.4h13.4c1.5,0,2.7-1.2,2.7-2.7S-72.7-965.6-74.2-965.6z"/>
	<g>
		
			<image style="overflow:visible;opacity:0.75;" width="54" height="54" xlink:href="33862203.png"  transform="matrix(1 0 0 1 -116.8601 -989.3997)">
		</image>
		<g>
			<path style="fill:#FFFFFF;" d="M-64.5-962.9c0,14.1-11.5,25.6-25.6,25.6s-25.6-11.5-25.6-25.6s11.5-25.6,25.6-25.6
				c4.3,0,8.4,1.1,12,3h2.4l2.4-3l2.4,3h3.8l-0.8,3.7l2.4,3l-3.4,1.7l-0.8,3.7l-3.4-1.7l-3.4,1.7l-0.8-3.7l-3.4-1.7l2.4-3l-0.6-2.8
				c-3.3-1.6-6.9-2.6-10.8-2.6c-13.4,0-24.2,10.9-24.2,24.2s10.9,24.2,24.2,24.2s24.2-10.9,24.2-24.2c0-4.6-1.3-8.9-3.5-12.6
				l0.4-1.6l0.1-0.1C-66.1-973.1-64.5-968.2-64.5-962.9z"/>
		</g>
	</g>
	<radialGradient id="SVGID_3_" cx="-73.292" cy="-980.8284" r="5.5534" gradientUnits="userSpaceOnUse">
		<stop  offset="0" style="stop-color:#BBDE73"/>
		<stop  offset="3.057313e-02" style="stop-color:#A9CC77"/>
		<stop  offset="9.760284e-02" style="stop-color:#88AC7E"/>
		<stop  offset="0.1726" style="stop-color:#6C9084"/>
		<stop  offset="0.2563" style="stop-color:#557989"/>
		<stop  offset="0.3525" style="stop-color:#44678C"/>
		<stop  offset="0.4686" style="stop-color:#375B8F"/>
		<stop  offset="0.6255" style="stop-color:#305491"/>
		<stop  offset="1" style="stop-color:#2E5291"/>
	</radialGradient>
	<polygon style="fill:url(#SVGID_3_);" points="-73.3,-986.3 -71.6,-984.1 -68.8,-984.1 -69.4,-981.4 -67.7,-979.3 -70.2,-978.1 
		-70.8,-975.3 -73.3,-976.6 -75.8,-975.3 -76.4,-978.1 -78.9,-979.3 -77.2,-981.4 -77.8,-984.1 -75,-984.1 	"/>
	<g>
		<g>
			<path style="fill:#2E5291;" d="M875.2-1342.4c0,22-18,40-40,40h-398c-22,0-40-18-40-40v-398c0-22,18-40,40-40h398
				c22,0,40,18,40,40V-1342.4z"/>
		</g>
		<g>
			<g>
				
					<image style="overflow:visible;opacity:0.75;" width="139" height="188" xlink:href="3386221D.png"  transform="matrix(1 0 0 1 499.9432 -1633.5963)">
				</image>
				<g>
					<path style="fill:#FFFFFF;" d="M630.3-1463c-41.8-31.4-83.6,31.4-125.4,0c0-52.3,0-104.5,0-156.8c41.8,31.4,83.6-31.4,125.4,0
						C630.3-1567.6,630.3-1515.3,630.3-1463z"/>
				</g>
			</g>
			<g>
				
					<image style="overflow:visible;opacity:0.75;" width="138" height="188" xlink:href="3386221F.png"  transform="matrix(1 0 0 1 637.9432 -1633.5963)">
				</image>
				<g>
					<path style="fill:#FFFFFF;" d="M767.6-1463c-41.8,31.4-83.6-31.4-125.4,0c0-52.3,0-104.5,0-156.8c41.8-31.4,83.6,31.4,125.4,0
						C767.6-1567.6,767.6-1515.3,767.6-1463z"/>
				</g>
			</g>
		</g>
		<g>
			
				<image style="overflow:visible;opacity:0.75;" width="394" height="394" xlink:href="33862202.png"  transform="matrix(1 0 0 1 440.9432 -1736.5963)">
			</image>
			<g>
				<path style="fill:#FFFFFF;" d="M636.2-1350.9c-105,0-190.5-85.5-190.5-190.5s85.5-190.5,190.5-190.5s190.5,85.5,190.5,190.5
					S741.3-1350.9,636.2-1350.9z M636.2-1721.9c-99.5,0-180.5,81-180.5,180.5s81,180.5,180.5,180.5s180.5-81,180.5-180.5
					S735.7-1721.9,636.2-1721.9z"/>
			</g>
		</g>
	</g>
	<g>
		<g>
			<path style="fill:#2E5291;" d="M27.2-936.6c0,2.9-2.4,5.4-5.4,5.4h-53.3c-2.9,0-5.4-2.4-5.4-5.4v-53.3c0-2.9,2.4-5.4,5.4-5.4
				h53.3c2.9,0,5.4,2.4,5.4,5.4V-936.6z"/>
		</g>
		<g>
			<g>
				
					<image style="overflow:visible;opacity:0.75;" width="20" height="27" xlink:href="33862201.png"  transform="matrix(1 0 0 1 -23.8601 -976.3997)">
				</image>
				<g>
					<path style="fill:#FFFFFF;" d="M-5.6-952.7c-5.6-4.2-11.2,4.2-16.8,0c0-7,0-14,0-21c5.6,4.2,11.2-4.2,16.8,0
						C-5.6-966.7-5.6-959.7-5.6-952.7z"/>
				</g>
			</g>
			<g>
				
					<image style="overflow:visible;opacity:0.75;" width="20" height="27" xlink:href="33862206.png"  transform="matrix(1 0 0 1 -4.8601 -976.3997)">
				</image>
				<g>
					<path style="fill:#FFFFFF;" d="M12.8-952.7c-5.6,4.2-11.2-4.2-16.8,0c0-7,0-14,0-21c5.6-4.2,11.2,4.2,16.8,0
						C12.8-966.7,12.8-959.7,12.8-952.7z"/>
				</g>
			</g>
		</g>
		<g>
			
				<image style="overflow:visible;opacity:0.75;" width="54" height="54" xlink:href="33862200.png"  transform="matrix(1 0 0 1 -30.8601 -989.3997)">
			</image>
			<g>
				<path style="fill:#FFFFFF;" d="M-4.8-937.7c-14.1,0-25.5-11.4-25.5-25.5s11.4-25.5,25.5-25.5s25.5,11.4,25.5,25.5
					S9.3-937.7-4.8-937.7z M-4.8-987.4c-13.3,0-24.2,10.8-24.2,24.2c0,13.3,10.8,24.2,24.2,24.2s24.2-10.8,24.2-24.2
					C19.4-976.5,8.5-987.4-4.8-987.4z"/>
			</g>
		</g>
	</g>
	<g>
		<g>
			<path style="fill:#2E5291;" d="M-144.5-936.6c0,2.9-2.4,5.4-5.4,5.4h-53.3c-2.9,0-5.4-2.4-5.4-5.4v-53.3c0-2.9,2.4-5.4,5.4-5.4
				h53.3c2.9,0,5.4,2.4,5.4,5.4V-936.6z"/>
		</g>
		<g>
			<g>
				
					<image style="overflow:visible;opacity:0.75;" width="51" height="48" xlink:href="3386220E.png"  transform="matrix(1 0 0 1 -201.8601 -983.3997)">
				</image>
				<g>
					<g>
						<path style="fill:#FFFFFF;" d="M-176.5-937.3c-13.3,0-24.1-10.8-24.1-24.1c0-8,4-15.5,10.6-20c0.7-0.5,1.4-0.7,2.2-0.7
							c1.3,0,2.6,0.7,3.3,1.8c0.6,0.9,0.8,2,0.6,3c-0.2,1.1-0.8,2-1.7,2.6c-4.4,3-7.1,8-7.1,13.3c0,8.9,7.2,16.1,16.1,16.1
							s16.1-7.2,16.1-16.1c0-5.3-2.6-10.3-7.1-13.3c-0.9-0.6-1.5-1.5-1.7-2.6c-0.2-1.1,0-2.1,0.6-3c0.7-1.1,2-1.8,3.3-1.8
							c0.8,0,1.6,0.2,2.2,0.7c6.7,4.5,10.6,12,10.6,20C-152.4-948.1-163.2-937.3-176.5-937.3z"/>
						<path style="fill:#FFFFFF;" d="M-176.5-938.6c-12.6,0-22.8-10.2-22.8-22.8c0-7.6,3.8-14.6,10-18.9c1.2-0.8,2.9-0.5,3.7,0.7
							c0.8,1.2,0.5,2.9-0.7,3.7c-4.8,3.2-7.7,8.6-7.7,14.4c0,9.6,7.8,17.4,17.4,17.4s17.4-7.8,17.4-17.4c0-5.8-2.9-11.2-7.7-14.4
							c-1.2-0.8-1.5-2.5-0.7-3.7c0.8-1.2,2.5-1.5,3.7-0.7c6.3,4.2,10,11.3,10,18.9C-153.8-948.8-164-938.6-176.5-938.6z"/>
					</g>
					<g>
						<path style="fill:#FFFFFF;" d="M-176.5-937.3c-13.3,0-24.1-10.8-24.1-24.1c0-8,4-15.5,10.6-20c0.7-0.5,1.4-0.7,2.2-0.7
							c1.3,0,2.6,0.7,3.3,1.8c0.6,0.9,0.8,2,0.6,3c-0.2,1.1-0.8,2-1.7,2.6c-4.4,3-7.1,8-7.1,13.3c0,8.9,7.2,16.1,16.1,16.1
							s16.1-7.2,16.1-16.1c0-5.3-2.6-10.3-7.1-13.3c-0.9-0.6-1.5-1.5-1.7-2.6c-0.2-1.1,0-2.1,0.6-3c0.7-1.1,2-1.8,3.3-1.8
							c0.8,0,1.6,0.2,2.2,0.7c6.7,4.5,10.6,12,10.6,20C-152.4-948.1-163.2-937.3-176.5-937.3z"/>
						<path style="fill:#2E5291;" d="M-176.5-938.6c-12.6,0-22.8-10.2-22.8-22.8c0-7.6,3.8-14.6,10-18.9c1.2-0.8,2.9-0.5,3.7,0.7
							c0.8,1.2,0.5,2.9-0.7,3.7c-4.8,3.2-7.7,8.6-7.7,14.4c0,9.6,7.8,17.4,17.4,17.4s17.4-7.8,17.4-17.4c0-5.8-2.9-11.2-7.7-14.4
							c-1.2-0.8-1.5-2.5-0.7-3.7c0.8-1.2,2.5-1.5,3.7-0.7c6.3,4.2,10,11.3,10,18.9C-153.8-948.8-164-938.6-176.5-938.6z"/>
					</g>
				</g>
			</g>
			<g>
				<g>
					
						<image style="overflow:visible;opacity:0.75;" width="11" height="37" xlink:href="33862226.png"  transform="matrix(1 0 0 1 -181.8601 -990.3997)">
					</image>
					<g>
						<g>
							<path style="fill:#FFFFFF;" d="M-176.5-955.4c-2.2,0-4-1.8-4-4v-25.7c0-2.2,1.8-4,4-4s4,1.8,4,4v25.7
								C-172.5-957.2-174.3-955.4-176.5-955.4z"/>
							<path style="fill:#FFFFFF;" d="M-176.5-956.7c-1.5,0-2.7-1.2-2.7-2.7v-25.7c0-1.5,1.2-2.7,2.7-2.7s2.7,1.2,2.7,2.7v25.7
								C-173.8-957.9-175-956.7-176.5-956.7z"/>
						</g>
						<g>
							<path style="fill:#FFFFFF;" d="M-176.5-955.4c-2.2,0-4-1.8-4-4v-25.7c0-2.2,1.8-4,4-4s4,1.8,4,4v25.7
								C-172.5-957.2-174.3-955.4-176.5-955.4z"/>
							<path style="fill:#2E5291;" d="M-176.5-956.7c-1.5,0-2.7-1.2-2.7-2.7v-25.7c0-1.5,1.2-2.7,2.7-2.7s2.7,1.2,2.7,2.7v25.7
								C-173.8-957.9-175-956.7-176.5-956.7z"/>
						</g>
					</g>
				</g>
				<linearGradient id="SVGID_4_" gradientUnits="userSpaceOnUse" x1="-176.5211" y1="-956.7225" x2="-176.5211" y2="-962.0781">
					<stop  offset="0" style="stop-color:#BBDE73"/>
					<stop  offset="7.405663e-02" style="stop-color:#A1C578"/>
					<stop  offset="0.1955" style="stop-color:#7EA280"/>
					<stop  offset="0.3244" style="stop-color:#618586"/>
					<stop  offset="0.4608" style="stop-color:#4A6E8B"/>
					<stop  offset="0.6082" style="stop-color:#3A5E8E"/>
					<stop  offset="0.7745" style="stop-color:#315590"/>
					<stop  offset="1" style="stop-color:#2E5291"/>
				</linearGradient>
				<circle style="fill:url(#SVGID_4_);" cx="-176.5" cy="-959.4" r="2.7"/>
			</g>
		</g>
	</g>
	<text transform="matrix(1 0 0 1 -206.5509 -1008.5963)" style="fill:#1E1E1E; font-family:'SegoeUI'; font-size:12px;">Get Started</text>
	<text transform="matrix(1 0 0 1 -229.0613 -722.5963)" style="fill:#1E1E1E; font-family:'SegoeUI'; font-size:12px;">Design Specs: </text>
	<text transform="matrix(1 0 0 1 -217.0613 -703.5963)"><tspan x="0" y="0" style="fill:#1E1E1E; font-family:'SegoeUI'; font-size:12px;">●   Dark blue is Altair corp color</tspan><tspan x="0" y="13.2" style="fill:#1E1E1E; font-family:'SegoeUI'; font-size:12px;">●   Symbol designed in current &apos;flat&apos; look/style</tspan><tspan x="0" y="26.4" style="fill:#1E1E1E; font-family:'SegoeUI'; font-size:12px;">●   Translates well positive/negative</tspan><tspan x="0" y="39.6" style="fill:#1E1E1E; font-family:'SegoeUI'; font-size:12px;">●   2 main colors: blue/white</tspan><tspan x="0" y="52.8" style="fill:#1E1E1E; font-family:'SegoeUI'; font-size:12px;">●   Accent colors may be used for action. Ex: Green = Go, Yellow =caution, etc</tspan><tspan x="0" y="66" style="fill:#1E1E1E; font-family:'SegoeUI'; font-size:12px;">●   All vector based, however some details will reduce as size reduces</tspan><tspan x="0" y="79.2" style="fill:#1E1E1E; font-family:'SegoeUI'; font-size:12px;">●   Star and green dot will be the same in final, only shown as possible examples </tspan><tspan x="0" y="92.4" style="fill:#1E1E1E; font-family:'SegoeUI'; font-size:12px;">      (I&apos;m leaning towards the green dot)</tspan></text>
	<text transform="matrix(1 0 0 1 -122.174 -1008.5963)" style="fill:#1E1E1E; font-family:'SegoeUI'; font-size:12px;">What&apos;s New</text>
	<text transform="matrix(1 0 0 1 -29.2355 -1008.5963)" style="fill:#1E1E1E; font-family:'SegoeUI'; font-size:12px;">Tutorials</text>
	<g>
		<g>
			<path style="fill:#2E5291;" d="M261.1-950.4c-6.8-5.1-13.7,5.1-20.5,0c0-8.6,0-17.1,0-25.7c6.8,5.1,13.7-5.1,20.5,0
				C261.1-967.5,261.1-958.9,261.1-950.4z"/>
		</g>
		<g>
			<path style="fill:#2E5291;" d="M283.6-950.4c-6.8,5.1-13.7-5.1-20.5,0c0-8.6,0-17.1,0-25.7c6.8-5.1,13.7,5.1,20.5,0
				C283.6-967.5,283.6-958.9,283.6-950.4z"/>
		</g>
	</g>
	<g>
		<path style="fill:#FFFFFF;" d="M91.4-931.2c-16.4,0-29.7-13.3-29.7-29.7c0-9.9,4.9-19.1,13.1-24.7c0.8-0.6,1.8-0.9,2.8-0.9
			c1.7,0,3.2,0.8,4.1,2.2c0.7,1.1,1,2.4,0.8,3.7c-0.3,1.3-1,2.4-2.1,3.2c-5.5,3.7-8.7,9.8-8.7,16.4c0,10.9,8.9,19.8,19.8,19.8
			s19.8-8.9,19.8-19.8c0-6.6-3.3-12.7-8.7-16.4c-1.1-0.7-1.8-1.9-2.1-3.2c-0.3-1.3,0-2.6,0.8-3.7c0.9-1.4,2.5-2.2,4.1-2.2
			c1,0,1.9,0.3,2.8,0.9c8.2,5.5,13.1,14.8,13.1,24.7C121.1-944.5,107.8-931.2,91.4-931.2z"/>
		<path style="fill:#FFFFFF;" d="M91.4-953.6c-2.7,0-5-2.2-5-5v-31.7c0-2.7,2.2-5,5-5s5,2.2,5,5v31.7
			C96.3-955.8,94.1-953.6,91.4-953.6z"/>
		<g>
			<path style="fill:#2E5291;" d="M91.4-932.9c-15.5,0-28.1-12.6-28.1-28.1c0-9.3,4.6-18.1,12.4-23.3c1.5-1,3.6-0.6,4.6,0.9
				c1,1.5,0.6,3.6-0.9,4.6c-5.9,4-9.5,10.7-9.5,17.8c0,11.8,9.6,21.5,21.5,21.5s21.5-9.6,21.5-21.5c0-7.1-3.5-13.8-9.5-17.8
				c-1.5-1-1.9-3.1-0.9-4.6c1-1.5,3.1-1.9,4.6-0.9c7.8,5.2,12.4,13.9,12.4,23.3C119.5-945.5,106.9-932.9,91.4-932.9z"/>
			<path style="fill:#2E5291;" d="M91.4-955.2c-1.8,0-3.3-1.5-3.3-3.3v-31.7c0-1.8,1.5-3.3,3.3-3.3s3.3,1.5,3.3,3.3v31.7
				C94.7-956.7,93.2-955.2,91.4-955.2z"/>
		</g>
		<circle style="fill:#BBDE73;" cx="91.4" cy="-958.5" r="3"/>
	</g>
	<text transform="matrix(1 0 0 1 61.3656 -1008.5963)" style="fill:#1E1E1E; font-family:'SegoeUI'; font-size:12px;">Get Started</text>
	<text transform="matrix(1 0 0 1 145.7248 -1008.5963)" style="fill:#1E1E1E; font-family:'SegoeUI'; font-size:12px;">What&apos;s New</text>
	<text transform="matrix(1 0 0 1 239.3948 -1008.5963)" style="fill:#1E1E1E; font-family:'SegoeUI'; font-size:12px;">Tutorials</text>
	<circle style="fill:none;stroke:#2E5291;stroke-width:4;stroke-miterlimit:10;" cx="262.1" cy="-963.2" r="32"/>
	<path style="fill:#2E5291;" d="M177.6-942.8c-2.2,0-4-1.8-4-4v-12.1h-12.1c-2.2,0-4-1.8-4-4s1.8-4,4-4h12.1V-979c0-2.2,1.8-4,4-4
		s4,1.8,4,4v12.1h12.1c2.2,0,4,1.8,4,4s-1.8,4-4,4h-12.1v12.1C181.7-944.6,179.9-942.8,177.6-942.8z"/>
	<path style="fill:#2E5291;" d="M194-965.6h-13.4V-979c0-1.5-1.2-2.7-2.7-2.7s-2.7,1.2-2.7,2.7v13.4h-13.4c-1.5,0-2.7,1.2-2.7,2.7
		c0,1.5,1.2,2.7,2.7,2.7h13.4v13.4c0,1.5,1.2,2.7,2.7,2.7s2.7-1.2,2.7-2.7v-13.4H194c1.5,0,2.7-1.2,2.7-2.7
		C196.6-964.4,195.4-965.6,194-965.6z"/>
	<circle style="fill:none;stroke:#2E5291;stroke-width:4;stroke-miterlimit:10;" cx="177.9" cy="-963.2" r="32"/>
	<path style="fill:#FFFFFF;" d="M200.2-975.3c-6,0-10.8-4.8-10.8-10.8s4.8-10.8,10.8-10.8s10.8,4.8,10.8,10.8
		S206.2-975.3,200.2-975.3z"/>
	<circle style="fill:#BBDE73;" cx="200.2" cy="-986.1" r="5.8"/>
	<g>
		<g>
			<path style="fill:#2E5291;" d="M520.5-632.4c-6.8-5.1-13.7,5.1-20.5,0c0-8.6,0-17.1,0-25.7c6.8,5.1,13.7-5.1,20.5,0
				C520.5-649.5,520.5-640.9,520.5-632.4z"/>
		</g>
		<g>
			<path style="fill:#2E5291;" d="M543-632.4c-6.8,5.1-13.7-5.1-20.5,0c0-8.6,0-17.1,0-25.7c6.8-5.1,13.7,5.1,20.5,0
				C543-649.5,543-640.9,543-632.4z"/>
		</g>
	</g>
	<g>
		<path style="fill:#FFFFFF;" d="M350.8-613.2c-16.4,0-29.7-13.3-29.7-29.7c0-9.9,4.9-19.1,13.1-24.7c0.8-0.6,1.8-0.9,2.8-0.9
			c1.7,0,3.2,0.8,4.1,2.2c0.7,1.1,1,2.4,0.8,3.7c-0.3,1.3-1,2.4-2.1,3.2c-5.5,3.7-8.7,9.8-8.7,16.4c0,10.9,8.9,19.8,19.8,19.8
			c10.9,0,19.8-8.9,19.8-19.8c0-6.6-3.3-12.7-8.7-16.4c-1.1-0.7-1.8-1.9-2.1-3.2c-0.3-1.3,0-2.6,0.8-3.7c0.9-1.4,2.5-2.2,4.1-2.2
			c1,0,1.9,0.3,2.8,0.9c8.2,5.5,13.1,14.8,13.1,24.7C380.6-626.5,367.2-613.2,350.8-613.2z"/>
		<path style="fill:#FFFFFF;" d="M350.8-635.5c-2.7,0-5-2.2-5-5v-31.7c0-2.7,2.2-5,5-5c2.7,0,5,2.2,5,5v31.7
			C355.8-637.8,353.5-635.5,350.8-635.5z"/>
		<g>
			<path style="fill:#2E5291;" d="M350.8-614.8c-15.5,0-28.1-12.6-28.1-28.1c0-9.3,4.6-18.1,12.4-23.3c1.5-1,3.6-0.6,4.6,0.9
				c1,1.5,0.6,3.6-0.9,4.6c-5.9,4-9.5,10.7-9.5,17.8c0,11.8,9.6,21.5,21.5,21.5c11.8,0,21.5-9.6,21.5-21.5c0-7.1-3.5-13.8-9.5-17.8
				c-1.5-1-1.9-3.1-0.9-4.6c1-1.5,3.1-1.9,4.6-0.9c7.8,5.2,12.4,13.9,12.4,23.3C378.9-627.4,366.3-614.8,350.8-614.8z"/>
			<path style="fill:#2E5291;" d="M350.8-637.2c-1.8,0-3.3-1.5-3.3-3.3v-31.7c0-1.8,1.5-3.3,3.3-3.3c1.8,0,3.3,1.5,3.3,3.3v31.7
				C354.1-638.7,352.6-637.2,350.8-637.2z"/>
		</g>
		<circle style="fill:#BBDE73;" cx="350.8" cy="-640.5" r="3"/>
	</g>
	<text transform="matrix(1 0 0 1 320.8133 -690.5765)" style="fill:#1E1E1E; font-family:'SegoeUI'; font-size:12px;">Get Started</text>
	<text transform="matrix(1 0 0 1 405.1725 -690.5765)" style="fill:#1E1E1E; font-family:'SegoeUI'; font-size:12px;">What&apos;s New</text>
	<text transform="matrix(1 0 0 1 -238.7274 -534.4893)" style="fill:#1E1E1E; font-family:'SegoeUI-Bold'; font-size:14px;">What&apos;s New  96 x 96</text>
	<text transform="matrix(1 0 0 1 293.0092 -534.4893)" style="fill:#1E1E1E; font-family:'SegoeUI-Bold'; font-size:14px;">Get Started  96 x 96</text>
	<text transform="matrix(1 0 0 1 498.8425 -690.5765)" style="fill:#1E1E1E; font-family:'SegoeUI'; font-size:12px;">Tutorials</text>
	<circle style="fill:none;stroke:#2E5291;stroke-width:4;stroke-miterlimit:10;" cx="521.5" cy="-645.2" r="32"/>
	<path style="fill:#2E5291;" d="M434.2-627.1c-2.2,0-4-1.8-4-4v-12.1h-12.1c-2.2,0-4-1.8-4-4c0-2.2,1.8-4,4-4h12.1v-12.1
		c0-2.2,1.8-4,4-4c2.2,0,4,1.8,4,4v12.1h12.1c2.2,0,4,1.8,4,4c0,2.2-1.8,4-4,4h-12.1v12.1C438.3-628.9,436.5-627.1,434.2-627.1z"/>
	<path style="fill:#2E5291;" d="M450.5-649.9h-13.4v-13.4c0-1.5-1.2-2.7-2.7-2.7s-2.7,1.2-2.7,2.7v13.4h-13.4
		c-1.5,0-2.7,1.2-2.7,2.7s1.2,2.7,2.7,2.7h13.4v13.4c0,1.5,1.2,2.7,2.7,2.7s2.7-1.2,2.7-2.7v-13.4h13.4c1.5,0,2.7-1.2,2.7-2.7
		S452-649.9,450.5-649.9z"/>
	<circle style="fill:none;stroke:#2E5291;stroke-width:4;stroke-miterlimit:10;" cx="434.5" cy="-647.5" r="32"/>
	<g>
		<path style="fill:#2E5291;" d="M68-492.4c21.5,0,39,17.5,39,39s-17.5,39-39,39s-39-17.5-39-39S46.5-492.4,68-492.4 M68-497.4
			c-24.3,0-44,19.7-44,44s19.7,44,44,44s44-19.7,44-44S92.3-497.4,68-497.4L68-497.4z"/>
	</g>
	<path style="fill:#FFFFFF;" d="M369.1-381.5c-25.9,0-47-21.1-47-47c0-17.4,9.6-33.4,25-41.5c1.2-0.6,2.4-0.9,3.7-0.9
		c3,0,5.7,1.6,7.1,4.3c2.1,3.9,0.6,8.8-3.3,10.8c-10.2,5.4-16.5,15.9-16.5,27.4c0,17.1,13.9,31,31,31s31-13.9,31-31
		c0-11.5-6.3-22-16.5-27.4c-3.9-2.1-5.4-6.9-3.3-10.8c1.4-2.6,4.1-4.3,7.1-4.3c1.3,0,2.6,0.3,3.7,0.9c15.4,8.2,25,24.1,25,41.6
		C416.1-402.6,395-381.5,369.1-381.5z"/>
	<path style="fill:#2E5291;" d="M369.1-385.5c-23.7,0-43-19.3-43-43c0-16,8.8-30.5,22.9-38c2-1,4.4-0.3,5.4,1.7c1,2,0.3,4.4-1.7,5.4
		c-11.5,6.1-18.6,18-18.6,30.9c0,19.3,15.7,35,35,35s35-15.7,35-35c0-13-7.1-24.9-18.7-31c-2-1-2.7-3.5-1.7-5.4c1-2,3.5-2.7,5.4-1.7
		c14.1,7.5,22.9,22.1,22.9,38C412.1-404.8,392.8-385.5,369.1-385.5z"/>
	<path style="fill:#BBDE73;" d="M68-292c-26.5,0-48-21.5-48-48s21.5-48,48-48s48,21.5,48,48S94.5-292,68-292z M68-375
		c-19.3,0-35,15.7-35,35s15.7,35,35,35s35-15.7,35-35S87.3-375,68-375z"/>
	<path style="fill:#2E5291;" d="M68-379c21.5,0,39,17.5,39,39s-17.5,39-39,39s-39-17.5-39-39S46.5-379,68-379 M68-384
		c-24.3,0-44,19.7-44,44s19.7,44,44,44s44-19.7,44-44S92.3-384,68-384L68-384z"/>
	<path style="fill:#FFFFFF;" d="M456.8-659.6c-6,0-10.8-4.8-10.8-10.8s4.8-10.8,10.8-10.8s10.8,4.8,10.8,10.8
		S462.8-659.6,456.8-659.6z"/>
	<circle style="fill:#BBDE73;" cx="456.8" cy="-670.4" r="5.8"/>
	<g>
		<g>
			<path style="fill:#FFFFFF;" d="M544.3-950.4c-6.8-5.1-13.7,5.1-20.5,0c0-8.6,0-17.1,0-25.7c6.8,5.1,13.7-5.1,20.5,0
				C544.3-967.5,544.3-958.9,544.3-950.4z"/>
		</g>
		<g>
			<path style="fill:#FFFFFF;" d="M566.8-950.4c-6.8,5.1-13.7-5.1-20.5,0c0-8.6,0-17.1,0-25.7c6.8-5.1,13.7,5.1,20.5,0
				C566.8-967.5,566.8-958.9,566.8-950.4z"/>
		</g>
	</g>
	<g>
		<path style="fill:#272525;" d="M374.6-931.2c-16.4,0-29.7-13.3-29.7-29.7c0-9.9,4.9-19.1,13.1-24.7c0.8-0.6,1.8-0.9,2.8-0.9
			c1.7,0,3.2,0.8,4.1,2.2c0.7,1.1,1,2.4,0.8,3.7c-0.3,1.3-1,2.4-2.1,3.2c-5.5,3.7-8.7,9.8-8.7,16.4c0,10.9,8.9,19.8,19.8,19.8
			s19.8-8.9,19.8-19.8c0-6.6-3.3-12.7-8.7-16.4c-1.1-0.7-1.8-1.9-2.1-3.2c-0.3-1.3,0-2.6,0.8-3.7c0.9-1.4,2.5-2.2,4.1-2.2
			c1,0,1.9,0.3,2.8,0.9c8.2,5.5,13.1,14.8,13.1,24.7C404.3-944.5,391-931.2,374.6-931.2z"/>
		<path style="fill:#272525;" d="M374.6-953.6c-2.7,0-5-2.2-5-5v-31.7c0-2.7,2.2-5,5-5s5,2.2,5,5v31.7
			C379.5-955.8,377.3-953.6,374.6-953.6z"/>
		<g>
			<path style="fill:#FFFFFF;" d="M374.6-932.9c-15.5,0-28.1-12.6-28.1-28.1c0-9.3,4.6-18.1,12.4-23.3c1.5-1,3.6-0.6,4.6,0.9
				c1,1.5,0.6,3.6-0.9,4.6c-5.9,4-9.5,10.7-9.5,17.8c0,11.8,9.6,21.5,21.5,21.5s21.5-9.6,21.5-21.5c0-7.1-3.5-13.8-9.5-17.8
				c-1.5-1-1.9-3.1-0.9-4.6c1-1.5,3.1-1.9,4.6-0.9c7.8,5.2,12.4,13.9,12.4,23.3C402.7-945.5,390.1-932.9,374.6-932.9z"/>
			<path style="fill:#FFFFFF;" d="M374.6-955.2c-1.8,0-3.3-1.5-3.3-3.3v-31.7c0-1.8,1.5-3.3,3.3-3.3s3.3,1.5,3.3,3.3v31.7
				C377.9-956.7,376.4-955.2,374.6-955.2z"/>
		</g>
		<circle style="fill:#BBDE73;" cx="374.6" cy="-958.5" r="3.5"/>
	</g>
	<g>
		<path style="fill:#272525;" d="M374.6-764.1c-16.4,0-29.7-13.3-29.7-29.7c0-9.9,4.9-19.1,13.1-24.7c0.8-0.6,1.8-0.9,2.8-0.9
			c1.7,0,3.2,0.8,4.1,2.2c0.7,1.1,1,2.4,0.8,3.7c-0.3,1.3-1,2.4-2.1,3.2c-5.5,3.7-8.7,9.8-8.7,16.4c0,10.9,8.9,19.8,19.8,19.8
			s19.8-8.9,19.8-19.8c0-6.6-3.3-12.7-8.7-16.4c-1.1-0.7-1.8-1.9-2.1-3.2c-0.3-1.3,0-2.6,0.8-3.7c0.9-1.4,2.5-2.2,4.1-2.2
			c1,0,1.9,0.3,2.8,0.9c8.2,5.5,13.1,14.8,13.1,24.7C404.3-777.4,391-764.1,374.6-764.1z"/>
		<path style="fill:#272525;" d="M374.6-786.4c-2.7,0-5-2.2-5-5v-31.7c0-2.7,2.2-5,5-5s5,2.2,5,5v31.7
			C379.5-788.6,377.3-786.4,374.6-786.4z"/>
		<g>
			<path style="fill:#FFFFFF;" d="M374.6-765.7c-15.5,0-28.1-12.6-28.1-28.1c0-9.3,4.6-18.1,12.4-23.3c1.5-1,3.6-0.6,4.6,0.9
				c1,1.5,0.6,3.6-0.9,4.6c-5.9,4-9.5,10.7-9.5,17.8c0,11.8,9.6,21.5,21.5,21.5S396-782,396-793.8c0-7.1-3.5-13.8-9.5-17.8
				c-1.5-1-1.9-3.1-0.9-4.6c1-1.5,3.1-1.9,4.6-0.9c7.8,5.2,12.4,13.9,12.4,23.3C402.7-778.3,390.1-765.7,374.6-765.7z"/>
			<path style="fill:#FFFFFF;" d="M374.6-788.1c-1.8,0-3.3-1.5-3.3-3.3v-31.7c0-1.8,1.5-3.3,3.3-3.3s3.3,1.5,3.3,3.3v31.7
				C377.9-789.6,376.4-788.1,374.6-788.1z"/>
		</g>
		<circle style="fill:#BBDE73;" cx="374.6" cy="-791.4" r="3.5"/>
	</g>
	<text transform="matrix(1 0 0 1 344.5643 -1008.5963)" style="fill:#FFFFFF; font-family:'SegoeUI'; font-size:12px;">Get Started</text>
	<text transform="matrix(1 0 0 1 428.9235 -1008.5963)" style="fill:#FFFFFF; font-family:'SegoeUI'; font-size:12px;">What&apos;s New</text>
	<text transform="matrix(1 0 0 1 522.5936 -1008.5963)" style="fill:#FFFFFF; font-family:'SegoeUI'; font-size:12px;">Tutorials</text>
	<circle style="fill:none;stroke:#FFFFFF;stroke-width:4;stroke-miterlimit:10;" cx="545.3" cy="-963.2" r="32"/>
	<path style="fill:#FFFFFF;" d="M460.8-942.8c-2.2,0-4-1.8-4-4v-12.1h-12.1c-2.2,0-4-1.8-4-4s1.8-4,4-4h12.1V-979c0-2.2,1.8-4,4-4
		c2.2,0,4,1.8,4,4v12.1h12.1c2.2,0,4,1.8,4,4s-1.8,4-4,4h-12.1v12.1C464.9-944.6,463.1-942.8,460.8-942.8z"/>
	<path style="fill:#FFFFFF;" d="M477.2-965.6h-13.4V-979c0-1.5-1.2-2.7-2.7-2.7s-2.7,1.2-2.7,2.7v13.4H445c-1.5,0-2.7,1.2-2.7,2.7
		c0,1.5,1.2,2.7,2.7,2.7h13.4v13.4c0,1.5,1.2,2.7,2.7,2.7s2.7-1.2,2.7-2.7v-13.4h13.4c1.5,0,2.7-1.2,2.7-2.7
		C479.8-964.4,478.6-965.6,477.2-965.6z"/>
	<circle style="fill:none;stroke:#FFFFFF;stroke-width:4;stroke-miterlimit:10;" cx="461.1" cy="-963.2" r="32"/>
	<path style="fill:#FFFFFF;" d="M483.4-977.1c-5,0-9-4-9-9s4-9,9-9c5,0,9,4,9,9S488.4-977.1,483.4-977.1z"/>
	<circle style="fill:#BBDE73;" cx="483.4" cy="-986.1" r="5.8"/>
	<g>
		<path style="fill:#2E5291;" d="M-58.4-771.3c0,2.9-2.4,5.4-5.4,5.4H-117c-2.9,0-5.4-2.4-5.4-5.4v-53.3c0-2.9,2.4-5.4,5.4-5.4h53.3
			c2.9,0,5.4,2.4,5.4,5.4V-771.3z"/>
	</g>
	<g>
		<path style="fill:none;stroke:#2E5291;stroke-width:4;stroke-miterlimit:10;" d="M210-771c0,2.9-2.4,5.4-5.4,5.4h-53.3
			c-2.9,0-5.4-2.4-5.4-5.4v-53.3c0-2.9,2.4-5.4,5.4-5.4h53.3c2.9,0,5.4,2.4,5.4,5.4V-771z"/>
	</g>
	<g>
		<path style="fill:none;stroke:#FFFFFF;stroke-width:2;stroke-miterlimit:10;" d="M-63.4-775.4c0,2.5-2,4.5-4.5,4.5h-45
			c-2.5,0-4.5-2-4.5-4.5v-45c0-2.5,2-4.5,4.5-4.5h45c2.5,0,4.5,2,4.5,4.5V-775.4z"/>
	</g>
	<g>
		<path style="fill:none;stroke:#FFFFFF;stroke-width:2;stroke-miterlimit:10;" d="M21.8-775.4c0,2.5-2,4.5-4.5,4.5h-45
			c-2.5,0-4.5-2-4.5-4.5v-45c0-2.5,2-4.5,4.5-4.5h45c2.5,0,4.5,2,4.5,4.5V-775.4z"/>
	</g>
	<g>
		<path style="fill:none;stroke:#2E5291;stroke-width:4;stroke-miterlimit:10;" d="M293-771c0,2.9-2.4,5.4-5.4,5.4h-53.3
			c-2.9,0-5.4-2.4-5.4-5.4v-53.3c0-2.9,2.4-5.4,5.4-5.4h53.3c2.9,0,5.4,2.4,5.4,5.4V-771z"/>
	</g>
	<g>
		
			<image style="overflow:visible;opacity:0.75;" width="44" height="44" xlink:href="33862225.png"  transform="matrix(1 0 0 1 -111.8601 -819.3997)">
		</image>
		<g>
			<path style="fill:#FFFFFF;" d="M-90.4-777.8c-2.2,0-4-1.8-4-4v-12.1h-12.1c-2.2,0-4-1.8-4-4s1.8-4,4-4h12.1V-814c0-2.2,1.8-4,4-4
				s4,1.8,4,4v12.1h12.1c2.2,0,4,1.8,4,4s-1.8,4-4,4h-12.1v12.1C-86.4-779.6-88.2-777.8-90.4-777.8z"/>
		</g>
	</g>
	<path style="fill:#2E5291;" d="M-74.3-800.6h-13.4V-814c0-1.5-1.2-2.7-2.7-2.7s-2.7,1.2-2.7,2.7v13.4h-13.4c-1.5,0-2.7,1.2-2.7,2.7
		s1.2,2.7,2.7,2.7h13.4v13.4c0,1.5,1.2,2.7,2.7,2.7s2.7-1.2,2.7-2.7v-13.4h13.4c1.5,0,2.7-1.2,2.7-2.7S-72.8-800.6-74.3-800.6z"/>
	<g>
		<g>
			
				<image style="overflow:visible;opacity:0.75;" width="18" height="18" xlink:href="33862222.png"  transform="matrix(1 0 0 1 -76.3606 -829.1593)">
			</image>
			<g>
				<path style="fill:#FFFFFF;" d="M-63.9-815.6l0.4-1.6l0.1-0.1 M-72.6-825.6h2.4l2.4-3l2.4,3h3.8l-0.8,3.7l2.4,3l-3.4,1.7
					l-0.8,3.7l-3.4-1.7l-3.4,1.7l-0.8-3.7l-3.4-1.7l2.4-3l-0.6-2.8"/>
			</g>
		</g>
		<radialGradient id="SVGID_5_" cx="-67.7925" cy="-821.0824" r="5.5534" gradientUnits="userSpaceOnUse">
			<stop  offset="0" style="stop-color:#BBDE73"/>
			<stop  offset="3.057313e-02" style="stop-color:#A9CC77"/>
			<stop  offset="9.760284e-02" style="stop-color:#88AC7E"/>
			<stop  offset="0.1726" style="stop-color:#6C9084"/>
			<stop  offset="0.2563" style="stop-color:#557989"/>
			<stop  offset="0.3525" style="stop-color:#44678C"/>
			<stop  offset="0.4686" style="stop-color:#375B8F"/>
			<stop  offset="0.6255" style="stop-color:#305491"/>
			<stop  offset="1" style="stop-color:#2E5291"/>
		</radialGradient>
		<polygon style="fill:url(#SVGID_5_);" points="-67.8,-826.6 -66.1,-824.4 -63.3,-824.4 -63.9,-821.7 -62.2,-819.5 -64.7,-818.3 
			-65.3,-815.6 -67.8,-816.8 -70.3,-815.6 -70.9,-818.3 -73.4,-819.5 -71.7,-821.7 -72.3,-824.4 -69.5,-824.4 		"/>
	</g>
	<g>
		<path style="fill:#2E5291;" d="M26.8-771.6c0,2.9-2.4,5.4-5.4,5.4h-53.3c-2.9,0-5.4-2.4-5.4-5.4v-53.3c0-2.9,2.4-5.4,5.4-5.4h53.3
			c2.9,0,5.4,2.4,5.4,5.4V-771.6z"/>
	</g>
	<g>
		<g>
			
				<image style="overflow:visible;opacity:0.75;" width="20" height="27" xlink:href="3386222D.png"  transform="matrix(1 0 0 1 -23.8601 -811.3997)">
			</image>
			<g>
				<path style="fill:#FFFFFF;" d="M-6-787.7c-5.6-4.2-11.2,4.2-16.8,0c0-7,0-14,0-21c5.6,4.2,11.2-4.2,16.8,0
					C-6-801.7-6-794.7-6-787.7z"/>
			</g>
		</g>
		<g>
			
				<image style="overflow:visible;opacity:0.75;" width="20" height="27" xlink:href="3386222E.png"  transform="matrix(1 0 0 1 -5.8601 -811.3997)">
			</image>
			<g>
				<path style="fill:#FFFFFF;" d="M12.4-787.7c-5.6,4.2-11.2-4.2-16.8,0c0-7,0-14,0-21c5.6-4.2,11.2,4.2,16.8,0
					C12.4-801.7,12.4-794.7,12.4-787.7z"/>
			</g>
		</g>
	</g>
	<g>
		<g>
			<path style="fill:#2E5291;" d="M-144.5-771.6c0,2.9-2.4,5.4-5.4,5.4h-53.3c-2.9,0-5.4-2.4-5.4-5.4v-53.3c0-2.9,2.4-5.4,5.4-5.4
				h53.3c2.9,0,5.4,2.4,5.4,5.4V-771.6z"/>
		</g>
		<g>
			<g>
				
					<image style="overflow:visible;opacity:0.75;" width="51" height="48" xlink:href="3386222C.png"  transform="matrix(1 0 0 1 -201.8601 -818.3997)">
				</image>
				<g>
					<g>
						<path style="fill:#FFFFFF;" d="M-176.5-772.3c-13.3,0-24.1-10.8-24.1-24.1c0-8,4-15.5,10.6-20c0.7-0.5,1.4-0.7,2.2-0.7
							c1.3,0,2.6,0.7,3.3,1.8c0.6,0.9,0.8,2,0.6,3c-0.2,1.1-0.8,2-1.7,2.6c-4.4,3-7.1,8-7.1,13.3c0,8.9,7.2,16.1,16.1,16.1
							s16.1-7.2,16.1-16.1c0-5.3-2.6-10.3-7.1-13.3c-0.9-0.6-1.5-1.5-1.7-2.6c-0.2-1.1,0-2.1,0.6-3c0.7-1.1,2-1.8,3.3-1.8
							c0.8,0,1.6,0.2,2.2,0.7c6.7,4.5,10.6,12,10.6,20C-152.4-783.1-163.2-772.3-176.5-772.3z"/>
						<path style="fill:#FFFFFF;" d="M-176.5-773.6c-12.6,0-22.8-10.2-22.8-22.8c0-7.6,3.8-14.6,10-18.9c1.2-0.8,2.9-0.5,3.7,0.7
							c0.8,1.2,0.5,2.9-0.7,3.7c-4.8,3.2-7.7,8.6-7.7,14.4c0,9.6,7.8,17.4,17.4,17.4s17.4-7.8,17.4-17.4c0-5.8-2.9-11.2-7.7-14.4
							c-1.2-0.8-1.5-2.5-0.7-3.7c0.8-1.2,2.5-1.5,3.7-0.7c6.3,4.2,10,11.3,10,18.9C-153.8-783.8-164-773.6-176.5-773.6z"/>
					</g>
					<g>
						<path style="fill:#FFFFFF;" d="M-176.5-772.3c-13.3,0-24.1-10.8-24.1-24.1c0-8,4-15.5,10.6-20c0.7-0.5,1.4-0.7,2.2-0.7
							c1.3,0,2.6,0.7,3.3,1.8c0.6,0.9,0.8,2,0.6,3c-0.2,1.1-0.8,2-1.7,2.6c-4.4,3-7.1,8-7.1,13.3c0,8.9,7.2,16.1,16.1,16.1
							s16.1-7.2,16.1-16.1c0-5.3-2.6-10.3-7.1-13.3c-0.9-0.6-1.5-1.5-1.7-2.6c-0.2-1.1,0-2.1,0.6-3c0.7-1.1,2-1.8,3.3-1.8
							c0.8,0,1.6,0.2,2.2,0.7c6.7,4.5,10.6,12,10.6,20C-152.4-783.1-163.2-772.3-176.5-772.3z"/>
						<path style="fill:#2E5291;" d="M-176.5-773.6c-12.6,0-22.8-10.2-22.8-22.8c0-7.6,3.8-14.6,10-18.9c1.2-0.8,2.9-0.5,3.7,0.7
							c0.8,1.2,0.5,2.9-0.7,3.7c-4.8,3.2-7.7,8.6-7.7,14.4c0,9.6,7.8,17.4,17.4,17.4s17.4-7.8,17.4-17.4c0-5.8-2.9-11.2-7.7-14.4
							c-1.2-0.8-1.5-2.5-0.7-3.7c0.8-1.2,2.5-1.5,3.7-0.7c6.3,4.2,10,11.3,10,18.9C-153.8-783.8-164-773.6-176.5-773.6z"/>
					</g>
				</g>
			</g>
			<g>
				<g>
					
						<image style="overflow:visible;opacity:0.75;" width="11" height="37" xlink:href="33862223.png"  transform="matrix(1 0 0 1 -181.8601 -825.3997)">
					</image>
					<g>
						<g>
							<path style="fill:#FFFFFF;" d="M-176.5-790.4c-2.2,0-4-1.8-4-4v-25.7c0-2.2,1.8-4,4-4s4,1.8,4,4v25.7
								C-172.5-792.2-174.3-790.4-176.5-790.4z"/>
							<path style="fill:#FFFFFF;" d="M-176.5-791.7c-1.5,0-2.7-1.2-2.7-2.7v-25.7c0-1.5,1.2-2.7,2.7-2.7s2.7,1.2,2.7,2.7v25.7
								C-173.8-792.9-175-791.7-176.5-791.7z"/>
						</g>
						<g>
							<path style="fill:#FFFFFF;" d="M-176.5-790.4c-2.2,0-4-1.8-4-4v-25.7c0-2.2,1.8-4,4-4s4,1.8,4,4v25.7
								C-172.5-792.2-174.3-790.4-176.5-790.4z"/>
							<path style="fill:#2E5291;" d="M-176.5-791.7c-1.5,0-2.7-1.2-2.7-2.7v-25.7c0-1.5,1.2-2.7,2.7-2.7s2.7,1.2,2.7,2.7v25.7
								C-173.8-792.9-175-791.7-176.5-791.7z"/>
						</g>
					</g>
				</g>
				<linearGradient id="SVGID_6_" gradientUnits="userSpaceOnUse" x1="-176.5211" y1="-791.7225" x2="-176.5211" y2="-797.0781">
					<stop  offset="0" style="stop-color:#BBDE73"/>
					<stop  offset="7.405663e-02" style="stop-color:#A1C578"/>
					<stop  offset="0.1955" style="stop-color:#7EA280"/>
					<stop  offset="0.3244" style="stop-color:#618586"/>
					<stop  offset="0.4608" style="stop-color:#4A6E8B"/>
					<stop  offset="0.6082" style="stop-color:#3A5E8E"/>
					<stop  offset="0.7745" style="stop-color:#315590"/>
					<stop  offset="1" style="stop-color:#2E5291"/>
				</linearGradient>
				<circle style="fill:url(#SVGID_6_);" cx="-176.5" cy="-794.4" r="2.7"/>
			</g>
		</g>
	</g>
	<text transform="matrix(1 0 0 1 -206.5509 -843.5963)" style="fill:#1E1E1E; font-family:'SegoeUI'; font-size:12px;">Get Started</text>
	<text transform="matrix(1 0 0 1 -122.174 -843.5963)" style="fill:#1E1E1E; font-family:'SegoeUI'; font-size:12px;">What&apos;s New</text>
	<text transform="matrix(1 0 0 1 -27.8515 -843.5963)" style="fill:#1E1E1E; font-family:'SegoeUI'; font-size:12px;">Tutorials</text>
	<g>
		<g>
			<path style="fill:#2E5291;" d="M261.1-785.4c-6.8-5.1-13.7,5.1-20.5,0c0-8.6,0-17.1,0-25.7c6.8,5.1,13.7-5.1,20.5,0
				C261.1-802.5,261.1-793.9,261.1-785.4z"/>
		</g>
		<g>
			<path style="fill:#2E5291;" d="M283.6-785.4c-6.8,5.1-13.7-5.1-20.5,0c0-8.6,0-17.1,0-25.7c6.8-5.1,13.7,5.1,20.5,0
				C283.6-802.5,283.6-793.9,283.6-785.4z"/>
		</g>
	</g>
	<g>
		<path style="fill:#FFFFFF;" d="M91.4-766.2c-16.4,0-29.7-13.3-29.7-29.7c0-9.9,4.9-19.1,13.1-24.7c0.8-0.6,1.8-0.9,2.8-0.9
			c1.7,0,3.2,0.8,4.1,2.2c0.7,1.1,1,2.4,0.8,3.7c-0.3,1.3-1,2.4-2.1,3.2c-5.5,3.7-8.7,9.8-8.7,16.4c0,10.9,8.9,19.8,19.8,19.8
			s19.8-8.9,19.8-19.8c0-6.6-3.3-12.7-8.7-16.4c-1.1-0.7-1.8-1.9-2.1-3.2c-0.3-1.3,0-2.6,0.8-3.7c0.9-1.4,2.5-2.2,4.1-2.2
			c1,0,1.9,0.3,2.8,0.9c8.2,5.5,13.1,14.8,13.1,24.7C121.1-779.5,107.8-766.2,91.4-766.2z"/>
		<path style="fill:#FFFFFF;" d="M91.4-788.6c-2.7,0-5-2.2-5-5v-31.7c0-2.7,2.2-5,5-5s5,2.2,5,5v31.7
			C96.3-790.8,94.1-788.6,91.4-788.6z"/>
		<g>
			<path style="fill:#2E5291;" d="M91.4-767.9c-15.5,0-28.1-12.6-28.1-28.1c0-9.3,4.6-18.1,12.4-23.3c1.5-1,3.6-0.6,4.6,0.9
				c1,1.5,0.6,3.6-0.9,4.6c-5.9,4-9.5,10.7-9.5,17.8c0,11.8,9.6,21.5,21.5,21.5s21.5-9.6,21.5-21.5c0-7.1-3.5-13.8-9.5-17.8
				c-1.5-1-1.9-3.1-0.9-4.6c1-1.5,3.1-1.9,4.6-0.9c7.8,5.2,12.4,13.9,12.4,23.3C119.5-780.5,106.9-767.9,91.4-767.9z"/>
			<path style="fill:#2E5291;" d="M91.4-790.2c-1.8,0-3.3-1.5-3.3-3.3v-31.7c0-1.8,1.5-3.3,3.3-3.3s3.3,1.5,3.3,3.3v31.7
				C94.7-791.7,93.2-790.2,91.4-790.2z"/>
		</g>
		<circle style="fill:#BBDE73;" cx="91.4" cy="-793.5" r="3"/>
	</g>
	<text transform="matrix(1 0 0 1 61.3656 -843.5963)" style="fill:#1E1E1E; font-family:'SegoeUI'; font-size:12px;">Get Started</text>
	<text transform="matrix(1 0 0 1 145.7248 -843.5963)" style="fill:#1E1E1E; font-family:'SegoeUI'; font-size:12px;">What&apos;s New</text>
	<text transform="matrix(1 0 0 1 239.3948 -843.5963)" style="fill:#1E1E1E; font-family:'SegoeUI'; font-size:12px;">Tutorials</text>
	<path style="fill:#2E5291;" d="M177.6-777.8c-2.2,0-4-1.8-4-4v-12.1h-12.1c-2.2,0-4-1.8-4-4s1.8-4,4-4h12.1V-814c0-2.2,1.8-4,4-4
		s4,1.8,4,4v12.1h12.1c2.2,0,4,1.8,4,4s-1.8,4-4,4h-12.1v12.1C181.7-779.6,179.9-777.8,177.6-777.8z"/>
	<path style="fill:#2E5291;" d="M194-800.6h-13.4V-814c0-1.5-1.2-2.7-2.7-2.7s-2.7,1.2-2.7,2.7v13.4h-13.4c-1.5,0-2.7,1.2-2.7,2.7
		c0,1.5,1.2,2.7,2.7,2.7h13.4v13.4c0,1.5,1.2,2.7,2.7,2.7s2.7-1.2,2.7-2.7v-13.4H194c1.5,0,2.7-1.2,2.7-2.7
		C196.6-799.4,195.4-800.6,194-800.6z"/>
	<path style="fill:#FFFFFF;" d="M202.2-811.3c-6,0-10.8-4.8-10.8-10.8s4.8-10.8,10.8-10.8s10.8,4.8,10.8,10.8
		S208.2-811.3,202.2-811.3z"/>
	<circle style="fill:#BBDE73;" cx="202.2" cy="-822.1" r="5.8"/>
	<g>
		<path style="fill:none;stroke:#FFFFFF;stroke-width:4;stroke-miterlimit:10;" d="M494-771c0,2.9-2.4,5.4-5.4,5.4h-53.3
			c-2.9,0-5.4-2.4-5.4-5.4v-53.3c0-2.9,2.4-5.4,5.4-5.4h53.3c2.9,0,5.4,2.4,5.4,5.4V-771z"/>
	</g>
	<g>
		<path style="fill:none;stroke:#FFFFFF;stroke-width:4;stroke-miterlimit:10;" d="M577-771c0,2.9-2.4,5.4-5.4,5.4h-53.3
			c-2.9,0-5.4-2.4-5.4-5.4v-53.3c0-2.9,2.4-5.4,5.4-5.4h53.3c2.9,0,5.4,2.4,5.4,5.4V-771z"/>
	</g>
	<path style="fill:#FFFFFF;" d="M487.2-813.1c-5,0-9-4-9-9s4-9,9-9s9,4,9,9S492.2-813.1,487.2-813.1z"/>
	<circle style="fill:#BBDE73;" cx="487.2" cy="-822.1" r="5.8"/>
	<g>
		<g>
			<path style="fill:#FFFFFF;" d="M544.3-785.4c-6.8-5.1-13.7,5.1-20.5,0c0-8.6,0-17.1,0-25.7c6.8,5.1,13.7-5.1,20.5,0
				C544.3-802.5,544.3-793.9,544.3-785.4z"/>
		</g>
		<g>
			<path style="fill:#FFFFFF;" d="M566.8-785.4c-6.8,5.1-13.7-5.1-20.5,0c0-8.6,0-17.1,0-25.7c6.8-5.1,13.7,5.1,20.5,0
				C566.8-802.5,566.8-793.9,566.8-785.4z"/>
		</g>
	</g>
	<text transform="matrix(1 0 0 1 344.5643 -843.5963)" style="fill:#FFFFFF; font-family:'SegoeUI'; font-size:12px;">Get Started</text>
	<text transform="matrix(1 0 0 1 428.9235 -843.5963)" style="fill:#FFFFFF; font-family:'SegoeUI'; font-size:12px;">What&apos;s New</text>
	<text transform="matrix(1 0 0 1 522.5936 -843.5963)" style="fill:#FFFFFF; font-family:'SegoeUI'; font-size:12px;">Tutorials</text>
	<path style="fill:#FFFFFF;" d="M460.8-777.8c-2.2,0-4-1.8-4-4v-12.1h-12.1c-2.2,0-4-1.8-4-4s1.8-4,4-4h12.1V-814c0-2.2,1.8-4,4-4
		c2.2,0,4,1.8,4,4v12.1h12.1c2.2,0,4,1.8,4,4s-1.8,4-4,4h-12.1v12.1C464.9-779.6,463.1-777.8,460.8-777.8z"/>
	<path style="fill:#FFFFFF;" d="M477.2-800.6h-13.4V-814c0-1.5-1.2-2.7-2.7-2.7s-2.7,1.2-2.7,2.7v13.4H445c-1.5,0-2.7,1.2-2.7,2.7
		c0,1.5,1.2,2.7,2.7,2.7h13.4v13.4c0,1.5,1.2,2.7,2.7,2.7s2.7-1.2,2.7-2.7v-13.4h13.4c1.5,0,2.7-1.2,2.7-2.7
		C479.8-799.4,478.6-800.6,477.2-800.6z"/>
	<text transform="matrix(1 0 0 1 -229.5568 -1050.5963)" style="fill:#1E1E1E; font-family:'SegoeUI-Bold'; font-size:12px;">Circle</text>
	<text transform="matrix(1 0 0 1 -229.5568 -1075.5963)" style="fill:#1E1E1E; font-family:'SegoeUI-Bold'; font-size:12px;">64 x 64</text>
	<text transform="matrix(1 0 0 1 -229.5568 -887.5963)" style="fill:#1E1E1E; font-family:'SegoeUI-Bold'; font-size:12px;">Square</text>
	<text transform="matrix(1 0 0 1 -173.5568 -1075.5963)" style="fill:#1E1E1E; font-family:'SegoeUI-Italic'; font-size:12px;">For review purposes only. Design is not finalized</text>
	<g>
		<path style="fill:none;stroke:#FFFFFF;stroke-width:2;stroke-miterlimit:10;" d="M21.8-775.4c0,2.5-2,4.5-4.5,4.5h-45
			c-2.5,0-4.5-2-4.5-4.5v-45c0-2.5,2-4.5,4.5-4.5h45c2.5,0,4.5,2,4.5,4.5V-775.4z"/>
	</g>
	<text transform="matrix(1 0 0 1 -238.7274 -468.8923)"><tspan x="0" y="0" style="fill:#1E1E1E; font-family:'SegoeUI'; font-size:12px;">96 x 96</tspan><tspan x="0" y="13.2" style="fill:#1E1E1E; font-family:'SegoeUI'; font-size:12px;">Doc UI size</tspan></text>
	<text transform="matrix(1 0 0 1 -238.7274 -425.8923)"><tspan x="0" y="0" style="fill:#1E1E1E; font-family:'SegoeUI'; font-size:12px;">Outside stroke:</tspan><tspan x="0" y="13.2" style="fill:#1E1E1E; font-family:'SegoeUI'; font-size:12px;">5 px (inside)</tspan></text>
	<text transform="matrix(1 0 0 1 31.4623 -459.5589)"><tspan x="0" y="0" style="fill:#1E1E1E; font-family:'SegoeUI'; font-size:11px;">Outside stroke:</tspan><tspan x="7.3" y="13.2" style="fill:#1E1E1E; font-family:'SegoeUI'; font-size:11px;">5 px (inside)</tspan><tspan x="19.1" y="26.4" style="fill:#1E1E1E; font-family:'SegoeUI'; font-size:11px;">88 x 88</tspan></text>
	<text transform="matrix(1 0 0 1 134.5395 -453.3892)" style="fill:#1E1E1E; font-family:'SegoeUI'; font-size:11px;">Detail: 14px</text>
	<text transform="matrix(1 0 0 1 -238.7274 -380.8923)"><tspan x="0" y="0" style="fill:#1E1E1E; font-family:'SegoeUI'; font-size:12px;">Offset stroke:</tspan><tspan x="0" y="13.2" style="fill:#1E1E1E; font-family:'SegoeUI'; font-size:12px;">2 px</tspan></text>
	<text transform="matrix(1 0 0 1 32.7658 -348.6524)"><tspan x="0" y="0" style="fill:#1E1E1E; font-family:'SegoeUI'; font-size:12px;">Offset stroke:</tspan><tspan x="24.1" y="13.2" style="fill:#1E1E1E; font-family:'SegoeUI'; font-size:12px;">4 px</tspan><tspan x="17.9" y="26.4" style="fill:#1E1E1E; font-family:'SegoeUI'; font-size:12px;">96 x96</tspan></text>
	<text transform="matrix(1 0 0 1 -238.7274 -332.8923)"><tspan x="0" y="0" style="fill:#1E1E1E; font-family:'SegoeUI'; font-size:12px;">Inside shape</tspan><tspan x="0" y="13.2" style="fill:#1E1E1E; font-family:'SegoeUI'; font-size:12px;">stroke:</tspan><tspan x="0" y="26.4" style="fill:#1E1E1E; font-family:'SegoeUI'; font-size:12px;">10 px</tspan></text>
	<circle style="fill:#BBDE73;" cx="163" cy="-477.1" r="7"/>
	<path style="fill:#2E5291;" d="M163-408.6c-6.1,0-11-4.9-11-11s4.9-11,11-11s11,4.9,11,11S169.1-408.6,163-408.6z"/>
	<circle style="fill:#BBDE73;" cx="163" cy="-419.6" r="7"/>
	<g>
		<g>
			<path style="fill:#FFFFFF;" d="M-58.7-381.9c-26.5,0-48-21.5-48-48s21.5-48,48-48s48,21.5,48,48S-32.3-381.9-58.7-381.9z
				 M-58.7-464.9c-19.3,0-35,15.7-35,35s15.7,35,35,35s35-15.7,35-35S-39.4-464.9-58.7-464.9z"/>
			<path style="fill:#2E5291;" d="M-58.7-468.9c21.5,0,39,17.5,39,39s-17.5,39-39,39s-39-17.5-39-39S-80.2-468.9-58.7-468.9
				 M-58.7-473.9c-24.3,0-44,19.7-44,44s19.7,44,44,44s44-19.7,44-44S-34.4-473.9-58.7-473.9L-58.7-473.9z"/>
		</g>
		<g>
			<path style="fill:#FFFFFF;" d="M-28.9-448.2c-6.1,0-11-4.9-11-11s4.9-11,11-11s11,4.9,11,11S-22.9-448.2-28.9-448.2z"/>
			<circle style="fill:#BBDE73;" cx="-28.9" cy="-459.2" r="7"/>
		</g>
	</g>
	<g>
		<g>
			<path style="fill:#2E5291;" d="M694.9-411.7c-2.2,0-4.2-0.7-6-2.1c-0.4-0.3-0.6-0.7-0.6-1.2v-30.4c0-0.6,0.3-1.1,0.8-1.3
				c0.2-0.1,0.4-0.2,0.7-0.2c0.3,0,0.6,0.1,0.9,0.3c1.3,1,2.7,1.5,4.2,1.5c2.1,0,4.2-0.8,6.5-1.7c2.4-0.9,4.9-1.9,7.6-1.9
				c2.2,0,4.2,0.7,6,2.1c0.4,0.3,0.6,0.7,0.6,1.2v30.4c0,0.6-0.3,1.1-0.8,1.3c-0.2,0.1-0.4,0.2-0.7,0.2c-0.3,0-0.6-0.1-0.9-0.3
				c-1.3-1-2.7-1.5-4.2-1.5c-2.1,0-4.2,0.8-6.5,1.7C700-412.6,697.5-411.7,694.9-411.7L694.9-411.7z"/>
			<path style="fill:#FFFFFF;" d="M708.9-447.1c1.7,0,3.4,0.5,5.1,1.8c0,10.1,0,20.3,0,30.4c-1.7-1.3-3.4-1.8-5.1-1.8
				c-4.7,0-9.4,3.5-14.1,3.5c-1.7,0-3.4-0.5-5.1-1.8c0-10.1,0-20.3,0-30.4c1.7,1.3,3.4,1.8,5.1,1.8
				C699.5-443.6,704.2-447.1,708.9-447.1 M708.9-450.1C708.9-450.1,708.9-450.1,708.9-450.1c-2.9,0-5.5,1-8.1,1.9
				c-2.1,0.8-4.2,1.6-6,1.6c-1.2,0-2.3-0.4-3.3-1.2c-0.5-0.4-1.2-0.6-1.8-0.6c-0.5,0-0.9,0.1-1.3,0.3c-1,0.5-1.7,1.5-1.7,2.7v30.4
				c0,0.9,0.4,1.8,1.2,2.4c2.1,1.6,4.4,2.4,6.9,2.4c2.9,0,5.5-1,8.1-1.9c2.1-0.8,4.2-1.6,6-1.6c1.2,0,2.3,0.4,3.3,1.2
				c0.5,0.4,1.2,0.6,1.8,0.6c0.5,0,0.9-0.1,1.3-0.3c1-0.5,1.7-1.5,1.7-2.7v-30.4c0-0.9-0.4-1.8-1.2-2.4
				C713.8-449.4,711.4-450.1,708.9-450.1L708.9-450.1z"/>
		</g>
		<g>
			<path style="fill:#2E5291;" d="M736.6-411.7c-2.6,0-5.1-0.9-7.6-1.9c-2.3-0.9-4.4-1.7-6.5-1.7c-1.6,0-2.9,0.5-4.2,1.5
				c-0.3,0.2-0.6,0.3-0.9,0.3c-0.2,0-0.5-0.1-0.7-0.2c-0.5-0.3-0.8-0.8-0.8-1.3v-30.4c0-0.5,0.2-0.9,0.6-1.2c1.8-1.4,3.8-2.1,6-2.1
				c2.6,0,5.1,0.9,7.6,1.9c2.3,0.9,4.4,1.7,6.5,1.7c1.6,0,2.9-0.5,4.2-1.5c0.3-0.2,0.6-0.3,0.9-0.3c0.2,0,0.5,0.1,0.7,0.2
				c0.5,0.3,0.8,0.8,0.8,1.3v30.4c0,0.5-0.2,0.9-0.6,1.2C740.8-412.4,738.8-411.7,736.6-411.7z"/>
			<path style="fill:#FFFFFF;" d="M722.5-447.1c4.7,0,9.4,3.5,14.1,3.5c1.7,0,3.4-0.5,5.1-1.8c0,10.1,0,20.3,0,30.4
				c-1.7,1.3-3.4,1.8-5.1,1.8c-4.7,0-9.4-3.5-14.1-3.5c-1.7,0-3.4,0.5-5.1,1.8c0-10.1,0-20.3,0-30.4
				C719.1-446.7,720.8-447.1,722.5-447.1 M722.5-450.1c-2.5,0-4.9,0.8-6.9,2.4c-0.8,0.6-1.2,1.5-1.2,2.4v30.4c0,1.1,0.6,2.2,1.7,2.7
				c0.4,0.2,0.9,0.3,1.3,0.3c0.6,0,1.3-0.2,1.8-0.6c1.1-0.8,2.1-1.2,3.3-1.2c1.8,0,3.8,0.8,6,1.6c2.6,1,5.2,1.9,8.1,1.9
				c2.5,0,4.9-0.8,6.9-2.4c0.8-0.6,1.2-1.5,1.2-2.4v-30.4c0-1.1-0.6-2.2-1.7-2.7c-0.4-0.2-0.9-0.3-1.3-0.3c-0.6,0-1.3,0.2-1.8,0.6
				c-1.1,0.8-2.1,1.2-3.3,1.2c-1.8,0-3.8-0.8-6-1.6C728-449.2,725.4-450.1,722.5-450.1L722.5-450.1z"/>
		</g>
		<g>
			<path style="fill:#FFFFFF;" d="M715.7-382.2c-26.5,0-48-21.5-48-48s21.5-48,48-48s48,21.5,48,48S742.2-382.2,715.7-382.2z
				 M715.7-465.2c-19.3,0-35,15.7-35,35s15.7,35,35,35s35-15.7,35-35S735-465.2,715.7-465.2z"/>
			<path style="fill:#2E5291;" d="M715.7-469.2c21.5,0,39,17.5,39,39s-17.5,39-39,39s-39-17.5-39-39S694.2-469.2,715.7-469.2
				 M715.7-474.2c-24.3,0-44,19.7-44,44s19.7,44,44,44s44-19.7,44-44S740-474.2,715.7-474.2L715.7-474.2z"/>
		</g>
	</g>
	<g>
		<path style="fill:#2E5291;" d="M146.4-104.5c-2.2,0-4.2-0.7-6-2.1c-0.4-0.3-0.6-0.7-0.6-1.2v-30.4c0-0.6,0.3-1.1,0.8-1.3
			c0.2-0.1,0.4-0.2,0.7-0.2c0.3,0,0.6,0.1,0.9,0.3c1.3,1,2.7,1.5,4.2,1.5c2.1,0,4.2-0.8,6.5-1.7c2.4-0.9,4.9-1.9,7.6-1.9
			c2.2,0,4.2,0.7,6,2.1c0.4,0.3,0.6,0.7,0.6,1.2v30.4c0,0.6-0.3,1.1-0.8,1.3c-0.2,0.1-0.4,0.2-0.7,0.2c-0.3,0-0.6-0.1-0.9-0.3
			c-1.3-1-2.7-1.5-4.2-1.5c-2.1,0-4.2,0.8-6.5,1.7C151.6-105.5,149.1-104.5,146.4-104.5L146.4-104.5z"/>
		<path style="fill:#FFFFFF;" d="M160.5-140c1.7,0,3.4,0.5,5.1,1.8c0,10.1,0,20.3,0,30.4c-1.7-1.3-3.4-1.8-5.1-1.8
			c-4.7,0-9.4,3.5-14.1,3.5c-1.7,0-3.4-0.5-5.1-1.8c0-10.1,0-20.3,0-30.4c1.7,1.3,3.4,1.8,5.1,1.8C151.1-136.4,155.8-140,160.5-140
			 M160.5-143L160.5-143c-2.9,0-5.5,1-8.1,1.9c-2.1,0.8-4.2,1.6-6,1.6c-1.2,0-2.3-0.4-3.3-1.2c-0.5-0.4-1.2-0.6-1.8-0.6
			c-0.5,0-0.9,0.1-1.3,0.3c-1,0.5-1.7,1.5-1.7,2.7v30.4c0,0.9,0.4,1.8,1.2,2.4c2.1,1.6,4.4,2.4,6.9,2.4c2.9,0,5.5-1,8.1-1.9
			c2.1-0.8,4.2-1.6,6-1.6c1.2,0,2.3,0.4,3.3,1.2c0.5,0.4,1.2,0.6,1.8,0.6c0.5,0,0.9-0.1,1.3-0.3c1-0.5,1.7-1.5,1.7-2.7v-30.4
			c0-0.9-0.4-1.8-1.2-2.4C165.4-142.2,163-143,160.5-143L160.5-143z"/>
	</g>
	<g>
		<path style="fill:#2E5291;" d="M188.2-104.5c-2.6,0-5.1-0.9-7.6-1.9c-2.3-0.9-4.4-1.7-6.5-1.7c-1.6,0-2.9,0.5-4.2,1.5
			c-0.3,0.2-0.6,0.3-0.9,0.3c-0.2,0-0.5-0.1-0.7-0.2c-0.5-0.3-0.8-0.8-0.8-1.3v-30.4c0-0.5,0.2-0.9,0.6-1.2c1.8-1.4,3.8-2.1,6-2.1
			c2.6,0,5.1,0.9,7.6,1.9c2.3,0.9,4.4,1.7,6.5,1.7c1.6,0,2.9-0.5,4.2-1.5c0.3-0.2,0.6-0.3,0.9-0.3c0.2,0,0.5,0.1,0.7,0.2
			c0.5,0.3,0.8,0.8,0.8,1.3v30.4c0,0.5-0.2,0.9-0.6,1.2C192.4-105.2,190.4-104.5,188.2-104.5z"/>
		<path style="fill:#FFFFFF;" d="M174.1-140c4.7,0,9.4,3.5,14.1,3.5c1.7,0,3.4-0.5,5.1-1.8c0,10.1,0,20.3,0,30.4
			c-1.7,1.3-3.4,1.8-5.1,1.8c-4.7,0-9.4-3.5-14.1-3.5c-1.7,0-3.4,0.5-5.1,1.8c0-10.1,0-20.3,0-30.4C170.7-139.5,172.4-140,174.1-140
			 M174.1-143c-2.5,0-4.9,0.8-6.9,2.4c-0.8,0.6-1.2,1.5-1.2,2.4v30.4c0,1.1,0.6,2.2,1.7,2.7c0.4,0.2,0.9,0.3,1.3,0.3
			c0.6,0,1.3-0.2,1.8-0.6c1.1-0.8,2.1-1.2,3.3-1.2c1.8,0,3.8,0.8,6,1.6c2.6,1,5.2,1.9,8.1,1.9c2.5,0,4.9-0.8,6.9-2.4
			c0.8-0.6,1.2-1.5,1.2-2.4v-30.4c0-1.1-0.6-2.2-1.7-2.7c-0.4-0.2-0.9-0.3-1.3-0.3c-0.6,0-1.3,0.2-1.8,0.6c-1.1,0.8-2.1,1.2-3.3,1.2
			c-1.8,0-3.8-0.8-6-1.6C179.6-142,177-143,174.1-143L174.1-143z"/>
	</g>
	<g>
		<path style="fill:#FFFFFF;" d="M167.3-75c-26.5,0-48-21.5-48-48s21.5-48,48-48s48,21.5,48,48S193.8-75,167.3-75z M167.3-158
			c-19.3,0-35,15.7-35,35s15.7,35,35,35s35-15.7,35-35S186.6-158,167.3-158z"/>
		<path style="fill:#2E5291;" d="M167.3-162c21.5,0,39,17.5,39,39s-17.5,39-39,39s-39-17.5-39-39S145.8-162,167.3-162 M167.3-167
			c-24.3,0-44,19.7-44,44s19.7,44,44,44s44-19.7,44-44S191.6-167,167.3-167L167.3-167z"/>
	</g>
	<text transform="matrix(1 0 0 1 133.6804 -392.8921)"><tspan x="0" y="0" style="fill:#1E1E1E; font-family:'SegoeUI'; font-size:11px;">Detail offset</tspan><tspan x="19.1" y="13.2" style="fill:#1E1E1E; font-family:'SegoeUI'; font-size:11px;">4 px</tspan></text>
	<text transform="matrix(1 0 0 1 133.6804 -203.1048)"><tspan x="0" y="0" style="fill:#1E1E1E; font-family:'SegoeUI'; font-size:11px;">Detail offset</tspan><tspan x="19.1" y="13.2" style="fill:#1E1E1E; font-family:'SegoeUI'; font-size:11px;">4 px</tspan></text>
	<text transform="matrix(1 0 0 1 134.0027 -296.0308)"><tspan x="0" y="0" style="fill:#1E1E1E; font-family:'SegoeUI'; font-size:11px;">10 pt stroke</tspan><tspan x="-1.3" y="13.2" style="fill:#1E1E1E; font-family:'SegoeUI'; font-size:11px;">45 px length</tspan></text>
	<path style="fill:#FFFFFF;" d="M-59.2-398.6c-5,0-9-4-9-9v-13.5h-13.5c-5,0-9-4-9-9s4-9,9-9h13.5v-13.5c0-5,4-9,9-9s9,4,9,9v13.5
		h13.5c5,0,9,4,9,9s-4,9-9,9h-13.5v13.5C-50.2-402.6-54.3-398.6-59.2-398.6z"/>
	<path style="fill:#2E5291;" d="M-36.7-435.1h-17.5v-17.5c0-2.8-2.2-5-5-5s-5,2.2-5,5v17.5h-17.5c-2.8,0-5,2.2-5,5s2.2,5,5,5h17.5
		v17.5c0,2.8,2.2,5,5,5s5-2.2,5-5v-17.5h17.5c2.8,0,5-2.2,5-5S-34-435.1-36.7-435.1z"/>
	<g>
		
			<line style="fill:none;stroke:#2E5291;stroke-width:10;stroke-linecap:round;stroke-linejoin:round;stroke-miterlimit:10;" x1="164.1" y1="-359.9" x2="164.1" y2="-314.9"/>
		
			<line style="fill:none;stroke:#2E5291;stroke-width:10;stroke-linecap:round;stroke-linejoin:round;stroke-miterlimit:10;" x1="186.6" y1="-337.4" x2="141.6" y2="-337.4"/>
	</g>
	<path style="fill:#FFFFFF;" d="M369.1-422.1c-4.4,0-8-3.6-8-8v-44c0-4.4,3.6-8,8-8s8,3.6,8,8v44
		C377.1-425.7,373.5-422.1,369.1-422.1z"/>
	<path style="fill:#2E5291;" d="M369.1-426.1c-2.2,0-4-1.8-4-4v-44c0-2.2,1.8-4,4-4s4,1.8,4,4v44
		C373.1-427.9,371.3-426.1,369.1-426.1z"/>
	<circle style="fill:none;stroke:#2E5291;stroke-width:8;stroke-miterlimit:10;" cx="509.2" cy="-429.7" r="39"/>
	
		<line style="fill:none;stroke:#2E5291;stroke-width:8;stroke-linecap:round;stroke-linejoin:round;stroke-miterlimit:10;" x1="509.2" y1="-479.1" x2="509.2" y2="-435.5"/>
	<path style="fill:#FFFFFF;" d="M164.1-217.3c-5,0-9-4-9-9v-13.5h-13.5c-5,0-9-4-9-9s4-9,9-9h13.5v-13.5c0-5,4-9,9-9s9,4,9,9v13.5
		h13.5c5,0,9,4,9,9s-4,9-9,9h-13.5v13.5C173.1-221.3,169.1-217.3,164.1-217.3z"/>
	<path style="fill:#2E5291;" d="M186.6-253.8h-17.5v-17.5c0-2.8-2.2-5-5-5s-5,2.2-5,5v17.5h-17.5c-2.8,0-5,2.2-5,5s2.2,5,5,5h17.5
		v17.5c0,2.8,2.2,5,5,5s5-2.2,5-5v-17.5h17.5c2.8,0,5-2.2,5-5S189.4-253.8,186.6-253.8z"/>
	<text transform="matrix(1 0 0 1 -107.662 -485.3867)" style="fill:#1E1E1E; font-family:'SegoeUI'; font-size:11px;">Editable</text>
	<g>
		<path style="fill:#FFFFFF;" d="M-17.9-305.7c-1.4,4.5-5.5,7.7-10.5,7.8c3.3,5.3,5.2,11.6,5.2,18.3c0,19.3-15.7,35-35,35
			s-35-15.7-35-35s15.7-35,35-35c6.9,0,13.4,2,18.8,5.5c0.1-4.9,3.4-9,7.9-10.3c-7.6-5.1-16.8-8.2-26.7-8.2c-26.5,0-48,21.5-48,48
			s21.5,48,48,48s48-21.5,48-48C-10.2-289.3-13.1-298.2-17.9-305.7z"/>
		<path style="fill:none;" d="M-58.2-327.7c-26.5,0-48,21.5-48,48s21.5,48,48,48s48-21.5,48-48S-31.8-327.7-58.2-327.7z
			 M-58.2-314.7c19.3,0,35,15.7,35,35s-15.7,35-35,35s-35-15.7-35-35S-77.5-314.7-58.2-314.7z"/>
		<g>
			<path style="fill:#FFFFFF;" d="M-28.4-298c-6.1,0-11-4.9-11-11s4.9-11,11-11s11,4.9,11,11S-22.4-298-28.4-298z"/>
			<circle style="fill:#BBDE73;" cx="-28.4" cy="-309" r="7"/>
		</g>
		<path style="fill:#FFFFFF;" d="M-28.4-320c-6.1,0-11,4.9-11,11s4.9,11,11,11s11-4.9,11-11S-22.4-320-28.4-320z M-28.4-302
			c-3.9,0-7-3.1-7-7c0-3.9,3.1-7,7-7s7,3.1,7,7C-21.4-305.1-24.6-302-28.4-302z"/>
		<path style="fill:#2E5291;" d="M-20.2-301.7c-1.1,1.3-2.5,2.3-4.1,2.9c3.2,5.7,5,12.2,5,19.1c0,21.5-17.5,39-39,39s-39-17.5-39-39
			s17.5-39,39-39c7.2,0,13.9,2,19.7,5.4c0.7-1.6,1.7-3,3-4c-6.6-4-14.4-6.3-22.7-6.3c-24.3,0-44,19.7-44,44s19.7,44,44,44
			s44-19.7,44-44C-14.2-287.7-16.4-295.3-20.2-301.7z"/>
		<path style="fill:none;" d="M-28.4-320c-6.1,0-11,4.9-11,11s4.9,11,11,11s11-4.9,11-11S-22.4-320-28.4-320z"/>
		<path style="fill:#FFFFFF;" d="M-58.7-248.4c-5,0-9-4-9-9v-13.5h-13.5c-5,0-9-4-9-9s4-9,9-9h13.5v-13.5c0-5,4-9,9-9s9,4,9,9v13.5
			h13.5c5,0,9,4,9,9s-4,9-9,9h-13.5v13.5C-49.7-252.4-53.8-248.4-58.7-248.4z"/>
		<path style="fill:#2E5291;" d="M-36.2-284.9h-17.5v-17.5c0-2.8-2.2-5-5-5s-5,2.2-5,5v17.5h-17.5c-2.8,0-5,2.2-5,5s2.2,5,5,5h17.5
			v17.5c0,2.8,2.2,5,5,5s5-2.2,5-5v-17.5h17.5c2.8,0,5-2.2,5-5S-33.5-284.9-36.2-284.9z"/>
	</g>
	<g>
		<path style="fill:#FFFFFF;" d="M-57.3-148.7c-1.4,4.5-5.5,7.7-10.5,7.8c3.3,5.3,5.2,11.6,5.2,18.3c0,19.3-15.7,35-35,35
			s-35-15.7-35-35s15.7-35,35-35c6.9,0,13.4,2,18.8,5.5c0.1-4.9,3.4-9,7.9-10.3c-7.6-5.1-16.8-8.2-26.7-8.2c-26.5,0-48,21.5-48,48
			s21.5,48,48,48s48-21.5,48-48C-49.6-132.3-52.4-141.2-57.3-148.7z"/>
		<path style="fill:none;" d="M-97.6-170.7c-26.5,0-48,21.5-48,48s21.5,48,48,48s48-21.5,48-48S-71.1-170.7-97.6-170.7z
			 M-97.6-157.7c19.3,0,35,15.7,35,35s-15.7,35-35,35s-35-15.7-35-35S-116.9-157.7-97.6-157.7z"/>
		<g>
			<path style="fill:#FFFFFF;" d="M-67.8-140.9c-6.1,0-11-4.9-11-11s4.9-11,11-11s11,4.9,11,11S-61.7-140.9-67.8-140.9z"/>
			<circle style="fill:#BBDE73;" cx="-68.1" cy="-151.8" r="7"/>
		</g>
		<path style="fill:#FFFFFF;" d="M-67.8-162.9c-6.1,0-11,4.9-11,11s4.9,11,11,11s11-4.9,11-11S-61.7-162.9-67.8-162.9z M-67.8-144.9
			c-3.9,0-7-3.1-7-7c0-3.9,3.1-7,7-7s7,3.1,7,7C-60.8-148.1-63.9-144.9-67.8-144.9z"/>
		<path style="fill:#2E5291;" d="M-59.5-144.7c-1.1,1.3-2.5,2.3-4.1,2.9c3.2,5.7,5,12.2,5,19.1c0,21.5-17.5,39-39,39s-39-17.5-39-39
			s17.5-39,39-39c7.2,0,13.9,2,19.7,5.4c0.7-1.6,1.7-3,3-4c-6.6-4-14.4-6.3-22.7-6.3c-24.3,0-44,19.7-44,44s19.7,44,44,44
			s44-19.7,44-44C-53.6-130.7-55.7-138.2-59.5-144.7z"/>
		<path style="fill:none;" d="M-67.8-162.9c-6.1,0-11,4.9-11,11s4.9,11,11,11s11-4.9,11-11S-61.7-162.9-67.8-162.9z"/>
		<path style="fill:#FFFFFF;" d="M-107.1-100.6v-13.2l-13.2,0c-4.5,0-8.5-3.2-9.2-7.6c-0.8-5.6,3.5-10.4,8.9-10.4h13.5v-13.2
			c0-4.5,3.2-8.5,7.6-9.2c5.6-0.8,10.4,3.5,10.4,8.9v13.5l13.2,0c4.5,0,8.5,3.2,9.2,7.6c0.8,5.6-3.5,10.4-8.9,10.4h-13.5v13.5
			c0,5.4-4.8,9.7-10.4,8.9C-103.9-92.1-107.1-96.1-107.1-100.6z"/>
		<path style="fill:#2E5291;" d="M-75.7-127.8h-17.3l0-17.3c0-2.4-1.6-4.6-4-5.1c-3.2-0.6-6,1.8-6,4.9v17.5h-17.3
			c-2.4,0-4.6,1.6-5.1,4c-0.6,3.2,1.8,6,4.9,6h17.5v17.3c0,2.4,1.6,4.6,4,5.1c3.2,0.6,6-1.8,6-4.9v-17.5h17.5c3.1,0,5.5-2.8,4.9-6
			C-71.1-126.2-73.3-127.8-75.7-127.8z"/>
	</g>
	<rect x="1356.4" y="-487.6" style="fill:#E1EBF5;" width="138" height="125.9"/>
	<g>
		<g>
			<path style="fill:#FFFFFF;" d="M1430.3-381.7c-26.5,0-48-21.5-48-48s21.5-48,48-48s48,21.5,48,48S1456.8-381.7,1430.3-381.7z
				 M1430.3-464.7c-19.3,0-35,15.7-35,35s15.7,35,35,35s35-15.7,35-35S1449.6-464.7,1430.3-464.7z"/>
			<path style="fill:#2E5291;" d="M1430.3-468.7c21.5,0,39,17.5,39,39s-17.5,39-39,39s-39-17.5-39-39S1408.8-468.7,1430.3-468.7
				 M1430.3-473.7c-24.3,0-44,19.7-44,44s19.7,44,44,44s44-19.7,44-44S1454.6-473.7,1430.3-473.7L1430.3-473.7z"/>
		</g>
		<g>
			<path style="fill:#FFFFFF;" d="M1460.1-448c-6.1,0-11-4.9-11-11s4.9-11,11-11s11,4.9,11,11S1466.2-448,1460.1-448z"/>
			<circle style="fill:#BBDE73;" cx="1460.1" cy="-459" r="7"/>
		</g>
		<g>
			<path style="fill:#FFFFFF;" d="M1460.1-448c-6.1,0-11-4.9-11-11s4.9-11,11-11s11,4.9,11,11S1466.2-448,1460.1-448z"/>
			<circle style="fill:#BBDE73;" cx="1460.1" cy="-459" r="7"/>
		</g>
		<g>
			<path style="fill:#FFFFFF;" d="M1460.1-448c-6.1,0-11-4.9-11-11s4.9-11,11-11s11,4.9,11,11S1466.2-448,1460.1-448z"/>
			<circle style="fill:#BBDE73;" cx="1460.1" cy="-459" r="7"/>
		</g>
		<g>
			<path style="fill:#FFFFFF;" d="M1460.1-448c-6.1,0-11-4.9-11-11s4.9-11,11-11s11,4.9,11,11S1466.2-448,1460.1-448z"/>
			<circle style="fill:#BBDE73;" cx="1460.1" cy="-459" r="7"/>
		</g>
		<path style="fill:#FFFFFF;" d="M1429.8-398.4c-5,0-9-4-9-9v-13.5h-13.5c-5,0-9-4-9-9s4-9,9-9h13.5v-13.5c0-5,4-9,9-9s9,4,9,9v13.5
			h13.5c5,0,9,4,9,9s-4,9-9,9h-13.5v13.5C1438.8-402.4,1434.8-398.4,1429.8-398.4z"/>
		<path style="fill:#2E5291;" d="M1452.3-434.9h-17.5v-17.5c0-2.8-2.2-5-5-5s-5,2.2-5,5v17.5h-17.5c-2.8,0-5,2.2-5,5s2.2,5,5,5h17.5
			v17.5c0,2.8,2.2,5,5,5s5-2.2,5-5v-17.5h17.5c2.8,0,5-2.2,5-5S1455.1-434.9,1452.3-434.9z"/>
	</g>
	<text transform="matrix(1 0 0 1 -108.2284 -338.1166)" style="fill:#1E1E1E; font-family:'SegoeUI'; font-size:11px;">Finished</text>
	<text transform="matrix(1 0 0 1 320.338 -485.3867)" style="fill:#1E1E1E; font-family:'SegoeUI'; font-size:11px;">Editable</text>
	<text transform="matrix(1 0 0 1 491.7783 -419.8073)"><tspan x="0" y="0" style="fill:#1E1E1E; font-family:'SegoeUI'; font-size:11px;">78 x 78</tspan><tspan x="-7.8" y="13.2" style="fill:#1E1E1E; font-family:'SegoeUI'; font-size:11px;">8px stroke</tspan></text>
	<text transform="matrix(1 0 0 1 319.7716 -338.1166)" style="fill:#1E1E1E; font-family:'SegoeUI'; font-size:11px;">Finished</text>
	<circle style="fill:#BBDE73;" cx="369.1" cy="-430.1" r="4"/>
	<path style="fill:#FFFFFF;" d="M369.1-235.1c-24.7,0-44.8-20.1-44.8-44.8c0-16.6,9.1-31.8,23.9-39.6c1.1-0.6,2.3-0.9,3.6-0.9
		c2.8,0,5.4,1.6,6.7,4.1c2,3.7,0.6,8.3-3.2,10.3c-9.7,5.1-15.7,15.2-15.7,26.2c0,16.3,13.3,29.6,29.6,29.6s29.6-13.3,29.6-29.6
		c0-11-6-21-15.8-26.2c-3.7-2-5.1-6.6-3.2-10.3c1.3-2.5,3.9-4.1,6.7-4.1c1.2,0,2.5,0.3,3.6,0.9c14.7,7.8,23.9,23,23.9,39.7
		C413.9-255.2,393.8-235.1,369.1-235.1z"/>
	<path style="fill:#2E5291;" d="M369.1-238.9c-22.6,0-41-18.4-41-41c0-15.2,8.4-29.1,21.8-36.3c1.9-1,4.2-0.3,5.2,1.6
		c1,1.9,0.3,4.2-1.6,5.2c-11,5.8-17.8,17.1-17.8,29.5c0,18.4,15,33.4,33.4,33.4s33.4-15,33.4-33.4c0-12.4-6.8-23.7-17.8-29.5
		c-1.9-1-2.6-3.3-1.6-5.2c1-1.9,3.3-2.6,5.2-1.6c13.5,7.1,21.9,21,21.9,36.3C410.1-257.3,391.7-238.9,369.1-238.9z"/>
	<path style="fill:#FFFFFF;" d="M369.1-273.9c-4.2,0-7.6-3.4-7.6-7.6v-42c0-4.2,3.4-7.6,7.6-7.6c4.2,0,7.6,3.4,7.6,7.6v42
		C376.7-277.3,373.3-273.9,369.1-273.9z"/>
	<path style="fill:#2E5291;" d="M369.1-277.7c-2.1,0-3.8-1.7-3.8-3.8v-42c0-2.1,1.7-3.8,3.8-3.8s3.8,1.7,3.8,3.8v42
		C372.9-279.4,371.2-277.7,369.1-277.7z"/>
	<circle style="fill:#BBDE73;" cx="369.1" cy="-281.5" r="3.8"/>
	<path style="fill:#FFFFFF;" d="M41-74.7c-24.7,0-44.8-20.1-44.8-44.8c0-16.6,9.1-31.8,23.9-39.6c1.1-0.6,2.3-0.9,3.6-0.9
		c2.8,0,5.4,1.6,6.7,4.1c2,3.7,0.6,8.3-3.2,10.3c-9.7,5.1-15.7,15.2-15.7,26.2c0,16.3,13.3,29.6,29.6,29.6s29.6-13.3,29.6-29.6
		c0-11-6-21-15.8-26.2c-3.7-2-5.1-6.6-3.2-10.3c1.3-2.5,3.9-4.1,6.7-4.1c1.2,0,2.5,0.3,3.6,0.9c14.7,7.8,23.9,23,23.9,39.7
		C85.9-94.8,65.8-74.7,41-74.7z"/>
	<path style="fill:#2E5291;" d="M41-78.5c-22.6,0-41-18.4-41-41c0-15.2,8.4-29.1,21.8-36.3c1.9-1,4.2-0.3,5.2,1.6
		c1,1.9,0.3,4.2-1.6,5.2c-11,5.8-17.8,17.1-17.8,29.5c0,18.4,15,33.4,33.4,33.4s33.4-15,33.4-33.4c0-12.4-6.8-23.7-17.8-29.5
		c-1.9-1-2.6-3.3-1.6-5.2c1-1.9,3.3-2.6,5.2-1.6c13.5,7.1,21.9,21,21.9,36.3C82.1-96.9,63.6-78.5,41-78.5z"/>
	<path style="fill:#FFFFFF;" d="M41-113.4c-4.2,0-7.6-3.4-7.6-7.6v-42c0-4.2,3.4-7.6,7.6-7.6s7.6,3.4,7.6,7.6v42
		C48.7-116.8,45.2-113.4,41-113.4z"/>
	<path style="fill:#2E5291;" d="M41-117.2c-2.1,0-3.8-1.7-3.8-3.8v-42c0-2.1,1.7-3.8,3.8-3.8c2.1,0,3.8,1.7,3.8,3.8v42
		C44.8-118.9,43.1-117.2,41-117.2z"/>
	<circle style="fill:#BBDE73;" cx="41" cy="-121.1" r="3.8"/>
	<g>
		<g>
			<path style="fill:#404040;" d="M148.1,66.7c-2.2,0-4.2-0.7-6-2.1l-0.6-0.5V30l2.4,1.8c1.3,1,2.7,1.5,4.2,1.5
				c2.1,0,4.2-0.8,6.5-1.7c2.4-0.9,4.9-1.9,7.6-1.9c2.2,0,4.2,0.7,6,2.1l0.6,0.5v34.2l-2.4-1.8c-1.3-1-2.7-1.5-4.2-1.5
				c-2.1,0-4.2,0.8-6.5,1.7C153.2,65.8,150.7,66.7,148.1,66.7C148.1,66.7,148.1,66.7,148.1,66.7z"/>
		</g>
		<g>
			<path style="fill:#FFFFFF;" d="M162.2,31.3c1.7,0,3.4,0.5,5.1,1.8c0,10.1,0,20.3,0,30.4c-1.7-1.3-3.4-1.8-5.1-1.8
				c-4.7,0-9.4,3.5-14.1,3.5c-1.7,0-3.4-0.5-5.1-1.8c0-10.1,0-20.3,0-30.4c1.7,1.3,3.4,1.8,5.1,1.8
				C152.8,34.8,157.5,31.3,162.2,31.3 M140,27v6v30.4V65l1.2,0.9c2.1,1.6,4.4,2.4,6.9,2.4c2.9,0,5.5-1,8.1-1.9
				c2.1-0.8,4.2-1.6,6-1.6c1.2,0,2.3,0.4,3.3,1.2l4.8,3.6v-6V33v-1.5l-1.2-0.9c-2.1-1.6-4.4-2.4-6.9-2.4h0c-2.9,0-5.5,1-8.1,1.9
				c-2.1,0.8-4.2,1.6-6,1.6c-1.2,0-2.3-0.4-3.3-1.2L140,27L140,27z"/>
		</g>
	</g>
	<g>
		<g>
			<path style="fill:#404040;" d="M189.8,66.7c-2.6,0-5.1-0.9-7.6-1.9c-2.3-0.9-4.4-1.7-6.5-1.7c-1.6,0-2.9,0.5-4.2,1.5l-2.4,1.8
				V32.3l0.6-0.5c1.8-1.4,3.8-2.1,6-2.1c2.6,0,5.1,0.9,7.6,1.9c2.3,0.9,4.4,1.7,6.5,1.7c1.6,0,2.9-0.5,4.2-1.5l2.4-1.8v34.2
				l-0.6,0.5C194,66.1,192,66.7,189.8,66.7z"/>
		</g>
		<g>
			<path style="fill:#FFFFFF;" d="M175.8,31.3c4.7,0,9.4,3.5,14.1,3.5c1.7,0,3.4-0.5,5.1-1.8c0,10.1,0,20.3,0,30.4
				c-1.7,1.3-3.4,1.8-5.1,1.8c-4.7,0-9.4-3.5-14.1-3.5c-1.7,0-3.4,0.5-5.1,1.8c0-10.1,0-20.3,0-30.4C172.3,31.8,174,31.3,175.8,31.3
				 M198,27l-4.8,3.6c-1.1,0.8-2.1,1.2-3.3,1.2c-1.8,0-3.8-0.8-6-1.6c-2.6-1-5.2-1.9-8.1-1.9c-2.5,0-4.9,0.8-6.9,2.4l-1.2,0.9V33
				v30.4v6l4.8-3.6c1.1-0.8,2.1-1.2,3.3-1.2c1.8,0,3.8,0.8,6,1.6c2.6,1,5.2,1.9,8.1,1.9c2.5,0,4.9-0.8,6.9-2.4L198,65v-1.5V33V27
				L198,27z"/>
		</g>
	</g>
	<g>
		<path style="fill:#FFFFFF;" d="M169,96.3c-26.5,0-48-21.5-48-48s21.5-48,48-48s48,21.5,48,48S195.4,96.3,169,96.3z M169,13.3
			c-19.3,0-35,15.7-35,35s15.7,35,35,35s35-15.7,35-35S188.3,13.3,169,13.3z"/>
		<path style="fill:#404040;" d="M169,9.3c21.5,0,39,17.5,39,39s-17.5,39-39,39s-39-17.5-39-39S147.4,9.3,169,9.3 M169,4.3
			c-24.3,0-44,19.7-44,44s19.7,44,44,44s44-19.7,44-44S193.3,4.3,169,4.3L169,4.3z"/>
	</g>
	<g>
		<g>
			<path style="fill:#404040;" d="M696.5-305.2c-2.2,0-4.2-0.7-6-2.1l-0.6-0.5v-34.2l2.4,1.8c1.3,1,2.7,1.5,4.2,1.5
				c2.1,0,4.2-0.8,6.5-1.7c2.4-0.9,4.9-1.9,7.6-1.9c2.2,0,4.2,0.7,6,2.1l0.6,0.5v34.2l-2.4-1.8c-1.3-1-2.7-1.5-4.2-1.5
				c-2.1,0-4.2,0.8-6.5,1.7C701.6-306.1,699.1-305.2,696.5-305.2C696.5-305.2,696.5-305.2,696.5-305.2z"/>
		</g>
		<g>
			<path style="fill:#FFFFFF;" d="M710.6-340.6c1.7,0,3.4,0.5,5.1,1.8c0,10.1,0,20.3,0,30.4c-1.7-1.3-3.4-1.8-5.1-1.8
				c-4.7,0-9.4,3.5-14.1,3.5c-1.7,0-3.4-0.5-5.1-1.8c0-10.1,0-20.3,0-30.4c1.7,1.3,3.4,1.8,5.1,1.8
				C701.2-337.1,705.9-340.6,710.6-340.6 M688.4-344.9v6v30.4v1.5l1.2,0.9c2.1,1.6,4.4,2.4,6.9,2.4c2.9,0,5.5-1,8.1-1.9
				c2.1-0.8,4.2-1.6,6-1.6c1.2,0,2.3,0.4,3.3,1.2l4.8,3.6v-6v-30.4v-1.5l-1.2-0.9c-2.1-1.6-4.4-2.4-6.9-2.4h0c-2.9,0-5.5,1-8.1,1.9
				c-2.1,0.8-4.2,1.6-6,1.6c-1.2,0-2.3-0.4-3.3-1.2L688.4-344.9L688.4-344.9z"/>
		</g>
	</g>
	<g>
		<g>
			<path style="fill:#404040;" d="M738.2-305.2c-2.6,0-5.1-0.9-7.6-1.9c-2.3-0.9-4.4-1.7-6.5-1.7c-1.6,0-2.9,0.5-4.2,1.5l-2.4,1.8
				v-34.2l0.6-0.5c1.8-1.4,3.8-2.1,6-2.1c2.6,0,5.1,0.9,7.6,1.9c2.3,0.9,4.4,1.7,6.5,1.7c1.6,0,2.9-0.5,4.2-1.5l2.4-1.8v34.2
				l-0.6,0.5C742.4-305.9,740.4-305.2,738.2-305.2z"/>
		</g>
		<g>
			<path style="fill:#FFFFFF;" d="M724.2-340.6c4.7,0,9.4,3.5,14.1,3.5c1.7,0,3.4-0.5,5.1-1.8c0,10.1,0,20.3,0,30.4
				c-1.7,1.3-3.4,1.8-5.1,1.8c-4.7,0-9.4-3.5-14.1-3.5c-1.7,0-3.4,0.5-5.1,1.8c0-10.1,0-20.3,0-30.4
				C720.7-340.2,722.5-340.6,724.2-340.6 M746.4-344.9l-4.8,3.6c-1.1,0.8-2.1,1.2-3.3,1.2c-1.8,0-3.8-0.8-6-1.6
				c-2.6-1-5.2-1.9-8.1-1.9c-2.5,0-4.9,0.8-6.9,2.4l-1.2,0.9v1.5v30.4v6l4.8-3.6c1.1-0.8,2.1-1.2,3.3-1.2c1.8,0,3.8,0.8,6,1.6
				c2.6,1,5.2,1.9,8.1,1.9c2.5,0,4.9-0.8,6.9-2.4l1.2-0.9v-1.5v-30.4V-344.9L746.4-344.9z"/>
		</g>
	</g>
	<g>
		<g>
			<path style="fill:#404040;" d="M806.2-434.9c-2.2,0-4.2-0.7-6-2.1l-0.6-0.5v-34.2l2.4,1.8c1.3,1,2.7,1.5,4.2,1.5
				c2.1,0,4.2-0.8,6.5-1.7c2.4-0.9,4.9-1.9,7.6-1.9c2.2,0,4.2,0.7,6,2.1l0.6,0.5v34.2l-2.4-1.8c-1.3-1-2.7-1.5-4.2-1.5
				c-2.1,0-4.2,0.8-6.5,1.7C811.4-435.9,808.9-434.9,806.2-434.9C806.2-434.9,806.2-434.9,806.2-434.9z"/>
		</g>
		<g>
			<path style="fill:#FFFFFF;" d="M820.3-470.4c1.7,0,3.4,0.5,5.1,1.8c0,10.1,0,20.3,0,30.4c-1.7-1.3-3.4-1.8-5.1-1.8
				c-4.7,0-9.4,3.5-14.1,3.5c-1.7,0-3.4-0.5-5.1-1.8c0-10.1,0-20.3,0-30.4c1.7,1.3,3.4,1.8,5.1,1.8
				C810.9-466.8,815.6-470.4,820.3-470.4 M798.1-474.6v6v30.4v1.5l1.2,0.9c2.1,1.6,4.4,2.4,6.9,2.4c2.9,0,5.5-1,8.1-1.9
				c2.1-0.8,4.2-1.6,6-1.6c1.2,0,2.3,0.4,3.3,1.2l4.8,3.6v-6v-30.4v-1.5l-1.2-0.9c-2.1-1.6-4.4-2.4-6.9-2.4h0c-2.9,0-5.5,1-8.1,1.9
				c-2.1,0.8-4.2,1.6-6,1.6c-1.2,0-2.3-0.4-3.3-1.2L798.1-474.6L798.1-474.6z"/>
		</g>
	</g>
	<g>
		<g>
			<path style="fill:#404040;" d="M848-434.9c-2.6,0-5.1-0.9-7.6-1.9c-2.3-0.9-4.4-1.7-6.5-1.7c-1.6,0-2.9,0.5-4.2,1.5l-2.4,1.8
				v-34.2l0.6-0.5c1.8-1.4,3.8-2.1,6-2.1c2.6,0,5.1,0.9,7.6,1.9c2.3,0.9,4.4,1.7,6.5,1.7c1.6,0,2.9-0.5,4.2-1.5l2.4-1.8v34.2
				L854-437C852.1-435.6,850.2-434.9,848-434.9z"/>
		</g>
		<g>
			<path style="fill:#FFFFFF;" d="M833.9-470.4c4.7,0,9.4,3.5,14.1,3.5c1.7,0,3.4-0.5,5.1-1.8c0,10.1,0,20.3,0,30.4
				c-1.7,1.3-3.4,1.8-5.1,1.8c-4.7,0-9.4-3.5-14.1-3.5c-1.7,0-3.4,0.5-5.1,1.8c0-10.1,0-20.3,0-30.4
				C830.5-469.9,832.2-470.4,833.9-470.4 M856.1-474.6l-4.8,3.6c-1.1,0.8-2.1,1.2-3.3,1.2c-1.8,0-3.8-0.8-6-1.6
				c-2.6-1-5.2-1.9-8.1-1.9c-2.5,0-4.9,0.8-6.9,2.4l-1.2,0.9v1.5v30.4v6l4.8-3.6c1.1-0.8,2.1-1.2,3.3-1.2c1.8,0,3.8,0.8,6,1.6
				c2.6,1,5.2,1.9,8.1,1.9c2.5,0,4.9-0.8,6.9-2.4l1.2-0.9v-1.5v-30.4V-474.6L856.1-474.6z"/>
		</g>
	</g>
	<g>
		<path style="fill:#FFFFFF;" d="M717.4-275.7c-26.5,0-48-21.5-48-48s21.5-48,48-48s48,21.5,48,48S743.8-275.7,717.4-275.7z
			 M717.4-358.7c-19.3,0-35,15.7-35,35s15.7,35,35,35s35-15.7,35-35S736.7-358.7,717.4-358.7z"/>
		<path style="fill:#404040;" d="M717.4-362.7c21.5,0,39,17.5,39,39s-17.5,39-39,39s-39-17.5-39-39S695.9-362.7,717.4-362.7
			 M717.4-367.7c-24.3,0-44,19.7-44,44s19.7,44,44,44s44-19.7,44-44S741.7-367.7,717.4-367.7L717.4-367.7z"/>
	</g>
	<g>
		<path style="fill:#FFFFFF;" d="M-57.3,22.5c-1.4,4.5-5.5,7.7-10.5,7.8c3.3,5.3,5.2,11.6,5.2,18.3c0,19.3-15.7,35-35,35
			s-35-15.7-35-35s15.7-35,35-35c6.9,0,13.4,2,18.8,5.5c0.1-4.9,3.4-9,7.9-10.3c-7.6-5.1-16.8-8.2-26.7-8.2c-26.5,0-48,21.5-48,48
			s21.5,48,48,48s48-21.5,48-48C-49.6,39-52.4,30-57.3,22.5z"/>
		<path style="fill:none;" d="M-97.6,0.6c-26.5,0-48,21.5-48,48s21.5,48,48,48s48-21.5,48-48S-71.1,0.6-97.6,0.6z M-97.6,13.6
			c19.3,0,35,15.7,35,35s-15.7,35-35,35s-35-15.7-35-35S-116.9,13.6-97.6,13.6z"/>
		<g>
			<path style="fill:#FFFFFF;" d="M-67.8,30.3c-6.1,0-11-4.9-11-11s4.9-11,11-11s11,4.9,11,11S-61.7,30.3-67.8,30.3z"/>
			<circle style="fill:#AFB7B9;" cx="-68.1" cy="19.4" r="7"/>
		</g>
		<path style="fill:#FFFFFF;" d="M-67.8,8.3c-6.1,0-11,4.9-11,11s4.9,11,11,11s11-4.9,11-11S-61.7,8.3-67.8,8.3z M-67.8,26.3
			c-3.9,0-7-3.1-7-7c0-3.9,3.1-7,7-7s7,3.1,7,7C-60.8,23.2-63.9,26.3-67.8,26.3z"/>
		<path style="fill:#404040;" d="M-59.5,26.5c-1.1,1.3-2.5,2.3-4.1,2.9c3.2,5.7,5,12.2,5,19.1c0,21.5-17.5,39-39,39s-39-17.5-39-39
			s17.5-39,39-39c7.2,0,13.9,2,19.7,5.4c0.7-1.6,1.7-3,3-4c-6.6-4-14.4-6.3-22.7-6.3c-24.3,0-44,19.7-44,44s19.7,44,44,44
			s44-19.7,44-44C-53.6,40.5-55.7,33-59.5,26.5z"/>
		<path style="fill:none;" d="M-67.8,8.3c-6.1,0-11,4.9-11,11s4.9,11,11,11s11-4.9,11-11S-61.7,8.3-67.8,8.3z"/>
		<path style="fill:#FFFFFF;" d="M-107.1,70.6V57.4l-13.2,0c-4.5,0-8.5-3.2-9.2-7.6c-0.8-5.6,3.5-10.4,8.9-10.4h13.5V26.2
			c0-4.5,3.2-8.5,7.6-9.2c5.6-0.8,10.4,3.5,10.4,8.9v13.5l13.2,0c4.5,0,8.5,3.2,9.2,7.6c0.8,5.6-3.5,10.4-8.9,10.4h-13.5v13.5
			c0,5.4-4.8,9.7-10.4,8.9C-103.9,79.1-107.1,75.1-107.1,70.6z"/>
		<path style="fill:#404040;" d="M-75.7,43.4l-17.3,0l0-17.3c0-2.4-1.6-4.6-4-5.1c-3.2-0.6-6,1.8-6,4.9v17.5l-17.3,0
			c-2.4,0-4.6,1.6-5.1,4c-0.6,3.2,1.8,6,4.9,6h17.5v17.3c0,2.4,1.6,4.6,4,5.1c3.2,0.6,6-1.8,6-4.9V53.4h17.5c3.1,0,5.5-2.8,4.9-6
			C-71.1,45-73.3,43.4-75.7,43.4z"/>
	</g>
	<path style="fill:#FFFFFF;" d="M44.8,96C20.1,96,0,75.9,0,51.2c0-16.6,9.1-31.8,23.9-39.6c1.1-0.6,2.3-0.9,3.6-0.9
		c2.8,0,5.4,1.6,6.7,4.1c2,3.7,0.6,8.3-3.2,10.3c-9.7,5.1-15.7,15.2-15.7,26.2c0,16.3,13.3,29.6,29.6,29.6s29.6-13.3,29.6-29.6
		c0-11-6-21-15.8-26.2c-3.7-2-5.1-6.6-3.2-10.3c1.3-2.5,3.9-4.1,6.7-4.1c1.2,0,2.5,0.3,3.6,0.9c14.7,7.8,23.9,23,23.9,39.7
		C89.7,75.9,69.6,96,44.8,96z"/>
	<path style="fill:#404040;" d="M44.8,92.2c-22.6,0-41-18.4-41-41c0-15.2,8.4-29.1,21.8-36.3c1.9-1,4.2-0.3,5.2,1.6
		c1,1.9,0.3,4.2-1.6,5.2c-11,5.8-17.8,17.1-17.8,29.5c0,18.4,15,33.4,33.4,33.4s33.4-15,33.4-33.4c0-12.4-6.8-23.7-17.8-29.5
		c-1.9-1-2.6-3.3-1.6-5.2c1-1.9,3.3-2.6,5.2-1.6c13.5,7.1,21.9,21,21.9,36.3C85.9,73.8,67.5,92.2,44.8,92.2z"/>
	<path style="fill:#FFFFFF;" d="M44.8,57.2c-4.2,0-7.6-3.4-7.6-7.6v-42c0-4.2,3.4-7.6,7.6-7.6s7.6,3.4,7.6,7.6v42
		C52.5,53.8,49.1,57.2,44.8,57.2z"/>
	<path style="fill:#404040;" d="M44.8,53.4c-2.1,0-3.8-1.7-3.8-3.8v-42c0-2.1,1.7-3.8,3.8-3.8c2.1,0,3.8,1.7,3.8,3.8v42
		C48.7,51.7,46.9,53.4,44.8,53.4z"/>
	<circle style="fill:#AFB7B9;" cx="44.8" cy="49.6" r="3.8"/>
	<g>
		<g>
			<path style="fill:#404040;" d="M88.5,425.2c-2.1,0-4-0.6-5.7-2l-0.4-0.3V390l1.6,1.2c1.4,1,2.9,1.6,4.5,1.6
				c2.2,0,4.4-0.8,6.7-1.7c2.4-0.9,4.9-1.8,7.4-1.8c2.1,0,4,0.6,5.7,2l0.4,0.3v32.9l-1.6-1.2c-1.4-1-2.9-1.6-4.5-1.6
				c-2.2,0-4.4,0.8-6.7,1.7C93.5,424.3,91.1,425.2,88.5,425.2C88.5,425.2,88.5,425.2,88.5,425.2z"/>
		</g>
		<g>
			<path style="fill:#FFFFFF;" d="M102.6,390.3c1.7,0,3.4,0.5,5.1,1.8c0,10.1,0,20.3,0,30.4c-1.7-1.3-3.4-1.8-5.1-1.8
				c-4.7,0-9.4,3.5-14.1,3.5c-1.7,0-3.4-0.5-5.1-1.8c0-10.1,0-20.3,0-30.4c1.7,1.3,3.4,1.8,5.1,1.8
				C93.2,393.8,97.9,390.3,102.6,390.3 M81.4,388v4v30.4v1l0.8,0.6c1.9,1.5,4,2.2,6.3,2.2c2.7,0,5.3-1,7.7-1.9
				c2.2-0.8,4.3-1.6,6.3-1.6c1.5,0,2.7,0.4,3.9,1.4l3.2,2.4v-4V392v-1l-0.8-0.6c-1.9-1.5-4-2.2-6.3-2.2h0c-2.7,0-5.3,1-7.7,1.9
				c-2.2,0.8-4.3,1.6-6.3,1.6c-1.5,0-2.7-0.4-3.9-1.4L81.4,388L81.4,388z"/>
		</g>
	</g>
	<g>
		<g>
			<path style="fill:#404040;" d="M130.3,425.2c-2.5,0-5-0.9-7.4-1.8c-2.3-0.9-4.5-1.7-6.7-1.7c-1.7,0-3.1,0.5-4.5,1.6l-1.6,1.2
				v-32.9l0.4-0.3c1.8-1.3,3.6-2,5.7-2c2.5,0,5,0.9,7.4,1.8c2.3,0.9,4.5,1.7,6.7,1.7c1.7,0,3.1-0.5,4.5-1.6l1.6-1.2V423l-0.4,0.3
				C134.2,424.6,132.4,425.2,130.3,425.2z"/>
		</g>
		<g>
			<path style="fill:#FFFFFF;" d="M116.2,390.3c4.7,0,9.4,3.5,14.1,3.5c1.7,0,3.4-0.5,5.1-1.8c0,10.1,0,20.3,0,30.4
				c-1.7,1.3-3.4,1.8-5.1,1.8c-4.7,0-9.4-3.5-14.1-3.5c-1.7,0-3.4,0.5-5.1,1.8c0-10.1,0-20.3,0-30.4
				C112.8,390.7,114.5,390.3,116.2,390.3 M137.4,388l-3.2,2.4c-1.2,0.9-2.5,1.4-3.9,1.4c-2,0-4.1-0.8-6.3-1.6
				c-2.5-0.9-5-1.9-7.7-1.9c-2.3,0-4.4,0.7-6.3,2.2l-0.8,0.6v1v30.4v4l3.2-2.4c1.2-0.9,2.5-1.4,3.9-1.4c2,0,4.1,0.8,6.3,1.6
				c2.5,0.9,5,1.9,7.7,1.9c2.3,0,4.4-0.7,6.3-2.2l0.8-0.6v-1V392V388L137.4,388z"/>
		</g>
	</g>
	<g>
		<path style="fill:#FFFFFF;" d="M109.4,455.2c-26.5,0-48-21.5-48-48s21.5-48,48-48s48,21.5,48,48S135.9,455.2,109.4,455.2z
			 M109.4,372.2c-19.3,0-35,15.7-35,35s15.7,35,35,35s35-15.7,35-35S128.7,372.2,109.4,372.2z"/>
		<path style="fill:#404040;" d="M109.4,368.2c21.5,0,39,17.5,39,39s-17.5,39-39,39s-39-17.5-39-39S87.9,368.2,109.4,368.2
			 M109.4,363.2c-24.3,0-44,19.7-44,44s19.7,44,44,44s44-19.7,44-44S133.7,363.2,109.4,363.2L109.4,363.2z"/>
	</g>
	<g>
		<path style="fill:#FFFFFF;" d="M-57.3,381.5c-1.4,4.5-5.5,7.7-10.5,7.8c3.3,5.3,5.2,11.6,5.2,18.3c0,19.3-15.7,35-35,35
			s-35-15.7-35-35s15.7-35,35-35c6.9,0,13.4,2,18.8,5.5c0.1-4.9,3.4-9,7.9-10.3c-7.6-5.1-16.8-8.2-26.7-8.2c-26.5,0-48,21.5-48,48
			s21.5,48,48,48s48-21.5,48-48C-49.6,398-52.4,389-57.3,381.5z"/>
		<path style="fill:none;" d="M-97.6,359.6c-26.5,0-48,21.5-48,48s21.5,48,48,48s48-21.5,48-48S-71.1,359.6-97.6,359.6z
			 M-97.6,372.6c19.3,0,35,15.7,35,35s-15.7,35-35,35s-35-15.7-35-35S-116.9,372.6-97.6,372.6z"/>
		<g>
			<path style="fill:#FFFFFF;" d="M-67.8,389.3c-6.1,0-11-4.9-11-11s4.9-11,11-11s11,4.9,11,11S-61.7,389.3-67.8,389.3z"/>
			<circle style="fill:#AFB7B9;" cx="-68.1" cy="378.4" r="7"/>
		</g>
		<path style="fill:#FFFFFF;" d="M-67.8,367.3c-6.1,0-11,4.9-11,11s4.9,11,11,11s11-4.9,11-11S-61.7,367.3-67.8,367.3z M-67.8,385.3
			c-3.9,0-7-3.1-7-7c0-3.9,3.1-7,7-7s7,3.1,7,7C-60.8,382.1-63.9,385.3-67.8,385.3z"/>
		<path style="fill:#404040;" d="M-59.5,385.5c-1.1,1.3-2.5,2.3-4.1,2.9c3.2,5.7,5,12.2,5,19.1c0,21.5-17.5,39-39,39s-39-17.5-39-39
			s17.5-39,39-39c7.2,0,13.9,2,19.7,5.4c0.7-1.6,1.7-3,3-4c-6.6-4-14.4-6.3-22.7-6.3c-24.3,0-44,19.7-44,44s19.7,44,44,44
			s44-19.7,44-44C-53.6,399.5-55.7,392-59.5,385.5z"/>
		<path style="fill:none;" d="M-67.8,367.3c-6.1,0-11,4.9-11,11s4.9,11,11,11s11-4.9,11-11S-61.7,367.3-67.8,367.3z"/>
		<path style="fill:#FFFFFF;" d="M-107.1,429.6v-13.2h-13.2c-4.5,0-8.5-3.2-9.2-7.6c-0.8-5.6,3.5-10.4,8.9-10.4h13.5v-13.2
			c0-4.5,3.2-8.5,7.6-9.2c5.6-0.8,10.4,3.5,10.4,8.9v13.5l13.2,0c4.5,0,8.5,3.2,9.2,7.6c0.8,5.6-3.5,10.4-8.9,10.4h-13.5v13.5
			c0,5.4-4.8,9.7-10.4,8.9C-103.9,438.1-107.1,434.1-107.1,429.6z"/>
		<path style="fill:#404040;" d="M-75.7,402.4l-17.3,0l0-17.3c0-2.4-1.6-4.6-4-5.1c-3.2-0.6-6,1.8-6,4.9v17.5l-17.3,0
			c-2.4,0-4.6,1.6-5.1,4c-0.6,3.2,1.8,6,4.9,6h17.5v17.3c0,2.4,1.6,4.6,4,5.1c3.2,0.6,6-1.8,6-4.9v-17.5h17.5c3.1,0,5.5-2.8,4.9-6
			C-71.1,404-73.3,402.4-75.7,402.4z"/>
	</g>
	<path style="fill:#FFFFFF;" d="M10,455.6c-24.7,0-44.8-20.1-44.8-44.8c0-16.6,9.1-31.8,23.9-39.6c1.1-0.6,2.3-0.9,3.6-0.9
		c2.8,0,5.4,1.6,6.7,4.1c2,3.7,0.6,8.3-3.2,10.3c-9.7,5.1-15.7,15.2-15.7,26.2c0,16.3,13.3,29.6,29.6,29.6s29.6-13.3,29.6-29.6
		c0-11-6-21-15.8-26.2c-3.7-2-5.1-6.6-3.2-10.3c1.3-2.5,3.9-4.1,6.7-4.1c1.2,0,2.5,0.3,3.6,0.9c14.7,7.8,23.9,23,23.9,39.7
		C54.8,435.4,34.7,455.6,10,455.6z"/>
	<path style="fill:#404040;" d="M10,451.7c-22.6,0-41-18.4-41-41c0-15.2,8.4-29.1,21.8-36.3c1.9-1,4.2-0.3,5.2,1.6
		c1,1.9,0.3,4.2-1.6,5.2c-11,5.8-17.8,17.1-17.8,29.5c0,18.4,15,33.4,33.4,33.4s33.4-15,33.4-33.4c0-12.4-6.8-23.7-17.8-29.5
		c-1.9-1-2.6-3.3-1.6-5.2c1-1.9,3.3-2.6,5.2-1.6c13.5,7.1,21.9,21,21.9,36.3C51,433.3,32.6,451.7,10,451.7z"/>
	<path style="fill:#FFFFFF;" d="M10,416.8c-4.2,0-7.6-3.4-7.6-7.6v-42c0-4.2,3.4-7.6,7.6-7.6s7.6,3.4,7.6,7.6v42
		C17.6,413.4,14.2,416.8,10,416.8z"/>
	<path style="fill:#404040;" d="M10,413c-2.1,0-3.8-1.7-3.8-3.8v-42c0-2.1,1.7-3.8,3.8-3.8s3.8,1.7,3.8,3.8v42
		C13.8,411.3,12.1,413,10,413z"/>
	<circle style="fill:#AFB7B9;" cx="10" cy="409.2" r="3.8"/>
	<text transform="matrix(1 0 0 1 639.9373 -534.4893)" style="fill:#1E1E1E; font-family:'SegoeUI-Bold'; font-size:14px;">Tutorials</text>
	<text transform="matrix(1 0 0 1 667.266 -485.3867)" style="fill:#1E1E1E; font-family:'SegoeUI'; font-size:11px;">Editable</text>
	<text transform="matrix(1 0 0 1 801.9224 -424.6147)" style="fill:#1E1E1E; font-family:'SegoeUI'; font-size:11px;">3px stroke</text>
	<rect x="1743" y="-488.7" style="fill:#E1EBF5;" width="188.9" height="130.6"/>
	<rect x="2138" y="-488.7" style="fill:#E1EBF5;" width="188.9" height="130.6"/>
	<g>
		<path style="fill:#FFFFFF;" d="M1831.5-379.4c-25.9,0-47-21.1-47-47c0-17.4,9.6-33.4,25-41.5c1.2-0.6,2.4-0.9,3.7-0.9
			c3,0,5.7,1.6,7.1,4.3c2.1,3.9,0.6,8.8-3.3,10.8c-10.2,5.4-16.5,15.9-16.5,27.4c0,17.1,13.9,31,31,31s31-13.9,31-31
			c0-11.5-6.3-22-16.5-27.4c-3.9-2.1-5.4-6.9-3.3-10.8c1.4-2.6,4.1-4.3,7.1-4.3c1.3,0,2.6,0.3,3.7,0.9c15.4,8.2,25,24.1,25,41.6
			C1878.5-400.5,1857.4-379.4,1831.5-379.4z"/>
		<path style="fill:#2E5291;" d="M1831.5-383.4c-23.7,0-43-19.3-43-43c0-16,8.8-30.5,22.9-38c2-1,4.4-0.3,5.4,1.7
			c1,2,0.3,4.4-1.7,5.4c-11.5,6.1-18.6,18-18.6,30.9c0,19.3,15.7,35,35,35s35-15.7,35-35c0-13-7.1-24.9-18.7-31
			c-2-1-2.7-3.5-1.7-5.4c1-2,3.5-2.7,5.4-1.7c14.1,7.5,22.9,22.1,22.9,38C1874.5-402.7,1855.2-383.4,1831.5-383.4z"/>
		<path style="fill:#FFFFFF;" d="M1831.5-420c-4.4,0-8-3.6-8-8v-44c0-4.4,3.6-8,8-8s8,3.6,8,8v44
			C1839.5-423.6,1835.9-420,1831.5-420z"/>
		<path style="fill:#2E5291;" d="M1831.5-424c-2.2,0-4-1.8-4-4v-44c0-2.2,1.8-4,4-4s4,1.8,4,4v44
			C1835.5-425.8,1833.7-424,1831.5-424z"/>
		<circle style="fill:#BBDE73;" cx="1831.5" cy="-428" r="4"/>
	</g>
	<g>
		<g>
			<path style="fill:#2E5291;" d="M2219.9-411.2c-2.2,0-4.2-0.7-6-2.1c-0.4-0.3-0.6-0.7-0.6-1.2v-30.4c0-0.6,0.3-1.1,0.8-1.3
				c0.2-0.1,0.4-0.2,0.7-0.2c0.3,0,0.6,0.1,0.9,0.3c1.3,1,2.7,1.5,4.2,1.5c2.1,0,4.2-0.8,6.5-1.7c2.4-0.9,4.9-1.9,7.6-1.9
				c2.2,0,4.2,0.7,6,2.1c0.4,0.3,0.6,0.7,0.6,1.2v30.4c0,0.6-0.3,1.1-0.8,1.3c-0.2,0.1-0.4,0.2-0.7,0.2c-0.3,0-0.6-0.1-0.9-0.3
				c-1.3-1-2.7-1.5-4.2-1.5c-2.1,0-4.2,0.8-6.5,1.7C2225-412.2,2222.5-411.2,2219.9-411.2L2219.9-411.2z"/>
			<path style="fill:#FFFFFF;" d="M2233.9-446.7c1.7,0,3.4,0.5,5.1,1.8c0,10.1,0,20.3,0,30.4c-1.7-1.3-3.4-1.8-5.1-1.8
				c-4.7,0-9.4,3.5-14.1,3.5c-1.7,0-3.4-0.5-5.1-1.8c0-10.1,0-20.3,0-30.4c1.7,1.3,3.4,1.8,5.1,1.8
				C2224.5-443.1,2229.2-446.7,2233.9-446.7 M2233.9-449.7L2233.9-449.7c-2.9,0-5.5,1-8.1,1.9c-2.1,0.8-4.2,1.6-6,1.6
				c-1.2,0-2.3-0.4-3.3-1.2c-0.5-0.4-1.2-0.6-1.8-0.6c-0.5,0-0.9,0.1-1.3,0.3c-1,0.5-1.7,1.5-1.7,2.7v30.4c0,0.9,0.4,1.8,1.2,2.4
				c2.1,1.6,4.4,2.4,6.9,2.4c2.9,0,5.5-1,8.1-1.9c2.1-0.8,4.2-1.6,6-1.6c1.2,0,2.3,0.4,3.3,1.2c0.5,0.4,1.2,0.6,1.8,0.6
				c0.5,0,0.9-0.1,1.3-0.3c1-0.5,1.7-1.5,1.7-2.7v-30.4c0-0.9-0.4-1.8-1.2-2.4C2238.8-448.9,2236.4-449.7,2233.9-449.7L2233.9-449.7
				z"/>
		</g>
		<g>
			<path style="fill:#2E5291;" d="M2261.6-411.2c-2.6,0-5.1-0.9-7.6-1.9c-2.3-0.9-4.4-1.7-6.5-1.7c-1.6,0-2.9,0.5-4.2,1.5
				c-0.3,0.2-0.6,0.3-0.9,0.3c-0.2,0-0.5-0.1-0.7-0.2c-0.5-0.3-0.8-0.8-0.8-1.3v-30.4c0-0.5,0.2-0.9,0.6-1.2c1.8-1.4,3.8-2.1,6-2.1
				c2.6,0,5.1,0.9,7.6,1.9c2.3,0.9,4.4,1.7,6.5,1.7c1.6,0,2.9-0.5,4.2-1.5c0.3-0.2,0.6-0.3,0.9-0.3c0.2,0,0.5,0.1,0.7,0.2
				c0.5,0.3,0.8,0.8,0.8,1.3v30.4c0,0.5-0.2,0.9-0.6,1.2C2265.8-411.9,2263.8-411.2,2261.6-411.2z"/>
			<path style="fill:#FFFFFF;" d="M2247.5-446.7c4.7,0,9.4,3.5,14.1,3.5c1.7,0,3.4-0.5,5.1-1.8c0,10.1,0,20.3,0,30.4
				c-1.7,1.3-3.4,1.8-5.1,1.8c-4.7,0-9.4-3.5-14.1-3.5c-1.7,0-3.4,0.5-5.1,1.8c0-10.1,0-20.3,0-30.4
				C2244.1-446.2,2245.8-446.7,2247.5-446.7 M2247.5-449.7c-2.5,0-4.9,0.8-6.9,2.4c-0.8,0.6-1.2,1.5-1.2,2.4v30.4
				c0,1.1,0.6,2.2,1.7,2.7c0.4,0.2,0.9,0.3,1.3,0.3c0.6,0,1.3-0.2,1.8-0.6c1.1-0.8,2.1-1.2,3.3-1.2c1.8,0,3.8,0.8,6,1.6
				c2.6,1,5.2,1.9,8.1,1.9c2.5,0,4.9-0.8,6.9-2.4c0.8-0.6,1.2-1.5,1.2-2.4v-30.4c0-1.1-0.6-2.2-1.7-2.7c-0.4-0.2-0.9-0.3-1.3-0.3
				c-0.6,0-1.3,0.2-1.8,0.6c-1.1,0.8-2.1,1.2-3.3,1.2c-1.8,0-3.8-0.8-6-1.6C2253-448.7,2250.4-449.7,2247.5-449.7L2247.5-449.7z"/>
		</g>
		<g>
			<path style="fill:#FFFFFF;" d="M2240.7-381.7c-26.5,0-48-21.5-48-48s21.5-48,48-48s48,21.5,48,48S2267.2-381.7,2240.7-381.7z
				 M2240.7-464.7c-19.3,0-35,15.7-35,35s15.7,35,35,35s35-15.7,35-35S2260-464.7,2240.7-464.7z"/>
			<path style="fill:#2E5291;" d="M2240.7-468.7c21.5,0,39,17.5,39,39s-17.5,39-39,39s-39-17.5-39-39S2219.2-468.7,2240.7-468.7
				 M2240.7-473.7c-24.3,0-44,19.7-44,44s19.7,44,44,44s44-19.7,44-44S2265-473.7,2240.7-473.7L2240.7-473.7z"/>
		</g>
	</g>
	<text transform="matrix(1 0 0 1 -145.5568 -9.5963)" style="fill:#FFFFFF; font-family:'SegoeUI-Bold'; font-size:14px;">What&apos;s New</text>
	<text transform="matrix(1 0 0 1 -10.6287 -10.7313)" style="fill:#FFFFFF; font-family:'SegoeUI-Bold'; font-size:14px;">Getting Started</text>
	<text transform="matrix(1 0 0 1 120.9537 -10.7313)" style="fill:#FFFFFF; font-family:'SegoeUI-Bold'; font-size:14px;">Tutorials</text>
</g>
<g id="arrows">
</g>
<g id="Text">
	<g id="Windows_Server_New">
	</g>
</g>
<g id="writer_source">
</g>
</svg>
